M48
; DRILL file {KiCad 9.0.1} date 2026-05-11T15:42:01+0900
; FORMAT={-:-/ absolute / inch / decimal}
; #@! TF.CreationDate,2026-05-11T15:42:01+09:00
; #@! TF.GenerationSoftware,Kicad,Pcbnew,9.0.1
; #@! TF.FileFunction,Plated,1,4,PTH
FMAT,2
INCH
; #@! TA.AperFunction,Plated,PTH,ViaDrill
T1C0.0059
; #@! TA.AperFunction,Plated,PTH,ComponentDrill
T2C0.0079
; #@! TA.AperFunction,Plated,PTH,ViaDrill
T3C0.0118
; #@! TA.AperFunction,Plated,PTH,ViaDrill
T4C0.0120
; #@! TA.AperFunction,Plated,PTH,ComponentDrill
T5C0.0240
; #@! TA.AperFunction,Plated,PTH,ComponentDrill
T6C0.0354
%
G90
G05
T1
X-1.4539Y2.6791
X-1.4524Y5.4453
X-1.4441Y5.539
X-1.4421Y5.5772
X-1.4305Y5.0708
X-1.4213Y5.1087
X-1.4197Y5.6039
X-1.4016Y5.1087
X-1.3933Y5.0437
X-1.3819Y5.1087
X-1.3783Y5.5272
X-1.378Y5.5031
X-1.3657Y5.6244
X-1.3657Y5.0189
X-1.3622Y5.3252
X-1.3622Y5.1087
X-1.3591Y5.4394
X-1.3362Y5.5236
X-1.3343Y5.6244
X-1.3248Y5.0382
X-1.3228Y5.3252
X-1.3059Y5.5244
X-1.2988Y5.6252
X-1.2972Y4.9661
X-1.2965Y4.8933
X-1.2929Y3.9122
X-1.2736Y5.2169
X-1.2638Y5.626
X-1.2598Y4.9752
X-1.2433Y3.8815
X-1.2433Y3.8043
X-1.2331Y4.7287
X-1.2295Y5.5228
X-1.2256Y5.6268
X-1.2252Y3.7618
X-1.222Y3.3634
X-1.2217Y2.5169
X-1.2189Y4.5661
X-1.2039Y5.6425
X-1.2035Y4.6177
X-1.1945Y5.5228
X-1.1939Y3.3254
X-1.185Y4.5783
X-1.1748Y5.5331
X-1.1669Y3.2894
X-1.1642Y4.5114
X-1.1437Y5.5327
X-1.1402Y3.2524
X-1.1344Y4.5274
X-1.1213Y4.4681
X-1.1106Y5.5323
X-1.0821Y4.4754
X-1.0693Y5.5323
X-1.0346Y5.5319
X-1.0024Y5.5319
X-0.9929Y4.3764
X-0.9819Y5.6386
X-0.9819Y5.5835
X-0.9819Y5.552
X-0.9815Y5.6146
X-0.9496Y4.4102
X-0.9071Y4.3764
X-0.8693Y4.4091
X-0.8311Y4.4469
X-0.826Y4.377
X-0.7874Y4.4102
X-0.7433Y4.376
X-0.3213Y3.1516
X-0.298Y4.5228
X-0.2618Y3.1949
X-0.2579Y3.2461
X-0.2559Y4.2531
X-0.2284Y2.2633
X-0.2248Y4.215
X-0.2028Y2.0618
X-0.1992Y4.2146
X-0.1772Y2.0614
X-0.1736Y4.2142
X-0.1516Y2.0614
X-0.148Y4.2142
X-0.126Y2.0614
X-0.0748Y1.9055
X-0.0709Y4.2642
X-0.0492Y2.1425
X-0.0488Y1.8374
X-0.0453Y4.4402
X-0.0453Y4.2965
X0.8311Y2.2602
X0.863Y4.352
X1.4039Y3.1203
X1.4449Y3.1203
X1.6075Y3.1203
X1.6484Y3.1199
X1.7291Y4.2142
X2.0181Y3.2059
X2.0839Y2.4185
T2
X-0.7059Y3.2965
X-0.6831Y3.3339
X-0.6831Y3.2591
X-0.6602Y3.2965
T3
X-2.6366Y5.3457
X-2.6366Y5.2457
X-2.6366Y5.1457
X-2.6366Y5.0457
X-2.6366Y4.9457
X-2.6366Y4.8457
X-2.6366Y4.7457
X-2.6366Y4.6457
X-2.6366Y4.5457
X-2.6366Y4.4457
X-2.6366Y4.3457
X-2.6366Y4.2457
X-2.6366Y4.1457
X-2.6366Y4.0457
X-2.6366Y3.9457
X-2.6366Y3.8457
X-2.6366Y3.7457
X-2.6366Y3.6457
X-2.6366Y3.5457
X-2.6366Y3.4457
X-2.6366Y3.3457
X-2.6366Y3.2457
X-2.6366Y3.1457
X-2.6366Y3.0457
X-2.6366Y2.9457
X-2.6366Y2.8457
X-2.6366Y2.7457
X-2.6366Y2.6457
X-2.6366Y2.5457
X-2.6366Y2.4457
X-2.6366Y2.3457
X-2.6366Y2.2457
X-2.6366Y2.1457
X-2.6366Y2.0457
X-2.6366Y1.9457
X-2.6366Y1.8457
X-2.6366Y1.7457
X-2.6366Y1.6457
X-2.6366Y1.5457
X-2.6366Y1.4457
X-2.6366Y1.3457
X-2.6366Y1.2457
X-2.6366Y1.1457
X-2.6366Y1.0457
X-2.6366Y0.9457
X-2.5366Y5.3457
X-2.5366Y5.2457
X-2.5366Y5.1457
X-2.5366Y5.0457
X-2.5366Y4.9457
X-2.5366Y4.8457
X-2.5366Y4.7457
X-2.5366Y4.6457
X-2.5366Y4.5457
X-2.5366Y4.4457
X-2.5366Y4.3457
X-2.5366Y4.2457
X-2.5366Y4.1457
X-2.5366Y4.0457
X-2.5366Y3.9457
X-2.5366Y3.8457
X-2.5366Y3.7457
X-2.5366Y3.6457
X-2.5366Y3.5457
X-2.5366Y3.4457
X-2.5366Y3.3457
X-2.5366Y3.2457
X-2.5366Y3.1457
X-2.5366Y3.0457
X-2.5366Y2.9457
X-2.5366Y2.8457
X-2.5366Y2.7457
X-2.5366Y2.6457
X-2.5366Y2.5457
X-2.5366Y2.4457
X-2.5366Y2.3457
X-2.5366Y2.2457
X-2.5366Y2.1457
X-2.5366Y2.0457
X-2.5366Y1.9457
X-2.5366Y1.8457
X-2.5366Y1.7457
X-2.5366Y1.6457
X-2.5366Y1.5457
X-2.5366Y1.4457
X-2.5366Y1.3457
X-2.5366Y1.2457
X-2.5366Y1.1457
X-2.5366Y1.0457
X-2.5366Y0.9457
X-2.4366Y5.3457
X-2.4366Y5.2457
X-2.4366Y5.1457
X-2.4366Y5.0457
X-2.4366Y4.9457
X-2.4366Y4.8457
X-2.4366Y4.7457
X-2.4366Y4.6457
X-2.4366Y4.5457
X-2.4366Y4.4457
X-2.4366Y4.3457
X-2.4366Y4.2457
X-2.4366Y4.1457
X-2.4366Y4.0457
X-2.4366Y3.9457
X-2.4366Y3.8457
X-2.4366Y3.7457
X-2.4366Y3.6457
X-2.4366Y3.5457
X-2.4366Y3.4457
X-2.4366Y3.3457
X-2.4366Y3.2457
X-2.4366Y3.1457
X-2.4366Y3.0457
X-2.4366Y2.9457
X-2.4366Y2.8457
X-2.4366Y2.7457
X-2.4366Y2.6457
X-2.4366Y2.5457
X-2.4366Y2.4457
X-2.4366Y2.3457
X-2.4366Y2.2457
X-2.4366Y2.1457
X-2.4366Y2.0457
X-2.4366Y1.9457
X-2.4366Y1.8457
X-2.4366Y1.7457
X-2.4366Y1.6457
X-2.4366Y1.5457
X-2.4366Y1.4457
X-2.4366Y1.3457
X-2.4366Y1.2457
X-2.4366Y1.1457
X-2.4366Y1.0457
X-2.4366Y0.9457
X-2.3638Y5.1457
X-2.3535Y0.872
X-2.3535Y0.772
X-2.3535Y0.672
X-2.3453Y5.6484
X-2.3453Y5.5484
X-2.3453Y5.4484
X-2.3417Y5.348
X-2.3417Y5.248
X-2.3413Y1.0618
X-2.3409Y4.1476
X-2.3409Y4.0476
X-2.3394Y3.2437
X-2.3394Y3.1437
X-2.3394Y3.0437
X-2.339Y4.4461
X-2.339Y4.3461
X-2.339Y4.2461
X-2.339Y2.0461
X-2.339Y1.9461
X-2.339Y1.8461
X-2.3382Y2.9472
X-2.3382Y2.8472
X-2.3378Y3.4445
X-2.3378Y3.3445
X-2.3374Y4.6441
X-2.3374Y4.5441
X-2.3374Y1.7492
X-2.3374Y1.6492
X-2.3339Y2.2457
X-2.3339Y2.1457
X-2.3283Y0.948
X-2.2646Y1.0177
X-2.2535Y0.872
X-2.2535Y0.772
X-2.2535Y0.672
X-2.2461Y5.35
X-2.2453Y5.6484
X-2.2453Y5.5484
X-2.2453Y5.4484
X-2.2433Y4.148
X-2.2409Y2.9453
X-2.2406Y3.3425
X-2.2398Y1.7496
X-2.2394Y3.2437
X-2.2394Y3.1437
X-2.2394Y3.0437
X-2.239Y4.5425
X-2.239Y4.4461
X-2.239Y4.3461
X-2.239Y4.2461
X-2.239Y2.0461
X-2.239Y1.9461
X-2.239Y1.8461
X-2.2362Y2.1461
X-2.202Y0.9461
X-2.1535Y0.872
X-2.1535Y0.772
X-2.1535Y0.672
X-2.1453Y5.6484
X-2.1453Y5.5484
X-2.1453Y5.4484
X-2.1394Y3.2437
X-2.1394Y3.1437
X-2.1394Y3.0437
X-2.139Y4.4461
X-2.139Y4.3461
X-2.139Y4.2461
X-2.139Y2.0461
X-2.139Y1.9461
X-2.139Y1.8461
X-2.0535Y0.872
X-2.0535Y0.772
X-2.0535Y0.672
X-2.0465Y4.4433
X-2.0465Y4.3433
X-2.0465Y4.2433
X-2.0453Y5.6484
X-2.0453Y5.5484
X-2.0453Y5.4484
X-2.0394Y3.2437
X-2.0394Y3.1437
X-2.0394Y3.0437
X-1.9535Y0.872
X-1.9535Y0.772
X-1.9535Y0.672
X-1.9465Y4.4433
X-1.9465Y4.3433
X-1.9465Y4.2433
X-1.9453Y5.6484
X-1.9453Y5.5484
X-1.9453Y5.4484
X-1.9409Y3.2437
X-1.9409Y3.1437
X-1.9409Y3.0437
X-1.9228Y3.7413
X-1.9213Y2.5626
X-1.9213Y1.3815
X-1.9205Y4.9252
X-1.8535Y0.872
X-1.8535Y0.772
X-1.8535Y0.672
X-1.8516Y4.3429
X-1.8516Y4.2429
X-1.8472Y3.0583
X-1.8453Y5.6484
X-1.8453Y5.5484
X-1.8453Y5.4484
X-1.8409Y3.2437
X-1.8409Y3.1437
X-1.815Y1.9201
X-1.7657Y4.2421
X-1.7535Y0.872
X-1.7535Y0.772
X-1.7535Y0.672
X-1.7453Y5.6484
X-1.7453Y5.5484
X-1.7453Y5.4484
X-1.7409Y3.2437
X-1.7409Y3.1437
X-1.7118Y1.8236
X-1.7102Y2.0114
X-1.7087Y1.9244
X-1.6921Y4.2406
X-1.6551Y0.9547
X-1.6535Y0.872
X-1.6535Y0.772
X-1.6535Y0.672
X-1.6512Y4.1701
X-1.6417Y5.2827
X-1.6409Y3.2437
X-1.6409Y3.1437
X-1.6398Y3.3287
X-1.6217Y2.098
X-1.6213Y2.0134
X-1.613Y1.924
X-1.6055Y1.828
X-1.565Y4.1102
X-1.5535Y0.872
X-1.5535Y0.772
X-1.5535Y0.672
X-1.5528Y1.0559
X-1.5528Y0.9559
X-1.5488Y3.2425
X-1.5488Y3.1425
X-1.5476Y3.402
X-1.5476Y3.3276
X-1.5224Y2.198
X-1.5213Y2.0134
X-1.5209Y2.1028
X-1.5165Y1.9268
X-1.5165Y1.8268
X-1.5157Y2.8358
X-1.5138Y1.7311
X-1.5102Y4.6539
X-1.5Y4.528
X-1.4701Y4.1098
X-1.465Y3.9055
X-1.463Y2.2791
X-1.4622Y3.4028
X-1.4622Y3.3283
X-1.4614Y4.5748
X-1.4614Y3.4886
X-1.4594Y3.5795
X-1.4591Y4.4079
X-1.4555Y1.1449
X-1.4535Y0.872
X-1.4535Y0.772
X-1.4535Y0.672
X-1.4528Y1.0559
X-1.4528Y0.9559
X-1.4508Y2.8622
X-1.4488Y3.2425
X-1.4488Y3.1425
X-1.4484Y2.7803
X-1.4449Y3.8638
X-1.439Y3.813
X-1.4311Y2.1988
X-1.4311Y2.0988
X-1.4287Y2.0169
X-1.4287Y1.9169
X-1.4283Y1.2378
X-1.4272Y1.8299
X-1.4272Y1.7299
X-1.4272Y1.6299
X-1.4272Y1.5299
X-1.4272Y1.4299
X-1.4075Y5.0252
X-1.3555Y1.1449
X-1.3535Y0.872
X-1.3535Y0.772
X-1.3535Y0.672
X-1.3528Y1.0559
X-1.3528Y0.9559
X-1.3484Y2.7803
X-1.3472Y2.8622
X-1.3417Y3.1421
X-1.3303Y2.1012
X-1.3287Y2.0169
X-1.3287Y1.9169
X-1.3272Y1.8299
X-1.3272Y1.7299
X-1.3272Y1.6299
X-1.3272Y1.5299
X-1.3272Y1.4299
X-1.3272Y1.3299
X-1.3248Y4.7772
X-1.3079Y4.7362
X-1.3051Y4.8469
X-1.2874Y2.4543
X-1.2874Y2.365
X-1.2874Y2.272
X-1.2681Y4.5276
X-1.2606Y2.8646
X-1.2571Y5.4669
X-1.2535Y0.872
X-1.2535Y0.772
X-1.2535Y0.672
X-1.2528Y1.0559
X-1.2528Y0.9559
X-1.2441Y3.213
X-1.2378Y2.2004
X-1.2339Y4.515
X-1.2287Y1.9169
X-1.2283Y4.1087
X-1.2276Y4.3906
X-1.2272Y1.8299
X-1.2272Y1.7299
X-1.2272Y1.6299
X-1.2272Y1.5299
X-1.2272Y1.4299
X-1.2272Y1.3299
X-1.2268Y2.0165
X-1.2256Y4.7709
X-1.2157Y3.661
X-1.2146Y4.4799
X-1.2136Y4.9886
X-1.2067Y5.4713
X-1.1998Y5.3027
X-1.1988Y3.5803
X-1.1988Y3.5059
X-1.1819Y2.1445
X-1.1748Y2.2894
X-1.1681Y4.6736
X-1.1609Y5.2854
X-1.1539Y4.1083
X-1.1535Y0.872
X-1.1535Y0.772
X-1.1535Y0.672
X-1.1528Y1.0559
X-1.1528Y0.9559
X-1.148Y3.4567
X-1.1441Y3.213
X-1.1378Y5.4713
X-1.1365Y5.3087
X-1.1315Y1.9854
X-1.1311Y1.9185
X-1.1295Y1.8315
X-1.1295Y1.7315
X-1.1291Y4.3898
X-1.1244Y4.6118
X-1.1209Y2.0862
X-1.1016Y2.2394
X-1.074Y4.9535
X-1.0654Y4.5496
X-1.0598Y5.4705
X-1.0563Y1.7504
X-1.0535Y0.872
X-1.0535Y0.772
X-1.0535Y0.672
X-1.052Y0.9594
X-1.0374Y4.9866
X-1.037Y3.2126
X-1.0343Y2.1472
X-1.0315Y1.9854
X-1.0311Y2.0587
X-1.0311Y1.9185
X-1.0295Y1.8315
X-1.0205Y5.3925
X-1.0185Y5.3224
X-1.0012Y4.4913
X-0.9616Y3.1002
X-0.9535Y0.872
X-0.9535Y0.772
X-0.9535Y0.672
X-0.9366Y5.524
X-0.9346Y2.0594
X-0.9343Y1.9854
X-0.9339Y1.9185
X-0.9323Y1.8315
X-0.8937Y5.5673
X-0.8713Y4.3382
X-0.8535Y0.872
X-0.8535Y0.772
X-0.8535Y0.672
X-0.8421Y2.0598
X-0.8091Y4.2606
X-0.8087Y5.3244
X-0.7752Y3.2244
X-0.7657Y4.337
X-0.7571Y5.4358
X-0.7567Y5.5602
X-0.7535Y0.872
X-0.7535Y0.772
X-0.7535Y0.672
X-0.7417Y1.3811
X-0.7406Y2.5638
X-0.7394Y4.9248
X-0.7394Y3.7421
X-0.7091Y4.2606
X-0.6535Y0.872
X-0.6535Y0.772
X-0.6535Y0.672
X-0.5941Y5.5161
X-0.5803Y3.2335
X-0.5717Y1.8906
X-0.5591Y5.6409
X-0.5535Y0.872
X-0.5535Y0.772
X-0.5535Y0.672
X-0.5244Y3.0976
X-0.5083Y1.8161
X-0.5039Y3.2626
X-0.498Y3.4776
X-0.4953Y5.2559
X-0.4921Y3.2087
X-0.476Y1.9776
X-0.4744Y1.8906
X-0.4543Y0.9827
X-0.4535Y0.872
X-0.4535Y0.772
X-0.4535Y0.672
X-0.4492Y1.8071
X-0.4413Y3.2146
X-0.4354Y5.5228
X-0.4173Y3.0972
X-0.3988Y5.5547
X-0.3898Y5.5134
X-0.3862Y1.9772
X-0.3846Y1.8902
X-0.3843Y1.8055
X-0.3827Y1.7185
X-0.3807Y5.2134
X-0.3768Y4.5535
X-0.3626Y2.1508
X-0.3535Y0.872
X-0.3535Y0.772
X-0.3535Y0.672
X-0.352Y1.0839
X-0.352Y0.9839
X-0.3449Y5.25
X-0.3398Y5.174
X-0.3268Y4.6425
X-0.326Y3.4264
X-0.3126Y5.2791
X-0.3008Y5.2075
X-0.289Y1.9772
X-0.2874Y1.8902
X-0.287Y1.8055
X-0.276Y2.1528
X-0.2756Y2.2374
X-0.2713Y5.0823
X-0.2689Y5.226
X-0.2594Y3.2205
X-0.2559Y4.5823
X-0.2535Y0.872
X-0.2535Y0.772
X-0.2535Y0.672
X-0.2524Y1.1697
X-0.252Y1.0839
X-0.252Y0.9839
X-0.2508Y1.2815
X-0.2341Y5.339
X-0.2232Y1.5823
X-0.2232Y1.4823
X-0.2232Y1.3823
X-0.2079Y5.0972
X-0.2079Y5.0035
X-0.2079Y4.9035
X-0.2063Y4.8142
X-0.2031Y4.7335
X-0.2012Y4.6492
X-0.1689Y2.585
X-0.1689Y1.2732
X-0.1685Y2.665
X-0.1673Y2.498
X-0.1673Y2.3287
X-0.1669Y2.4134
X-0.1657Y2.2417
X-0.1654Y2.1571
X-0.1535Y0.872
X-0.1535Y0.772
X-0.1535Y0.672
X-0.1524Y1.1697
X-0.152Y1.0839
X-0.152Y0.9839
X-0.1476Y4.1378
X-0.1079Y5.0972
X-0.1079Y5.0035
X-0.1079Y4.9035
X-0.1071Y4.6421
X-0.1063Y4.8142
X-0.1047Y1.5606
X-0.102Y1.6906
X-0.0961Y1.4551
X-0.0904Y5.3642
X-0.0898Y5.1677
X-0.0728Y1.3508
X-0.0695Y4.0613
X-0.0626Y5.1921
X-0.061Y5.5043
X-0.0535Y0.872
X-0.0535Y0.772
X-0.0535Y0.672
X-0.052Y1.0839
X-0.052Y0.9839
X-0.0492Y5.124
X-0.0453Y4.5728
X-0.0346Y4.026
X-0.0343Y4.7161
X-0.0276Y4.3811
X-0.0236Y2.1161
X-0.0213Y5.1492
X-0.0209Y4.1472
X-0.0024Y1.9756
X-0.0012Y1.6449
X-0.0008Y1.8886
X-0.0004Y1.8039
X0.0Y1.726
X0.0144Y5.2874
X0.0236Y4.6402
X0.0272Y4.5087
X0.039Y4.0488
X0.0465Y0.872
X0.0465Y0.772
X0.0465Y0.672
X0.048Y0.9839
X0.0504Y5.2884
X0.0547Y4.4055
X0.0878Y5.3268
X0.0878Y5.2884
X0.0906Y4.5909
X0.0949Y1.9756
X0.0965Y1.8886
X0.0969Y1.8039
X0.0972Y1.726
X0.1465Y0.872
X0.1465Y0.772
X0.1465Y0.672
X0.1488Y0.9874
X0.1563Y5.6429
X0.1563Y5.5429
X0.1563Y5.4429
X0.1909Y1.8921
X0.1913Y1.8075
X0.2465Y0.872
X0.2465Y0.772
X0.2465Y0.672
X0.2563Y5.6429
X0.2563Y5.5429
X0.2563Y5.4429
X0.2673Y3.3579
X0.2831Y3.2181
X0.3075Y4.2823
X0.3331Y3.1728
X0.3343Y3.1091
X0.3465Y0.872
X0.3465Y0.772
X0.3465Y0.672
X0.3563Y5.6429
X0.3563Y5.5429
X0.3563Y5.4429
X0.3768Y4.4079
X0.3937Y3.0484
X0.398Y4.2831
X0.4177Y3.0984
X0.4406Y3.7433
X0.4417Y2.5622
X0.4453Y4.9346
X0.4457Y1.385
X0.4465Y0.872
X0.4465Y0.772
X0.4465Y0.672
X0.4563Y5.6429
X0.4563Y5.5429
X0.4563Y5.4429
X0.4665Y3.048
X0.4768Y4.4079
X0.4811Y4.2819
X0.5465Y0.872
X0.5465Y0.772
X0.5465Y0.672
X0.5563Y5.6429
X0.5563Y5.5429
X0.5563Y5.4429
X0.5752Y4.4071
X0.6465Y0.872
X0.6465Y0.772
X0.6465Y0.672
X0.6531Y3.2957
X0.6531Y3.1957
X0.6531Y3.0957
X0.6563Y5.6429
X0.6563Y5.5429
X0.6563Y5.4429
X0.6614Y4.4925
X0.6941Y3.0323
X0.7169Y2.1492
X0.7213Y4.1425
X0.7437Y1.8453
X0.7453Y0.9669
X0.7465Y0.872
X0.7465Y0.772
X0.7465Y0.672
X0.7531Y3.2957
X0.7531Y3.1957
X0.7531Y3.0957
X0.7563Y5.6429
X0.7563Y5.5429
X0.7563Y5.4429
X0.7571Y5.35
X0.8004Y4.0642
X0.802Y4.1626
X0.8209Y2.1106
X0.8433Y1.8449
X0.8433Y1.7449
X0.8465Y0.872
X0.8465Y0.772
X0.8465Y0.672
X0.8476Y0.9681
X0.8531Y3.3957
X0.8531Y3.2957
X0.8531Y3.1957
X0.8531Y3.0957
X0.8563Y5.6429
X0.8563Y5.5429
X0.8563Y5.4429
X0.8571Y5.35
X0.8571Y5.25
X0.8709Y2.1992
X0.8709Y2.0992
X0.8756Y3.9693
X0.8795Y1.1661
X0.8933Y2.2906
X0.9008Y4.0665
X0.902Y4.1626
X0.9024Y2.3803
X0.9244Y3.7417
X0.9291Y2.9638
X0.9433Y1.1638
X0.9441Y2.852
X0.9461Y1.2559
X0.9465Y0.872
X0.9465Y0.772
X0.9465Y0.672
X0.9476Y1.8469
X0.9476Y1.7469
X0.9476Y0.9681
X0.9492Y1.6555
X0.9492Y1.5555
X0.9492Y1.4555
X0.9492Y1.3555
X0.9559Y4.8571
X0.9563Y5.6429
X0.9563Y5.5429
X0.9563Y5.4429
X0.9571Y5.35
X0.9571Y5.25
X0.9571Y5.1563
X0.9571Y5.0563
X0.9575Y4.7677
X0.9587Y4.9669
X0.9705Y2.4724
X0.9709Y4.4579
X0.9709Y2.2992
X0.9709Y2.1992
X0.9709Y2.0992
X0.9717Y2.3846
X0.9724Y4.3567
X0.9925Y3.3965
X0.9925Y3.2965
X0.9925Y3.1965
X0.9925Y3.0965
X0.9925Y2.9965
X1.037Y3.622
X1.0378Y3.6839
X1.0382Y3.8709
X1.0382Y3.7709
X1.0445Y1.85
X1.0445Y1.75
X1.0461Y1.6587
X1.0461Y1.5587
X1.0461Y1.4587
X1.0461Y1.3587
X1.0461Y1.2587
X1.0465Y0.872
X1.0465Y0.772
X1.0465Y0.672
X1.0476Y1.0681
X1.0476Y0.9681
X1.0559Y4.8571
X1.0563Y5.6429
X1.0563Y5.5429
X1.0563Y5.4429
X1.0571Y5.35
X1.0571Y5.25
X1.0571Y5.1563
X1.0571Y5.0563
X1.0575Y4.7677
X1.0587Y4.9669
X1.0626Y4.0575
X1.063Y4.2571
X1.0642Y4.1559
X1.0646Y4.4555
X1.0646Y4.3555
X1.0654Y3.9709
X1.0705Y2.4724
X1.0709Y2.2992
X1.0709Y2.1992
X1.0709Y2.0992
X1.0717Y2.3846
X1.0925Y3.3965
X1.0925Y3.2965
X1.0925Y3.1965
X1.1012Y3.1283
X1.1177Y2.7669
X1.1386Y3.6244
X1.139Y1.8488
X1.1398Y3.6839
X1.1402Y3.8709
X1.1402Y3.7709
X1.1425Y4.8579
X1.1445Y1.75
X1.1461Y1.6587
X1.1461Y1.5587
X1.1461Y1.4587
X1.1461Y1.3587
X1.1465Y0.872
X1.1465Y0.772
X1.1465Y0.672
X1.1476Y1.0681
X1.1476Y0.9681
X1.148Y1.1665
X1.1563Y5.6429
X1.1563Y5.5429
X1.1563Y5.4429
X1.1571Y5.35
X1.1571Y5.25
X1.1571Y5.1563
X1.1571Y5.0563
X1.163Y4.0598
X1.1634Y4.2594
X1.1642Y4.1559
X1.1646Y4.4555
X1.1646Y4.3555
X1.1665Y2.852
X1.1701Y4.739
X1.1709Y2.2992
X1.1709Y2.1992
X1.1709Y2.0992
X1.1717Y2.3846
X1.1874Y3.963
X1.1925Y3.3965
X1.1925Y3.2965
X1.1925Y3.1965
X1.2465Y0.872
X1.2465Y0.772
X1.2465Y0.672
X1.2476Y0.9681
X1.2488Y1.0693
X1.2563Y5.6429
X1.2563Y5.5429
X1.2563Y5.4429
X1.2571Y5.35
X1.2571Y5.25
X1.2626Y4.1551
X1.263Y4.3547
X1.2642Y4.4571
X1.2657Y4.0618
X1.2661Y4.2614
X1.2709Y2.1992
X1.2709Y2.0992
X1.2819Y2.9386
X1.2925Y3.3965
X1.2925Y3.2965
X1.2925Y3.1965
X1.3453Y2.9921
X1.3465Y0.872
X1.3465Y0.772
X1.3465Y0.672
X1.3476Y0.9669
X1.3563Y5.6429
X1.3563Y5.5429
X1.3563Y5.4429
X1.3571Y5.35
X1.3575Y4.261
X1.3591Y4.4594
X1.3591Y4.3594
X1.3602Y2.0969
X1.3843Y3.0535
X1.3925Y3.3965
X1.4465Y0.872
X1.4465Y0.772
X1.4465Y0.672
X1.4547Y1.9646
X1.4563Y5.6429
X1.4563Y5.5429
X1.4563Y5.4429
X1.4579Y4.2634
X1.4591Y4.4594
X1.4591Y4.3594
X1.4602Y2.0969
X1.4843Y3.0535
X1.5465Y0.872
X1.5465Y0.772
X1.5465Y0.672
X1.5547Y1.9646
X1.5547Y1.8646
X1.5563Y5.6429
X1.5563Y5.5429
X1.5563Y5.4429
X1.5575Y4.3587
X1.5606Y4.2654
X1.5618Y4.4402
X1.5622Y3.2319
X1.5717Y3.0535
X1.5728Y2.0772
X1.6224Y3.7441
X1.6224Y2.5622
X1.6244Y4.9252
X1.6291Y1.3843
X1.6409Y4.2677
X1.6417Y1.965
X1.6417Y1.865
X1.6465Y4.3591
X1.6465Y0.872
X1.6465Y0.772
X1.6465Y0.672
X1.6496Y4.4413
X1.6563Y5.6429
X1.6563Y5.5429
X1.6563Y5.4429
X1.6622Y3.2319
X1.6717Y3.0535
X1.6728Y2.0772
X1.7417Y1.965
X1.7417Y1.865
X1.7465Y4.4591
X1.7465Y4.3591
X1.7465Y0.872
X1.7465Y0.772
X1.7465Y0.672
X1.7476Y4.2697
X1.7563Y5.6429
X1.7563Y5.5429
X1.7563Y5.4429
X1.7622Y3.2319
X1.7717Y3.0535
X1.7898Y2.1087
X1.8417Y1.965
X1.8417Y1.865
X1.8449Y4.4583
X1.8449Y4.3583
X1.8449Y4.2583
X1.8465Y0.872
X1.8465Y0.772
X1.8465Y0.672
X1.8539Y3.0535
X1.8563Y5.6429
X1.8563Y5.5429
X1.8563Y5.4429
X1.8898Y2.1087
X1.9409Y4.5563
X1.9409Y4.4563
X1.9409Y4.3563
X1.9409Y4.2563
X1.9417Y1.965
X1.9417Y1.865
X1.9425Y1.7717
X1.9465Y0.872
X1.9465Y0.772
X1.9465Y0.672
X1.9508Y0.965
X1.9535Y2.1795
X1.9539Y3.0535
X1.9539Y2.9535
X1.9563Y5.6429
X1.9563Y5.5429
X1.9575Y4.163
X1.9579Y5.348
X1.998Y3.4366
X2.0181Y2.8559
X2.0232Y2.2457
X2.0327Y3.4358
X2.0409Y4.6563
X2.0409Y4.5563
X2.0409Y4.4563
X2.0409Y4.3563
X2.0409Y4.2563
X2.0409Y4.1563
X2.0417Y1.965
X2.0417Y1.865
X2.0421Y2.0642
X2.0421Y1.7713
X2.0421Y1.6713
X2.0425Y3.4035
X2.0465Y0.872
X2.0465Y0.772
X2.0465Y0.672
X2.0508Y1.065
X2.0508Y0.965
X2.0539Y5.2504
X2.0539Y3.0535
X2.0539Y2.9535
X2.0563Y5.6429
X2.0563Y5.5429
X2.0563Y5.4429
X2.0654Y1.1783
X2.0866Y3.2724
X2.1043Y3.3925
X2.1157Y3.324
X2.1252Y3.226
X2.1394Y5.3555
X2.1394Y5.1555
X2.1394Y5.0555
X2.1394Y4.9555
X2.1394Y4.8555
X2.1394Y4.7555
X2.1394Y4.6555
X2.1394Y4.5555
X2.1394Y4.4555
X2.1394Y4.3555
X2.1394Y4.2555
X2.1394Y4.1555
X2.1413Y2.9531
X2.1413Y2.8646
X2.1413Y2.7646
X2.1413Y2.6646
X2.1413Y2.5646
X2.1413Y2.4646
X2.1413Y2.3646
X2.1413Y2.2646
X2.1413Y2.1646
X2.1413Y2.0646
X2.1413Y1.9646
X2.1413Y1.8646
X2.1413Y1.7646
X2.1413Y1.6646
X2.1413Y1.5646
X2.1413Y1.4646
X2.1413Y1.3646
X2.1413Y1.2646
X2.1413Y1.1646
X2.1413Y1.0646
X2.1413Y0.9646
X2.2394Y5.3555
X2.2394Y5.2555
X2.2394Y5.0555
X2.2394Y4.9555
X2.2394Y4.8555
X2.2394Y4.7555
X2.2394Y4.6555
X2.2394Y4.5555
X2.2394Y4.4555
X2.2394Y4.3555
X2.2394Y4.2555
X2.2394Y4.1555
X2.2413Y2.9531
X2.2413Y2.8646
X2.2413Y2.7646
X2.2413Y2.6646
X2.2413Y2.5646
X2.2413Y2.4646
X2.2413Y2.3646
X2.2413Y2.2646
X2.2413Y2.1646
X2.2413Y2.0646
X2.2413Y1.9646
X2.2413Y1.8646
X2.2413Y1.7646
X2.2413Y1.6646
X2.2413Y1.5646
X2.2413Y1.4646
X2.2413Y1.3646
X2.2413Y1.2646
X2.2413Y1.1646
X2.2413Y1.0646
X2.2413Y0.9646
X2.3394Y5.3555
X2.3394Y5.2555
X2.3394Y5.1555
X2.3394Y5.0555
X2.3394Y4.9555
X2.3394Y4.8555
X2.3394Y4.7555
X2.3394Y4.6555
X2.3394Y4.5555
X2.3394Y4.4555
X2.3394Y4.3555
X2.3394Y4.2555
X2.3394Y4.1555
X2.3394Y4.0555
X2.3394Y3.9555
X2.3394Y3.8555
X2.3413Y2.9531
X2.3413Y2.8646
X2.3413Y2.7646
X2.3413Y2.6646
X2.3413Y2.5646
X2.3413Y2.4646
X2.3413Y2.3646
X2.3413Y2.2646
X2.3413Y2.1646
X2.3413Y2.0646
X2.3413Y1.9646
X2.3413Y1.8646
X2.3413Y1.7646
X2.3413Y1.6646
X2.3413Y1.5646
X2.3413Y1.4646
X2.3413Y1.3646
X2.3413Y1.2646
X2.3413Y1.1646
X2.3413Y1.0646
X2.3413Y0.9646
T4
X-1.6409Y5.65
X-1.6409Y5.5739
X-1.6029Y5.4879
X-1.5965Y5.2829
X-1.5719Y5.2614
X-1.5659Y5.4118
X-1.5579Y5.0559
X-1.5409Y5.65
X-1.5409Y5.5739
X-1.5369Y5.4869
X-1.5315Y5.337
X-1.5285Y4.9311
X-1.5276Y5.1461
X-1.502Y5.4655
X-1.4869Y5.5079
X-1.4852Y4.9335
X-1.4713Y5.574
X-1.4528Y5.2878
X-1.4528Y5.2406
X-1.4528Y5.1933
X-1.4528Y5.1461
X-1.4519Y5.4759
X-1.4496Y5.6504
X-1.4055Y5.2878
X-1.4055Y5.2406
X-1.4055Y5.1933
X-1.4055Y5.1461
X-1.3969Y5.6268
X-1.378Y5.4738
X-1.3594Y5.5469
X-1.3583Y5.2878
X-1.3583Y5.2406
X-1.3583Y5.1933
X-1.3583Y5.1461
X-1.311Y5.2878
X-1.311Y5.2406
X-1.311Y5.1933
X-1.311Y5.1461
X-1.3022Y5.4994
X-1.2854Y5.5472
X-1.2489Y5.0167
X-1.2476Y5.548
X-1.2441Y5.3587
X-1.1269Y5.338
X-1.126Y5.2318
X-1.126Y5.0257
X-1.0955Y5.1126
X-1.0955Y5.0654
X-1.0229Y5.1149
X-1.0035Y5.4453
X-0.9571Y5.3795
X-0.9504Y5.6413
X-0.8835Y5.6409
X-0.837Y5.6126
X-0.7339Y5.6114
T6
X2.3309Y3.2892
X2.3309Y3.0215
T5
G00X-0.3195Y5.6187
M15
G01X-0.3195Y5.5877
M16
G05
G00X-0.3195Y5.4613
M15
G01X-0.3195Y5.4183
M16
G05
G00X0.0207Y5.4613
M15
G01X0.0207Y5.4183
M16
G05
G00X0.0207Y5.6187
M15
G01X0.0207Y5.5877
M16
G05
M30
