%TF.GenerationSoftware,KiCad,Pcbnew,9.0.1*%
%TF.CreationDate,2026-05-11T15:42:01+09:00*%
%TF.ProjectId,16ver8,31367665-7238-42e6-9b69-6361645f7063,rev?*%
%TF.SameCoordinates,Original*%
%TF.FileFunction,Soldermask,Bot*%
%TF.FilePolarity,Negative*%
%FSLAX46Y46*%
G04 Gerber Fmt 4.6, Leading zero omitted, Abs format (unit mm)*
G04 Created by KiCad (PCBNEW 9.0.1) date 2026-05-11 15:42:01*
%MOMM*%
%LPD*%
G01*
G04 APERTURE LIST*
%ADD10C,6.250000*%
%ADD11C,3.352400*%
%ADD12C,0.452400*%
%ADD13C,1.352400*%
%ADD14C,0.812800*%
%ADD15O,1.270000X2.362200*%
%ADD16O,1.270000X2.057400*%
G04 APERTURE END LIST*
D10*
X44329840Y125095220D02*
G75*
G02*
X38079840Y125095220I-3125000J0D01*
G01*
X38079840Y125095220D02*
G75*
G02*
X44329840Y125095220I3125000J0D01*
G01*
X-45670160Y65095220D02*
G75*
G02*
X-51920160Y65095220I-3125000J0D01*
G01*
X-51920160Y65095220D02*
G75*
G02*
X-45670160Y65095220I3125000J0D01*
G01*
X-15670160Y65095220D02*
G75*
G02*
X-21920160Y65095220I-3125000J0D01*
G01*
X-21920160Y65095220D02*
G75*
G02*
X-15670160Y65095220I3125000J0D01*
G01*
X-45670160Y35095220D02*
G75*
G02*
X-51920160Y35095220I-3125000J0D01*
G01*
X-51920160Y35095220D02*
G75*
G02*
X-45670160Y35095220I3125000J0D01*
G01*
X14329840Y125095220D02*
G75*
G02*
X8079840Y125095220I-3125000J0D01*
G01*
X8079840Y125095220D02*
G75*
G02*
X14329840Y125095220I3125000J0D01*
G01*
X14329840Y95095220D02*
G75*
G02*
X8079840Y95095220I-3125000J0D01*
G01*
X8079840Y95095220D02*
G75*
G02*
X14329840Y95095220I3125000J0D01*
G01*
X44329840Y65095220D02*
G75*
G02*
X38079840Y65095220I-3125000J0D01*
G01*
X38079840Y65095220D02*
G75*
G02*
X44329840Y65095220I3125000J0D01*
G01*
X14329840Y65095220D02*
G75*
G02*
X8079840Y65095220I-3125000J0D01*
G01*
X8079840Y65095220D02*
G75*
G02*
X14329840Y65095220I3125000J0D01*
G01*
X-15670160Y35095220D02*
G75*
G02*
X-21920160Y35095220I-3125000J0D01*
G01*
X-21920160Y35095220D02*
G75*
G02*
X-15670160Y35095220I3125000J0D01*
G01*
X-15670160Y125095220D02*
G75*
G02*
X-21920160Y125095220I-3125000J0D01*
G01*
X-21920160Y125095220D02*
G75*
G02*
X-15670160Y125095220I3125000J0D01*
G01*
X-45670160Y95095220D02*
G75*
G02*
X-51920160Y95095220I-3125000J0D01*
G01*
X-51920160Y95095220D02*
G75*
G02*
X-45670160Y95095220I3125000J0D01*
G01*
X44329840Y35095220D02*
G75*
G02*
X38079840Y35095220I-3125000J0D01*
G01*
X38079840Y35095220D02*
G75*
G02*
X44329840Y35095220I3125000J0D01*
G01*
X44329840Y95095220D02*
G75*
G02*
X38079840Y95095220I-3125000J0D01*
G01*
X38079840Y95095220D02*
G75*
G02*
X44329840Y95095220I3125000J0D01*
G01*
X14329840Y35095220D02*
G75*
G02*
X8079840Y35095220I-3125000J0D01*
G01*
X8079840Y35095220D02*
G75*
G02*
X14329840Y35095220I3125000J0D01*
G01*
X-15670160Y95095220D02*
G75*
G02*
X-21920160Y95095220I-3125000J0D01*
G01*
X-21920160Y95095220D02*
G75*
G02*
X-15670160Y95095220I3125000J0D01*
G01*
X-45670160Y125095220D02*
G75*
G02*
X-51920160Y125095220I-3125000J0D01*
G01*
X-51920160Y125095220D02*
G75*
G02*
X-45670160Y125095220I3125000J0D01*
G01*
D11*
%TO.C,H2*%
X-63795160Y20095220D03*
%TD*%
D12*
%TO.C,U111*%
X-17350000Y82780000D03*
X-17930000Y83730000D03*
X-16770000Y83730000D03*
X-17350000Y84680000D03*
%TD*%
D11*
%TO.C,H3*%
X56204840Y140095220D03*
%TD*%
%TO.C,H4*%
X56204840Y20095220D03*
%TD*%
D13*
%TO.C,SW11*%
X59204840Y83545220D03*
X59204840Y76745220D03*
%TD*%
D11*
%TO.C,H1*%
X-63795160Y140095220D03*
%TD*%
D14*
%TO.C,J51*%
X-905161Y138670700D03*
X-6685159Y138670700D03*
D15*
X524842Y138170700D03*
D16*
X524872Y142320700D03*
D15*
X-8115162Y138170700D03*
D16*
X-8115192Y142320700D03*
%TD*%
M02*
