%TF.GenerationSoftware,KiCad,Pcbnew,9.0.1*%
%TF.CreationDate,2026-05-11T15:42:01+09:00*%
%TF.ProjectId,16ver8,31367665-7238-42e6-9b69-6361645f7063,rev?*%
%TF.SameCoordinates,Original*%
%TF.FileFunction,Copper,L3,Inr*%
%TF.FilePolarity,Positive*%
%FSLAX46Y46*%
G04 Gerber Fmt 4.6, Leading zero omitted, Abs format (unit mm)*
G04 Created by KiCad (PCBNEW 9.0.1) date 2026-05-11 15:42:01*
%MOMM*%
%LPD*%
G01*
G04 APERTURE LIST*
%TA.AperFunction,ComponentPad*%
%ADD10C,0.300000*%
%TD*%
%TA.AperFunction,ComponentPad*%
%ADD11C,1.200000*%
%TD*%
%TA.AperFunction,ComponentPad*%
%ADD12O,1.117600X2.209800*%
%TD*%
%TA.AperFunction,ComponentPad*%
%ADD13O,1.117600X1.905000*%
%TD*%
%TA.AperFunction,ViaPad*%
%ADD14C,0.600000*%
%TD*%
%TA.AperFunction,ViaPad*%
%ADD15C,0.350000*%
%TD*%
%TA.AperFunction,ViaPad*%
%ADD16C,0.609600*%
%TD*%
%TA.AperFunction,Conductor*%
%ADD17C,0.500000*%
%TD*%
%TA.AperFunction,Conductor*%
%ADD18C,0.150000*%
%TD*%
%TA.AperFunction,Conductor*%
%ADD19C,0.400000*%
%TD*%
%TA.AperFunction,Conductor*%
%ADD20C,0.200000*%
%TD*%
G04 APERTURE END LIST*
D10*
%TO.N,GND*%
%TO.C,U111*%
X-17350000Y82780000D03*
X-17930000Y83730000D03*
X-16770000Y83730000D03*
X-17350000Y84680000D03*
%TD*%
D11*
%TO.N,N/C*%
%TO.C,SW11*%
X59204840Y83545220D03*
X59204840Y76745220D03*
%TD*%
D12*
%TO.N,GND*%
%TO.C,J51*%
X524842Y138170700D03*
D13*
X524872Y142320700D03*
D12*
X-8115162Y138170700D03*
D13*
X-8115192Y142320700D03*
%TD*%
D14*
%TO.N,/out_5V*%
X53450000Y86170000D03*
X-1550000Y139810000D03*
%TO.N,GND*%
X-59780000Y22150000D03*
X36740000Y19610000D03*
D15*
X-31580000Y96630000D03*
D14*
X29370000Y143330000D03*
X49630000Y75020000D03*
X-39440000Y26820000D03*
X26820000Y123370000D03*
X-54490000Y143470000D03*
X18930000Y24560000D03*
X59420000Y97930000D03*
X-19140000Y17070000D03*
X16670000Y143330000D03*
X-61890000Y105300000D03*
X59470000Y60060000D03*
X-66970000Y128160000D03*
X49340000Y45000000D03*
X53000000Y83120000D03*
D15*
X-25220000Y111160000D03*
D14*
X-66970000Y24020000D03*
X-7340000Y50220000D03*
X-10000Y45820000D03*
D15*
X-25460000Y140510000D03*
D14*
X51840000Y113190000D03*
X54390000Y52440000D03*
X49720000Y105740000D03*
X50750000Y87290000D03*
X-1360000Y17070000D03*
X-64430000Y123080000D03*
X-61890000Y44340000D03*
D15*
X35660000Y79255000D03*
D14*
X29110000Y42130000D03*
X-66970000Y67200000D03*
X-37160000Y57890000D03*
X-56910000Y84900000D03*
X29390000Y135890000D03*
X600000Y117860000D03*
X-33710000Y46480000D03*
X54340000Y130950000D03*
X59420000Y120790000D03*
X16420000Y19610000D03*
X27200000Y58400000D03*
X-24220000Y19610000D03*
X49630000Y77560000D03*
X-27280000Y125820000D03*
X-54330000Y107850000D03*
X-1250000Y130150000D03*
X-9570000Y115660000D03*
D16*
X-33299990Y130709990D03*
D15*
X51260000Y81430000D03*
D14*
X-64430000Y125620000D03*
X34200000Y22150000D03*
X36740000Y22150000D03*
X-54330000Y46890000D03*
X52090000Y27050000D03*
D16*
X-34499990Y131909990D03*
D14*
X-36790000Y70620000D03*
X27040000Y110630000D03*
X51980000Y17070000D03*
X6260000Y17070000D03*
X-59370000Y44430000D03*
X34520000Y110730000D03*
X-66970000Y107840000D03*
X-4240000Y61300000D03*
X6260000Y22150000D03*
X21530000Y24590000D03*
X-33710000Y38860000D03*
X51630000Y87270000D03*
X24290000Y140790000D03*
X-28690000Y46520000D03*
X-28470000Y52990000D03*
X-64430000Y84980000D03*
D16*
X-28600000Y132886600D03*
D14*
X-59570000Y138390000D03*
X-4250000Y63450000D03*
X24070000Y46910000D03*
X2410000Y50180000D03*
X49440000Y22150000D03*
X-36250000Y38860000D03*
X-66970000Y95140000D03*
X29630000Y72440000D03*
X59420000Y113170000D03*
X31930000Y133350000D03*
X54340000Y108090000D03*
X39490000Y47360000D03*
X27200000Y53320000D03*
X21750000Y138250000D03*
X11590000Y140790000D03*
X31910000Y138250000D03*
D16*
X-38900000Y135559990D03*
D14*
X24660000Y113230000D03*
X-59410000Y110390000D03*
X26580000Y17070000D03*
X-33750000Y51230000D03*
X24310000Y130970000D03*
X56880000Y136030000D03*
X49550000Y24510000D03*
X7810000Y108770000D03*
X49320000Y47370000D03*
X36740000Y17070000D03*
X59470000Y29580000D03*
X-36290000Y51230000D03*
X-47080000Y22150000D03*
X-13320000Y78680000D03*
X-64430000Y26560000D03*
X1180000Y19610000D03*
X54390000Y29580000D03*
X-5670000Y40190000D03*
X-61890000Y84980000D03*
X-61890000Y51960000D03*
X-56870000Y46890000D03*
X56880000Y115710000D03*
X-39310000Y84520000D03*
X-34380000Y22150000D03*
X56880000Y113170000D03*
X-8940000Y24990000D03*
X22240000Y100820000D03*
X-32700000Y60070000D03*
X-31130000Y121180000D03*
X-64430000Y112920000D03*
X54340000Y105550000D03*
X-59420000Y82390000D03*
D15*
X-20000000Y112020000D03*
D14*
X-30020000Y54470000D03*
X-38450000Y43970000D03*
X-66970000Y100220000D03*
X-59420000Y77310000D03*
X-1360000Y22150000D03*
X8800000Y17070000D03*
X-12500000Y81500000D03*
X29110000Y39590000D03*
D16*
X-39138600Y141577800D03*
D14*
X49690000Y140790000D03*
X59470000Y62600000D03*
X-64430000Y95140000D03*
X4860000Y45910000D03*
X56930000Y52440000D03*
X-19140000Y19610000D03*
X24040000Y19610000D03*
X-31170000Y36320000D03*
X-49410000Y143470000D03*
X-28680000Y111500000D03*
X-64430000Y128160000D03*
X-8300000Y117920000D03*
X-64430000Y105300000D03*
X44610000Y143330000D03*
X59420000Y100470000D03*
X-14060000Y19610000D03*
X49440000Y17070000D03*
X-44220000Y79850000D03*
D15*
X-30960000Y115980000D03*
D14*
X-49440000Y112860000D03*
X3970000Y140790000D03*
X41700000Y47370000D03*
D15*
X-23040000Y111160000D03*
D14*
X-29300000Y17070000D03*
X22880000Y103290000D03*
D16*
X-36878000Y139088600D03*
D14*
X26850000Y128430000D03*
X-24220000Y17070000D03*
X-26350000Y126660000D03*
D16*
X-31600000Y136110000D03*
D14*
X-19140000Y22150000D03*
X34170000Y76000000D03*
X26850000Y133350000D03*
X24310000Y135890000D03*
X-39310000Y86410000D03*
X51870000Y42450000D03*
X18210000Y54590000D03*
X24110000Y42050000D03*
X31660000Y17070000D03*
X54390000Y42280000D03*
X-29840000Y58150000D03*
X-61890000Y112920000D03*
X21750000Y143330000D03*
X21770000Y133350000D03*
X44360000Y113260000D03*
X-64430000Y120540000D03*
X-54490000Y138390000D03*
X-6400000Y27530000D03*
X-6440000Y22150000D03*
D16*
X-38825000Y125250000D03*
D14*
X32280000Y53320000D03*
X-42040000Y24250000D03*
X59420000Y123330000D03*
D16*
X-37370000Y141580000D03*
D14*
X10000000Y77430000D03*
X-59470000Y26970000D03*
X-61890000Y90060000D03*
X-36850000Y72700000D03*
X24110000Y39510000D03*
X29150000Y24590000D03*
X-66970000Y123080000D03*
D15*
X-31130000Y142920000D03*
D14*
X24650000Y62800000D03*
X-47080000Y19610000D03*
X-51980000Y107780000D03*
D15*
X-30100166Y116289834D03*
D14*
X-36250000Y46480000D03*
X-56880000Y77310000D03*
X56880000Y120790000D03*
X54390000Y32120000D03*
X39530000Y138250000D03*
X54390000Y24500000D03*
X6510000Y143330000D03*
X-66970000Y133240000D03*
D16*
X-27825000Y129860000D03*
D14*
X4850000Y48060000D03*
X-39460000Y17070000D03*
X-18010000Y108220000D03*
X46860000Y110700000D03*
X39280000Y19610000D03*
X-61890000Y123080000D03*
D16*
X-39570400Y128420600D03*
D14*
X-66970000Y92600000D03*
X28950000Y93570000D03*
X-61890000Y31640000D03*
X-33710000Y41400000D03*
D16*
X-35700000Y130709990D03*
D14*
X-30450000Y90940000D03*
X26570000Y39590000D03*
X-8940000Y27530000D03*
X-37140000Y84540000D03*
X21500000Y17070000D03*
X-56980000Y105360000D03*
D15*
X-32990000Y142880000D03*
D14*
X-49620000Y22150000D03*
X-880000Y102260000D03*
X-43400000Y48880000D03*
X-25430000Y114080000D03*
X31910000Y143330000D03*
X-64430000Y133240000D03*
X-5240000Y122280000D03*
X-49620000Y19610000D03*
X6510000Y138250000D03*
D15*
X-33170000Y140320000D03*
D14*
X-16600000Y22150000D03*
X0Y43840000D03*
X-49440000Y110320000D03*
X56930000Y29580000D03*
X-36970000Y29080000D03*
X31930000Y135890000D03*
X-64430000Y39260000D03*
X34230000Y24560000D03*
X-21680000Y17070000D03*
X23960000Y29560000D03*
X20850000Y53610000D03*
X-30000Y41780000D03*
X56880000Y118250000D03*
X54390000Y37200000D03*
D16*
X-40713400Y139393400D03*
D14*
X-54700000Y17070000D03*
D16*
X-25981400Y129919200D03*
D14*
X-66970000Y110380000D03*
X59470000Y65140000D03*
X34450000Y140790000D03*
X-49410000Y138390000D03*
X51840000Y110650000D03*
X29580000Y110630000D03*
X-44540000Y17070000D03*
X-57030000Y143470000D03*
X51980000Y22150000D03*
X-59380000Y87490000D03*
X-31820000Y26820000D03*
X-34360000Y24280000D03*
X59420000Y103010000D03*
X-26830000Y44460000D03*
X14130000Y143330000D03*
X-10600000Y78670000D03*
X-1590000Y131880000D03*
X-64430000Y41800000D03*
X46860000Y113240000D03*
X-34430000Y29080000D03*
X-64430000Y90060000D03*
D16*
X-34499990Y134310000D03*
D14*
X-37120000Y116200000D03*
X-36800000Y79820000D03*
X31720000Y27160000D03*
X12110000Y111960000D03*
X-38520000Y48940000D03*
D16*
X-34530000Y140890000D03*
D14*
X-64430000Y34180000D03*
X-61890000Y130700000D03*
D15*
X-31230000Y140280000D03*
X-24940000Y141820000D03*
D14*
X36990000Y138250000D03*
X-2700000Y122280000D03*
X-32020000Y72760000D03*
X8490000Y78970000D03*
D16*
X-35480000Y142920000D03*
D14*
X19210000Y140790000D03*
X44610000Y138250000D03*
X-2740000Y127090000D03*
X-31170000Y43940000D03*
X27000000Y108130000D03*
D16*
X-24140000Y143290000D03*
D14*
X-26920000Y138950000D03*
X54340000Y110630000D03*
X-51800000Y77310000D03*
X31660000Y22150000D03*
X-52160000Y22150000D03*
D15*
X36700000Y79255000D03*
D14*
X-16600000Y17070000D03*
X-31170000Y33780000D03*
X-6370000Y32550000D03*
X-64430000Y118000000D03*
X-46760000Y82390000D03*
X34520000Y113270000D03*
X-46870000Y138390000D03*
X-36280000Y31440000D03*
X26610000Y24590000D03*
X6260000Y19610000D03*
X-66970000Y105300000D03*
X54340000Y120790000D03*
D16*
X-35700000Y131909990D03*
D14*
X37030000Y108290000D03*
X27040000Y113170000D03*
X-7640000Y132270000D03*
X-22130000Y110190000D03*
X16670000Y140790000D03*
X14130000Y140790000D03*
X54340000Y136030000D03*
X-59370000Y115420000D03*
X-61890000Y34180000D03*
X32110000Y113210000D03*
X-51800000Y79850000D03*
X3970000Y143330000D03*
D15*
X-20980000Y111175000D03*
D14*
X14130000Y138250000D03*
X-36800000Y82360000D03*
X54390000Y34660000D03*
X59470000Y37200000D03*
X-66970000Y49420000D03*
X-64430000Y64660000D03*
X-9210000Y54630000D03*
X46900000Y17070000D03*
X-36700000Y98140000D03*
X-21680000Y22150000D03*
X29120000Y17070000D03*
X-5670000Y37650000D03*
X-61890000Y120540000D03*
X-1150000Y116150000D03*
X53740000Y84430000D03*
X-46870000Y143470000D03*
X45000000Y77560000D03*
X-23720000Y48730000D03*
X-9720000Y43650000D03*
X39680000Y82090000D03*
X-34080000Y79810000D03*
X-36250000Y43940000D03*
X-54330000Y110390000D03*
X54390000Y70220000D03*
X-61890000Y72280000D03*
X-66970000Y29100000D03*
X-28740000Y50430000D03*
X-64430000Y110380000D03*
D16*
X-39775000Y137460000D03*
D14*
X51390000Y57040000D03*
X-61890000Y92600000D03*
X-47030000Y107770000D03*
X24040000Y17070000D03*
X-29280000Y24280000D03*
X34550000Y53260000D03*
X-66970000Y51960000D03*
X-66970000Y62120000D03*
X-31170000Y41400000D03*
X-61890000Y97680000D03*
X42460000Y77560000D03*
X-66970000Y82440000D03*
X-870000Y119790000D03*
X21500000Y19610000D03*
X59420000Y110630000D03*
D15*
X-24940000Y141020000D03*
D14*
X-56890000Y44440000D03*
D15*
X-34520000Y138160000D03*
D14*
X-54340000Y79850000D03*
X-54340000Y77310000D03*
D16*
X-28600000Y127653000D03*
D14*
X-56870000Y51970000D03*
D16*
X-39037000Y139368000D03*
D14*
X21750000Y140790000D03*
X24070000Y24590000D03*
X-4290000Y32340000D03*
D16*
X-36900000Y131909990D03*
D15*
X-24930000Y142610000D03*
D14*
X59470000Y47360000D03*
D16*
X-37725000Y125310000D03*
D14*
X-59390000Y74860000D03*
X-64430000Y87520000D03*
X26890000Y126160000D03*
X-44850000Y107750000D03*
X-64430000Y57040000D03*
X-61890000Y29100000D03*
X-5280000Y127090000D03*
X44360000Y110720000D03*
X-12800000Y82870000D03*
X18960000Y17070000D03*
X34470000Y135890000D03*
D16*
X-38800000Y130710000D03*
D14*
X39530000Y143330000D03*
X27220000Y60570000D03*
X-29300000Y22150000D03*
X-64430000Y97680000D03*
D16*
X-21260000Y142560000D03*
D14*
X-60000Y50180000D03*
X29020000Y123390000D03*
X26990000Y103060000D03*
X24070000Y44370000D03*
X13880000Y17070000D03*
X59420000Y130950000D03*
X39560000Y110710000D03*
X-66970000Y69740000D03*
X-20540000Y135240000D03*
X51870000Y52430000D03*
X51860000Y47370000D03*
X-4250000Y59150000D03*
D16*
X-36900000Y134310000D03*
D14*
X-7290000Y45860000D03*
X-61890000Y57040000D03*
X-61890000Y77360000D03*
X-59280000Y57040000D03*
X56930000Y24500000D03*
X-61890000Y67200000D03*
X54390000Y57520000D03*
X51840000Y115730000D03*
X59470000Y34660000D03*
X41700000Y49910000D03*
X-14520000Y48020000D03*
X-31840000Y22150000D03*
X49690000Y143330000D03*
D16*
X-36900000Y130709990D03*
D14*
X-56870000Y107850000D03*
X54340000Y125870000D03*
X-20550000Y108220000D03*
X10610000Y78700000D03*
X-33650000Y121340000D03*
X11850000Y77420000D03*
X28930000Y46960000D03*
X8800000Y22150000D03*
D15*
X-36630000Y141660000D03*
D14*
X52090000Y24510000D03*
X26530000Y44450000D03*
X-59780000Y17070000D03*
X-1850000Y34310000D03*
X-11520000Y19610000D03*
X-29310000Y104350000D03*
X-31170000Y46480000D03*
X-64430000Y72280000D03*
X-38640000Y51140000D03*
X-36900000Y24280000D03*
X13880000Y19610000D03*
X24660000Y53320000D03*
X-51800000Y82390000D03*
D15*
X-24120000Y112020000D03*
X-27485166Y113674834D03*
D14*
X-61890000Y49420000D03*
X27060000Y100860000D03*
X39640000Y108340000D03*
X-2720000Y117910000D03*
X-66970000Y84980000D03*
X-35750000Y127640000D03*
X-5670000Y35110000D03*
X22120000Y55860000D03*
X-2740000Y129470000D03*
X26850000Y130970000D03*
X-8980000Y19610000D03*
X-38520000Y46400000D03*
X39920000Y77560000D03*
X26850000Y135890000D03*
X-4280000Y67690000D03*
X54390000Y44820000D03*
X51840000Y118270000D03*
X56930000Y65140000D03*
X-54490000Y140930000D03*
X54390000Y72760000D03*
X-26190000Y52290000D03*
X3720000Y22150000D03*
X-59570000Y143470000D03*
X51870000Y44990000D03*
X41900000Y112810000D03*
X-56870000Y49430000D03*
X-66970000Y39260000D03*
X-61890000Y102760000D03*
X59470000Y57520000D03*
X690000Y114520000D03*
X26530000Y46990000D03*
X-20000Y47970000D03*
D16*
X-28624200Y135585800D03*
D14*
X-59460000Y105350000D03*
X-31340000Y114680000D03*
X59420000Y125870000D03*
X-12650000Y88330000D03*
X-4200000Y54790000D03*
X-61890000Y26560000D03*
X-30880000Y92990000D03*
X11340000Y19610000D03*
X-57520000Y25850000D03*
X-26760000Y17070000D03*
X-41190000Y53290000D03*
X-64430000Y67200000D03*
X3720000Y17070000D03*
X-64430000Y74820000D03*
X24030000Y31900000D03*
X59420000Y136030000D03*
X-66970000Y90060000D03*
X26830000Y143330000D03*
X29120000Y19610000D03*
X59470000Y24500000D03*
X-44330000Y138390000D03*
X51840000Y108110000D03*
D15*
X-33890000Y142860000D03*
D14*
X-34250000Y70620000D03*
X-56870000Y115380000D03*
X34480000Y108230000D03*
X56930000Y75010000D03*
X18960000Y22150000D03*
X46860000Y108160000D03*
X59470000Y49900000D03*
X24040000Y22150000D03*
X56930000Y67680000D03*
X1180000Y17070000D03*
X-21680000Y19610000D03*
X59420000Y115710000D03*
X-64430000Y51960000D03*
X13880000Y22150000D03*
X-39460000Y19610000D03*
X-66970000Y87520000D03*
X54390000Y27040000D03*
X44240000Y49910000D03*
X-61890000Y110380000D03*
X-49300000Y77310000D03*
X-61890000Y107840000D03*
X59470000Y52440000D03*
D15*
X-29840000Y140540000D03*
D14*
X-33790000Y53370000D03*
D16*
X-25490000Y138310000D03*
D14*
X-52160000Y19610000D03*
X1220000Y24990000D03*
X-61890000Y24020000D03*
X44240000Y47370000D03*
D16*
X-33299990Y133110000D03*
D14*
X-59140000Y24080000D03*
X24660000Y58400000D03*
X-66970000Y77360000D03*
D16*
X-39140000Y143510000D03*
D14*
X-66970000Y41800000D03*
X-64430000Y59580000D03*
X-6500000Y116390000D03*
X22120000Y53320000D03*
X-700000Y111280000D03*
X-37070000Y90920000D03*
X-59410000Y49430000D03*
X2470000Y43840000D03*
X-51950000Y140930000D03*
X-36920000Y19610000D03*
X41820000Y17070000D03*
D16*
X-33299990Y134310000D03*
D14*
X-29300000Y19610000D03*
X54390000Y49900000D03*
X-33220000Y120300000D03*
X-9770000Y48010000D03*
X51840000Y105570000D03*
X42490000Y52760000D03*
X-39340000Y82360000D03*
X-30450000Y89050000D03*
D16*
X-24310000Y136640000D03*
D14*
X-39460000Y22150000D03*
D16*
X-36820000Y143520000D03*
D14*
X-61890000Y36720000D03*
X3970000Y138250000D03*
X-41650000Y84550000D03*
X54390000Y39740000D03*
X-40970000Y48870000D03*
X-41180000Y51140000D03*
X44610000Y140790000D03*
X-41940000Y105920000D03*
D16*
X-31721800Y127424600D03*
D14*
X-38360000Y118210000D03*
X-26200000Y50430000D03*
X41680000Y108400000D03*
X27970000Y79460000D03*
X23600000Y75280000D03*
X24680000Y60570000D03*
X59420000Y133490000D03*
D16*
X-22440000Y143280000D03*
D15*
X-36060000Y142340000D03*
D14*
X-31840000Y17070000D03*
X-2440000Y36960000D03*
X-31440000Y55890000D03*
X-31170000Y38860000D03*
X-29670000Y118710000D03*
X-7940000Y134090000D03*
X-1360000Y19610000D03*
D15*
X-31580000Y98590000D03*
D14*
X-34220000Y72700000D03*
X41820000Y19610000D03*
X28390000Y70280000D03*
X-9760000Y45860000D03*
X24350000Y126160000D03*
X29540000Y103120000D03*
X44360000Y22150000D03*
X-61890000Y133240000D03*
X-6830000Y132740000D03*
X-57240000Y19610000D03*
X-1766446Y103156446D03*
X-14060000Y22150000D03*
X-6440000Y17070000D03*
X-6410000Y29710000D03*
X28960000Y95780000D03*
X26370000Y98320000D03*
X-64430000Y31640000D03*
X29120000Y22150000D03*
X52170000Y133360000D03*
X-37140000Y86430000D03*
X-59780000Y19610000D03*
X21500000Y22150000D03*
X-66970000Y135780000D03*
X29550000Y108190000D03*
X-23730000Y50430000D03*
X-57030000Y138390000D03*
X37060000Y113270000D03*
X54340000Y128410000D03*
X-8760000Y133350000D03*
X45460000Y53560000D03*
X-26150000Y46520000D03*
D15*
X-18880000Y111150000D03*
D14*
X-54330000Y112930000D03*
X32280000Y55860000D03*
X-34360000Y26820000D03*
X-26190000Y48730000D03*
X56930000Y70220000D03*
D15*
X-30580000Y143320000D03*
D14*
X37700000Y77560000D03*
X-600000Y53750000D03*
X59470000Y42280000D03*
X-26720000Y24370000D03*
X52230000Y140790000D03*
X-36350000Y53310000D03*
X54340000Y113170000D03*
X-36250000Y41400000D03*
X39530000Y140790000D03*
X-29280000Y26820000D03*
X49440000Y19610000D03*
X-23680000Y46520000D03*
X56880000Y123330000D03*
X47150000Y143330000D03*
X59470000Y39740000D03*
X-31840000Y19610000D03*
X-49440000Y107780000D03*
X-64430000Y107840000D03*
X-6400000Y24990000D03*
X42220000Y82090000D03*
X-64430000Y54500000D03*
X-61890000Y59580000D03*
X-59570000Y140930000D03*
D16*
X-41678600Y141577800D03*
D14*
X20370000Y105730000D03*
X51880000Y86450000D03*
X-4210000Y56940000D03*
X54340000Y115710000D03*
X-56870000Y110390000D03*
X56930000Y47360000D03*
X56880000Y105550000D03*
X54340000Y123330000D03*
X28920000Y92060000D03*
X-8630000Y131420000D03*
X27030000Y105560000D03*
X59470000Y32120000D03*
X35160000Y77560000D03*
X-41680000Y79850000D03*
X34450000Y143330000D03*
X26570000Y37050000D03*
X-8980000Y22150000D03*
X32070000Y105540000D03*
X39950000Y52760000D03*
X-61890000Y54500000D03*
X9050000Y143330000D03*
X59470000Y27040000D03*
D16*
X-34499990Y130709990D03*
D14*
X1180000Y22150000D03*
X32560000Y74640000D03*
X-33150000Y123110000D03*
X9570000Y111960000D03*
X56930000Y60060000D03*
X-23790000Y140310000D03*
X-59410000Y51970000D03*
X-540000Y130790000D03*
X-66970000Y46880000D03*
X56930000Y37200000D03*
X-42000000Y22150000D03*
X-32700000Y62340000D03*
X-36900000Y26820000D03*
X-66970000Y118000000D03*
X-66970000Y125620000D03*
X24280000Y123370000D03*
X29110000Y37050000D03*
D15*
X-30340000Y140280000D03*
D14*
X-64430000Y49420000D03*
X39490000Y49900000D03*
X8800000Y19610000D03*
X59470000Y54980000D03*
D15*
X-36680000Y140690000D03*
D14*
X22910000Y105730000D03*
X-2660000Y39640000D03*
X-44540000Y19610000D03*
X29070000Y44450000D03*
X56930000Y62600000D03*
X29570000Y105560000D03*
X56880000Y128410000D03*
X-1320000Y24990000D03*
X990000Y102840000D03*
X59470000Y75010000D03*
X-11410000Y45900000D03*
D16*
X-35000000Y139034990D03*
D14*
X49300000Y115730000D03*
D15*
X-32100000Y142900000D03*
D14*
X-26760000Y19610000D03*
X-41700000Y134180000D03*
X-61890000Y128160000D03*
X56880000Y125870000D03*
X26370000Y95780000D03*
X56930000Y34660000D03*
D16*
X-34499990Y133110000D03*
D14*
X56930000Y54980000D03*
X-6590000Y81800000D03*
D15*
X-29570000Y114590000D03*
D14*
X42070000Y140790000D03*
X54390000Y54980000D03*
X56930000Y39740000D03*
X-57050000Y135890000D03*
X59420000Y118250000D03*
X-61890000Y118000000D03*
X24310000Y133350000D03*
X-9810000Y50220000D03*
X-61890000Y46880000D03*
X-36350000Y55850000D03*
X56930000Y49900000D03*
X-49620000Y17070000D03*
X-42980000Y107710000D03*
X-54330000Y51970000D03*
X-36250000Y36320000D03*
X-37060000Y111960000D03*
X54390000Y62600000D03*
X56930000Y27040000D03*
X-57240000Y17070000D03*
X-64430000Y44340000D03*
X27190000Y62800000D03*
X-56880000Y79850000D03*
X16420000Y17070000D03*
X-30650000Y138970000D03*
X29150000Y27130000D03*
X18890000Y46870000D03*
X-33710000Y33780000D03*
X59470000Y44820000D03*
D15*
X-28814834Y114995166D03*
D14*
X-61890000Y62120000D03*
X49300000Y108110000D03*
X26570000Y34510000D03*
X-64430000Y24020000D03*
X26580000Y19610000D03*
X-44330000Y143470000D03*
X46780000Y47370000D03*
X31660000Y19610000D03*
X-21390000Y52320000D03*
X-49410000Y140930000D03*
D15*
X-22080000Y111990000D03*
D14*
X-59370000Y41890000D03*
D15*
X-24940000Y143220000D03*
D14*
X-61890000Y39260000D03*
X-59480000Y133300000D03*
X-46760000Y79850000D03*
D15*
X-36890000Y138310000D03*
X-33940000Y140300000D03*
D14*
X-47080000Y17070000D03*
X-31600000Y81610000D03*
X56930000Y44820000D03*
X-43440000Y51090000D03*
D16*
X-37767000Y139901400D03*
D14*
X-56880000Y82390000D03*
X-55930000Y24030000D03*
X-61890000Y115460000D03*
X24290000Y138250000D03*
D16*
X-33075000Y139685000D03*
D14*
X36990000Y140790000D03*
X52170000Y77560000D03*
X-66970000Y59580000D03*
X-2740000Y124550000D03*
X-59410000Y107850000D03*
X26360000Y93570000D03*
X-31200000Y104360000D03*
X59470000Y67680000D03*
X56930000Y72760000D03*
D16*
X-36900000Y133110000D03*
D14*
X59470000Y72760000D03*
X32150000Y103170000D03*
X-56800000Y54510000D03*
X-44330000Y140930000D03*
X-59390000Y72320000D03*
X54390000Y47360000D03*
X-11540000Y24960000D03*
X-64430000Y135780000D03*
X-39750000Y104400000D03*
X29370000Y138250000D03*
X-3860000Y24990000D03*
X-61890000Y79900000D03*
X49730000Y135840000D03*
X-16600000Y19610000D03*
X-28690000Y43980000D03*
X-66970000Y97680000D03*
X16420000Y22150000D03*
X21770000Y135890000D03*
X54390000Y60060000D03*
X59420000Y105550000D03*
X-64430000Y46880000D03*
X-49300000Y82390000D03*
X-36920000Y17070000D03*
X26860000Y121100000D03*
X32080000Y110610000D03*
X54390000Y75010000D03*
X34450000Y138250000D03*
X-66970000Y44340000D03*
X-64430000Y62120000D03*
X-31180000Y111520000D03*
X-59380000Y84950000D03*
X29760000Y60570000D03*
X-32700000Y57710000D03*
X-4290000Y65660000D03*
X-51980000Y112860000D03*
X-66970000Y120540000D03*
X-46870000Y140930000D03*
X2450000Y47970000D03*
X-22700000Y141410000D03*
X29160000Y29630000D03*
X-39440000Y24280000D03*
X-3900000Y22150000D03*
X52230000Y143330000D03*
X-66970000Y102760000D03*
X-66970000Y74820000D03*
X-61890000Y87520000D03*
X28960000Y98320000D03*
X-64430000Y100220000D03*
X59470000Y70220000D03*
X9050000Y140790000D03*
X56930000Y32120000D03*
X-66970000Y34180000D03*
X-66970000Y72280000D03*
D16*
X-32650000Y140900000D03*
D14*
X2460000Y45820000D03*
X42070000Y138250000D03*
X47150000Y138250000D03*
X44760000Y82090000D03*
D16*
X-31690000Y140920000D03*
D14*
X-66970000Y79900000D03*
X46900000Y19610000D03*
X19210000Y143330000D03*
X-44220000Y82390000D03*
X34200000Y17070000D03*
X-38630000Y53410000D03*
D16*
X-27825000Y128660000D03*
D14*
X21420000Y44320000D03*
X56880000Y133490000D03*
X-52160000Y17070000D03*
X-8980000Y17070000D03*
X29740000Y55860000D03*
X-39340000Y79820000D03*
X-3900000Y19610000D03*
X-34380000Y19610000D03*
X3780000Y25080000D03*
X24660000Y55860000D03*
X44360000Y19610000D03*
X29740000Y58400000D03*
X-64430000Y82440000D03*
X16800000Y114110000D03*
X-25920000Y136970000D03*
X-41680000Y82390000D03*
X41820000Y110720000D03*
X49620000Y55360000D03*
X-7010000Y54680000D03*
X37060000Y110730000D03*
X26570000Y31970000D03*
X52170000Y75020000D03*
X19210000Y138250000D03*
X-3900000Y17070000D03*
X-61890000Y100220000D03*
X51860000Y49910000D03*
X59420000Y108090000D03*
D15*
X-27160000Y140520000D03*
D14*
X-59280000Y54500000D03*
X-64430000Y79900000D03*
X-46100000Y48770000D03*
X-29060000Y81610000D03*
X-30850000Y113790000D03*
X29740000Y53320000D03*
X21420000Y46860000D03*
X-46920000Y77680000D03*
X39280000Y22150000D03*
X46780000Y49910000D03*
X27200000Y55860000D03*
X-33710000Y43940000D03*
X47150000Y140790000D03*
X56930000Y42280000D03*
X-31820000Y24280000D03*
X-59420000Y79850000D03*
X-26340000Y81600000D03*
X-44540000Y22150000D03*
X26830000Y140790000D03*
X-66970000Y26560000D03*
X-14060000Y17070000D03*
X29110000Y34510000D03*
X47090000Y77560000D03*
X26830000Y138250000D03*
X-64430000Y29100000D03*
X49300000Y110650000D03*
X-66970000Y130700000D03*
X22690000Y58180000D03*
X-66970000Y115460000D03*
X24290000Y143330000D03*
D16*
X-41680000Y143510000D03*
X-33299990Y131909990D03*
D15*
X-35010000Y140390000D03*
D14*
X24110000Y36970000D03*
X-66970000Y112920000D03*
X32160000Y108240000D03*
X-5280000Y129470000D03*
D15*
X-34690000Y142860000D03*
X41870000Y79245000D03*
D14*
X-57030000Y140930000D03*
X-59410000Y112930000D03*
X-28730000Y48730000D03*
X14610000Y111940000D03*
X-47030000Y110310000D03*
X-36920000Y22150000D03*
D15*
X-35000000Y139780000D03*
D14*
X53980000Y81940000D03*
X-37120000Y88610000D03*
X-61890000Y69740000D03*
X49300000Y113190000D03*
X-5160000Y120230000D03*
X-3870000Y29710000D03*
X-51950000Y138390000D03*
X23480000Y95040000D03*
X-1320000Y27530000D03*
X18960000Y19610000D03*
X1390000Y111900000D03*
X-42000000Y17070000D03*
X11340000Y22150000D03*
X-24220000Y22150000D03*
X6790000Y85290000D03*
X19230000Y135890000D03*
X-61890000Y74820000D03*
X56880000Y108090000D03*
X-61890000Y82440000D03*
X11590000Y143330000D03*
X26610000Y27130000D03*
X24700000Y110660000D03*
X-23740000Y52310000D03*
X39280000Y17070000D03*
X9050000Y138250000D03*
X3720000Y19610000D03*
X-49300000Y79850000D03*
X-61890000Y41800000D03*
X-61890000Y135780000D03*
D16*
X-35700000Y133110000D03*
D14*
X-64430000Y36720000D03*
D15*
X-29050000Y140530000D03*
D14*
X-61890000Y95140000D03*
X-2280000Y131260000D03*
X-66970000Y36720000D03*
X54390000Y65140000D03*
X-3860000Y27530000D03*
X-59370000Y117960000D03*
X-12050000Y48020000D03*
X52230000Y138250000D03*
X-64430000Y77360000D03*
X-36550000Y96850000D03*
X59420000Y128410000D03*
X-56870000Y112930000D03*
X-26760000Y22150000D03*
X29580000Y113170000D03*
X-5280000Y124550000D03*
X-59480000Y135840000D03*
X29370000Y140790000D03*
X-61890000Y64660000D03*
X54340000Y118250000D03*
X-61890000Y125620000D03*
D15*
X-26280000Y140510000D03*
D14*
X-12090000Y50230000D03*
X-19450000Y110160000D03*
X-64430000Y92600000D03*
X-59410000Y46890000D03*
X44360000Y17070000D03*
X-51980000Y110320000D03*
D16*
X-18640000Y142530000D03*
D14*
X-51950000Y143470000D03*
X-34380000Y17070000D03*
X-28900000Y138970000D03*
X-57240000Y22150000D03*
X-54700000Y22150000D03*
D15*
X-28480000Y113490000D03*
D14*
X-27060000Y115560000D03*
X31690000Y24590000D03*
X36990000Y143330000D03*
X-64430000Y130700000D03*
X-530000Y105340000D03*
X39670000Y112780000D03*
X-64430000Y115460000D03*
X-66970000Y64660000D03*
X-64430000Y102760000D03*
X36950000Y49900000D03*
X-66970000Y31640000D03*
X29390000Y130970000D03*
X26340000Y92000000D03*
D16*
X-35700000Y134310000D03*
D14*
X54390000Y67680000D03*
X-37340000Y104390000D03*
X44390000Y108450000D03*
X-56920000Y74810000D03*
X31910000Y140790000D03*
X34200000Y19610000D03*
X41820000Y22150000D03*
X46900000Y22150000D03*
X24310000Y128430000D03*
X6510000Y140790000D03*
X-64430000Y69740000D03*
X-7000000Y56830000D03*
X37090000Y53260000D03*
D15*
X-28210000Y140520000D03*
D14*
X-11520000Y17070000D03*
X-33750000Y48690000D03*
X42070000Y143330000D03*
X56880000Y110630000D03*
X51980000Y19610000D03*
X-40780000Y46430000D03*
X-38670000Y55830000D03*
X-5110000Y118090000D03*
X-36290000Y48690000D03*
X24110000Y34430000D03*
X-54700000Y19610000D03*
X-26270000Y54540000D03*
X-9670000Y132420000D03*
X-33710000Y36320000D03*
X-28560000Y117140000D03*
X49320000Y49910000D03*
X48000000Y53560000D03*
X-11520000Y22150000D03*
X-66970000Y54500000D03*
X-66970000Y57040000D03*
X11340000Y17070000D03*
X12220000Y108760000D03*
X-6440000Y19610000D03*
X-42000000Y19610000D03*
X11590000Y138250000D03*
X-31160000Y51220000D03*
D15*
X40830000Y79255000D03*
D14*
X20330000Y103230000D03*
X-59460000Y102810000D03*
X29390000Y128430000D03*
X-31210000Y48690000D03*
X29390000Y133350000D03*
X24320000Y121100000D03*
X16670000Y138250000D03*
X10110000Y108790000D03*
X26570000Y42130000D03*
X56930000Y57520000D03*
X26580000Y22150000D03*
X-54340000Y82390000D03*
X-7300000Y48010000D03*
X-54330000Y49430000D03*
%TO.N,/Vout_1V8*%
X-32210000Y115000000D03*
X-28866180Y134839760D03*
X21670000Y78630000D03*
X7190000Y81740000D03*
X16590000Y83710000D03*
X16590000Y78630000D03*
X-38100000Y115010000D03*
X-8280000Y87030000D03*
X-30476180Y134689760D03*
X19130000Y83710000D03*
X17630000Y77020000D03*
X-19690000Y81900000D03*
D16*
X-40550000Y134185000D03*
D14*
X21670000Y86250000D03*
X-30824990Y126710000D03*
X16590000Y81170000D03*
X-12580000Y133500000D03*
X8460000Y80590000D03*
X21670000Y83710000D03*
X19130000Y81170000D03*
X21670000Y81170000D03*
X19130000Y78630000D03*
%TO.N,/Vout_3V3*%
X35369746Y86271515D03*
X-6890000Y129090000D03*
X27749746Y86271515D03*
X-43480000Y46320000D03*
X-10130000Y141090000D03*
X-11060000Y140280000D03*
X25209746Y81191515D03*
X32829746Y81191515D03*
X25209746Y83731515D03*
X25209746Y86271515D03*
X-14740000Y82130000D03*
X22340000Y29620000D03*
X-3750000Y105100000D03*
X-60040000Y130700000D03*
X30289746Y81191515D03*
X-37210000Y99200000D03*
X52460000Y29930000D03*
X18320000Y105220000D03*
X29720000Y120370000D03*
X30289746Y86271515D03*
X-38500000Y72030000D03*
X32829746Y86271515D03*
X-12910000Y46130000D03*
X2300000Y116610000D03*
X-9900000Y140040000D03*
X-29160000Y87800000D03*
X-24425000Y78745000D03*
X27749746Y83731515D03*
X22920000Y60460000D03*
X-2590000Y42940000D03*
X25209746Y76111515D03*
X51260000Y72540000D03*
X23980000Y72440000D03*
X-11210000Y81650000D03*
X25209746Y78651515D03*
X-27980000Y56880000D03*
X27749746Y81191515D03*
X30289746Y83731515D03*
X32829746Y83731515D03*
X30160000Y100660000D03*
%TO.N,/VBUS*%
X2229840Y135300000D03*
X1279840Y134325000D03*
X2229840Y134325000D03*
X364840Y134300000D03*
%TO.N,/CC1*%
X-5945160Y135610000D03*
X-2295160Y136250000D03*
%TO.N,/LR*%
X-15090000Y140110000D03*
D15*
X-33600000Y135260000D03*
D14*
%TO.N,/LG*%
X-31930000Y138860000D03*
X-19220000Y141230000D03*
D15*
%TO.N,/LB*%
X-34600000Y135260000D03*
D14*
X-14200000Y143280000D03*
D15*
%TO.N,/MUX_MID1*%
X-6550000Y82450000D03*
X-6500000Y108030000D03*
%TO.N,/MUX_MID2*%
X-5802500Y57487500D03*
X-6650000Y81150000D03*
%TO.N,/-INB4*%
X-7570000Y114880000D03*
X-21110000Y112950000D03*
%TO.N,/-INB5*%
X-3760000Y107040000D03*
X43920000Y107040000D03*
%TO.N,/-INB6*%
X-4410000Y107040000D03*
X21920000Y110540000D03*
%TO.N,/-INB7*%
X-5060000Y107050000D03*
X-31120000Y95550000D03*
%TO.N,/-INB8*%
X-32840000Y99370000D03*
X-5710000Y107060000D03*
%TO.N,/-INB9*%
X-3200000Y52360000D03*
X52930000Y61430000D03*
%TO.N,/-INB10*%
X21110000Y57410000D03*
X-3850000Y52360000D03*
%TO.N,/-INB11*%
X-31030000Y63930000D03*
X-4500000Y52360000D03*
%TO.N,/-INB12*%
X-36930000Y68050000D03*
X-5150000Y52370000D03*
%TO.N,/P0.27*%
X-36100000Y129760000D03*
X-28960000Y82610000D03*
%TO.N,/P0.26*%
X-29640000Y83550000D03*
X-36335451Y128798148D03*
%TO.N,/P0.04*%
X-30325000Y84465000D03*
X-35390000Y128110000D03*
%TO.N,/P0.05*%
X-35600000Y129760000D03*
X-33650000Y127970000D03*
%TO.N,/P1.08*%
X-32950000Y126140000D03*
X-34600000Y129760000D03*
D14*
%TO.N,/SIG1*%
X41260000Y125100000D03*
%TO.N,/SIG2*%
X11310000Y125340000D03*
%TO.N,/SIG3*%
X-18780000Y125090000D03*
%TO.N,/SIG4*%
X-48780000Y125100000D03*
%TO.N,/SIG5*%
X41210000Y95100000D03*
%TO.N,/SIG6*%
X11190000Y95080000D03*
%TO.N,/SIG7*%
X-18780000Y95050000D03*
%TO.N,/SIG8*%
X-48840000Y95030000D03*
%TO.N,/SIG9*%
X41210000Y65080000D03*
%TO.N,/SIG10*%
X11220000Y65080000D03*
%TO.N,/nRESET_IN*%
X-19230000Y138070000D03*
X-25870000Y135190000D03*
D15*
%TO.N,/nRESET*%
X-32350000Y132510000D03*
D14*
X-29486180Y134249760D03*
D15*
%TO.N,/P0.07*%
X-35100000Y129760000D03*
X-31040000Y85430000D03*
D16*
%TO.N,/DEC4_6*%
X-39926000Y133640000D03*
X-38150000Y138824200D03*
D14*
%TO.N,/SIG11*%
X-18810000Y65120000D03*
%TO.N,/SIG12*%
X-48800000Y65090000D03*
%TO.N,/SIG13*%
X41380000Y35160000D03*
%TO.N,/SIG14*%
X11320000Y35180000D03*
%TO.N,/SIG15*%
X-18840000Y35080000D03*
%TO.N,/SIG16*%
X-48800000Y35090000D03*
D15*
%TO.N,/S0*%
X-30570000Y117290000D03*
X-1250000Y54420000D03*
X-1150000Y112780000D03*
%TO.N,/S1*%
X-1150000Y109130000D03*
X-31320000Y120110000D03*
X-34690000Y127480000D03*
X-1240000Y46670000D03*
%TO.N,/S2*%
X-32000000Y126370000D03*
X-1900000Y48400000D03*
X-1800000Y108310000D03*
%TO.N,/S3*%
X-8160000Y80050000D03*
X-32930000Y124290000D03*
%TD*%
D17*
%TO.N,/out_5V*%
X53450000Y134420000D02*
X48060000Y139810000D01*
X48060000Y139810000D02*
X-1550000Y139810000D01*
X53450000Y86170000D02*
X53450000Y134420000D01*
D18*
%TO.N,GND*%
X-8760000Y133350000D02*
X-8720000Y133350000D01*
D19*
X-2280000Y131180000D02*
X-1250000Y130150000D01*
X-7880000Y133810000D02*
X-6830000Y132760000D01*
D18*
X-540000Y130830000D02*
X-540000Y130790000D01*
D19*
X-1590000Y131880000D02*
X-540000Y130830000D01*
X-8720000Y133350000D02*
X-7640000Y132270000D01*
D18*
X-8630000Y131420000D02*
X-8670000Y131420000D01*
D19*
X-6830000Y132760000D02*
X-6830000Y132740000D01*
X-7880000Y134090000D02*
X-7880000Y133810000D01*
D18*
X-7940000Y134090000D02*
X-7880000Y134090000D01*
D19*
X-8670000Y131420000D02*
X-9670000Y132420000D01*
D18*
X-2280000Y131260000D02*
X-2280000Y131180000D01*
%TO.N,/LR*%
X-33600000Y135260000D02*
X-33590000Y135260000D01*
X-31180000Y137670000D02*
X-25030000Y137670000D01*
X-22590000Y140110000D02*
X-15090000Y140110000D01*
X-33590000Y135260000D02*
X-31180000Y137670000D01*
X-25030000Y137670000D02*
X-22590000Y140110000D01*
%TO.N,/LB*%
X-26600000Y138260000D02*
X-21580000Y143280000D01*
X-21580000Y143280000D02*
X-14200000Y143280000D01*
X-31600000Y138260000D02*
X-26600000Y138260000D01*
X-34600000Y135260000D02*
X-31600000Y138260000D01*
D20*
%TO.N,/MUX_MID1*%
X-6940000Y82450000D02*
X-6550000Y82450000D01*
X-6500000Y108030000D02*
X-6500000Y92710000D01*
X-7240000Y82750000D02*
X-6940000Y82450000D01*
X-6500000Y92710000D02*
X-7240000Y91970000D01*
X-7240000Y91970000D02*
X-7240000Y82750000D01*
%TO.N,/MUX_MID2*%
X-5802500Y76602500D02*
X-6960000Y77760000D01*
X-6960000Y77760000D02*
X-6960000Y80840000D01*
X-6960000Y80840000D02*
X-6650000Y81150000D01*
X-5802500Y57487500D02*
X-5802500Y76602500D01*
%TO.N,/-INB8*%
X-22650000Y109560000D02*
X-6540000Y109560000D01*
X-6540000Y109560000D02*
X-5710000Y108730000D01*
X-32840000Y99370000D02*
X-22650000Y109560000D01*
X-5710000Y108730000D02*
X-5710000Y107060000D01*
%TO.N,/P0.05*%
X-33650000Y127970000D02*
X-34390000Y127970000D01*
X-35600000Y129180000D02*
X-35600000Y129760000D01*
X-34390000Y127970000D02*
X-35600000Y129180000D01*
%TO.N,/S0*%
X-15140000Y112430000D02*
X-15010000Y112300000D01*
X-540000Y112780000D02*
X50000Y112190000D01*
X-1250000Y54440000D02*
X-1250000Y54420000D01*
X-15010000Y112300000D02*
X-1630000Y112300000D01*
X-1150000Y112780000D02*
X-540000Y112780000D01*
X-830000Y54860000D02*
X-1250000Y54440000D01*
X-30570000Y117290000D02*
X-25710000Y112430000D01*
X-830000Y101350000D02*
X-830000Y54860000D01*
X50000Y112190000D02*
X50000Y102230000D01*
X-1630000Y112300000D02*
X-1150000Y112780000D01*
X-25710000Y112430000D02*
X-15140000Y112430000D01*
X50000Y102230000D02*
X-830000Y101350000D01*
%TO.N,/S1*%
X-3540000Y111550000D02*
X-1150000Y109160000D01*
X-1840000Y50100000D02*
X-1840000Y102330000D01*
X-25900000Y111550000D02*
X-3540000Y111550000D01*
X-1240000Y46670000D02*
X-1240000Y49500000D01*
X-31320000Y116970000D02*
X-25900000Y111550000D01*
X-1150000Y103020000D02*
X-1150000Y109130000D01*
X-1840000Y102330000D02*
X-1150000Y103020000D01*
X-1240000Y49500000D02*
X-1840000Y50100000D01*
X-31320000Y120110000D02*
X-31320000Y116970000D01*
X-1150000Y109160000D02*
X-1150000Y109130000D01*
%TO.N,/S2*%
X-1800000Y108310000D02*
X-1800000Y103830000D01*
X-2670000Y102960000D02*
X-2670000Y49170000D01*
X-32000000Y116350000D02*
X-32000000Y126370000D01*
X-1800000Y108310000D02*
X-4230000Y110740000D01*
X-26390000Y110740000D02*
X-32000000Y116350000D01*
X-1800000Y103830000D02*
X-2670000Y102960000D01*
X-4230000Y110740000D02*
X-26390000Y110740000D01*
X-2670000Y49170000D02*
X-1900000Y48400000D01*
%TO.N,/S3*%
X-32930000Y124290000D02*
X-32930000Y124250000D01*
X-32930000Y124290000D02*
X-35900000Y121320000D01*
X-32160000Y80050000D02*
X-8160000Y80050000D01*
X-35900000Y121320000D02*
X-35900000Y83790000D01*
X-35900000Y83790000D02*
X-32160000Y80050000D01*
%TD*%
%TA.AperFunction,Conductor*%
%TO.N,GND*%
G36*
X-42520000Y128780000D02*
G01*
X-41810000Y128070000D01*
X-41810000Y123890000D01*
X-33613550Y123890000D01*
X-36069975Y121433576D01*
X-36069976Y121433575D01*
X-36100500Y121359884D01*
X-36100500Y121359882D01*
X-36100500Y83829882D01*
X-36100500Y83750118D01*
X-36069976Y83676426D01*
X-32273574Y79880024D01*
X-32199882Y79849500D01*
X-32120118Y79849500D01*
X-8400477Y79849500D01*
X-8333438Y79829815D01*
X-8320662Y79819520D01*
X-8316060Y79816445D01*
X-8316058Y79816443D01*
X-8214800Y79774500D01*
X-8214799Y79774500D01*
X-8105201Y79774500D01*
X-8105200Y79774500D01*
X-8003942Y79816443D01*
X-7926443Y79893942D01*
X-7884500Y79995200D01*
X-7884500Y80104800D01*
X-7926443Y80206058D01*
X-8003942Y80283557D01*
X-8105200Y80325500D01*
X-8214800Y80325500D01*
X-8214801Y80325500D01*
X-8316060Y80283556D01*
X-8326212Y80276772D01*
X-8327545Y80278766D01*
X-8374119Y80253334D01*
X-8400477Y80250500D01*
X-32025588Y80250500D01*
X-32092627Y80270185D01*
X-32113269Y80286819D01*
X-32706334Y80879884D01*
X-7160500Y80879884D01*
X-7160500Y77720117D01*
X-7129976Y77646426D01*
X-6039319Y76555769D01*
X-6005834Y76494446D01*
X-6003000Y76468088D01*
X-6003000Y57727977D01*
X-6022685Y57660938D01*
X-6032981Y57648162D01*
X-6036056Y57643560D01*
X-6036057Y57643559D01*
X-6036057Y57643558D01*
X-6078000Y57542300D01*
X-6078000Y57432700D01*
X-6036057Y57331442D01*
X-5958558Y57253943D01*
X-5857300Y57212000D01*
X-5857299Y57212000D01*
X-5747701Y57212000D01*
X-5747700Y57212000D01*
X-5646442Y57253943D01*
X-5568943Y57331442D01*
X-5527000Y57432700D01*
X-5527000Y57542300D01*
X-5568943Y57643558D01*
X-5568945Y57643560D01*
X-5575728Y57653712D01*
X-5573735Y57655045D01*
X-5599166Y57701619D01*
X-5602000Y57727977D01*
X-5602000Y76642381D01*
X-5602001Y76642384D01*
X-5603827Y76646793D01*
X-5632524Y76716074D01*
X-5688926Y76772476D01*
X-6723181Y77806731D01*
X-6756666Y77868054D01*
X-6759500Y77894412D01*
X-6759500Y80705588D01*
X-6750856Y80735029D01*
X-6744332Y80765015D01*
X-6740578Y80770031D01*
X-6739815Y80772627D01*
X-6723181Y80793269D01*
X-6678269Y80838181D01*
X-6616946Y80871666D01*
X-6600629Y80873421D01*
X-6595205Y80874500D01*
X-6595200Y80874500D01*
X-6493942Y80916443D01*
X-6416443Y80993942D01*
X-6374500Y81095200D01*
X-6374500Y81204800D01*
X-6416443Y81306058D01*
X-6493942Y81383557D01*
X-6595200Y81425500D01*
X-6704800Y81425500D01*
X-6704801Y81425500D01*
X-6806060Y81383556D01*
X-6883556Y81306060D01*
X-6925500Y81204801D01*
X-6927882Y81192823D01*
X-6930234Y81193291D01*
X-6945185Y81142373D01*
X-6961819Y81121731D01*
X-7129975Y80953576D01*
X-7129976Y80953575D01*
X-7160500Y80879884D01*
X-32706334Y80879884D01*
X-33779177Y81952727D01*
X-20090500Y81952727D01*
X-20090500Y81847273D01*
X-20063207Y81745413D01*
X-20010480Y81654087D01*
X-19935913Y81579520D01*
X-19844587Y81526793D01*
X-19742727Y81499500D01*
X-19742725Y81499500D01*
X-19637275Y81499500D01*
X-19637273Y81499500D01*
X-19535413Y81526793D01*
X-19444087Y81579520D01*
X-19369520Y81654087D01*
X-19341438Y81702727D01*
X-11610500Y81702727D01*
X-11610500Y81597273D01*
X-11583207Y81495413D01*
X-11530480Y81404087D01*
X-11455913Y81329520D01*
X-11364587Y81276793D01*
X-11262727Y81249500D01*
X-11262725Y81249500D01*
X-11157275Y81249500D01*
X-11157273Y81249500D01*
X-11055413Y81276793D01*
X-10964087Y81329520D01*
X-10889520Y81404087D01*
X-10836793Y81495413D01*
X-10809500Y81597273D01*
X-10809500Y81702727D01*
X-10836793Y81804587D01*
X-10889520Y81895913D01*
X-10964087Y81970480D01*
X-11055413Y82023207D01*
X-11157273Y82050500D01*
X-11262727Y82050500D01*
X-11364587Y82023207D01*
X-11364590Y82023206D01*
X-11455915Y81970479D01*
X-11530479Y81895915D01*
X-11583206Y81804590D01*
X-11583207Y81804587D01*
X-11610500Y81702727D01*
X-19341438Y81702727D01*
X-19316793Y81745413D01*
X-19289500Y81847273D01*
X-19289500Y81952727D01*
X-19316793Y82054587D01*
X-19369520Y82145913D01*
X-19406334Y82182727D01*
X-15140500Y82182727D01*
X-15140500Y82077273D01*
X-15113207Y81975413D01*
X-15060480Y81884087D01*
X-14985913Y81809520D01*
X-14894587Y81756793D01*
X-14792727Y81729500D01*
X-14792725Y81729500D01*
X-14687275Y81729500D01*
X-14687273Y81729500D01*
X-14585413Y81756793D01*
X-14494087Y81809520D01*
X-14419520Y81884087D01*
X-14366793Y81975413D01*
X-14339500Y82077273D01*
X-14339500Y82182727D01*
X-14366793Y82284587D01*
X-14419520Y82375913D01*
X-14494087Y82450480D01*
X-14585413Y82503207D01*
X-14687273Y82530500D01*
X-14792727Y82530500D01*
X-14894587Y82503207D01*
X-14894590Y82503206D01*
X-14985915Y82450479D01*
X-15060479Y82375915D01*
X-15113206Y82284590D01*
X-15113207Y82284587D01*
X-15140500Y82182727D01*
X-19406334Y82182727D01*
X-19444087Y82220480D01*
X-19528064Y82268964D01*
X-19535411Y82273206D01*
X-19535412Y82273207D01*
X-19535413Y82273207D01*
X-19637273Y82300500D01*
X-19742727Y82300500D01*
X-19844587Y82273207D01*
X-19844590Y82273206D01*
X-19935915Y82220479D01*
X-20010479Y82145915D01*
X-20063206Y82054590D01*
X-20063207Y82054587D01*
X-20090500Y81952727D01*
X-33779177Y81952727D01*
X-34491250Y82664800D01*
X-29235500Y82664800D01*
X-29235500Y82555200D01*
X-29193557Y82453942D01*
X-29116058Y82376443D01*
X-29014800Y82334500D01*
X-29014799Y82334500D01*
X-28905201Y82334500D01*
X-28905200Y82334500D01*
X-28803942Y82376443D01*
X-28726443Y82453942D01*
X-28684500Y82555200D01*
X-28684500Y82664800D01*
X-28726443Y82766058D01*
X-28803942Y82843557D01*
X-28905200Y82885500D01*
X-29014800Y82885500D01*
X-29014801Y82885500D01*
X-29116060Y82843556D01*
X-29193556Y82766060D01*
X-29233269Y82670185D01*
X-29235500Y82664800D01*
X-34491250Y82664800D01*
X-35431250Y83604800D01*
X-29915500Y83604800D01*
X-29915500Y83495200D01*
X-29873557Y83393942D01*
X-29796058Y83316443D01*
X-29694800Y83274500D01*
X-29694799Y83274500D01*
X-29585201Y83274500D01*
X-29585200Y83274500D01*
X-29483942Y83316443D01*
X-29406443Y83393942D01*
X-29364500Y83495200D01*
X-29364500Y83604800D01*
X-29406443Y83706058D01*
X-29483942Y83783557D01*
X-29585200Y83825500D01*
X-29694800Y83825500D01*
X-29694801Y83825500D01*
X-29796060Y83783556D01*
X-29873556Y83706060D01*
X-29873557Y83706059D01*
X-29873557Y83706058D01*
X-29915500Y83604800D01*
X-35431250Y83604800D01*
X-35663181Y83836731D01*
X-35696666Y83898054D01*
X-35699500Y83924412D01*
X-35699500Y84519800D01*
X-30600500Y84519800D01*
X-30600500Y84410200D01*
X-30558557Y84308942D01*
X-30481058Y84231443D01*
X-30379800Y84189500D01*
X-30379799Y84189500D01*
X-30270201Y84189500D01*
X-30270200Y84189500D01*
X-30168942Y84231443D01*
X-30091443Y84308942D01*
X-30049500Y84410200D01*
X-30049500Y84519800D01*
X-30091443Y84621058D01*
X-30168942Y84698557D01*
X-30270200Y84740500D01*
X-30379800Y84740500D01*
X-30379801Y84740500D01*
X-30451404Y84710841D01*
X-30462420Y84706277D01*
X-30481060Y84698556D01*
X-30558556Y84621060D01*
X-30558557Y84621059D01*
X-30558557Y84621058D01*
X-30600500Y84519800D01*
X-35699500Y84519800D01*
X-35699500Y85484800D01*
X-31315500Y85484800D01*
X-31315500Y85375200D01*
X-31273557Y85273942D01*
X-31196058Y85196443D01*
X-31094800Y85154500D01*
X-31094799Y85154500D01*
X-30985201Y85154500D01*
X-30985200Y85154500D01*
X-30883942Y85196443D01*
X-30806443Y85273942D01*
X-30764500Y85375200D01*
X-30764500Y85484800D01*
X-30806443Y85586058D01*
X-30883942Y85663557D01*
X-30985200Y85705500D01*
X-31094800Y85705500D01*
X-31094801Y85705500D01*
X-31196060Y85663556D01*
X-31273556Y85586060D01*
X-31273557Y85586059D01*
X-31273557Y85586058D01*
X-31315500Y85484800D01*
X-35699500Y85484800D01*
X-35699500Y87082727D01*
X-8680500Y87082727D01*
X-8680500Y86977273D01*
X-8653207Y86875413D01*
X-8600480Y86784087D01*
X-8525913Y86709520D01*
X-8434587Y86656793D01*
X-8332727Y86629500D01*
X-8332725Y86629500D01*
X-8227275Y86629500D01*
X-8227273Y86629500D01*
X-8125413Y86656793D01*
X-8034087Y86709520D01*
X-7959520Y86784087D01*
X-7906793Y86875413D01*
X-7879500Y86977273D01*
X-7879500Y87082727D01*
X-7906793Y87184587D01*
X-7959520Y87275913D01*
X-8034087Y87350480D01*
X-8125413Y87403207D01*
X-8227273Y87430500D01*
X-8332727Y87430500D01*
X-8434587Y87403207D01*
X-8434590Y87403206D01*
X-8525915Y87350479D01*
X-8600479Y87275915D01*
X-8653206Y87184590D01*
X-8653207Y87184587D01*
X-8680500Y87082727D01*
X-35699500Y87082727D01*
X-35699500Y87852727D01*
X-29560500Y87852727D01*
X-29560500Y87747273D01*
X-29533207Y87645413D01*
X-29480480Y87554087D01*
X-29405913Y87479520D01*
X-29314587Y87426793D01*
X-29212727Y87399500D01*
X-29212725Y87399500D01*
X-29107275Y87399500D01*
X-29107273Y87399500D01*
X-29005413Y87426793D01*
X-28914087Y87479520D01*
X-28839520Y87554087D01*
X-28786793Y87645413D01*
X-28759500Y87747273D01*
X-28759500Y87852727D01*
X-28786793Y87954587D01*
X-28839520Y88045913D01*
X-28914087Y88120480D01*
X-29005413Y88173207D01*
X-29107273Y88200500D01*
X-29212727Y88200500D01*
X-29314587Y88173207D01*
X-29314590Y88173206D01*
X-29405915Y88120479D01*
X-29480479Y88045915D01*
X-29533206Y87954590D01*
X-29533207Y87954587D01*
X-29560500Y87852727D01*
X-35699500Y87852727D01*
X-35699500Y92009884D01*
X-7440500Y92009884D01*
X-7440500Y82710117D01*
X-7415806Y82650500D01*
X-7409976Y82636426D01*
X-7053574Y82280024D01*
X-6979882Y82249500D01*
X-6900118Y82249500D01*
X-6790477Y82249500D01*
X-6723438Y82229815D01*
X-6710662Y82219520D01*
X-6706060Y82216445D01*
X-6706058Y82216443D01*
X-6604800Y82174500D01*
X-6604799Y82174500D01*
X-6495201Y82174500D01*
X-6495200Y82174500D01*
X-6393942Y82216443D01*
X-6316443Y82293942D01*
X-6274500Y82395200D01*
X-6274500Y82504800D01*
X-6316443Y82606058D01*
X-6393942Y82683557D01*
X-6495200Y82725500D01*
X-6604800Y82725500D01*
X-6604801Y82725500D01*
X-6706060Y82683556D01*
X-6716212Y82676772D01*
X-6717545Y82678766D01*
X-6729724Y82672116D01*
X-6755542Y82655523D01*
X-6761743Y82654632D01*
X-6764119Y82653334D01*
X-6790477Y82650500D01*
X-6805588Y82650500D01*
X-6872627Y82670185D01*
X-6893269Y82686819D01*
X-7003181Y82796731D01*
X-7036666Y82858054D01*
X-7039500Y82884412D01*
X-7039500Y91835588D01*
X-7019815Y91902627D01*
X-7003181Y91923269D01*
X-6786474Y92139976D01*
X-6330024Y92596426D01*
X-6299500Y92670118D01*
X-6299500Y92749882D01*
X-6299500Y105152727D01*
X-4150500Y105152727D01*
X-4150500Y105047273D01*
X-4123207Y104945413D01*
X-4070480Y104854087D01*
X-3995913Y104779520D01*
X-3904587Y104726793D01*
X-3802727Y104699500D01*
X-3802725Y104699500D01*
X-3697275Y104699500D01*
X-3697273Y104699500D01*
X-3595413Y104726793D01*
X-3504087Y104779520D01*
X-3429520Y104854087D01*
X-3376793Y104945413D01*
X-3349500Y105047273D01*
X-3349500Y105152727D01*
X-3376793Y105254587D01*
X-3429520Y105345913D01*
X-3504087Y105420480D01*
X-3595413Y105473207D01*
X-3697273Y105500500D01*
X-3802727Y105500500D01*
X-3904587Y105473207D01*
X-3904590Y105473206D01*
X-3995915Y105420479D01*
X-4070479Y105345915D01*
X-4123206Y105254590D01*
X-4123207Y105254587D01*
X-4150500Y105152727D01*
X-6299500Y105152727D01*
X-6299500Y107789523D01*
X-6279815Y107856562D01*
X-6269520Y107869339D01*
X-6266448Y107873938D01*
X-6266443Y107873942D01*
X-6224500Y107975200D01*
X-6224500Y108084800D01*
X-6266443Y108186058D01*
X-6343942Y108263557D01*
X-6445200Y108305500D01*
X-6554800Y108305500D01*
X-6554801Y108305500D01*
X-6656060Y108263556D01*
X-6733556Y108186060D01*
X-6766813Y108105771D01*
X-6775500Y108084800D01*
X-6775500Y107975200D01*
X-6733557Y107873942D01*
X-6733556Y107873941D01*
X-6726772Y107863788D01*
X-6728766Y107862456D01*
X-6703334Y107815881D01*
X-6700500Y107789523D01*
X-6700500Y92844412D01*
X-6720185Y92777373D01*
X-6736819Y92756731D01*
X-7409975Y92083576D01*
X-7409976Y92083575D01*
X-7440500Y92009884D01*
X-35699500Y92009884D01*
X-35699500Y95102727D01*
X-19180500Y95102727D01*
X-19180500Y94997273D01*
X-19153207Y94895413D01*
X-19100480Y94804087D01*
X-19025913Y94729520D01*
X-18934587Y94676793D01*
X-18832727Y94649500D01*
X-18832725Y94649500D01*
X-18727275Y94649500D01*
X-18727273Y94649500D01*
X-18625413Y94676793D01*
X-18534087Y94729520D01*
X-18459520Y94804087D01*
X-18406793Y94895413D01*
X-18379500Y94997273D01*
X-18379500Y95102727D01*
X-18406793Y95204587D01*
X-18459520Y95295913D01*
X-18534087Y95370480D01*
X-18620688Y95420479D01*
X-18625411Y95423206D01*
X-18625412Y95423207D01*
X-18625413Y95423207D01*
X-18727273Y95450500D01*
X-18832727Y95450500D01*
X-18934587Y95423207D01*
X-18934590Y95423206D01*
X-19025915Y95370479D01*
X-19100479Y95295915D01*
X-19153206Y95204590D01*
X-19153207Y95204587D01*
X-19180500Y95102727D01*
X-35699500Y95102727D01*
X-35699500Y95604800D01*
X-31395500Y95604800D01*
X-31395500Y95495200D01*
X-31353557Y95393942D01*
X-31276058Y95316443D01*
X-31174800Y95274500D01*
X-31174799Y95274500D01*
X-31065201Y95274500D01*
X-31065200Y95274500D01*
X-30963942Y95316443D01*
X-30886443Y95393942D01*
X-30844500Y95495200D01*
X-30844500Y95604800D01*
X-30886443Y95706058D01*
X-30963942Y95783557D01*
X-31065200Y95825500D01*
X-31174800Y95825500D01*
X-31174801Y95825500D01*
X-31276060Y95783556D01*
X-31353556Y95706060D01*
X-31353557Y95706059D01*
X-31353557Y95706058D01*
X-31395500Y95604800D01*
X-35699500Y95604800D01*
X-35699500Y99424800D01*
X-33115500Y99424800D01*
X-33115500Y99315200D01*
X-33073557Y99213942D01*
X-32996058Y99136443D01*
X-32894800Y99094500D01*
X-32894799Y99094500D01*
X-32785201Y99094500D01*
X-32785200Y99094500D01*
X-32683942Y99136443D01*
X-32606443Y99213942D01*
X-32564500Y99315200D01*
X-32564500Y99315206D01*
X-32562118Y99327177D01*
X-32559767Y99326710D01*
X-32544815Y99377627D01*
X-32528181Y99398269D01*
X-22603269Y109323181D01*
X-22541946Y109356666D01*
X-22515588Y109359500D01*
X-6674412Y109359500D01*
X-6607373Y109339815D01*
X-6586731Y109323181D01*
X-5946819Y108683269D01*
X-5913334Y108621946D01*
X-5910500Y108595588D01*
X-5910500Y107300477D01*
X-5930185Y107233438D01*
X-5940481Y107220662D01*
X-5943556Y107216060D01*
X-5943557Y107216059D01*
X-5943557Y107216058D01*
X-5985500Y107114800D01*
X-5985500Y107005200D01*
X-5943557Y106903942D01*
X-5866058Y106826443D01*
X-5764800Y106784500D01*
X-5764799Y106784500D01*
X-5655201Y106784500D01*
X-5655200Y106784500D01*
X-5553942Y106826443D01*
X-5477653Y106902733D01*
X-5416334Y106936215D01*
X-5346642Y106931231D01*
X-5304836Y106899936D01*
X-5302193Y106902578D01*
X-5293557Y106893942D01*
X-5216058Y106816443D01*
X-5114800Y106774500D01*
X-5114799Y106774500D01*
X-5005201Y106774500D01*
X-5005200Y106774500D01*
X-4903942Y106816443D01*
X-4827653Y106892733D01*
X-4766334Y106926215D01*
X-4696642Y106921231D01*
X-4654836Y106889936D01*
X-4652193Y106892578D01*
X-4643557Y106883942D01*
X-4566058Y106806443D01*
X-4464800Y106764500D01*
X-4464799Y106764500D01*
X-4355201Y106764500D01*
X-4355200Y106764500D01*
X-4253942Y106806443D01*
X-4176443Y106883942D01*
X-4176443Y106883943D01*
X-4172681Y106887704D01*
X-4111358Y106921189D01*
X-4041666Y106916205D01*
X-3997319Y106887704D01*
X-3993557Y106883942D01*
X-3916058Y106806443D01*
X-3814800Y106764500D01*
X-3814799Y106764500D01*
X-3705201Y106764500D01*
X-3705200Y106764500D01*
X-3603942Y106806443D01*
X-3526443Y106883942D01*
X-3484500Y106985200D01*
X-3484500Y107094800D01*
X-3526443Y107196058D01*
X-3603942Y107273557D01*
X-3705200Y107315500D01*
X-3814800Y107315500D01*
X-3814801Y107315500D01*
X-3886404Y107285841D01*
X-3912547Y107275011D01*
X-3916060Y107273556D01*
X-3997319Y107192296D01*
X-4058642Y107158811D01*
X-4128334Y107163795D01*
X-4172681Y107192296D01*
X-4253941Y107273556D01*
X-4253942Y107273557D01*
X-4355200Y107315500D01*
X-4464800Y107315500D01*
X-4464801Y107315500D01*
X-4566058Y107273557D01*
X-4642345Y107197270D01*
X-4703669Y107163786D01*
X-4773360Y107168770D01*
X-4815165Y107200065D01*
X-4817807Y107197422D01*
X-4903941Y107283556D01*
X-4903942Y107283557D01*
X-5005200Y107325500D01*
X-5114800Y107325500D01*
X-5114801Y107325500D01*
X-5216058Y107283557D01*
X-5292345Y107207270D01*
X-5353669Y107173786D01*
X-5423360Y107178770D01*
X-5467772Y107207458D01*
X-5467807Y107207422D01*
X-5467972Y107207587D01*
X-5468113Y107207678D01*
X-5473587Y107213203D01*
X-5481458Y107227778D01*
X-5483410Y107226485D01*
X-5483510Y107226636D01*
X-5481545Y107227938D01*
X-5490092Y107243767D01*
X-5506666Y107274119D01*
X-5506712Y107274541D01*
X-5506787Y107274681D01*
X-5506762Y107275011D01*
X-5509500Y107300477D01*
X-5509500Y108769881D01*
X-5509501Y108769884D01*
X-5540024Y108843574D01*
X-5596426Y108899976D01*
X-6426426Y109729976D01*
X-6500117Y109760500D01*
X-6500118Y109760500D01*
X-22610118Y109760500D01*
X-22689882Y109760500D01*
X-22689884Y109760500D01*
X-22763575Y109729976D01*
X-22763576Y109729975D01*
X-32811731Y99681819D01*
X-32873054Y99648334D01*
X-32889372Y99646580D01*
X-32894801Y99645500D01*
X-32996060Y99603556D01*
X-33073556Y99526060D01*
X-33073557Y99526059D01*
X-33073557Y99526058D01*
X-33115500Y99424800D01*
X-35699500Y99424800D01*
X-35699500Y115052727D01*
X-32610500Y115052727D01*
X-32610500Y114947273D01*
X-32583207Y114845413D01*
X-32530480Y114754087D01*
X-32455913Y114679520D01*
X-32364587Y114626793D01*
X-32262727Y114599500D01*
X-32262725Y114599500D01*
X-32157275Y114599500D01*
X-32157273Y114599500D01*
X-32055413Y114626793D01*
X-31964087Y114679520D01*
X-31889520Y114754087D01*
X-31836793Y114845413D01*
X-31809500Y114947273D01*
X-31809500Y115052727D01*
X-31836793Y115154587D01*
X-31889520Y115245913D01*
X-31964087Y115320480D01*
X-32055413Y115373207D01*
X-32157273Y115400500D01*
X-32262727Y115400500D01*
X-32364587Y115373207D01*
X-32364590Y115373206D01*
X-32455915Y115320479D01*
X-32530479Y115245915D01*
X-32583206Y115154590D01*
X-32583207Y115154587D01*
X-32610500Y115052727D01*
X-35699500Y115052727D01*
X-35699500Y121185588D01*
X-35679815Y121252627D01*
X-35663181Y121273269D01*
X-33046450Y123890000D01*
X-32200500Y123890000D01*
X-32200500Y116389882D01*
X-32200500Y116310118D01*
X-32169976Y116236426D01*
X-26559976Y110626426D01*
X-26503574Y110570024D01*
X-26429882Y110539500D01*
X-4364412Y110539500D01*
X-4297373Y110519815D01*
X-4276731Y110503181D01*
X-2111819Y108338269D01*
X-2084939Y108298041D01*
X-2075500Y108275254D01*
X-2075500Y108255200D01*
X-2033557Y108153942D01*
X-2019378Y108139763D01*
X-2009939Y108116976D01*
X-2008735Y108105771D01*
X-2003334Y108095881D01*
X-2000500Y108069523D01*
X-2000500Y103964412D01*
X-2020185Y103897373D01*
X-2036819Y103876731D01*
X-2839975Y103073576D01*
X-2839976Y103073575D01*
X-2870500Y102999884D01*
X-2870500Y52707294D01*
X-2890185Y52640255D01*
X-2942989Y52594500D01*
X-3012147Y52584556D01*
X-3041954Y52592733D01*
X-3043942Y52593557D01*
X-3145200Y52635500D01*
X-3254800Y52635500D01*
X-3254801Y52635500D01*
X-3356060Y52593556D01*
X-3437319Y52512296D01*
X-3498642Y52478811D01*
X-3568334Y52483795D01*
X-3612681Y52512296D01*
X-3693941Y52593556D01*
X-3693942Y52593557D01*
X-3795200Y52635500D01*
X-3904800Y52635500D01*
X-3904801Y52635500D01*
X-4006060Y52593556D01*
X-4087319Y52512296D01*
X-4148642Y52478811D01*
X-4218334Y52483795D01*
X-4262681Y52512296D01*
X-4343941Y52593556D01*
X-4343942Y52593557D01*
X-4445200Y52635500D01*
X-4554800Y52635500D01*
X-4554801Y52635500D01*
X-4656058Y52593557D01*
X-4732345Y52517270D01*
X-4793669Y52483786D01*
X-4863360Y52488770D01*
X-4905165Y52520065D01*
X-4907807Y52517422D01*
X-4993941Y52603556D01*
X-4993942Y52603557D01*
X-5095200Y52645500D01*
X-5204800Y52645500D01*
X-5204801Y52645500D01*
X-5306060Y52603556D01*
X-5383556Y52526060D01*
X-5383557Y52526059D01*
X-5383557Y52526058D01*
X-5425500Y52424800D01*
X-5425500Y52315200D01*
X-5383557Y52213942D01*
X-5306058Y52136443D01*
X-5204800Y52094500D01*
X-5204799Y52094500D01*
X-5095201Y52094500D01*
X-5095200Y52094500D01*
X-4993942Y52136443D01*
X-4917653Y52212733D01*
X-4856334Y52246215D01*
X-4786642Y52241231D01*
X-4744836Y52209936D01*
X-4742193Y52212578D01*
X-4733557Y52203942D01*
X-4656058Y52126443D01*
X-4554800Y52084500D01*
X-4554799Y52084500D01*
X-4445201Y52084500D01*
X-4445200Y52084500D01*
X-4343942Y52126443D01*
X-4266443Y52203942D01*
X-4266443Y52203943D01*
X-4262681Y52207704D01*
X-4201358Y52241189D01*
X-4131666Y52236205D01*
X-4087319Y52207704D01*
X-4083557Y52203942D01*
X-4006058Y52126443D01*
X-3904800Y52084500D01*
X-3904799Y52084500D01*
X-3795201Y52084500D01*
X-3795200Y52084500D01*
X-3693942Y52126443D01*
X-3616443Y52203942D01*
X-3616443Y52203943D01*
X-3612681Y52207704D01*
X-3551358Y52241189D01*
X-3481666Y52236205D01*
X-3437319Y52207704D01*
X-3433557Y52203942D01*
X-3356058Y52126443D01*
X-3254800Y52084500D01*
X-3254799Y52084500D01*
X-3145201Y52084500D01*
X-3145200Y52084500D01*
X-3043942Y52126443D01*
X-3043941Y52126445D01*
X-3041955Y52127267D01*
X-2972485Y52134737D01*
X-2910006Y52103463D01*
X-2874352Y52043375D01*
X-2870500Y52012707D01*
X-2870500Y49130117D01*
X-2839976Y49056426D01*
X-2211819Y48428270D01*
X-2178334Y48366947D01*
X-2176580Y48350628D01*
X-2175500Y48345200D01*
X-2133557Y48243942D01*
X-2056058Y48166443D01*
X-1954800Y48124500D01*
X-1954799Y48124500D01*
X-1845201Y48124500D01*
X-1845200Y48124500D01*
X-1743942Y48166443D01*
X-1666443Y48243942D01*
X-1666443Y48243943D01*
X-1657807Y48252578D01*
X-1656618Y48251389D01*
X-1613991Y48287013D01*
X-1544666Y48295720D01*
X-1481638Y48265566D01*
X-1444918Y48206123D01*
X-1440500Y48173317D01*
X-1440500Y46910477D01*
X-1460185Y46843438D01*
X-1470481Y46830662D01*
X-1473556Y46826060D01*
X-1473557Y46826059D01*
X-1473557Y46826058D01*
X-1515500Y46724800D01*
X-1515500Y46615200D01*
X-1473557Y46513942D01*
X-1396058Y46436443D01*
X-1294800Y46394500D01*
X-1294799Y46394500D01*
X-1185201Y46394500D01*
X-1185200Y46394500D01*
X-1083942Y46436443D01*
X-1006443Y46513942D01*
X-964500Y46615200D01*
X-964500Y46724800D01*
X-1006443Y46826058D01*
X-1006445Y46826060D01*
X-1013228Y46836212D01*
X-1011235Y46837545D01*
X-1036666Y46884119D01*
X-1039500Y46910477D01*
X-1039500Y49539881D01*
X-1039501Y49539884D01*
X-1070024Y49613574D01*
X-1126426Y49669976D01*
X-1603181Y50146731D01*
X-1636666Y50208054D01*
X-1639500Y50234412D01*
X-1639500Y54120523D01*
X-1619815Y54187562D01*
X-1567011Y54233317D01*
X-1497853Y54243261D01*
X-1434297Y54214236D01*
X-1427819Y54208204D01*
X-1406058Y54186443D01*
X-1304800Y54144500D01*
X-1304799Y54144500D01*
X-1195201Y54144500D01*
X-1195200Y54144500D01*
X-1093942Y54186443D01*
X-1016443Y54263942D01*
X-974500Y54365200D01*
X-974500Y54380588D01*
X-954815Y54447627D01*
X-938181Y54468269D01*
X-799963Y54606487D01*
X-660024Y54746426D01*
X-629500Y54820118D01*
X-629500Y54899882D01*
X-629500Y57464800D01*
X20834500Y57464800D01*
X20834500Y57355200D01*
X20876443Y57253942D01*
X20953942Y57176443D01*
X21055200Y57134500D01*
X21055201Y57134500D01*
X21164799Y57134500D01*
X21164800Y57134500D01*
X21266058Y57176443D01*
X21343557Y57253942D01*
X21385500Y57355200D01*
X21385500Y57464800D01*
X21343557Y57566058D01*
X21266058Y57643557D01*
X21164800Y57685500D01*
X21055200Y57685500D01*
X21055199Y57685500D01*
X20995903Y57660938D01*
X20953945Y57643558D01*
X20953940Y57643556D01*
X20876444Y57566060D01*
X20876443Y57566059D01*
X20876443Y57566058D01*
X20834500Y57464800D01*
X-629500Y57464800D01*
X-629500Y60512727D01*
X22519500Y60512727D01*
X22519500Y60407273D01*
X22546793Y60305413D01*
X22599520Y60214087D01*
X22674087Y60139520D01*
X22765413Y60086793D01*
X22867273Y60059500D01*
X22867275Y60059500D01*
X22972725Y60059500D01*
X22972727Y60059500D01*
X23074587Y60086793D01*
X23165913Y60139520D01*
X23240480Y60214087D01*
X23293207Y60305413D01*
X23320500Y60407273D01*
X23320500Y60512727D01*
X23293207Y60614587D01*
X23240480Y60705913D01*
X23165913Y60780480D01*
X23074587Y60833207D01*
X22972727Y60860500D01*
X22867273Y60860500D01*
X22765413Y60833207D01*
X22765410Y60833206D01*
X22674085Y60780479D01*
X22599521Y60705915D01*
X22546794Y60614590D01*
X22546793Y60614587D01*
X22519500Y60512727D01*
X-629500Y60512727D01*
X-629500Y61484800D01*
X52654500Y61484800D01*
X52654500Y61375200D01*
X52696443Y61273942D01*
X52773942Y61196443D01*
X52875200Y61154500D01*
X52875201Y61154500D01*
X52984799Y61154500D01*
X52984800Y61154500D01*
X53086058Y61196443D01*
X53163557Y61273942D01*
X53205500Y61375200D01*
X53205500Y61484800D01*
X53163557Y61586058D01*
X53086058Y61663557D01*
X52984800Y61705500D01*
X52875200Y61705500D01*
X52875199Y61705500D01*
X52773940Y61663556D01*
X52696444Y61586060D01*
X52696443Y61586059D01*
X52696443Y61586058D01*
X52654500Y61484800D01*
X-629500Y61484800D01*
X-629500Y65132727D01*
X10819500Y65132727D01*
X10819500Y65027273D01*
X10846793Y64925413D01*
X10899520Y64834087D01*
X10974087Y64759520D01*
X11065413Y64706793D01*
X11167273Y64679500D01*
X11167275Y64679500D01*
X11272725Y64679500D01*
X11272727Y64679500D01*
X11374587Y64706793D01*
X11465913Y64759520D01*
X11540480Y64834087D01*
X11593207Y64925413D01*
X11620500Y65027273D01*
X11620500Y65132727D01*
X40809500Y65132727D01*
X40809500Y65027273D01*
X40836793Y64925413D01*
X40889520Y64834087D01*
X40964087Y64759520D01*
X41055413Y64706793D01*
X41157273Y64679500D01*
X41157275Y64679500D01*
X41262725Y64679500D01*
X41262727Y64679500D01*
X41364587Y64706793D01*
X41455913Y64759520D01*
X41530480Y64834087D01*
X41583207Y64925413D01*
X41610500Y65027273D01*
X41610500Y65132727D01*
X41583207Y65234587D01*
X41530480Y65325913D01*
X41455913Y65400480D01*
X41364587Y65453207D01*
X41262727Y65480500D01*
X41157273Y65480500D01*
X41055413Y65453207D01*
X41055410Y65453206D01*
X40964085Y65400479D01*
X40889521Y65325915D01*
X40836794Y65234590D01*
X40836793Y65234587D01*
X40809500Y65132727D01*
X11620500Y65132727D01*
X11593207Y65234587D01*
X11540480Y65325913D01*
X11465913Y65400480D01*
X11374587Y65453207D01*
X11272727Y65480500D01*
X11167273Y65480500D01*
X11065413Y65453207D01*
X11065410Y65453206D01*
X10974085Y65400479D01*
X10899521Y65325915D01*
X10846794Y65234590D01*
X10846793Y65234587D01*
X10819500Y65132727D01*
X-629500Y65132727D01*
X-629500Y72492727D01*
X23579500Y72492727D01*
X23579500Y72387273D01*
X23606793Y72285413D01*
X23659520Y72194087D01*
X23734087Y72119520D01*
X23825413Y72066793D01*
X23927273Y72039500D01*
X23927275Y72039500D01*
X24032725Y72039500D01*
X24032727Y72039500D01*
X24134587Y72066793D01*
X24225913Y72119520D01*
X24300480Y72194087D01*
X24353207Y72285413D01*
X24380500Y72387273D01*
X24380500Y72492727D01*
X24353705Y72592727D01*
X50859500Y72592727D01*
X50859500Y72487273D01*
X50886793Y72385413D01*
X50939520Y72294087D01*
X51014087Y72219520D01*
X51105413Y72166793D01*
X51207273Y72139500D01*
X51207275Y72139500D01*
X51312725Y72139500D01*
X51312727Y72139500D01*
X51414587Y72166793D01*
X51505913Y72219520D01*
X51580480Y72294087D01*
X51633207Y72385413D01*
X51660500Y72487273D01*
X51660500Y72592727D01*
X51633207Y72694587D01*
X51580480Y72785913D01*
X51505913Y72860480D01*
X51414587Y72913207D01*
X51312727Y72940500D01*
X51207273Y72940500D01*
X51105413Y72913207D01*
X51105410Y72913206D01*
X51014085Y72860479D01*
X50939521Y72785915D01*
X50886794Y72694590D01*
X50886793Y72694587D01*
X50859500Y72592727D01*
X24353705Y72592727D01*
X24353207Y72594587D01*
X24300480Y72685913D01*
X24225913Y72760480D01*
X24134587Y72813207D01*
X24032727Y72840500D01*
X23927273Y72840500D01*
X23825413Y72813207D01*
X23825410Y72813206D01*
X23734085Y72760479D01*
X23659521Y72685915D01*
X23606794Y72594590D01*
X23606794Y72594589D01*
X23606793Y72594587D01*
X23579500Y72492727D01*
X-629500Y72492727D01*
X-629500Y76164242D01*
X24809246Y76164242D01*
X24809246Y76058788D01*
X24836539Y75956928D01*
X24889266Y75865602D01*
X24963833Y75791035D01*
X25055159Y75738308D01*
X25157019Y75711015D01*
X25157021Y75711015D01*
X25262471Y75711015D01*
X25262473Y75711015D01*
X25364333Y75738308D01*
X25455659Y75791035D01*
X25530226Y75865602D01*
X25582953Y75956928D01*
X25610246Y76058788D01*
X25610246Y76164242D01*
X25582953Y76266102D01*
X25530226Y76357428D01*
X25455659Y76431995D01*
X25364333Y76484722D01*
X25262473Y76512015D01*
X25157019Y76512015D01*
X25055159Y76484722D01*
X25055156Y76484721D01*
X24963831Y76431994D01*
X24889267Y76357430D01*
X24836540Y76266105D01*
X24836539Y76266102D01*
X24809246Y76164242D01*
X-629500Y76164242D01*
X-629500Y77072727D01*
X17229500Y77072727D01*
X17229500Y76967273D01*
X17256793Y76865413D01*
X17309520Y76774087D01*
X17384087Y76699520D01*
X17475413Y76646793D01*
X17577273Y76619500D01*
X17577275Y76619500D01*
X17682725Y76619500D01*
X17682727Y76619500D01*
X17784587Y76646793D01*
X17875913Y76699520D01*
X17950480Y76774087D01*
X18003207Y76865413D01*
X18030500Y76967273D01*
X18030500Y77072727D01*
X18003207Y77174587D01*
X17950480Y77265913D01*
X17875913Y77340480D01*
X17784587Y77393207D01*
X17682727Y77420500D01*
X17577273Y77420500D01*
X17475413Y77393207D01*
X17475410Y77393206D01*
X17384085Y77340479D01*
X17309521Y77265915D01*
X17256794Y77174590D01*
X17256793Y77174587D01*
X17229500Y77072727D01*
X-629500Y77072727D01*
X-629500Y78682727D01*
X16189500Y78682727D01*
X16189500Y78577273D01*
X16216793Y78475413D01*
X16269520Y78384087D01*
X16344087Y78309520D01*
X16435413Y78256793D01*
X16537273Y78229500D01*
X16537275Y78229500D01*
X16642725Y78229500D01*
X16642727Y78229500D01*
X16744587Y78256793D01*
X16835913Y78309520D01*
X16910480Y78384087D01*
X16963207Y78475413D01*
X16990500Y78577273D01*
X16990500Y78682727D01*
X18729500Y78682727D01*
X18729500Y78577273D01*
X18756793Y78475413D01*
X18809520Y78384087D01*
X18884087Y78309520D01*
X18975413Y78256793D01*
X19077273Y78229500D01*
X19077275Y78229500D01*
X19182725Y78229500D01*
X19182727Y78229500D01*
X19284587Y78256793D01*
X19375913Y78309520D01*
X19450480Y78384087D01*
X19503207Y78475413D01*
X19530500Y78577273D01*
X19530500Y78682727D01*
X21269500Y78682727D01*
X21269500Y78577273D01*
X21296793Y78475413D01*
X21349520Y78384087D01*
X21424087Y78309520D01*
X21515413Y78256793D01*
X21617273Y78229500D01*
X21617275Y78229500D01*
X21722725Y78229500D01*
X21722727Y78229500D01*
X21824587Y78256793D01*
X21915913Y78309520D01*
X21990480Y78384087D01*
X22043207Y78475413D01*
X22070500Y78577273D01*
X22070500Y78682727D01*
X22064735Y78704242D01*
X24809246Y78704242D01*
X24809246Y78598788D01*
X24836539Y78496928D01*
X24889266Y78405602D01*
X24963833Y78331035D01*
X25055159Y78278308D01*
X25157019Y78251015D01*
X25157021Y78251015D01*
X25262471Y78251015D01*
X25262473Y78251015D01*
X25364333Y78278308D01*
X25455659Y78331035D01*
X25530226Y78405602D01*
X25582953Y78496928D01*
X25610246Y78598788D01*
X25610246Y78704242D01*
X25582953Y78806102D01*
X25530226Y78897428D01*
X25455659Y78971995D01*
X25364333Y79024722D01*
X25262473Y79052015D01*
X25157019Y79052015D01*
X25055159Y79024722D01*
X25055156Y79024721D01*
X24963831Y78971994D01*
X24889267Y78897430D01*
X24836540Y78806105D01*
X24836539Y78806102D01*
X24809246Y78704242D01*
X22064735Y78704242D01*
X22043207Y78784587D01*
X21990480Y78875913D01*
X21915913Y78950480D01*
X21824587Y79003207D01*
X21722727Y79030500D01*
X21617273Y79030500D01*
X21515413Y79003207D01*
X21515410Y79003206D01*
X21424085Y78950479D01*
X21349521Y78875915D01*
X21296794Y78784590D01*
X21296793Y78784587D01*
X21269500Y78682727D01*
X19530500Y78682727D01*
X19503207Y78784587D01*
X19450480Y78875913D01*
X19375913Y78950480D01*
X19284587Y79003207D01*
X19182727Y79030500D01*
X19077273Y79030500D01*
X18975413Y79003207D01*
X18975410Y79003206D01*
X18884085Y78950479D01*
X18809521Y78875915D01*
X18756794Y78784590D01*
X18756793Y78784587D01*
X18729500Y78682727D01*
X16990500Y78682727D01*
X16963207Y78784587D01*
X16910480Y78875913D01*
X16835913Y78950480D01*
X16744587Y79003207D01*
X16642727Y79030500D01*
X16537273Y79030500D01*
X16435413Y79003207D01*
X16435410Y79003206D01*
X16344085Y78950479D01*
X16269521Y78875915D01*
X16216794Y78784590D01*
X16216793Y78784587D01*
X16189500Y78682727D01*
X-629500Y78682727D01*
X-629500Y82168638D01*
X6464500Y82168638D01*
X6464500Y82162066D01*
X6464500Y81591347D01*
X6465105Y81580085D01*
X6465106Y81580066D01*
X6467939Y81553726D01*
X6467939Y81553724D01*
X6480237Y81514448D01*
X6480239Y81514443D01*
X6513723Y81453121D01*
X6531711Y81429091D01*
X6531714Y81429087D01*
X6531719Y81429081D01*
X6531724Y81429076D01*
X8109064Y79851735D01*
X8109073Y79851727D01*
X8109081Y79851719D01*
X8117484Y79844172D01*
X8138126Y79827538D01*
X8138129Y79827537D01*
X8138131Y79827535D01*
X8174599Y79808459D01*
X8174598Y79808459D01*
X8241630Y79788776D01*
X8241632Y79788776D01*
X8241638Y79788774D01*
X8271362Y79784500D01*
X8271366Y79784500D01*
X22828620Y79784500D01*
X22828638Y79784500D01*
X22839916Y79785105D01*
X22866274Y79787939D01*
X22905557Y79800239D01*
X22966880Y79833724D01*
X22990919Y79851719D01*
X23618281Y80479081D01*
X23625828Y80487484D01*
X23642462Y80508126D01*
X23661541Y80544599D01*
X23681226Y80611638D01*
X23685500Y80641362D01*
X23685500Y81244242D01*
X24809246Y81244242D01*
X24809246Y81138788D01*
X24836539Y81036928D01*
X24889266Y80945602D01*
X24963833Y80871035D01*
X25055159Y80818308D01*
X25157019Y80791015D01*
X25157021Y80791015D01*
X25262471Y80791015D01*
X25262473Y80791015D01*
X25364333Y80818308D01*
X25455659Y80871035D01*
X25530226Y80945602D01*
X25582953Y81036928D01*
X25610246Y81138788D01*
X25610246Y81244242D01*
X27349246Y81244242D01*
X27349246Y81138788D01*
X27376539Y81036928D01*
X27429266Y80945602D01*
X27503833Y80871035D01*
X27595159Y80818308D01*
X27697019Y80791015D01*
X27697021Y80791015D01*
X27802471Y80791015D01*
X27802473Y80791015D01*
X27904333Y80818308D01*
X27995659Y80871035D01*
X28070226Y80945602D01*
X28122953Y81036928D01*
X28150246Y81138788D01*
X28150246Y81244242D01*
X29889246Y81244242D01*
X29889246Y81138788D01*
X29916539Y81036928D01*
X29969266Y80945602D01*
X30043833Y80871035D01*
X30135159Y80818308D01*
X30237019Y80791015D01*
X30237021Y80791015D01*
X30342471Y80791015D01*
X30342473Y80791015D01*
X30444333Y80818308D01*
X30535659Y80871035D01*
X30610226Y80945602D01*
X30662953Y81036928D01*
X30690246Y81138788D01*
X30690246Y81244242D01*
X32429246Y81244242D01*
X32429246Y81138788D01*
X32456539Y81036928D01*
X32509266Y80945602D01*
X32583833Y80871035D01*
X32675159Y80818308D01*
X32777019Y80791015D01*
X32777021Y80791015D01*
X32882471Y80791015D01*
X32882473Y80791015D01*
X32984333Y80818308D01*
X33075659Y80871035D01*
X33150226Y80945602D01*
X33202953Y81036928D01*
X33230246Y81138788D01*
X33230246Y81244242D01*
X33202953Y81346102D01*
X33150226Y81437428D01*
X33075659Y81511995D01*
X32984333Y81564722D01*
X32882473Y81592015D01*
X32777019Y81592015D01*
X32675159Y81564722D01*
X32675156Y81564721D01*
X32583831Y81511994D01*
X32509267Y81437430D01*
X32456540Y81346105D01*
X32456539Y81346102D01*
X32429246Y81244242D01*
X30690246Y81244242D01*
X30662953Y81346102D01*
X30610226Y81437428D01*
X30535659Y81511995D01*
X30444333Y81564722D01*
X30342473Y81592015D01*
X30237019Y81592015D01*
X30135159Y81564722D01*
X30135156Y81564721D01*
X30043831Y81511994D01*
X29969267Y81437430D01*
X29916540Y81346105D01*
X29916539Y81346102D01*
X29889246Y81244242D01*
X28150246Y81244242D01*
X28122953Y81346102D01*
X28070226Y81437428D01*
X27995659Y81511995D01*
X27904333Y81564722D01*
X27802473Y81592015D01*
X27697019Y81592015D01*
X27595159Y81564722D01*
X27595156Y81564721D01*
X27503831Y81511994D01*
X27429267Y81437430D01*
X27376540Y81346105D01*
X27376539Y81346102D01*
X27349246Y81244242D01*
X25610246Y81244242D01*
X25582953Y81346102D01*
X25530226Y81437428D01*
X25455659Y81511995D01*
X25364333Y81564722D01*
X25262473Y81592015D01*
X25157019Y81592015D01*
X25055159Y81564722D01*
X25055156Y81564721D01*
X24963831Y81511994D01*
X24889267Y81437430D01*
X24836540Y81346105D01*
X24836539Y81346102D01*
X24809246Y81244242D01*
X23685500Y81244242D01*
X23685500Y83784242D01*
X24809246Y83784242D01*
X24809246Y83678788D01*
X24836539Y83576928D01*
X24889266Y83485602D01*
X24963833Y83411035D01*
X25055159Y83358308D01*
X25157019Y83331015D01*
X25157021Y83331015D01*
X25262471Y83331015D01*
X25262473Y83331015D01*
X25364333Y83358308D01*
X25455659Y83411035D01*
X25530226Y83485602D01*
X25582953Y83576928D01*
X25610246Y83678788D01*
X25610246Y83784242D01*
X27349246Y83784242D01*
X27349246Y83678788D01*
X27376539Y83576928D01*
X27429266Y83485602D01*
X27503833Y83411035D01*
X27595159Y83358308D01*
X27697019Y83331015D01*
X27697021Y83331015D01*
X27802471Y83331015D01*
X27802473Y83331015D01*
X27904333Y83358308D01*
X27995659Y83411035D01*
X28070226Y83485602D01*
X28122953Y83576928D01*
X28150246Y83678788D01*
X28150246Y83784242D01*
X29889246Y83784242D01*
X29889246Y83678788D01*
X29916539Y83576928D01*
X29969266Y83485602D01*
X30043833Y83411035D01*
X30135159Y83358308D01*
X30237019Y83331015D01*
X30237021Y83331015D01*
X30342471Y83331015D01*
X30342473Y83331015D01*
X30444333Y83358308D01*
X30535659Y83411035D01*
X30610226Y83485602D01*
X30662953Y83576928D01*
X30690246Y83678788D01*
X30690246Y83784242D01*
X32429246Y83784242D01*
X32429246Y83678788D01*
X32456539Y83576928D01*
X32509266Y83485602D01*
X32583833Y83411035D01*
X32675159Y83358308D01*
X32777019Y83331015D01*
X32777021Y83331015D01*
X32882471Y83331015D01*
X32882473Y83331015D01*
X32984333Y83358308D01*
X33075659Y83411035D01*
X33150226Y83485602D01*
X33202953Y83576928D01*
X33230246Y83678788D01*
X33230246Y83784242D01*
X33202953Y83886102D01*
X33150226Y83977428D01*
X33075659Y84051995D01*
X32984333Y84104722D01*
X32882473Y84132015D01*
X32777019Y84132015D01*
X32675159Y84104722D01*
X32675156Y84104721D01*
X32583831Y84051994D01*
X32509267Y83977430D01*
X32456540Y83886105D01*
X32456539Y83886102D01*
X32429246Y83784242D01*
X30690246Y83784242D01*
X30662953Y83886102D01*
X30610226Y83977428D01*
X30535659Y84051995D01*
X30444333Y84104722D01*
X30342473Y84132015D01*
X30237019Y84132015D01*
X30135159Y84104722D01*
X30135156Y84104721D01*
X30043831Y84051994D01*
X29969267Y83977430D01*
X29916540Y83886105D01*
X29916539Y83886102D01*
X29889246Y83784242D01*
X28150246Y83784242D01*
X28122953Y83886102D01*
X28070226Y83977428D01*
X27995659Y84051995D01*
X27904333Y84104722D01*
X27802473Y84132015D01*
X27697019Y84132015D01*
X27595159Y84104722D01*
X27595156Y84104721D01*
X27503831Y84051994D01*
X27429267Y83977430D01*
X27376540Y83886105D01*
X27376539Y83886102D01*
X27349246Y83784242D01*
X25610246Y83784242D01*
X25582953Y83886102D01*
X25530226Y83977428D01*
X25455659Y84051995D01*
X25364333Y84104722D01*
X25262473Y84132015D01*
X25157019Y84132015D01*
X25055159Y84104722D01*
X25055156Y84104721D01*
X24963831Y84051994D01*
X24889267Y83977430D01*
X24836540Y83886105D01*
X24836539Y83886102D01*
X24809246Y83784242D01*
X23685500Y83784242D01*
X23685500Y84668638D01*
X23684895Y84679916D01*
X23682061Y84706274D01*
X23669761Y84745557D01*
X23636276Y84806880D01*
X23618281Y84830919D01*
X23460919Y84988281D01*
X23452516Y84995828D01*
X23431874Y85012462D01*
X23431871Y85012464D01*
X23431868Y85012466D01*
X23395400Y85031542D01*
X23395401Y85031542D01*
X23328369Y85051225D01*
X23328035Y85051273D01*
X23298638Y85055500D01*
X18051362Y85055500D01*
X18051346Y85055500D01*
X18040084Y85054895D01*
X18040065Y85054894D01*
X18013725Y85052061D01*
X18013723Y85052061D01*
X17974447Y85039763D01*
X17974442Y85039761D01*
X17913120Y85006277D01*
X17889090Y84988289D01*
X17889075Y84988276D01*
X17262619Y84361819D01*
X17201296Y84328334D01*
X17174938Y84325500D01*
X16411346Y84325500D01*
X16400084Y84324895D01*
X16400065Y84324894D01*
X16373725Y84322061D01*
X16373723Y84322061D01*
X16334447Y84309763D01*
X16334442Y84309761D01*
X16273120Y84276277D01*
X16249090Y84258289D01*
X16249075Y84258276D01*
X14512619Y82521819D01*
X14451296Y82488334D01*
X14424938Y82485500D01*
X6781346Y82485500D01*
X6770084Y82484895D01*
X6770065Y82484894D01*
X6743725Y82482061D01*
X6743723Y82482061D01*
X6704447Y82469763D01*
X6704442Y82469761D01*
X6643120Y82436277D01*
X6619090Y82418289D01*
X6619082Y82418283D01*
X6531716Y82330917D01*
X6530852Y82329956D01*
X6530802Y82329899D01*
X6524172Y82322516D01*
X6520254Y82317654D01*
X6520217Y82317611D01*
X6507541Y82301879D01*
X6507535Y82301870D01*
X6504573Y82296209D01*
X6504457Y82296295D01*
X6500703Y82291279D01*
X6491865Y82271928D01*
X6490315Y82268964D01*
X6490313Y82268963D01*
X6488473Y82265444D01*
X6486191Y82259793D01*
X6484014Y82254731D01*
X6482080Y82250497D01*
X6477332Y82228673D01*
X6475139Y82220085D01*
X6474464Y82217790D01*
X6474442Y82217669D01*
X6468773Y82198359D01*
X6464500Y82168638D01*
X-629500Y82168638D01*
X-629500Y86302727D01*
X21269500Y86302727D01*
X21269500Y86197273D01*
X21296793Y86095413D01*
X21349520Y86004087D01*
X21424087Y85929520D01*
X21515413Y85876793D01*
X21617273Y85849500D01*
X21617275Y85849500D01*
X21722725Y85849500D01*
X21722727Y85849500D01*
X21824587Y85876793D01*
X21915913Y85929520D01*
X21990480Y86004087D01*
X22043207Y86095413D01*
X22070500Y86197273D01*
X22070500Y86302727D01*
X22064735Y86324242D01*
X24809246Y86324242D01*
X24809246Y86218788D01*
X24836539Y86116928D01*
X24889266Y86025602D01*
X24963833Y85951035D01*
X25055159Y85898308D01*
X25157019Y85871015D01*
X25157021Y85871015D01*
X25262471Y85871015D01*
X25262473Y85871015D01*
X25364333Y85898308D01*
X25455659Y85951035D01*
X25530226Y86025602D01*
X25582953Y86116928D01*
X25610246Y86218788D01*
X25610246Y86324242D01*
X27349246Y86324242D01*
X27349246Y86218788D01*
X27376539Y86116928D01*
X27429266Y86025602D01*
X27503833Y85951035D01*
X27595159Y85898308D01*
X27697019Y85871015D01*
X27697021Y85871015D01*
X27802471Y85871015D01*
X27802473Y85871015D01*
X27904333Y85898308D01*
X27995659Y85951035D01*
X28070226Y86025602D01*
X28122953Y86116928D01*
X28150246Y86218788D01*
X28150246Y86324242D01*
X29889246Y86324242D01*
X29889246Y86218788D01*
X29916539Y86116928D01*
X29969266Y86025602D01*
X30043833Y85951035D01*
X30135159Y85898308D01*
X30237019Y85871015D01*
X30237021Y85871015D01*
X30342471Y85871015D01*
X30342473Y85871015D01*
X30444333Y85898308D01*
X30535659Y85951035D01*
X30610226Y86025602D01*
X30662953Y86116928D01*
X30690246Y86218788D01*
X30690246Y86324242D01*
X32429246Y86324242D01*
X32429246Y86218788D01*
X32456539Y86116928D01*
X32509266Y86025602D01*
X32583833Y85951035D01*
X32675159Y85898308D01*
X32777019Y85871015D01*
X32777021Y85871015D01*
X32882471Y85871015D01*
X32882473Y85871015D01*
X32984333Y85898308D01*
X33075659Y85951035D01*
X33150226Y86025602D01*
X33202953Y86116928D01*
X33230246Y86218788D01*
X33230246Y86324242D01*
X34969246Y86324242D01*
X34969246Y86218788D01*
X34996539Y86116928D01*
X35049266Y86025602D01*
X35123833Y85951035D01*
X35215159Y85898308D01*
X35317019Y85871015D01*
X35317021Y85871015D01*
X35422471Y85871015D01*
X35422473Y85871015D01*
X35524333Y85898308D01*
X35615659Y85951035D01*
X35690226Y86025602D01*
X35742953Y86116928D01*
X35770246Y86218788D01*
X35770246Y86324242D01*
X35742953Y86426102D01*
X35690226Y86517428D01*
X35615659Y86591995D01*
X35524333Y86644722D01*
X35422473Y86672015D01*
X35317019Y86672015D01*
X35215159Y86644722D01*
X35215156Y86644721D01*
X35123831Y86591994D01*
X35049267Y86517430D01*
X34996540Y86426105D01*
X34996539Y86426102D01*
X34969246Y86324242D01*
X33230246Y86324242D01*
X33202953Y86426102D01*
X33150226Y86517428D01*
X33075659Y86591995D01*
X32984333Y86644722D01*
X32882473Y86672015D01*
X32777019Y86672015D01*
X32675159Y86644722D01*
X32675156Y86644721D01*
X32583831Y86591994D01*
X32509267Y86517430D01*
X32456540Y86426105D01*
X32456539Y86426102D01*
X32429246Y86324242D01*
X30690246Y86324242D01*
X30662953Y86426102D01*
X30610226Y86517428D01*
X30535659Y86591995D01*
X30444333Y86644722D01*
X30342473Y86672015D01*
X30237019Y86672015D01*
X30135159Y86644722D01*
X30135156Y86644721D01*
X30043831Y86591994D01*
X29969267Y86517430D01*
X29916540Y86426105D01*
X29916539Y86426102D01*
X29889246Y86324242D01*
X28150246Y86324242D01*
X28122953Y86426102D01*
X28070226Y86517428D01*
X27995659Y86591995D01*
X27904333Y86644722D01*
X27802473Y86672015D01*
X27697019Y86672015D01*
X27595159Y86644722D01*
X27595156Y86644721D01*
X27503831Y86591994D01*
X27429267Y86517430D01*
X27376540Y86426105D01*
X27376539Y86426102D01*
X27349246Y86324242D01*
X25610246Y86324242D01*
X25582953Y86426102D01*
X25530226Y86517428D01*
X25455659Y86591995D01*
X25364333Y86644722D01*
X25262473Y86672015D01*
X25157019Y86672015D01*
X25055159Y86644722D01*
X25055156Y86644721D01*
X24963831Y86591994D01*
X24889267Y86517430D01*
X24836540Y86426105D01*
X24836539Y86426102D01*
X24809246Y86324242D01*
X22064735Y86324242D01*
X22043207Y86404587D01*
X21990480Y86495913D01*
X21915913Y86570480D01*
X21824587Y86623207D01*
X21722727Y86650500D01*
X21617273Y86650500D01*
X21515413Y86623207D01*
X21515410Y86623206D01*
X21424085Y86570479D01*
X21349521Y86495915D01*
X21296794Y86404590D01*
X21296793Y86404587D01*
X21269500Y86302727D01*
X-629500Y86302727D01*
X-629500Y95132727D01*
X10789500Y95132727D01*
X10789500Y95027273D01*
X10816793Y94925413D01*
X10869520Y94834087D01*
X10944087Y94759520D01*
X11035413Y94706793D01*
X11137273Y94679500D01*
X11137275Y94679500D01*
X11242725Y94679500D01*
X11242727Y94679500D01*
X11344587Y94706793D01*
X11435913Y94759520D01*
X11510480Y94834087D01*
X11563207Y94925413D01*
X11590500Y95027273D01*
X11590500Y95132727D01*
X11585141Y95152727D01*
X40809500Y95152727D01*
X40809500Y95047273D01*
X40836793Y94945413D01*
X40889520Y94854087D01*
X40964087Y94779520D01*
X41055413Y94726793D01*
X41157273Y94699500D01*
X41157275Y94699500D01*
X41262725Y94699500D01*
X41262727Y94699500D01*
X41364587Y94726793D01*
X41455913Y94779520D01*
X41530480Y94854087D01*
X41583207Y94945413D01*
X41610500Y95047273D01*
X41610500Y95152727D01*
X41583207Y95254587D01*
X41530480Y95345913D01*
X41455913Y95420480D01*
X41364587Y95473207D01*
X41262727Y95500500D01*
X41157273Y95500500D01*
X41055413Y95473207D01*
X41055410Y95473206D01*
X40964085Y95420479D01*
X40889521Y95345915D01*
X40836794Y95254590D01*
X40836793Y95254587D01*
X40809500Y95152727D01*
X11585141Y95152727D01*
X11563207Y95234587D01*
X11510480Y95325913D01*
X11435913Y95400480D01*
X11344587Y95453207D01*
X11242727Y95480500D01*
X11137273Y95480500D01*
X11035413Y95453207D01*
X11035410Y95453206D01*
X10944085Y95400479D01*
X10869521Y95325915D01*
X10816794Y95234590D01*
X10816793Y95234587D01*
X10789500Y95132727D01*
X-629500Y95132727D01*
X-629500Y100712727D01*
X29759500Y100712727D01*
X29759500Y100607273D01*
X29786793Y100505413D01*
X29839520Y100414087D01*
X29914087Y100339520D01*
X30005413Y100286793D01*
X30107273Y100259500D01*
X30107275Y100259500D01*
X30212725Y100259500D01*
X30212727Y100259500D01*
X30314587Y100286793D01*
X30405913Y100339520D01*
X30480480Y100414087D01*
X30533207Y100505413D01*
X30560500Y100607273D01*
X30560500Y100712727D01*
X30533207Y100814587D01*
X30480480Y100905913D01*
X30405913Y100980480D01*
X30314587Y101033207D01*
X30212727Y101060500D01*
X30107273Y101060500D01*
X30005413Y101033207D01*
X30005410Y101033206D01*
X29914085Y100980479D01*
X29839521Y100905915D01*
X29786794Y100814590D01*
X29786793Y100814587D01*
X29759500Y100712727D01*
X-629500Y100712727D01*
X-629500Y101215588D01*
X-609815Y101282627D01*
X-593181Y101303269D01*
X-376474Y101519976D01*
X219976Y102116426D01*
X250500Y102190118D01*
X250500Y102269882D01*
X250500Y105272727D01*
X17919500Y105272727D01*
X17919500Y105167274D01*
X17946793Y105065414D01*
X17946794Y105065411D01*
X17957266Y105047273D01*
X17999520Y104974087D01*
X18074087Y104899520D01*
X18165413Y104846793D01*
X18267273Y104819500D01*
X18267275Y104819500D01*
X18372725Y104819500D01*
X18372727Y104819500D01*
X18474587Y104846793D01*
X18565913Y104899520D01*
X18640480Y104974087D01*
X18693207Y105065413D01*
X18720500Y105167273D01*
X18720500Y105272727D01*
X18693207Y105374587D01*
X18640480Y105465913D01*
X18565913Y105540480D01*
X18474587Y105593207D01*
X18372727Y105620500D01*
X18267273Y105620500D01*
X18165413Y105593207D01*
X18165410Y105593206D01*
X18074085Y105540479D01*
X17999521Y105465915D01*
X17946794Y105374590D01*
X17946793Y105374587D01*
X17919500Y105272727D01*
X250500Y105272727D01*
X250500Y107094800D01*
X43644500Y107094800D01*
X43644500Y106985200D01*
X43686443Y106883942D01*
X43763942Y106806443D01*
X43865200Y106764500D01*
X43865201Y106764500D01*
X43974799Y106764500D01*
X43974800Y106764500D01*
X44076058Y106806443D01*
X44153557Y106883942D01*
X44195500Y106985200D01*
X44195500Y107094800D01*
X44153557Y107196058D01*
X44076058Y107273557D01*
X43974800Y107315500D01*
X43865200Y107315500D01*
X43865199Y107315500D01*
X43793596Y107285841D01*
X43767453Y107275011D01*
X43763940Y107273556D01*
X43686444Y107196060D01*
X43652785Y107114801D01*
X43644500Y107094800D01*
X250500Y107094800D01*
X250500Y110594800D01*
X21644500Y110594800D01*
X21644500Y110485200D01*
X21686443Y110383942D01*
X21763942Y110306443D01*
X21865200Y110264500D01*
X21865201Y110264500D01*
X21974799Y110264500D01*
X21974800Y110264500D01*
X22076058Y110306443D01*
X22153557Y110383942D01*
X22195500Y110485200D01*
X22195500Y110594800D01*
X22153557Y110696058D01*
X22076058Y110773557D01*
X21974800Y110815500D01*
X21865200Y110815500D01*
X21865199Y110815500D01*
X21763940Y110773556D01*
X21686444Y110696060D01*
X21686443Y110696059D01*
X21686443Y110696058D01*
X21644500Y110594800D01*
X250500Y110594800D01*
X250500Y112229882D01*
X219976Y112303574D01*
X163574Y112359976D01*
X-426426Y112949976D01*
X-500117Y112980500D01*
X-500118Y112980500D01*
X-909523Y112980500D01*
X-976562Y113000185D01*
X-989339Y113010481D01*
X-993941Y113013556D01*
X-993942Y113013557D01*
X-1095200Y113055500D01*
X-1204800Y113055500D01*
X-1204801Y113055500D01*
X-1306060Y113013556D01*
X-1383556Y112936060D01*
X-1425500Y112834801D01*
X-1427882Y112822823D01*
X-1430234Y112823291D01*
X-1445185Y112772373D01*
X-1461819Y112751731D01*
X-1676731Y112536819D01*
X-1738054Y112503334D01*
X-1764412Y112500500D01*
X-14875588Y112500500D01*
X-14942627Y112520185D01*
X-14963269Y112536819D01*
X-15026426Y112599976D01*
X-15100117Y112630500D01*
X-15100118Y112630500D01*
X-20758564Y112630500D01*
X-20825603Y112650185D01*
X-20871358Y112702989D01*
X-20881302Y112772147D01*
X-20873127Y112801949D01*
X-20834500Y112895200D01*
X-20834500Y113004800D01*
X-20876443Y113106058D01*
X-20953942Y113183557D01*
X-21055200Y113225500D01*
X-21164800Y113225500D01*
X-21164801Y113225500D01*
X-21266060Y113183556D01*
X-21343556Y113106060D01*
X-21343557Y113106059D01*
X-21343557Y113106058D01*
X-21385500Y113004800D01*
X-21385500Y112895200D01*
X-21346875Y112801952D01*
X-21339406Y112732485D01*
X-21370680Y112670005D01*
X-21430769Y112634352D01*
X-21461436Y112630500D01*
X-25575588Y112630500D01*
X-25642627Y112650185D01*
X-25663269Y112666819D01*
X-27931250Y114934800D01*
X-7845500Y114934800D01*
X-7845500Y114825200D01*
X-7803557Y114723942D01*
X-7726058Y114646443D01*
X-7624800Y114604500D01*
X-7624799Y114604500D01*
X-7515201Y114604500D01*
X-7515200Y114604500D01*
X-7413942Y114646443D01*
X-7336443Y114723942D01*
X-7294500Y114825200D01*
X-7294500Y114934800D01*
X-7336443Y115036058D01*
X-7413942Y115113557D01*
X-7515200Y115155500D01*
X-7624800Y115155500D01*
X-7624801Y115155500D01*
X-7726060Y115113556D01*
X-7803556Y115036060D01*
X-7840333Y114947273D01*
X-7845500Y114934800D01*
X-27931250Y114934800D01*
X-29659177Y116662727D01*
X1899500Y116662727D01*
X1899500Y116557273D01*
X1926793Y116455413D01*
X1979520Y116364087D01*
X2054087Y116289520D01*
X2145413Y116236793D01*
X2247273Y116209500D01*
X2247275Y116209500D01*
X2352725Y116209500D01*
X2352727Y116209500D01*
X2454587Y116236793D01*
X2545913Y116289520D01*
X2620480Y116364087D01*
X2673207Y116455413D01*
X2700500Y116557273D01*
X2700500Y116662727D01*
X2673207Y116764587D01*
X2620480Y116855913D01*
X2545913Y116930480D01*
X2454587Y116983207D01*
X2352727Y117010500D01*
X2247273Y117010500D01*
X2145413Y116983207D01*
X2145410Y116983206D01*
X2054085Y116930479D01*
X1979521Y116855915D01*
X1926794Y116764590D01*
X1926793Y116764587D01*
X1899500Y116662727D01*
X-29659177Y116662727D01*
X-30258181Y117261731D01*
X-30291666Y117323054D01*
X-30293421Y117339372D01*
X-30294500Y117344796D01*
X-30294500Y117344800D01*
X-30336443Y117446058D01*
X-30413942Y117523557D01*
X-30515200Y117565500D01*
X-30624800Y117565500D01*
X-30624801Y117565500D01*
X-30726060Y117523556D01*
X-30803556Y117446060D01*
X-30803557Y117446059D01*
X-30803557Y117446058D01*
X-30845500Y117344800D01*
X-30845500Y117235200D01*
X-30803557Y117133942D01*
X-30726058Y117056443D01*
X-30624800Y117014500D01*
X-30624796Y117014500D01*
X-30612823Y117012118D01*
X-30613291Y117009767D01*
X-30562373Y116994815D01*
X-30541731Y116978181D01*
X-25879976Y112316426D01*
X-25823574Y112260024D01*
X-25749882Y112229500D01*
X-15274412Y112229500D01*
X-15207373Y112209815D01*
X-15186731Y112193181D01*
X-15179976Y112186426D01*
X-15123574Y112130024D01*
X-15049882Y112099500D01*
X-15049880Y112099500D01*
X-1590120Y112099500D01*
X-1590118Y112099500D01*
X-1516426Y112130024D01*
X-1178269Y112468181D01*
X-1138041Y112495061D01*
X-1115253Y112504500D01*
X-1095200Y112504500D01*
X-993942Y112546443D01*
X-979763Y112560623D01*
X-956976Y112570061D01*
X-945771Y112571266D01*
X-935881Y112576666D01*
X-909523Y112579500D01*
X-674412Y112579500D01*
X-607373Y112559815D01*
X-586731Y112543181D01*
X-186819Y112143269D01*
X-153334Y112081946D01*
X-150500Y112055588D01*
X-150500Y102364412D01*
X-170185Y102297373D01*
X-186819Y102276731D01*
X-999975Y101463576D01*
X-999976Y101463575D01*
X-1030500Y101389884D01*
X-1030500Y54994412D01*
X-1050185Y54927373D01*
X-1066819Y54906731D01*
X-1244810Y54728741D01*
X-1274446Y54706847D01*
X-1295866Y54695500D01*
X-1304800Y54695500D01*
X-1406058Y54653557D01*
X-1440993Y54618623D01*
X-1457455Y54609902D01*
X-1474169Y54606487D01*
X-1489142Y54598311D01*
X-1507692Y54599638D01*
X-1525910Y54595915D01*
X-1541817Y54602078D01*
X-1558834Y54603295D01*
X-1573722Y54614441D01*
X-1591060Y54621158D01*
X-1601111Y54634944D01*
X-1614767Y54645167D01*
X-1621266Y54662590D01*
X-1632221Y54677617D01*
X-1633223Y54694649D01*
X-1639184Y54710631D01*
X-1639500Y54719477D01*
X-1639500Y102195590D01*
X-1619815Y102262629D01*
X-1603185Y102283267D01*
X-1053868Y102832585D01*
X-1053865Y102832586D01*
X-1036427Y102850024D01*
X-1036426Y102850024D01*
X-980024Y102906426D01*
X-949500Y102980118D01*
X-949500Y108889523D01*
X-929815Y108956562D01*
X-919520Y108969339D01*
X-916448Y108973938D01*
X-916443Y108973942D01*
X-874500Y109075200D01*
X-874500Y109184800D01*
X-916443Y109286058D01*
X-993942Y109363557D01*
X-1095200Y109405500D01*
X-1101011Y109407907D01*
X-1141238Y109434787D01*
X-2276475Y110570024D01*
X-3426426Y111719976D01*
X-3500117Y111750500D01*
X-3500118Y111750500D01*
X-25765588Y111750500D01*
X-25832627Y111770185D01*
X-25853269Y111786819D01*
X-31083181Y117016731D01*
X-31116666Y117078054D01*
X-31119500Y117104412D01*
X-31119500Y119869523D01*
X-31099815Y119936562D01*
X-31089520Y119949339D01*
X-31086448Y119953938D01*
X-31086443Y119953942D01*
X-31044500Y120055200D01*
X-31044500Y120164800D01*
X-31086443Y120266058D01*
X-31163942Y120343557D01*
X-31265200Y120385500D01*
X-31374800Y120385500D01*
X-31374801Y120385500D01*
X-31476060Y120343556D01*
X-31553556Y120266060D01*
X-31553558Y120266057D01*
X-31560940Y120248235D01*
X-31604782Y120193832D01*
X-31671077Y120171769D01*
X-31738776Y120189050D01*
X-31786385Y120240188D01*
X-31799500Y120295690D01*
X-31799500Y120422727D01*
X29319500Y120422727D01*
X29319500Y120317273D01*
X29346793Y120215413D01*
X29399520Y120124087D01*
X29474087Y120049520D01*
X29565413Y119996793D01*
X29667273Y119969500D01*
X29667275Y119969500D01*
X29772725Y119969500D01*
X29772727Y119969500D01*
X29874587Y119996793D01*
X29965913Y120049520D01*
X30040480Y120124087D01*
X30093207Y120215413D01*
X30120500Y120317273D01*
X30120500Y120422727D01*
X30093207Y120524587D01*
X30040480Y120615913D01*
X29965913Y120690480D01*
X29874587Y120743207D01*
X29772727Y120770500D01*
X29667273Y120770500D01*
X29565413Y120743207D01*
X29565410Y120743206D01*
X29474085Y120690479D01*
X29399521Y120615915D01*
X29346794Y120524590D01*
X29346793Y120524587D01*
X29319500Y120422727D01*
X-31799500Y120422727D01*
X-31799500Y123890000D01*
X-28830000Y123890000D01*
X-27577273Y125142727D01*
X-19180500Y125142727D01*
X-19180500Y125037273D01*
X-19153207Y124935413D01*
X-19100480Y124844087D01*
X-19025913Y124769520D01*
X-18934587Y124716793D01*
X-18832727Y124689500D01*
X-18832725Y124689500D01*
X-18727275Y124689500D01*
X-18727273Y124689500D01*
X-18625413Y124716793D01*
X-18534087Y124769520D01*
X-18459520Y124844087D01*
X-18406793Y124935413D01*
X-18379500Y125037273D01*
X-18379500Y125142727D01*
X-18406793Y125244587D01*
X-18459520Y125335913D01*
X-18516334Y125392727D01*
X10909500Y125392727D01*
X10909500Y125287273D01*
X10936793Y125185413D01*
X10989520Y125094087D01*
X11064087Y125019520D01*
X11155413Y124966793D01*
X11257273Y124939500D01*
X11257275Y124939500D01*
X11362725Y124939500D01*
X11362727Y124939500D01*
X11464587Y124966793D01*
X11555913Y125019520D01*
X11630480Y125094087D01*
X11664336Y125152727D01*
X40859500Y125152727D01*
X40859500Y125047273D01*
X40886793Y124945413D01*
X40939520Y124854087D01*
X41014087Y124779520D01*
X41105413Y124726793D01*
X41207273Y124699500D01*
X41207275Y124699500D01*
X41312725Y124699500D01*
X41312727Y124699500D01*
X41414587Y124726793D01*
X41505913Y124779520D01*
X41580480Y124854087D01*
X41633207Y124945413D01*
X41660500Y125047273D01*
X41660500Y125152727D01*
X41633207Y125254587D01*
X41580480Y125345913D01*
X41505913Y125420480D01*
X41414587Y125473207D01*
X41312727Y125500500D01*
X41207273Y125500500D01*
X41105413Y125473207D01*
X41105410Y125473206D01*
X41014085Y125420479D01*
X40939521Y125345915D01*
X40886794Y125254590D01*
X40886793Y125254587D01*
X40859500Y125152727D01*
X11664336Y125152727D01*
X11683207Y125185413D01*
X11710500Y125287273D01*
X11710500Y125392727D01*
X11683207Y125494587D01*
X11630480Y125585913D01*
X11555913Y125660480D01*
X11464587Y125713207D01*
X11362727Y125740500D01*
X11257273Y125740500D01*
X11155413Y125713207D01*
X11155410Y125713206D01*
X11064085Y125660479D01*
X10989521Y125585915D01*
X10936794Y125494590D01*
X10936793Y125494587D01*
X10909500Y125392727D01*
X-18516334Y125392727D01*
X-18534087Y125410480D01*
X-18625413Y125463207D01*
X-18727273Y125490500D01*
X-18832727Y125490500D01*
X-18934587Y125463207D01*
X-18934590Y125463206D01*
X-19025915Y125410479D01*
X-19100479Y125335915D01*
X-19153206Y125244590D01*
X-19153207Y125244587D01*
X-19180500Y125142727D01*
X-27577273Y125142727D01*
X-25800000Y126920000D01*
X-25800000Y129142727D01*
X-7290500Y129142727D01*
X-7290500Y129037273D01*
X-7263207Y128935413D01*
X-7210480Y128844087D01*
X-7135913Y128769520D01*
X-7044587Y128716793D01*
X-6942727Y128689500D01*
X-6942725Y128689500D01*
X-6837275Y128689500D01*
X-6837273Y128689500D01*
X-6735413Y128716793D01*
X-6644087Y128769520D01*
X-6569520Y128844087D01*
X-6516793Y128935413D01*
X-6489500Y129037273D01*
X-6489500Y129142727D01*
X-6516793Y129244587D01*
X-6569520Y129335913D01*
X-6644087Y129410480D01*
X-6735413Y129463207D01*
X-6837273Y129490500D01*
X-6942727Y129490500D01*
X-7044587Y129463207D01*
X-7044590Y129463206D01*
X-7135915Y129410479D01*
X-7210479Y129335915D01*
X-7263206Y129244590D01*
X-7263207Y129244587D01*
X-7290500Y129142727D01*
X-25800000Y129142727D01*
X-25800000Y133552727D01*
X-12980500Y133552727D01*
X-12980500Y133447273D01*
X-12953207Y133345413D01*
X-12900480Y133254087D01*
X-12825913Y133179520D01*
X-12734587Y133126793D01*
X-12632727Y133099500D01*
X-12632725Y133099500D01*
X-12527275Y133099500D01*
X-12527273Y133099500D01*
X-12425413Y133126793D01*
X-12334087Y133179520D01*
X-12259520Y133254087D01*
X-12206793Y133345413D01*
X-12179500Y133447273D01*
X-12179500Y133552727D01*
X-12206793Y133654587D01*
X-12259520Y133745913D01*
X-12334087Y133820480D01*
X-12425413Y133873207D01*
X-12527273Y133900500D01*
X-12632727Y133900500D01*
X-12734587Y133873207D01*
X-12734590Y133873206D01*
X-12825915Y133820479D01*
X-12900479Y133745915D01*
X-12953206Y133654590D01*
X-12953207Y133654587D01*
X-12980500Y133552727D01*
X-25800000Y133552727D01*
X-25800000Y134352727D01*
X-35660Y134352727D01*
X-35660Y134247273D01*
X-8367Y134145413D01*
X44360Y134054087D01*
X118927Y133979520D01*
X210253Y133926793D01*
X312113Y133899500D01*
X312115Y133899500D01*
X417565Y133899500D01*
X417567Y133899500D01*
X519427Y133926793D01*
X610753Y133979520D01*
X685320Y134054087D01*
X722172Y134117918D01*
X772735Y134166129D01*
X841342Y134179353D01*
X906207Y134153385D01*
X936942Y134117915D01*
X950074Y134095171D01*
X959360Y134079087D01*
X1033927Y134004520D01*
X1125253Y133951793D01*
X1227113Y133924500D01*
X1227115Y133924500D01*
X1332565Y133924500D01*
X1332567Y133924500D01*
X1434427Y133951793D01*
X1525753Y134004520D01*
X1600320Y134079087D01*
X1647454Y134160727D01*
X1698020Y134208941D01*
X1766627Y134222164D01*
X1831492Y134196196D01*
X1862225Y134160728D01*
X1909360Y134079087D01*
X1983927Y134004520D01*
X2075253Y133951793D01*
X2177113Y133924500D01*
X2177115Y133924500D01*
X2282565Y133924500D01*
X2282567Y133924500D01*
X2384427Y133951793D01*
X2475753Y134004520D01*
X2550320Y134079087D01*
X2603047Y134170413D01*
X2630340Y134272273D01*
X2630340Y134377727D01*
X2603047Y134479587D01*
X2550320Y134570913D01*
X2475753Y134645480D01*
X2384427Y134698207D01*
X2377388Y134702271D01*
X2378121Y134703543D01*
X2330673Y134741776D01*
X2308605Y134808069D01*
X2325882Y134875769D01*
X2377017Y134923382D01*
X2384201Y134926663D01*
X2384425Y134926793D01*
X2384427Y134926793D01*
X2475753Y134979520D01*
X2550320Y135054087D01*
X2603047Y135145413D01*
X2630340Y135247273D01*
X2630340Y135352727D01*
X2603047Y135454587D01*
X2550320Y135545913D01*
X2475753Y135620480D01*
X2384427Y135673207D01*
X2282567Y135700500D01*
X2177113Y135700500D01*
X2075253Y135673207D01*
X2075250Y135673206D01*
X1983925Y135620479D01*
X1909361Y135545915D01*
X1856634Y135454590D01*
X1856633Y135454587D01*
X1829340Y135352727D01*
X1829340Y135247273D01*
X1856633Y135145413D01*
X1909360Y135054087D01*
X1983927Y134979520D01*
X2075253Y134926793D01*
X2082292Y134922729D01*
X2081558Y134921459D01*
X2129010Y134883219D01*
X2151074Y134816925D01*
X2133794Y134749225D01*
X2082656Y134701616D01*
X2075477Y134698337D01*
X1983925Y134645479D01*
X1909361Y134570915D01*
X1862227Y134489276D01*
X1811660Y134441060D01*
X1743053Y134427838D01*
X1678188Y134453806D01*
X1647453Y134489276D01*
X1643760Y134495673D01*
X1600320Y134570913D01*
X1525753Y134645480D01*
X1434427Y134698207D01*
X1332567Y134725500D01*
X1227113Y134725500D01*
X1125253Y134698207D01*
X1125250Y134698206D01*
X1033925Y134645479D01*
X959362Y134570916D01*
X959360Y134570914D01*
X959360Y134570913D01*
X923799Y134509318D01*
X922510Y134507086D01*
X871942Y134458871D01*
X803335Y134445649D01*
X738471Y134471617D01*
X707738Y134507084D01*
X685320Y134545913D01*
X610753Y134620480D01*
X519427Y134673207D01*
X417567Y134700500D01*
X312113Y134700500D01*
X210253Y134673207D01*
X210250Y134673206D01*
X118925Y134620479D01*
X44361Y134545915D01*
X-8366Y134454590D01*
X-8367Y134454587D01*
X-35660Y134352727D01*
X-25800000Y134352727D01*
X-25800000Y134794129D01*
X-25715413Y134816793D01*
X-25624087Y134869520D01*
X-25549520Y134944087D01*
X-25496793Y135035413D01*
X-25469500Y135137273D01*
X-25469500Y135242727D01*
X-25496793Y135344587D01*
X-25549520Y135435913D01*
X-25624087Y135510480D01*
X-25715413Y135563207D01*
X-25800000Y135585872D01*
X-25800000Y135662727D01*
X-6345660Y135662727D01*
X-6345660Y135557273D01*
X-6318367Y135455413D01*
X-6265640Y135364087D01*
X-6191073Y135289520D01*
X-6099747Y135236793D01*
X-5997887Y135209500D01*
X-5997885Y135209500D01*
X-5892435Y135209500D01*
X-5892433Y135209500D01*
X-5790573Y135236793D01*
X-5699247Y135289520D01*
X-5624680Y135364087D01*
X-5571953Y135455413D01*
X-5544660Y135557273D01*
X-5544660Y135662727D01*
X-5571953Y135764587D01*
X-5624680Y135855913D01*
X-5699247Y135930480D01*
X-5790573Y135983207D01*
X-5892433Y136010500D01*
X-5997887Y136010500D01*
X-6099747Y135983207D01*
X-6099750Y135983206D01*
X-6191075Y135930479D01*
X-6265639Y135855915D01*
X-6318366Y135764590D01*
X-6318367Y135764587D01*
X-6345660Y135662727D01*
X-25800000Y135662727D01*
X-25800000Y136302727D01*
X-2695660Y136302727D01*
X-2695660Y136197273D01*
X-2668367Y136095413D01*
X-2615640Y136004087D01*
X-2541073Y135929520D01*
X-2449747Y135876793D01*
X-2347887Y135849500D01*
X-2347885Y135849500D01*
X-2242435Y135849500D01*
X-2242433Y135849500D01*
X-2140573Y135876793D01*
X-2049247Y135929520D01*
X-1974680Y136004087D01*
X-1921953Y136095413D01*
X-1894660Y136197273D01*
X-1894660Y136302727D01*
X-1921953Y136404587D01*
X-1974680Y136495913D01*
X-2049247Y136570480D01*
X-2140573Y136623207D01*
X-2242433Y136650500D01*
X-2347887Y136650500D01*
X-2449747Y136623207D01*
X-2449750Y136623206D01*
X-2541075Y136570479D01*
X-2615639Y136495915D01*
X-2668366Y136404590D01*
X-2668367Y136404587D01*
X-2695660Y136302727D01*
X-25800000Y136302727D01*
X-25800000Y137494500D01*
X-24995093Y137494500D01*
X-24995091Y137494500D01*
X-24930587Y137521218D01*
X-24329078Y138122727D01*
X-19630500Y138122727D01*
X-19630500Y138017273D01*
X-19603207Y137915413D01*
X-19550480Y137824087D01*
X-19475913Y137749520D01*
X-19384587Y137696793D01*
X-19282727Y137669500D01*
X-19282725Y137669500D01*
X-19177275Y137669500D01*
X-19177273Y137669500D01*
X-19075413Y137696793D01*
X-18984087Y137749520D01*
X-18909520Y137824087D01*
X-18856793Y137915413D01*
X-18829500Y138017273D01*
X-18829500Y138122727D01*
X-18856793Y138224587D01*
X-18909520Y138315913D01*
X-18984087Y138390480D01*
X-19075413Y138443207D01*
X-19177273Y138470500D01*
X-19282727Y138470500D01*
X-19384587Y138443207D01*
X-19384590Y138443206D01*
X-19475915Y138390479D01*
X-19550479Y138315915D01*
X-19603206Y138224590D01*
X-19603207Y138224587D01*
X-19630500Y138122727D01*
X-24329078Y138122727D01*
X-23714528Y138737277D01*
X-7190859Y138737277D01*
X-7190859Y138604124D01*
X-7156397Y138475506D01*
X-7123109Y138417850D01*
X-7089820Y138360193D01*
X-6995666Y138266039D01*
X-6880352Y138199462D01*
X-6751736Y138165000D01*
X-6751734Y138165000D01*
X-6618584Y138165000D01*
X-6618582Y138165000D01*
X-6489966Y138199462D01*
X-6374652Y138266039D01*
X-6280498Y138360193D01*
X-6213921Y138475507D01*
X-6179459Y138604123D01*
X-6179459Y138737277D01*
X-1410861Y138737277D01*
X-1410861Y138604124D01*
X-1376399Y138475506D01*
X-1343111Y138417850D01*
X-1309822Y138360193D01*
X-1215668Y138266039D01*
X-1100354Y138199462D01*
X-971738Y138165000D01*
X-971736Y138165000D01*
X-838586Y138165000D01*
X-838584Y138165000D01*
X-709968Y138199462D01*
X-594654Y138266039D01*
X-500500Y138360193D01*
X-433923Y138475507D01*
X-399461Y138604123D01*
X-399461Y138737277D01*
X-433923Y138865893D01*
X-500500Y138981207D01*
X-594654Y139075361D01*
X-652311Y139108650D01*
X-709967Y139141938D01*
X-774276Y139159169D01*
X-838584Y139176400D01*
X-971738Y139176400D01*
X-1100356Y139141938D01*
X-1215668Y139075361D01*
X-1215671Y139075359D01*
X-1309820Y138981210D01*
X-1309822Y138981207D01*
X-1376399Y138865895D01*
X-1410861Y138737277D01*
X-6179459Y138737277D01*
X-6213921Y138865893D01*
X-6280498Y138981207D01*
X-6374652Y139075361D01*
X-6432309Y139108650D01*
X-6489965Y139141938D01*
X-6554274Y139159169D01*
X-6618582Y139176400D01*
X-6751736Y139176400D01*
X-6880354Y139141938D01*
X-6995666Y139075361D01*
X-6995669Y139075359D01*
X-7089818Y138981210D01*
X-7089820Y138981207D01*
X-7156397Y138865895D01*
X-7190859Y138737277D01*
X-23714528Y138737277D01*
X-22553624Y139898181D01*
X-22492301Y139931666D01*
X-22465943Y139934500D01*
X-15522724Y139934500D01*
X-15455685Y139914815D01*
X-15415338Y139872501D01*
X-15410480Y139864087D01*
X-15335913Y139789520D01*
X-15244587Y139736793D01*
X-15142727Y139709500D01*
X-15142725Y139709500D01*
X-15037275Y139709500D01*
X-15037273Y139709500D01*
X-14935413Y139736793D01*
X-14844087Y139789520D01*
X-14769520Y139864087D01*
X-14716793Y139955413D01*
X-14689500Y140057273D01*
X-14689500Y140162727D01*
X-14716793Y140264587D01*
X-14756134Y140332727D01*
X-11460500Y140332727D01*
X-11460500Y140227273D01*
X-11434564Y140130480D01*
X-11433207Y140125414D01*
X-11433206Y140125411D01*
X-11419078Y140100941D01*
X-11380480Y140034087D01*
X-11305913Y139959520D01*
X-11214587Y139906793D01*
X-11112727Y139879500D01*
X-11112725Y139879500D01*
X-11007275Y139879500D01*
X-11007273Y139879500D01*
X-10905413Y139906793D01*
X-10814087Y139959520D01*
X-10739520Y140034087D01*
X-10705664Y140092727D01*
X-10300500Y140092727D01*
X-10300500Y139987273D01*
X-10273207Y139885413D01*
X-10220480Y139794087D01*
X-10145913Y139719520D01*
X-10054587Y139666793D01*
X-9952727Y139639500D01*
X-9952725Y139639500D01*
X-9847275Y139639500D01*
X-9847273Y139639500D01*
X-9745413Y139666793D01*
X-9654087Y139719520D01*
X-9579520Y139794087D01*
X-9539891Y139862727D01*
X-1950500Y139862727D01*
X-1950500Y139757273D01*
X-1923207Y139655413D01*
X-1870480Y139564087D01*
X-1795913Y139489520D01*
X-1704587Y139436793D01*
X-1602727Y139409500D01*
X-1602725Y139409500D01*
X-1497275Y139409500D01*
X-1497273Y139409500D01*
X-1395413Y139436793D01*
X-1384858Y139442888D01*
X-1322858Y139459500D01*
X47863456Y139459500D01*
X47930495Y139439815D01*
X47951137Y139423181D01*
X53063181Y134311137D01*
X53096666Y134249814D01*
X53099500Y134223456D01*
X53099500Y86397143D01*
X53082888Y86335145D01*
X53076795Y86324592D01*
X53076793Y86324587D01*
X53049500Y86222727D01*
X53049500Y86117273D01*
X53076793Y86015413D01*
X53129520Y85924087D01*
X53204087Y85849520D01*
X53295413Y85796793D01*
X53397273Y85769500D01*
X53397275Y85769500D01*
X53502725Y85769500D01*
X53502727Y85769500D01*
X53604587Y85796793D01*
X53695913Y85849520D01*
X53770480Y85924087D01*
X53823207Y86015413D01*
X53850500Y86117273D01*
X53850500Y86222727D01*
X53823207Y86324587D01*
X53822255Y86326236D01*
X53817112Y86335145D01*
X53800500Y86397143D01*
X53800500Y134466142D01*
X53800500Y134466144D01*
X53776614Y134555288D01*
X53765083Y134575260D01*
X53730470Y134635212D01*
X48275212Y140090470D01*
X48205914Y140130479D01*
X48195290Y140136613D01*
X48195289Y140136614D01*
X48195288Y140136614D01*
X48106144Y140160500D01*
X48106143Y140160500D01*
X-1322858Y140160500D01*
X-1384858Y140177113D01*
X-1395411Y140183206D01*
X-1395412Y140183207D01*
X-1395413Y140183207D01*
X-1497273Y140210500D01*
X-1602727Y140210500D01*
X-1704587Y140183207D01*
X-1704590Y140183206D01*
X-1795915Y140130479D01*
X-1870479Y140055915D01*
X-1923206Y139964590D01*
X-1923207Y139964587D01*
X-1950500Y139862727D01*
X-9539891Y139862727D01*
X-9526793Y139885413D01*
X-9499500Y139987273D01*
X-9499500Y140092727D01*
X-9526793Y140194587D01*
X-9536607Y140211586D01*
X54429340Y140211586D01*
X54429340Y139978855D01*
X54429341Y139978838D01*
X54458510Y139757273D01*
X54459719Y139748094D01*
X54484553Y139655411D01*
X54519960Y139523273D01*
X54609020Y139308260D01*
X54609028Y139308244D01*
X54725393Y139106696D01*
X54725404Y139106680D01*
X54867082Y138922041D01*
X54867088Y138922034D01*
X55031653Y138757469D01*
X55031659Y138757464D01*
X55216308Y138615778D01*
X55216315Y138615774D01*
X55417863Y138499409D01*
X55417879Y138499401D01*
X55632892Y138410341D01*
X55632894Y138410341D01*
X55632900Y138410338D01*
X55857714Y138350099D01*
X56088468Y138319720D01*
X56088475Y138319720D01*
X56321205Y138319720D01*
X56321212Y138319720D01*
X56551966Y138350099D01*
X56776780Y138410338D01*
X56837527Y138435500D01*
X56991800Y138499401D01*
X56991803Y138499403D01*
X56991809Y138499405D01*
X56992634Y138499881D01*
X57123328Y138575338D01*
X57193372Y138615778D01*
X57378021Y138757464D01*
X57542596Y138922039D01*
X57684282Y139106688D01*
X57800655Y139308251D01*
X57856423Y139442887D01*
X57889719Y139523273D01*
X57889718Y139523273D01*
X57889722Y139523280D01*
X57949961Y139748094D01*
X57980340Y139978848D01*
X57980340Y140211592D01*
X57949961Y140442346D01*
X57889722Y140667160D01*
X57889719Y140667168D01*
X57800659Y140882181D01*
X57800651Y140882197D01*
X57684286Y141083745D01*
X57684282Y141083752D01*
X57542596Y141268401D01*
X57542591Y141268407D01*
X57378026Y141432972D01*
X57378019Y141432978D01*
X57193377Y141574658D01*
X57193372Y141574662D01*
X57193367Y141574665D01*
X57193364Y141574667D01*
X56991816Y141691032D01*
X56991800Y141691040D01*
X56776787Y141780100D01*
X56551962Y141840342D01*
X56321222Y141870719D01*
X56321217Y141870720D01*
X56321212Y141870720D01*
X56088468Y141870720D01*
X56088462Y141870720D01*
X56088457Y141870719D01*
X55857717Y141840342D01*
X55632892Y141780100D01*
X55417879Y141691040D01*
X55417863Y141691032D01*
X55216315Y141574667D01*
X55216303Y141574658D01*
X55031660Y141432978D01*
X55031653Y141432972D01*
X54867088Y141268407D01*
X54867082Y141268400D01*
X54725404Y141083761D01*
X54725393Y141083745D01*
X54609028Y140882197D01*
X54609020Y140882181D01*
X54519960Y140667168D01*
X54459718Y140442343D01*
X54429341Y140211603D01*
X54429340Y140211586D01*
X-9536607Y140211586D01*
X-9579520Y140285913D01*
X-9654087Y140360480D01*
X-9745413Y140413207D01*
X-9847273Y140440500D01*
X-9952727Y140440500D01*
X-10054587Y140413207D01*
X-10054590Y140413206D01*
X-10145915Y140360479D01*
X-10220479Y140285915D01*
X-10273206Y140194590D01*
X-10273207Y140194587D01*
X-10300500Y140092727D01*
X-10705664Y140092727D01*
X-10686793Y140125413D01*
X-10659500Y140227273D01*
X-10659500Y140332727D01*
X-10686793Y140434587D01*
X-10739520Y140525913D01*
X-10814087Y140600480D01*
X-10905413Y140653207D01*
X-11007273Y140680500D01*
X-11112727Y140680500D01*
X-11214587Y140653207D01*
X-11214590Y140653206D01*
X-11305915Y140600479D01*
X-11380479Y140525915D01*
X-11433206Y140434590D01*
X-11433207Y140434587D01*
X-11460500Y140332727D01*
X-14756134Y140332727D01*
X-14769520Y140355913D01*
X-14844087Y140430480D01*
X-14935413Y140483207D01*
X-15037273Y140510500D01*
X-15142727Y140510500D01*
X-15244587Y140483207D01*
X-15244590Y140483206D01*
X-15335915Y140430479D01*
X-15410478Y140355916D01*
X-15410480Y140355913D01*
X-15415338Y140347500D01*
X-15465903Y140299285D01*
X-15522724Y140285500D01*
X-22624909Y140285500D01*
X-22689414Y140258782D01*
X-25066376Y137881819D01*
X-25127699Y137848334D01*
X-25154057Y137845500D01*
X-25800000Y137845500D01*
X-25800000Y138811805D01*
X-23329078Y141282727D01*
X-19620500Y141282727D01*
X-19620500Y141177273D01*
X-19593207Y141075413D01*
X-19540480Y140984087D01*
X-19465913Y140909520D01*
X-19374587Y140856793D01*
X-19272727Y140829500D01*
X-19272725Y140829500D01*
X-19167275Y140829500D01*
X-19167273Y140829500D01*
X-19065413Y140856793D01*
X-18974087Y140909520D01*
X-18899520Y140984087D01*
X-18846793Y141075413D01*
X-18828756Y141142727D01*
X-10530500Y141142727D01*
X-10530500Y141037273D01*
X-10503207Y140935413D01*
X-10450480Y140844087D01*
X-10375913Y140769520D01*
X-10284587Y140716793D01*
X-10182727Y140689500D01*
X-10182725Y140689500D01*
X-10077275Y140689500D01*
X-10077273Y140689500D01*
X-9975413Y140716793D01*
X-9884087Y140769520D01*
X-9809520Y140844087D01*
X-9756793Y140935413D01*
X-9729500Y141037273D01*
X-9729500Y141142727D01*
X-9756793Y141244587D01*
X-9809520Y141335913D01*
X-9884087Y141410480D01*
X-9975413Y141463207D01*
X-10077273Y141490500D01*
X-10182727Y141490500D01*
X-10284587Y141463207D01*
X-10284590Y141463206D01*
X-10375915Y141410479D01*
X-10450479Y141335915D01*
X-10503206Y141244590D01*
X-10503207Y141244587D01*
X-10530500Y141142727D01*
X-18828756Y141142727D01*
X-18819500Y141177273D01*
X-18819500Y141282727D01*
X-18846793Y141384587D01*
X-18899520Y141475913D01*
X-18974087Y141550480D01*
X-19065413Y141603207D01*
X-19167273Y141630500D01*
X-19272727Y141630500D01*
X-19374587Y141603207D01*
X-19374590Y141603206D01*
X-19465915Y141550479D01*
X-19540479Y141475915D01*
X-19593206Y141384590D01*
X-19593207Y141384587D01*
X-19620500Y141282727D01*
X-23329078Y141282727D01*
X-21543624Y143068181D01*
X-21482301Y143101666D01*
X-21455943Y143104500D01*
X-14632724Y143104500D01*
X-14565685Y143084815D01*
X-14525338Y143042501D01*
X-14520480Y143034087D01*
X-14445913Y142959520D01*
X-14354587Y142906793D01*
X-14252727Y142879500D01*
X-14252725Y142879500D01*
X-14147275Y142879500D01*
X-14147273Y142879500D01*
X-14045413Y142906793D01*
X-13954087Y142959520D01*
X-13879520Y143034087D01*
X-13826793Y143125413D01*
X-13799500Y143227273D01*
X-13799500Y143332727D01*
X-13826793Y143434587D01*
X-13879520Y143525913D01*
X-13954087Y143600480D01*
X-13954092Y143600483D01*
X-13956515Y143602342D01*
X-13958047Y143604440D01*
X-13959834Y143606227D01*
X-13959556Y143606506D01*
X-13997719Y143658769D01*
X-14001876Y143728515D01*
X-13967665Y143789436D01*
X-13905948Y143822191D01*
X-13881031Y143824720D01*
X56099563Y143824720D01*
X56201788Y143824720D01*
X56207872Y143824571D01*
X56256318Y143822191D01*
X56564317Y143807060D01*
X56576419Y143805868D01*
X56926413Y143753952D01*
X56938323Y143751583D01*
X57281566Y143665605D01*
X57293189Y143662078D01*
X57626320Y143542882D01*
X57637549Y143538232D01*
X57957423Y143386942D01*
X57968132Y143381218D01*
X58271609Y143199321D01*
X58281724Y143192563D01*
X58535784Y143004139D01*
X58565921Y142981788D01*
X58575327Y142974068D01*
X58837489Y142736459D01*
X58846078Y142727870D01*
X58957896Y142604498D01*
X59083687Y142465708D01*
X59091407Y142456302D01*
X59302180Y142172108D01*
X59308940Y142161990D01*
X59483520Y141870720D01*
X59490830Y141858525D01*
X59496565Y141847797D01*
X59528583Y141780100D01*
X59647848Y141527937D01*
X59652504Y141516694D01*
X59771694Y141183580D01*
X59775227Y141171936D01*
X59861199Y140828717D01*
X59863573Y140816781D01*
X59915486Y140466804D01*
X59916679Y140454695D01*
X59934191Y140098253D01*
X59934340Y140092168D01*
X59934340Y84105739D01*
X59914655Y84038700D01*
X59861851Y83992945D01*
X59792693Y83983001D01*
X59729137Y84012026D01*
X59722659Y84018058D01*
X59651385Y84089332D01*
X59651381Y84089335D01*
X59536657Y84165992D01*
X59536644Y84165999D01*
X59409172Y84218799D01*
X59409162Y84218802D01*
X59273835Y84245720D01*
X59273833Y84245720D01*
X59135847Y84245720D01*
X59135845Y84245720D01*
X59000517Y84218802D01*
X59000507Y84218799D01*
X58873035Y84165999D01*
X58873022Y84165992D01*
X58758298Y84089335D01*
X58758294Y84089332D01*
X58660728Y83991766D01*
X58660725Y83991762D01*
X58584068Y83877038D01*
X58584061Y83877025D01*
X58531261Y83749553D01*
X58531258Y83749543D01*
X58504340Y83614216D01*
X58504340Y83614213D01*
X58504340Y83476227D01*
X58504340Y83476225D01*
X58504339Y83476225D01*
X58531258Y83340898D01*
X58531261Y83340888D01*
X58584061Y83213416D01*
X58584068Y83213403D01*
X58660725Y83098679D01*
X58660728Y83098675D01*
X58758294Y83001109D01*
X58758298Y83001106D01*
X58873022Y82924449D01*
X58873035Y82924442D01*
X59000507Y82871642D01*
X59000512Y82871640D01*
X59000516Y82871640D01*
X59000517Y82871639D01*
X59135844Y82844720D01*
X59135847Y82844720D01*
X59273835Y82844720D01*
X59364881Y82862831D01*
X59409168Y82871640D01*
X59536651Y82924445D01*
X59651382Y83001106D01*
X59651385Y83001109D01*
X59722659Y83072382D01*
X59783982Y83105867D01*
X59853674Y83100883D01*
X59909607Y83059011D01*
X59934024Y82993547D01*
X59934340Y82984701D01*
X59934340Y77305739D01*
X59914655Y77238700D01*
X59861851Y77192945D01*
X59792693Y77183001D01*
X59729137Y77212026D01*
X59722659Y77218058D01*
X59651385Y77289332D01*
X59651381Y77289335D01*
X59536657Y77365992D01*
X59536644Y77365999D01*
X59409172Y77418799D01*
X59409162Y77418802D01*
X59273835Y77445720D01*
X59273833Y77445720D01*
X59135847Y77445720D01*
X59135845Y77445720D01*
X59000517Y77418802D01*
X59000507Y77418799D01*
X58873035Y77365999D01*
X58873022Y77365992D01*
X58758298Y77289335D01*
X58758294Y77289332D01*
X58660728Y77191766D01*
X58660725Y77191762D01*
X58584068Y77077038D01*
X58584061Y77077025D01*
X58531261Y76949553D01*
X58531258Y76949543D01*
X58504340Y76814216D01*
X58504340Y76814213D01*
X58504340Y76676227D01*
X58504340Y76676225D01*
X58504339Y76676225D01*
X58531258Y76540898D01*
X58531261Y76540888D01*
X58584061Y76413416D01*
X58584068Y76413403D01*
X58660725Y76298679D01*
X58660728Y76298675D01*
X58758294Y76201109D01*
X58758298Y76201106D01*
X58873022Y76124449D01*
X58873035Y76124442D01*
X59000507Y76071642D01*
X59000512Y76071640D01*
X59000516Y76071640D01*
X59000517Y76071639D01*
X59135844Y76044720D01*
X59135847Y76044720D01*
X59273835Y76044720D01*
X59364881Y76062831D01*
X59409168Y76071640D01*
X59536651Y76124445D01*
X59651382Y76201106D01*
X59651385Y76201109D01*
X59722659Y76272382D01*
X59783982Y76305867D01*
X59853674Y76300883D01*
X59909607Y76259011D01*
X59934024Y76193547D01*
X59934340Y76184701D01*
X59934340Y20098273D01*
X59934191Y20092188D01*
X59916679Y19735746D01*
X59915486Y19723637D01*
X59863573Y19373660D01*
X59861199Y19361724D01*
X59775227Y19018505D01*
X59771694Y19006861D01*
X59652504Y18673747D01*
X59647848Y18662504D01*
X59496567Y18342648D01*
X59490830Y18331916D01*
X59308940Y18028451D01*
X59302180Y18018333D01*
X59091407Y17734139D01*
X59083687Y17724733D01*
X58846086Y17462579D01*
X58837481Y17453974D01*
X58575327Y17216373D01*
X58565921Y17208653D01*
X58281727Y16997880D01*
X58271609Y16991120D01*
X57968144Y16809230D01*
X57957412Y16803493D01*
X57637556Y16652212D01*
X57626313Y16647556D01*
X57293199Y16528366D01*
X57281555Y16524833D01*
X56938336Y16438861D01*
X56926400Y16436487D01*
X56576423Y16384574D01*
X56564314Y16383381D01*
X56207873Y16365869D01*
X56201788Y16365720D01*
X-63792108Y16365720D01*
X-63798193Y16365869D01*
X-64154635Y16383381D01*
X-64166744Y16384574D01*
X-64516721Y16436487D01*
X-64528657Y16438861D01*
X-64871876Y16524833D01*
X-64883520Y16528366D01*
X-65216634Y16647556D01*
X-65227877Y16652212D01*
X-65363919Y16716556D01*
X-65547737Y16803495D01*
X-65558460Y16809228D01*
X-65861930Y16991120D01*
X-65872048Y16997880D01*
X-66156242Y17208653D01*
X-66165648Y17216373D01*
X-66210030Y17256599D01*
X-66427810Y17453982D01*
X-66436399Y17462571D01*
X-66674008Y17724733D01*
X-66681728Y17734139D01*
X-66892501Y18018333D01*
X-66899261Y18028451D01*
X-67081158Y18331928D01*
X-67086882Y18342637D01*
X-67238172Y18662511D01*
X-67242825Y18673747D01*
X-67331665Y18922039D01*
X-67362018Y19006871D01*
X-67365545Y19018494D01*
X-67451523Y19361737D01*
X-67453892Y19373647D01*
X-67505808Y19723641D01*
X-67507000Y19735747D01*
X-67507607Y19748094D01*
X-67524511Y20092189D01*
X-67524660Y20098273D01*
X-67524660Y20211586D01*
X-65570660Y20211586D01*
X-65570660Y19978855D01*
X-65570659Y19978838D01*
X-65540282Y19748098D01*
X-65480040Y19523273D01*
X-65390980Y19308260D01*
X-65390972Y19308244D01*
X-65274607Y19106696D01*
X-65274596Y19106680D01*
X-65132918Y18922041D01*
X-65132912Y18922034D01*
X-64968347Y18757469D01*
X-64968341Y18757464D01*
X-64783692Y18615778D01*
X-64783685Y18615774D01*
X-64582137Y18499409D01*
X-64582121Y18499401D01*
X-64367108Y18410341D01*
X-64367106Y18410341D01*
X-64367100Y18410338D01*
X-64142286Y18350099D01*
X-63911532Y18319720D01*
X-63911525Y18319720D01*
X-63678795Y18319720D01*
X-63678788Y18319720D01*
X-63448034Y18350099D01*
X-63223220Y18410338D01*
X-63165207Y18434368D01*
X-63008200Y18499401D01*
X-63008197Y18499403D01*
X-63008191Y18499405D01*
X-62806628Y18615778D01*
X-62621979Y18757464D01*
X-62457404Y18922039D01*
X-62315718Y19106688D01*
X-62199345Y19308251D01*
X-62110278Y19523280D01*
X-62050039Y19748094D01*
X-62019660Y19978848D01*
X-62019660Y20211586D01*
X54429340Y20211586D01*
X54429340Y19978855D01*
X54429341Y19978838D01*
X54459718Y19748098D01*
X54519960Y19523273D01*
X54609020Y19308260D01*
X54609028Y19308244D01*
X54725393Y19106696D01*
X54725404Y19106680D01*
X54867082Y18922041D01*
X54867088Y18922034D01*
X55031653Y18757469D01*
X55031659Y18757464D01*
X55216308Y18615778D01*
X55216315Y18615774D01*
X55417863Y18499409D01*
X55417879Y18499401D01*
X55632892Y18410341D01*
X55632894Y18410341D01*
X55632900Y18410338D01*
X55857714Y18350099D01*
X56088468Y18319720D01*
X56088475Y18319720D01*
X56321205Y18319720D01*
X56321212Y18319720D01*
X56551966Y18350099D01*
X56776780Y18410338D01*
X56834793Y18434368D01*
X56991800Y18499401D01*
X56991803Y18499403D01*
X56991809Y18499405D01*
X57193372Y18615778D01*
X57378021Y18757464D01*
X57542596Y18922039D01*
X57684282Y19106688D01*
X57800655Y19308251D01*
X57889722Y19523280D01*
X57949961Y19748094D01*
X57980340Y19978848D01*
X57980340Y20211592D01*
X57949961Y20442346D01*
X57889722Y20667160D01*
X57889719Y20667168D01*
X57800659Y20882181D01*
X57800651Y20882197D01*
X57684286Y21083745D01*
X57684282Y21083752D01*
X57542596Y21268401D01*
X57542591Y21268407D01*
X57378026Y21432972D01*
X57378019Y21432978D01*
X57193380Y21574656D01*
X57193378Y21574658D01*
X57193372Y21574662D01*
X57193367Y21574665D01*
X57193364Y21574667D01*
X56991816Y21691032D01*
X56991800Y21691040D01*
X56776787Y21780100D01*
X56551962Y21840342D01*
X56321222Y21870719D01*
X56321217Y21870720D01*
X56321212Y21870720D01*
X56088468Y21870720D01*
X56088462Y21870720D01*
X56088457Y21870719D01*
X55857717Y21840342D01*
X55632892Y21780100D01*
X55417879Y21691040D01*
X55417863Y21691032D01*
X55216315Y21574667D01*
X55216299Y21574656D01*
X55031660Y21432978D01*
X55031653Y21432972D01*
X54867088Y21268407D01*
X54867082Y21268400D01*
X54725404Y21083761D01*
X54725393Y21083745D01*
X54609028Y20882197D01*
X54609020Y20882181D01*
X54519960Y20667168D01*
X54459718Y20442343D01*
X54429341Y20211603D01*
X54429340Y20211586D01*
X-62019660Y20211586D01*
X-62019660Y20211592D01*
X-62050039Y20442346D01*
X-62110278Y20667160D01*
X-62110281Y20667168D01*
X-62199341Y20882181D01*
X-62199349Y20882197D01*
X-62315714Y21083745D01*
X-62315718Y21083752D01*
X-62457404Y21268401D01*
X-62457409Y21268407D01*
X-62621974Y21432972D01*
X-62621981Y21432978D01*
X-62806620Y21574656D01*
X-62806622Y21574658D01*
X-62806628Y21574662D01*
X-62806633Y21574665D01*
X-62806636Y21574667D01*
X-63008184Y21691032D01*
X-63008200Y21691040D01*
X-63223213Y21780100D01*
X-63448038Y21840342D01*
X-63678778Y21870719D01*
X-63678783Y21870720D01*
X-63678788Y21870720D01*
X-63911532Y21870720D01*
X-63911538Y21870720D01*
X-63911543Y21870719D01*
X-64142283Y21840342D01*
X-64367108Y21780100D01*
X-64582121Y21691040D01*
X-64582137Y21691032D01*
X-64783685Y21574667D01*
X-64783701Y21574656D01*
X-64968340Y21432978D01*
X-64968347Y21432972D01*
X-65132912Y21268407D01*
X-65132918Y21268400D01*
X-65274596Y21083761D01*
X-65274607Y21083745D01*
X-65390972Y20882197D01*
X-65390980Y20882181D01*
X-65480040Y20667168D01*
X-65540282Y20442343D01*
X-65570659Y20211603D01*
X-65570660Y20211586D01*
X-67524660Y20211586D01*
X-67524660Y29672727D01*
X21939500Y29672727D01*
X21939500Y29567273D01*
X21966793Y29465413D01*
X22019520Y29374087D01*
X22094087Y29299520D01*
X22185413Y29246793D01*
X22287273Y29219500D01*
X22287275Y29219500D01*
X22392725Y29219500D01*
X22392727Y29219500D01*
X22494587Y29246793D01*
X22585913Y29299520D01*
X22660480Y29374087D01*
X22713207Y29465413D01*
X22740500Y29567273D01*
X22740500Y29672727D01*
X22713207Y29774587D01*
X22660480Y29865913D01*
X22585913Y29940480D01*
X22512739Y29982727D01*
X52059500Y29982727D01*
X52059500Y29877273D01*
X52086793Y29775413D01*
X52139520Y29684087D01*
X52214087Y29609520D01*
X52305413Y29556793D01*
X52407273Y29529500D01*
X52407275Y29529500D01*
X52512725Y29529500D01*
X52512727Y29529500D01*
X52614587Y29556793D01*
X52705913Y29609520D01*
X52780480Y29684087D01*
X52833207Y29775413D01*
X52860500Y29877273D01*
X52860500Y29982727D01*
X52833207Y30084587D01*
X52780480Y30175913D01*
X52705913Y30250480D01*
X52614587Y30303207D01*
X52512727Y30330500D01*
X52407273Y30330500D01*
X52305413Y30303207D01*
X52305410Y30303206D01*
X52214085Y30250479D01*
X52139521Y30175915D01*
X52086794Y30084590D01*
X52086793Y30084587D01*
X52059500Y29982727D01*
X22512739Y29982727D01*
X22494587Y29993207D01*
X22392727Y30020500D01*
X22287273Y30020500D01*
X22185413Y29993207D01*
X22185410Y29993206D01*
X22094085Y29940479D01*
X22019521Y29865915D01*
X21966794Y29774590D01*
X21966793Y29774587D01*
X21939500Y29672727D01*
X-67524660Y29672727D01*
X-67524660Y35142727D01*
X-49200500Y35142727D01*
X-49200500Y35037273D01*
X-49191962Y35005411D01*
X-49173207Y34935414D01*
X-49173206Y34935411D01*
X-49172441Y34934086D01*
X-49120480Y34844087D01*
X-49045913Y34769520D01*
X-48954587Y34716793D01*
X-48852727Y34689500D01*
X-48852725Y34689500D01*
X-48747275Y34689500D01*
X-48747273Y34689500D01*
X-48645413Y34716793D01*
X-48554087Y34769520D01*
X-48479520Y34844087D01*
X-48426793Y34935413D01*
X-48399500Y35037273D01*
X-48399500Y35132727D01*
X-19240500Y35132727D01*
X-19240500Y35027273D01*
X-19213207Y34925413D01*
X-19160480Y34834087D01*
X-19085913Y34759520D01*
X-18994587Y34706793D01*
X-18892727Y34679500D01*
X-18892725Y34679500D01*
X-18787275Y34679500D01*
X-18787273Y34679500D01*
X-18685413Y34706793D01*
X-18594087Y34759520D01*
X-18519520Y34834087D01*
X-18466793Y34925413D01*
X-18439500Y35027273D01*
X-18439500Y35132727D01*
X-18466295Y35232727D01*
X10919500Y35232727D01*
X10919500Y35127273D01*
X10946793Y35025413D01*
X10999520Y34934087D01*
X11074087Y34859520D01*
X11165413Y34806793D01*
X11267273Y34779500D01*
X11267275Y34779500D01*
X11372725Y34779500D01*
X11372727Y34779500D01*
X11474587Y34806793D01*
X11565913Y34859520D01*
X11640480Y34934087D01*
X11693207Y35025413D01*
X11720500Y35127273D01*
X11720500Y35212727D01*
X40979500Y35212727D01*
X40979500Y35107273D01*
X41006793Y35005413D01*
X41059520Y34914087D01*
X41134087Y34839520D01*
X41225413Y34786793D01*
X41327273Y34759500D01*
X41327275Y34759500D01*
X41432725Y34759500D01*
X41432727Y34759500D01*
X41534587Y34786793D01*
X41625913Y34839520D01*
X41700480Y34914087D01*
X41753207Y35005413D01*
X41780500Y35107273D01*
X41780500Y35212727D01*
X41753207Y35314587D01*
X41700480Y35405913D01*
X41625913Y35480480D01*
X41534587Y35533207D01*
X41432727Y35560500D01*
X41327273Y35560500D01*
X41225413Y35533207D01*
X41225410Y35533206D01*
X41134085Y35480479D01*
X41059521Y35405915D01*
X41006794Y35314590D01*
X41006793Y35314587D01*
X40979500Y35212727D01*
X11720500Y35212727D01*
X11720500Y35232727D01*
X11693207Y35334587D01*
X11640480Y35425913D01*
X11565913Y35500480D01*
X11474587Y35553207D01*
X11372727Y35580500D01*
X11267273Y35580500D01*
X11165413Y35553207D01*
X11165410Y35553206D01*
X11074085Y35500479D01*
X10999521Y35425915D01*
X10946794Y35334590D01*
X10946793Y35334587D01*
X10919500Y35232727D01*
X-18466295Y35232727D01*
X-18466793Y35234587D01*
X-18519520Y35325913D01*
X-18594087Y35400480D01*
X-18685413Y35453207D01*
X-18787273Y35480500D01*
X-18892727Y35480500D01*
X-18994587Y35453207D01*
X-18994590Y35453206D01*
X-19085915Y35400479D01*
X-19160479Y35325915D01*
X-19213206Y35234590D01*
X-19213206Y35234589D01*
X-19213207Y35234587D01*
X-19240500Y35132727D01*
X-48399500Y35132727D01*
X-48399500Y35142727D01*
X-48426793Y35244587D01*
X-48479520Y35335913D01*
X-48554087Y35410480D01*
X-48645413Y35463207D01*
X-48747273Y35490500D01*
X-48852727Y35490500D01*
X-48954587Y35463207D01*
X-48954590Y35463206D01*
X-49045915Y35410479D01*
X-49120479Y35335915D01*
X-49173206Y35244590D01*
X-49173207Y35244587D01*
X-49200500Y35142727D01*
X-67524660Y35142727D01*
X-67524660Y42992727D01*
X-2990500Y42992727D01*
X-2990500Y42887273D01*
X-2963207Y42785413D01*
X-2910480Y42694087D01*
X-2835913Y42619520D01*
X-2744587Y42566793D01*
X-2642727Y42539500D01*
X-2642725Y42539500D01*
X-2537275Y42539500D01*
X-2537273Y42539500D01*
X-2435413Y42566793D01*
X-2344087Y42619520D01*
X-2269520Y42694087D01*
X-2216793Y42785413D01*
X-2189500Y42887273D01*
X-2189500Y42992727D01*
X-2216793Y43094587D01*
X-2269520Y43185913D01*
X-2344087Y43260480D01*
X-2435413Y43313207D01*
X-2537273Y43340500D01*
X-2642727Y43340500D01*
X-2744587Y43313207D01*
X-2744590Y43313206D01*
X-2835915Y43260479D01*
X-2910479Y43185915D01*
X-2963206Y43094590D01*
X-2963207Y43094587D01*
X-2990500Y42992727D01*
X-67524660Y42992727D01*
X-67524660Y46372727D01*
X-43880500Y46372727D01*
X-43880500Y46267273D01*
X-43853207Y46165413D01*
X-43800480Y46074087D01*
X-43725913Y45999520D01*
X-43634587Y45946793D01*
X-43532727Y45919500D01*
X-43532725Y45919500D01*
X-43427275Y45919500D01*
X-43427273Y45919500D01*
X-43325413Y45946793D01*
X-43234087Y45999520D01*
X-43159520Y46074087D01*
X-43106793Y46165413D01*
X-43102154Y46182727D01*
X-13310500Y46182727D01*
X-13310500Y46077273D01*
X-13283207Y45975413D01*
X-13230480Y45884087D01*
X-13155913Y45809520D01*
X-13064587Y45756793D01*
X-12962727Y45729500D01*
X-12962725Y45729500D01*
X-12857275Y45729500D01*
X-12857273Y45729500D01*
X-12755413Y45756793D01*
X-12664087Y45809520D01*
X-12589520Y45884087D01*
X-12536793Y45975413D01*
X-12509500Y46077273D01*
X-12509500Y46182727D01*
X-12536793Y46284587D01*
X-12589520Y46375913D01*
X-12664087Y46450480D01*
X-12755413Y46503207D01*
X-12857273Y46530500D01*
X-12962727Y46530500D01*
X-13064587Y46503207D01*
X-13064590Y46503206D01*
X-13155915Y46450479D01*
X-13230479Y46375915D01*
X-13283206Y46284590D01*
X-13283207Y46284587D01*
X-13310500Y46182727D01*
X-43102154Y46182727D01*
X-43079500Y46267273D01*
X-43079500Y46372727D01*
X-43106793Y46474587D01*
X-43159520Y46565913D01*
X-43234087Y46640480D01*
X-43325413Y46693207D01*
X-43427273Y46720500D01*
X-43532727Y46720500D01*
X-43634587Y46693207D01*
X-43634590Y46693206D01*
X-43725915Y46640479D01*
X-43800479Y46565915D01*
X-43853206Y46474590D01*
X-43853207Y46474587D01*
X-43880500Y46372727D01*
X-67524660Y46372727D01*
X-67524660Y56932727D01*
X-28380500Y56932727D01*
X-28380500Y56827273D01*
X-28353207Y56725413D01*
X-28300480Y56634087D01*
X-28225913Y56559520D01*
X-28134587Y56506793D01*
X-28032727Y56479500D01*
X-28032725Y56479500D01*
X-27927275Y56479500D01*
X-27927273Y56479500D01*
X-27825413Y56506793D01*
X-27734087Y56559520D01*
X-27659520Y56634087D01*
X-27606793Y56725413D01*
X-27579500Y56827273D01*
X-27579500Y56932727D01*
X-27606793Y57034587D01*
X-27659520Y57125913D01*
X-27734087Y57200480D01*
X-27825413Y57253207D01*
X-27927273Y57280500D01*
X-28032727Y57280500D01*
X-28134587Y57253207D01*
X-28134590Y57253206D01*
X-28225915Y57200479D01*
X-28300479Y57125915D01*
X-28353206Y57034590D01*
X-28353207Y57034587D01*
X-28380500Y56932727D01*
X-67524660Y56932727D01*
X-67524660Y63984800D01*
X-31305500Y63984800D01*
X-31305500Y63875200D01*
X-31263557Y63773942D01*
X-31186058Y63696443D01*
X-31084800Y63654500D01*
X-31084799Y63654500D01*
X-30975201Y63654500D01*
X-30975200Y63654500D01*
X-30873942Y63696443D01*
X-30796443Y63773942D01*
X-30754500Y63875200D01*
X-30754500Y63984800D01*
X-30796443Y64086058D01*
X-30873942Y64163557D01*
X-30975200Y64205500D01*
X-31084800Y64205500D01*
X-31084801Y64205500D01*
X-31186060Y64163556D01*
X-31263556Y64086060D01*
X-31263557Y64086059D01*
X-31263557Y64086058D01*
X-31305500Y63984800D01*
X-67524660Y63984800D01*
X-67524660Y65142727D01*
X-49200500Y65142727D01*
X-49200500Y65037273D01*
X-49173207Y64935413D01*
X-49120480Y64844087D01*
X-49045913Y64769520D01*
X-48954587Y64716793D01*
X-48852727Y64689500D01*
X-48852725Y64689500D01*
X-48747275Y64689500D01*
X-48747273Y64689500D01*
X-48645413Y64716793D01*
X-48554087Y64769520D01*
X-48479520Y64844087D01*
X-48426793Y64935413D01*
X-48399500Y65037273D01*
X-48399500Y65142727D01*
X-48407538Y65172727D01*
X-19210500Y65172727D01*
X-19210500Y65067273D01*
X-19183207Y64965413D01*
X-19130480Y64874087D01*
X-19055913Y64799520D01*
X-18964587Y64746793D01*
X-18862727Y64719500D01*
X-18862725Y64719500D01*
X-18757275Y64719500D01*
X-18757273Y64719500D01*
X-18655413Y64746793D01*
X-18564087Y64799520D01*
X-18489520Y64874087D01*
X-18436793Y64965413D01*
X-18409500Y65067273D01*
X-18409500Y65172727D01*
X-18436793Y65274587D01*
X-18489520Y65365913D01*
X-18564087Y65440480D01*
X-18655413Y65493207D01*
X-18757273Y65520500D01*
X-18862727Y65520500D01*
X-18964587Y65493207D01*
X-18964590Y65493206D01*
X-19055915Y65440479D01*
X-19130479Y65365915D01*
X-19183206Y65274590D01*
X-19183207Y65274587D01*
X-19210500Y65172727D01*
X-48407538Y65172727D01*
X-48426793Y65244587D01*
X-48479520Y65335913D01*
X-48554087Y65410480D01*
X-48645413Y65463207D01*
X-48747273Y65490500D01*
X-48852727Y65490500D01*
X-48954587Y65463207D01*
X-48954590Y65463206D01*
X-49045915Y65410479D01*
X-49120479Y65335915D01*
X-49173206Y65244590D01*
X-49173207Y65244587D01*
X-49200500Y65142727D01*
X-67524660Y65142727D01*
X-67524660Y68104800D01*
X-37205500Y68104800D01*
X-37205500Y67995200D01*
X-37163557Y67893942D01*
X-37086058Y67816443D01*
X-36984800Y67774500D01*
X-36984799Y67774500D01*
X-36875201Y67774500D01*
X-36875200Y67774500D01*
X-36773942Y67816443D01*
X-36696443Y67893942D01*
X-36654500Y67995200D01*
X-36654500Y68104800D01*
X-36696443Y68206058D01*
X-36773942Y68283557D01*
X-36875200Y68325500D01*
X-36984800Y68325500D01*
X-36984801Y68325500D01*
X-37086060Y68283556D01*
X-37163556Y68206060D01*
X-37163557Y68206059D01*
X-37163557Y68206058D01*
X-37205500Y68104800D01*
X-67524660Y68104800D01*
X-67524660Y72082727D01*
X-38900500Y72082727D01*
X-38900500Y71977273D01*
X-38873207Y71875413D01*
X-38820480Y71784087D01*
X-38745913Y71709520D01*
X-38654587Y71656793D01*
X-38552727Y71629500D01*
X-38552725Y71629500D01*
X-38447275Y71629500D01*
X-38447273Y71629500D01*
X-38345413Y71656793D01*
X-38254087Y71709520D01*
X-38179520Y71784087D01*
X-38126793Y71875413D01*
X-38099500Y71977273D01*
X-38099500Y72082727D01*
X-38126793Y72184587D01*
X-38179520Y72275913D01*
X-38254087Y72350480D01*
X-38345413Y72403207D01*
X-38447273Y72430500D01*
X-38552727Y72430500D01*
X-38654587Y72403207D01*
X-38654590Y72403206D01*
X-38745915Y72350479D01*
X-38820479Y72275915D01*
X-38873206Y72184590D01*
X-38873207Y72184587D01*
X-38900500Y72082727D01*
X-67524660Y72082727D01*
X-67524660Y78797727D01*
X-24825500Y78797727D01*
X-24825500Y78692273D01*
X-24798207Y78590413D01*
X-24745480Y78499087D01*
X-24670913Y78424520D01*
X-24579587Y78371793D01*
X-24477727Y78344500D01*
X-24477725Y78344500D01*
X-24372275Y78344500D01*
X-24372273Y78344500D01*
X-24270413Y78371793D01*
X-24179087Y78424520D01*
X-24104520Y78499087D01*
X-24051793Y78590413D01*
X-24024500Y78692273D01*
X-24024500Y78797727D01*
X-24051793Y78899587D01*
X-24104520Y78990913D01*
X-24179087Y79065480D01*
X-24270413Y79118207D01*
X-24372273Y79145500D01*
X-24477727Y79145500D01*
X-24579587Y79118207D01*
X-24579590Y79118206D01*
X-24670915Y79065479D01*
X-24745479Y78990915D01*
X-24798206Y78899590D01*
X-24798207Y78899587D01*
X-24825500Y78797727D01*
X-67524660Y78797727D01*
X-67524660Y95082727D01*
X-49240500Y95082727D01*
X-49240500Y94977273D01*
X-49213207Y94875413D01*
X-49160480Y94784087D01*
X-49085913Y94709520D01*
X-48994587Y94656793D01*
X-48892727Y94629500D01*
X-48892725Y94629500D01*
X-48787275Y94629500D01*
X-48787273Y94629500D01*
X-48685413Y94656793D01*
X-48594087Y94709520D01*
X-48519520Y94784087D01*
X-48466793Y94875413D01*
X-48439500Y94977273D01*
X-48439500Y95082727D01*
X-48466793Y95184587D01*
X-48519520Y95275913D01*
X-48594087Y95350480D01*
X-48669364Y95393941D01*
X-48685411Y95403206D01*
X-48685412Y95403207D01*
X-48685413Y95403207D01*
X-48787273Y95430500D01*
X-48892727Y95430500D01*
X-48994587Y95403207D01*
X-48994590Y95403206D01*
X-49085915Y95350479D01*
X-49160479Y95275915D01*
X-49213206Y95184590D01*
X-49213207Y95184587D01*
X-49240500Y95082727D01*
X-67524660Y95082727D01*
X-67524660Y99252727D01*
X-37610500Y99252727D01*
X-37610500Y99147273D01*
X-37583207Y99045413D01*
X-37530480Y98954087D01*
X-37455913Y98879520D01*
X-37364587Y98826793D01*
X-37262727Y98799500D01*
X-37262725Y98799500D01*
X-37157275Y98799500D01*
X-37157273Y98799500D01*
X-37055413Y98826793D01*
X-36964087Y98879520D01*
X-36889520Y98954087D01*
X-36836793Y99045413D01*
X-36809500Y99147273D01*
X-36809500Y99252727D01*
X-36836793Y99354587D01*
X-36889520Y99445913D01*
X-36964087Y99520480D01*
X-37055413Y99573207D01*
X-37157273Y99600500D01*
X-37262727Y99600500D01*
X-37364587Y99573207D01*
X-37364590Y99573206D01*
X-37455915Y99520479D01*
X-37530479Y99445915D01*
X-37583206Y99354590D01*
X-37583207Y99354587D01*
X-37610500Y99252727D01*
X-67524660Y99252727D01*
X-67524660Y115062727D01*
X-38500500Y115062727D01*
X-38500500Y114957273D01*
X-38473207Y114855413D01*
X-38420480Y114764087D01*
X-38345913Y114689520D01*
X-38254587Y114636793D01*
X-38152727Y114609500D01*
X-38152725Y114609500D01*
X-38047275Y114609500D01*
X-38047273Y114609500D01*
X-37945413Y114636793D01*
X-37854087Y114689520D01*
X-37779520Y114764087D01*
X-37726793Y114855413D01*
X-37699500Y114957273D01*
X-37699500Y115062727D01*
X-37726793Y115164587D01*
X-37779520Y115255913D01*
X-37854087Y115330480D01*
X-37945413Y115383207D01*
X-38047273Y115410500D01*
X-38152727Y115410500D01*
X-38254587Y115383207D01*
X-38254590Y115383206D01*
X-38345915Y115330479D01*
X-38420479Y115255915D01*
X-38473206Y115164590D01*
X-38473207Y115164587D01*
X-38500500Y115062727D01*
X-67524660Y115062727D01*
X-67524660Y125152727D01*
X-49180500Y125152727D01*
X-49180500Y125047273D01*
X-49153207Y124945413D01*
X-49100480Y124854087D01*
X-49025913Y124779520D01*
X-48934587Y124726793D01*
X-48832727Y124699500D01*
X-48832725Y124699500D01*
X-48727275Y124699500D01*
X-48727273Y124699500D01*
X-48625413Y124726793D01*
X-48534087Y124779520D01*
X-48459520Y124854087D01*
X-48406793Y124945413D01*
X-48379500Y125047273D01*
X-48379500Y125152727D01*
X-48406793Y125254587D01*
X-48459520Y125345913D01*
X-48534087Y125420480D01*
X-48625413Y125473207D01*
X-48727273Y125500500D01*
X-48832727Y125500500D01*
X-48934587Y125473207D01*
X-48934590Y125473206D01*
X-49025915Y125420479D01*
X-49100479Y125345915D01*
X-49153206Y125254590D01*
X-49153207Y125254587D01*
X-49180500Y125152727D01*
X-67524660Y125152727D01*
X-67524660Y130752727D01*
X-60440500Y130752727D01*
X-60440500Y130647273D01*
X-60413207Y130545413D01*
X-60360480Y130454087D01*
X-60285913Y130379520D01*
X-60194587Y130326793D01*
X-60092727Y130299500D01*
X-60092725Y130299500D01*
X-59987275Y130299500D01*
X-59987273Y130299500D01*
X-59885413Y130326793D01*
X-59794087Y130379520D01*
X-59719520Y130454087D01*
X-59666793Y130545413D01*
X-59639500Y130647273D01*
X-59639500Y130752727D01*
X-59666793Y130854587D01*
X-59719520Y130945913D01*
X-59794087Y131020480D01*
X-59885413Y131073207D01*
X-59987273Y131100500D01*
X-60092727Y131100500D01*
X-60194587Y131073207D01*
X-60194590Y131073206D01*
X-60285915Y131020479D01*
X-60360479Y130945915D01*
X-60413206Y130854590D01*
X-60413207Y130854587D01*
X-60440500Y130752727D01*
X-67524660Y130752727D01*
X-67524660Y140092168D01*
X-67524511Y140098252D01*
X-67522807Y140132946D01*
X-67518944Y140211586D01*
X-65570660Y140211586D01*
X-65570660Y139978855D01*
X-65570659Y139978838D01*
X-65541490Y139757273D01*
X-65540281Y139748094D01*
X-65515447Y139655411D01*
X-65480040Y139523273D01*
X-65390980Y139308260D01*
X-65390972Y139308244D01*
X-65274607Y139106696D01*
X-65274596Y139106680D01*
X-65132918Y138922041D01*
X-65132912Y138922034D01*
X-64968347Y138757469D01*
X-64968341Y138757464D01*
X-64783692Y138615778D01*
X-64783685Y138615774D01*
X-64582137Y138499409D01*
X-64582121Y138499401D01*
X-64367108Y138410341D01*
X-64367106Y138410341D01*
X-64367100Y138410338D01*
X-64142286Y138350099D01*
X-63911532Y138319720D01*
X-63911525Y138319720D01*
X-63678795Y138319720D01*
X-63678788Y138319720D01*
X-63448034Y138350099D01*
X-63223220Y138410338D01*
X-63162473Y138435500D01*
X-63008200Y138499401D01*
X-63008197Y138499403D01*
X-63008191Y138499405D01*
X-63007366Y138499881D01*
X-62876672Y138575338D01*
X-62806628Y138615778D01*
X-62621979Y138757464D01*
X-62457404Y138922039D01*
X-62315718Y139106688D01*
X-62199345Y139308251D01*
X-62143577Y139442887D01*
X-62110281Y139523273D01*
X-62110282Y139523273D01*
X-62110278Y139523280D01*
X-62050039Y139748094D01*
X-62019660Y139978848D01*
X-62019660Y140211592D01*
X-62050039Y140442346D01*
X-62110278Y140667160D01*
X-62110281Y140667168D01*
X-62199341Y140882181D01*
X-62199349Y140882197D01*
X-62315714Y141083745D01*
X-62315718Y141083752D01*
X-62457404Y141268401D01*
X-62457409Y141268407D01*
X-62621974Y141432972D01*
X-62621981Y141432978D01*
X-62806623Y141574658D01*
X-62806628Y141574662D01*
X-62806633Y141574665D01*
X-62806636Y141574667D01*
X-63008184Y141691032D01*
X-63008200Y141691040D01*
X-63223213Y141780100D01*
X-63448038Y141840342D01*
X-63678778Y141870719D01*
X-63678783Y141870720D01*
X-63678788Y141870720D01*
X-63911532Y141870720D01*
X-63911538Y141870720D01*
X-63911543Y141870719D01*
X-64142283Y141840342D01*
X-64367108Y141780100D01*
X-64582121Y141691040D01*
X-64582137Y141691032D01*
X-64783685Y141574667D01*
X-64783697Y141574658D01*
X-64968340Y141432978D01*
X-64968347Y141432972D01*
X-65132912Y141268407D01*
X-65132918Y141268400D01*
X-65274596Y141083761D01*
X-65274607Y141083745D01*
X-65390972Y140882197D01*
X-65390980Y140882181D01*
X-65480040Y140667168D01*
X-65540282Y140442343D01*
X-65570659Y140211603D01*
X-65570660Y140211586D01*
X-67518944Y140211586D01*
X-67507000Y140454702D01*
X-67505807Y140466804D01*
X-67497039Y140525915D01*
X-67453891Y140816798D01*
X-67451524Y140828700D01*
X-67365543Y141171953D01*
X-67362020Y141183564D01*
X-67242820Y141516708D01*
X-67238175Y141527923D01*
X-67086878Y141847813D01*
X-67081163Y141858505D01*
X-66899253Y142162003D01*
X-66892510Y142172096D01*
X-66681720Y142456313D01*
X-66674017Y142465698D01*
X-66436390Y142727880D01*
X-66427820Y142736450D01*
X-66165638Y142974077D01*
X-66156253Y142981780D01*
X-65872036Y143192570D01*
X-65861943Y143199313D01*
X-65558445Y143381223D01*
X-65547753Y143386938D01*
X-65227863Y143538235D01*
X-65216648Y143542880D01*
X-64883504Y143662080D01*
X-64871893Y143665603D01*
X-64528640Y143751584D01*
X-64516738Y143753951D01*
X-64166738Y143805868D01*
X-64154640Y143807060D01*
X-63846638Y143822191D01*
X-63798192Y143824571D01*
X-63792108Y143824720D01*
X-63689883Y143824720D01*
X-42520000Y143824720D01*
X-42520000Y128780000D01*
G37*
%TD.AperFunction*%
%TA.AperFunction,Conductor*%
G36*
X-1431166Y108186705D02*
G01*
X-1375233Y108144833D01*
X-1350816Y108079369D01*
X-1350500Y108070523D01*
X-1350500Y103154413D01*
X-1370185Y103087374D01*
X-1386819Y103066732D01*
X-2009976Y102443575D01*
X-2040500Y102369884D01*
X-2040500Y50060117D01*
X-2009976Y49986426D01*
X-1476819Y49453269D01*
X-1443334Y49391946D01*
X-1440500Y49365588D01*
X-1440500Y48626684D01*
X-1460185Y48559645D01*
X-1512989Y48513890D01*
X-1582147Y48503946D01*
X-1645703Y48532971D01*
X-1663297Y48552912D01*
X-1743941Y48633556D01*
X-1743942Y48633557D01*
X-1845200Y48675500D01*
X-1857177Y48677882D01*
X-1856710Y48680234D01*
X-1907628Y48695185D01*
X-1928270Y48711819D01*
X-2433181Y49216731D01*
X-2466666Y49278054D01*
X-2469500Y49304412D01*
X-2469500Y102825588D01*
X-2449815Y102892627D01*
X-2433181Y102913269D01*
X-2192037Y103154413D01*
X-1630024Y103716426D01*
X-1599500Y103790118D01*
X-1599500Y103869882D01*
X-1599500Y108069523D01*
X-1590856Y108098964D01*
X-1584332Y108128950D01*
X-1580578Y108133966D01*
X-1579815Y108136562D01*
X-1563181Y108157204D01*
X-1562181Y108158204D01*
X-1500858Y108191689D01*
X-1431166Y108186705D01*
G37*
%TD.AperFunction*%
%TA.AperFunction,Conductor*%
G36*
X-31654571Y120045551D02*
G01*
X-31650975Y120045862D01*
X-31623024Y120031143D01*
X-31594297Y120018024D01*
X-31591963Y120014787D01*
X-31589153Y120013307D01*
X-31567578Y119985375D01*
X-31563843Y119978774D01*
X-31553557Y119953942D01*
X-31544888Y119945273D01*
X-31536578Y119930587D01*
X-31520500Y119869523D01*
X-31520500Y117009882D01*
X-31520500Y116930118D01*
X-31489976Y116856426D01*
X-26013574Y111380024D01*
X-25939882Y111349500D01*
X-25860117Y111349500D01*
X-3674412Y111349500D01*
X-3607373Y111329815D01*
X-3586731Y111313181D01*
X-1461819Y109188270D01*
X-1432657Y109142108D01*
X-1425500Y109121967D01*
X-1425500Y109075200D01*
X-1383557Y108973942D01*
X-1367028Y108957413D01*
X-1357657Y108931042D01*
X-1357207Y108922973D01*
X-1353334Y108915881D01*
X-1350500Y108889523D01*
X-1350500Y108549477D01*
X-1370185Y108482438D01*
X-1422989Y108436683D01*
X-1492147Y108426739D01*
X-1555703Y108455764D01*
X-1562181Y108461796D01*
X-1643941Y108543556D01*
X-1643942Y108543557D01*
X-1745200Y108585500D01*
X-1757177Y108587882D01*
X-1756710Y108590234D01*
X-1807627Y108605185D01*
X-1828269Y108621819D01*
X-4116426Y110909976D01*
X-4190117Y110940500D01*
X-4190118Y110940500D01*
X-26255588Y110940500D01*
X-26322627Y110960185D01*
X-26343269Y110976819D01*
X-31763181Y116396731D01*
X-31796666Y116458054D01*
X-31799500Y116484412D01*
X-31799500Y119924311D01*
X-31798484Y119927773D01*
X-31799304Y119931288D01*
X-31788712Y119961052D01*
X-31779815Y119991350D01*
X-31777089Y119993713D01*
X-31775878Y119997113D01*
X-31750876Y120016427D01*
X-31727011Y120037105D01*
X-31723441Y120037619D01*
X-31720584Y120039825D01*
X-31689111Y120042555D01*
X-31657853Y120047049D01*
X-31654571Y120045551D01*
G37*
%TD.AperFunction*%
%TA.AperFunction,Conductor*%
G36*
X-14451930Y143805035D02*
G01*
X-14406175Y143752231D01*
X-14396231Y143683073D01*
X-14425256Y143619517D01*
X-14428548Y143615867D01*
X-14439529Y143604167D01*
X-14445913Y143600480D01*
X-14520480Y143525913D01*
X-14532501Y143505093D01*
X-14542303Y143494647D01*
X-14560568Y143483908D01*
X-14575903Y143469285D01*
X-14592131Y143465349D01*
X-14602532Y143459232D01*
X-14615261Y143459737D01*
X-14632724Y143455500D01*
X-21614909Y143455500D01*
X-21679414Y143428782D01*
X-25800000Y139308196D01*
X-25800000Y140795220D01*
X-25295160Y140795220D01*
X-25295160Y142995220D01*
X-25800000Y142995220D01*
X-25800000Y143695220D01*
X-25295160Y143695220D01*
X-25295160Y143700720D01*
X-25275475Y143767759D01*
X-25222671Y143813514D01*
X-25171160Y143824720D01*
X-14518969Y143824720D01*
X-14451930Y143805035D01*
G37*
%TD.AperFunction*%
%TD*%
%TA.AperFunction,Conductor*%
%TO.N,GND*%
G36*
X-37467603Y143805035D02*
G01*
X-37421848Y143752231D01*
X-37411904Y143683073D01*
X-37440929Y143619517D01*
X-37446961Y143613039D01*
X-38230000Y142830001D01*
X-38230000Y139316396D01*
X-38249685Y139249357D01*
X-38299530Y139206167D01*
X-38299401Y139205943D01*
X-38300559Y139205275D01*
X-38302489Y139203602D01*
X-38306422Y139201890D01*
X-38398860Y139148520D01*
X-38398863Y139148518D01*
X-38474318Y139073063D01*
X-38474320Y139073060D01*
X-38527679Y138980641D01*
X-38527679Y138980640D01*
X-38555300Y138877559D01*
X-38555300Y138770841D01*
X-38527679Y138667760D01*
X-38474320Y138575340D01*
X-38398860Y138499880D01*
X-38328920Y138459500D01*
X-38299401Y138442457D01*
X-38300053Y138441329D01*
X-38252152Y138402737D01*
X-38230080Y138336445D01*
X-38230000Y138332005D01*
X-38230000Y137870000D01*
X-36740000Y136380000D01*
X-34720000Y136380000D01*
X-33840000Y137260000D01*
X-33840000Y139858638D01*
X-33831356Y139888079D01*
X-33824832Y139918065D01*
X-33821078Y139923081D01*
X-33820315Y139925677D01*
X-33803681Y139946319D01*
X-33726319Y140023681D01*
X-33664996Y140057166D01*
X-33638638Y140060000D01*
X-30100000Y140060000D01*
X-29840000Y140320000D01*
X-29840000Y140671220D01*
X-29820315Y140738259D01*
X-29767511Y140784014D01*
X-29716000Y140795220D01*
X-25800000Y140795220D01*
X-25800000Y139308195D01*
X-26636376Y138471819D01*
X-26697699Y138438334D01*
X-26724057Y138435500D01*
X-31497854Y138435500D01*
X-31564893Y138455185D01*
X-31610648Y138507989D01*
X-31620592Y138577147D01*
X-31605244Y138621495D01*
X-31556793Y138705413D01*
X-31529500Y138807273D01*
X-31529500Y138912727D01*
X-31556793Y139014587D01*
X-31609520Y139105913D01*
X-31684087Y139180480D01*
X-31775413Y139233207D01*
X-31877273Y139260500D01*
X-31982727Y139260500D01*
X-32084587Y139233207D01*
X-32084590Y139233206D01*
X-32175915Y139180479D01*
X-32250479Y139105915D01*
X-32303206Y139014590D01*
X-32303207Y139014587D01*
X-32330500Y138912727D01*
X-32330500Y138807273D01*
X-32303207Y138705413D01*
X-32250480Y138614087D01*
X-32175913Y138539520D01*
X-32084587Y138486793D01*
X-31982727Y138459500D01*
X-31982725Y138459500D01*
X-31948058Y138459500D01*
X-31881019Y138439815D01*
X-31835264Y138387011D01*
X-31825320Y138317853D01*
X-31854345Y138254297D01*
X-31860377Y138247819D01*
X-34536376Y135571819D01*
X-34597699Y135538334D01*
X-34624057Y135535500D01*
X-34654801Y135535500D01*
X-34756060Y135493556D01*
X-34833556Y135416060D01*
X-34863160Y135344590D01*
X-34875500Y135314800D01*
X-34875500Y135205200D01*
X-34833557Y135103942D01*
X-34756058Y135026443D01*
X-34654800Y134984500D01*
X-34654799Y134984500D01*
X-34545201Y134984500D01*
X-34545200Y134984500D01*
X-34443942Y135026443D01*
X-34366443Y135103942D01*
X-34324500Y135205200D01*
X-34324500Y135235943D01*
X-34304815Y135302982D01*
X-34288181Y135323624D01*
X-31563624Y138048181D01*
X-31502301Y138081666D01*
X-31475943Y138084500D01*
X-31261305Y138084500D01*
X-31194266Y138064815D01*
X-31148511Y138012011D01*
X-31138567Y137942853D01*
X-31167592Y137879297D01*
X-31213851Y137845939D01*
X-31214908Y137845501D01*
X-31214909Y137845501D01*
X-31214911Y137845500D01*
X-31279416Y137818781D01*
X-33526376Y135571819D01*
X-33587699Y135538334D01*
X-33614057Y135535500D01*
X-33654801Y135535500D01*
X-33756060Y135493556D01*
X-33833556Y135416060D01*
X-33863160Y135344590D01*
X-33875500Y135314800D01*
X-33875500Y135205200D01*
X-33833557Y135103942D01*
X-33756058Y135026443D01*
X-33654800Y134984500D01*
X-33654799Y134984500D01*
X-33545201Y134984500D01*
X-33545200Y134984500D01*
X-33443942Y135026443D01*
X-33366443Y135103942D01*
X-33324500Y135205200D01*
X-33324500Y135225943D01*
X-33304815Y135292982D01*
X-33288181Y135313624D01*
X-31143624Y137458181D01*
X-31082301Y137491666D01*
X-31055943Y137494500D01*
X-25800000Y137494500D01*
X-25800000Y135585872D01*
X-25808067Y135588034D01*
X-25817273Y135590500D01*
X-25922727Y135590500D01*
X-26024587Y135563207D01*
X-26024590Y135563206D01*
X-26115915Y135510479D01*
X-26190479Y135435915D01*
X-26243206Y135344590D01*
X-26243207Y135344587D01*
X-26270500Y135242727D01*
X-26270500Y135137273D01*
X-26243207Y135035413D01*
X-26190480Y134944087D01*
X-26115913Y134869520D01*
X-26024587Y134816793D01*
X-25922727Y134789500D01*
X-25922725Y134789500D01*
X-25817275Y134789500D01*
X-25817273Y134789500D01*
X-25800000Y134794129D01*
X-25800000Y126920000D01*
X-28830000Y123890000D01*
X-31799500Y123890000D01*
X-31799500Y126129523D01*
X-31779815Y126196562D01*
X-31769520Y126209339D01*
X-31766448Y126213938D01*
X-31766443Y126213942D01*
X-31724500Y126315200D01*
X-31724500Y126424800D01*
X-31766443Y126526058D01*
X-31843942Y126603557D01*
X-31945200Y126645500D01*
X-32054800Y126645500D01*
X-32054801Y126645500D01*
X-32156060Y126603556D01*
X-32233556Y126526060D01*
X-32233557Y126526059D01*
X-32233557Y126526058D01*
X-32275500Y126424800D01*
X-32275500Y126315200D01*
X-32233557Y126213942D01*
X-32233556Y126213941D01*
X-32226772Y126203788D01*
X-32228766Y126202456D01*
X-32203334Y126155881D01*
X-32200500Y126129523D01*
X-32200500Y123890000D01*
X-33046450Y123890000D01*
X-32958269Y123978181D01*
X-32896946Y124011666D01*
X-32880629Y124013421D01*
X-32875205Y124014500D01*
X-32875200Y124014500D01*
X-32773942Y124056443D01*
X-32696443Y124133942D01*
X-32654500Y124235200D01*
X-32654500Y124344800D01*
X-32696443Y124446058D01*
X-32773942Y124523557D01*
X-32875200Y124565500D01*
X-32984800Y124565500D01*
X-32984801Y124565500D01*
X-33086060Y124523556D01*
X-33163556Y124446060D01*
X-33205500Y124344801D01*
X-33207882Y124332823D01*
X-33210234Y124333291D01*
X-33225185Y124282373D01*
X-33241819Y124261731D01*
X-33613550Y123890000D01*
X-41810000Y123890000D01*
X-41810000Y126194800D01*
X-33225500Y126194800D01*
X-33225500Y126085200D01*
X-33183557Y125983942D01*
X-33106058Y125906443D01*
X-33004800Y125864500D01*
X-33004799Y125864500D01*
X-32895201Y125864500D01*
X-32895200Y125864500D01*
X-32793942Y125906443D01*
X-32716443Y125983942D01*
X-32674500Y126085200D01*
X-32674500Y126194800D01*
X-32716443Y126296058D01*
X-32793942Y126373557D01*
X-32895200Y126415500D01*
X-33004800Y126415500D01*
X-33004801Y126415500D01*
X-33106060Y126373556D01*
X-33183556Y126296060D01*
X-33224770Y126196562D01*
X-33225500Y126194800D01*
X-41810000Y126194800D01*
X-41810000Y126762727D01*
X-31225490Y126762727D01*
X-31225490Y126657273D01*
X-31198197Y126555413D01*
X-31145470Y126464087D01*
X-31070903Y126389520D01*
X-30979577Y126336793D01*
X-30877717Y126309500D01*
X-30877715Y126309500D01*
X-30772265Y126309500D01*
X-30772263Y126309500D01*
X-30670403Y126336793D01*
X-30579077Y126389520D01*
X-30504510Y126464087D01*
X-30451783Y126555413D01*
X-30424490Y126657273D01*
X-30424490Y126762727D01*
X-30451783Y126864587D01*
X-30504510Y126955913D01*
X-30579077Y127030480D01*
X-30670403Y127083207D01*
X-30772263Y127110500D01*
X-30877717Y127110500D01*
X-30979577Y127083207D01*
X-30979580Y127083206D01*
X-31070905Y127030479D01*
X-31145469Y126955915D01*
X-31198196Y126864590D01*
X-31198197Y126864587D01*
X-31225490Y126762727D01*
X-41810000Y126762727D01*
X-41810000Y128070000D01*
X-42520000Y128780000D01*
X-42520000Y128852948D01*
X-36610951Y128852948D01*
X-36610951Y128743348D01*
X-36569008Y128642090D01*
X-36491509Y128564591D01*
X-36390251Y128522648D01*
X-36390250Y128522648D01*
X-36280652Y128522648D01*
X-36280651Y128522648D01*
X-36179393Y128564591D01*
X-36101894Y128642090D01*
X-36059951Y128743348D01*
X-36059951Y128852948D01*
X-36101894Y128954206D01*
X-36179393Y129031705D01*
X-36280651Y129073648D01*
X-36390251Y129073648D01*
X-36390252Y129073648D01*
X-36491511Y129031704D01*
X-36569007Y128954208D01*
X-36569008Y128954207D01*
X-36569008Y128954206D01*
X-36610951Y128852948D01*
X-42520000Y128852948D01*
X-42520000Y129814800D01*
X-36375500Y129814800D01*
X-36375500Y129705200D01*
X-36333557Y129603942D01*
X-36256058Y129526443D01*
X-36154800Y129484500D01*
X-36154799Y129484500D01*
X-36045201Y129484500D01*
X-36045200Y129484500D01*
X-35971954Y129514841D01*
X-35902485Y129522310D01*
X-35840006Y129491036D01*
X-35804352Y129430948D01*
X-35800500Y129400280D01*
X-35800500Y129140117D01*
X-35769976Y129066426D01*
X-35300731Y128597181D01*
X-35267246Y128535858D01*
X-35272230Y128466166D01*
X-35314102Y128410233D01*
X-35379566Y128385816D01*
X-35388412Y128385500D01*
X-35444801Y128385500D01*
X-35546060Y128343556D01*
X-35623556Y128266060D01*
X-35623557Y128266059D01*
X-35623557Y128266058D01*
X-35635841Y128236404D01*
X-35659772Y128178628D01*
X-35665500Y128164800D01*
X-35665500Y128055200D01*
X-35623557Y127953942D01*
X-35546058Y127876443D01*
X-35444800Y127834500D01*
X-35444799Y127834500D01*
X-35335201Y127834500D01*
X-35335200Y127834500D01*
X-35233942Y127876443D01*
X-35156443Y127953942D01*
X-35114500Y128055200D01*
X-35114500Y128111589D01*
X-35094815Y128178628D01*
X-35042011Y128224383D01*
X-34972853Y128234327D01*
X-34909297Y128205302D01*
X-34902819Y128199270D01*
X-34670499Y127966950D01*
X-34637014Y127905627D01*
X-34641998Y127835935D01*
X-34683870Y127780002D01*
X-34733985Y127757652D01*
X-34744798Y127755501D01*
X-34846060Y127713556D01*
X-34923556Y127636060D01*
X-34923557Y127636059D01*
X-34923557Y127636058D01*
X-34965500Y127534800D01*
X-34965500Y127425200D01*
X-34923557Y127323942D01*
X-34846058Y127246443D01*
X-34744800Y127204500D01*
X-34744799Y127204500D01*
X-34635201Y127204500D01*
X-34635200Y127204500D01*
X-34533942Y127246443D01*
X-34456443Y127323942D01*
X-34414500Y127425200D01*
X-34414500Y127534800D01*
X-34440699Y127598047D01*
X-34448167Y127667516D01*
X-34416893Y127729995D01*
X-34356804Y127765648D01*
X-34326137Y127769500D01*
X-33890477Y127769500D01*
X-33823438Y127749815D01*
X-33810662Y127739520D01*
X-33806060Y127736445D01*
X-33806058Y127736443D01*
X-33704800Y127694500D01*
X-33704799Y127694500D01*
X-33595201Y127694500D01*
X-33595200Y127694500D01*
X-33493942Y127736443D01*
X-33416443Y127813942D01*
X-33374500Y127915200D01*
X-33374500Y128024800D01*
X-33416443Y128126058D01*
X-33493942Y128203557D01*
X-33595200Y128245500D01*
X-33704800Y128245500D01*
X-33704801Y128245500D01*
X-33806060Y128203556D01*
X-33816212Y128196772D01*
X-33817545Y128198766D01*
X-33864119Y128173334D01*
X-33890477Y128170500D01*
X-34255589Y128170500D01*
X-34322628Y128190185D01*
X-34343270Y128206819D01*
X-35363181Y129226731D01*
X-35377885Y129253659D01*
X-35394477Y129279477D01*
X-35395369Y129285678D01*
X-35396666Y129288054D01*
X-35399500Y129314412D01*
X-35399500Y129400280D01*
X-35379815Y129467319D01*
X-35327011Y129513074D01*
X-35257853Y129523018D01*
X-35228049Y129514842D01*
X-35178098Y129494151D01*
X-35154803Y129484501D01*
X-35154802Y129484501D01*
X-35154800Y129484500D01*
X-35154799Y129484500D01*
X-35045201Y129484500D01*
X-35045200Y129484500D01*
X-34943942Y129526443D01*
X-34937681Y129532704D01*
X-34876358Y129566189D01*
X-34806666Y129561205D01*
X-34762319Y129532704D01*
X-34756058Y129526443D01*
X-34654800Y129484500D01*
X-34654799Y129484500D01*
X-34545201Y129484500D01*
X-34545200Y129484500D01*
X-34443942Y129526443D01*
X-34366443Y129603942D01*
X-34324500Y129705200D01*
X-34324500Y129814800D01*
X-34366443Y129916058D01*
X-34443942Y129993557D01*
X-34545200Y130035500D01*
X-34654800Y130035500D01*
X-34654801Y130035500D01*
X-34756060Y129993556D01*
X-34762322Y129987294D01*
X-34823646Y129953811D01*
X-34893337Y129958798D01*
X-34937678Y129987294D01*
X-34943940Y129993555D01*
X-34943941Y129993556D01*
X-34943942Y129993557D01*
X-35045200Y130035500D01*
X-35154800Y130035500D01*
X-35154801Y130035500D01*
X-35256060Y129993556D01*
X-35262322Y129987294D01*
X-35323646Y129953811D01*
X-35393337Y129958798D01*
X-35437678Y129987294D01*
X-35443940Y129993555D01*
X-35443941Y129993556D01*
X-35443942Y129993557D01*
X-35545200Y130035500D01*
X-35654800Y130035500D01*
X-35654801Y130035500D01*
X-35756060Y129993556D01*
X-35762322Y129987294D01*
X-35823646Y129953811D01*
X-35893337Y129958798D01*
X-35937678Y129987294D01*
X-35943940Y129993555D01*
X-35943941Y129993556D01*
X-35943942Y129993557D01*
X-36045200Y130035500D01*
X-36154800Y130035500D01*
X-36154801Y130035500D01*
X-36256060Y129993556D01*
X-36333556Y129916060D01*
X-36333557Y129916059D01*
X-36333557Y129916058D01*
X-36375500Y129814800D01*
X-42520000Y129814800D01*
X-42520000Y132564800D01*
X-32625500Y132564800D01*
X-32625500Y132455200D01*
X-32583557Y132353942D01*
X-32506058Y132276443D01*
X-32404800Y132234500D01*
X-32404799Y132234500D01*
X-32295201Y132234500D01*
X-32295200Y132234500D01*
X-32193942Y132276443D01*
X-32116443Y132353942D01*
X-32074500Y132455200D01*
X-32074500Y132564800D01*
X-32116443Y132666058D01*
X-32193942Y132743557D01*
X-32295200Y132785500D01*
X-32404800Y132785500D01*
X-32404801Y132785500D01*
X-32506060Y132743556D01*
X-32583556Y132666060D01*
X-32583557Y132666059D01*
X-32583557Y132666058D01*
X-32625500Y132564800D01*
X-42520000Y132564800D01*
X-42520000Y134238359D01*
X-40955300Y134238359D01*
X-40955300Y134131641D01*
X-40927679Y134028560D01*
X-40874320Y133936140D01*
X-40798860Y133860680D01*
X-40706440Y133807321D01*
X-40603359Y133779700D01*
X-40603357Y133779700D01*
X-40496642Y133779700D01*
X-40496641Y133779700D01*
X-40487398Y133782177D01*
X-40417549Y133780518D01*
X-40359685Y133741358D01*
X-40332178Y133677131D01*
X-40331300Y133662404D01*
X-40331300Y133586641D01*
X-40303679Y133483560D01*
X-40250320Y133391140D01*
X-40174860Y133315680D01*
X-40082440Y133262321D01*
X-39979359Y133234700D01*
X-39979357Y133234700D01*
X-39872643Y133234700D01*
X-39872641Y133234700D01*
X-39769560Y133262321D01*
X-39677140Y133315680D01*
X-39601680Y133391140D01*
X-39548321Y133483560D01*
X-39520700Y133586641D01*
X-39520700Y133693359D01*
X-39548321Y133796440D01*
X-39601680Y133888860D01*
X-39677140Y133964320D01*
X-39769560Y134017679D01*
X-39872641Y134045300D01*
X-39979359Y134045300D01*
X-39979360Y134045300D01*
X-39988607Y134042822D01*
X-40058457Y134044485D01*
X-40116319Y134083648D01*
X-40143823Y134147877D01*
X-40144700Y134162597D01*
X-40144700Y134238358D01*
X-40144700Y134238359D01*
X-40172321Y134341440D01*
X-40225680Y134433860D01*
X-40301140Y134509320D01*
X-40393560Y134562679D01*
X-40496641Y134590300D01*
X-40603359Y134590300D01*
X-40672080Y134571886D01*
X-40706441Y134562679D01*
X-40798860Y134509320D01*
X-40798863Y134509318D01*
X-40874318Y134433863D01*
X-40874320Y134433860D01*
X-40927679Y134341441D01*
X-40927679Y134341440D01*
X-40955300Y134238359D01*
X-42520000Y134238359D01*
X-42520000Y134742487D01*
X-30876680Y134742487D01*
X-30876680Y134637033D01*
X-30849387Y134535173D01*
X-30796660Y134443847D01*
X-30722093Y134369280D01*
X-30630767Y134316553D01*
X-30528907Y134289260D01*
X-30528905Y134289260D01*
X-30423455Y134289260D01*
X-30423453Y134289260D01*
X-30374089Y134302487D01*
X-29886680Y134302487D01*
X-29886680Y134197033D01*
X-29859387Y134095173D01*
X-29806660Y134003847D01*
X-29732093Y133929280D01*
X-29640767Y133876553D01*
X-29538907Y133849260D01*
X-29538905Y133849260D01*
X-29433455Y133849260D01*
X-29433453Y133849260D01*
X-29331593Y133876553D01*
X-29240267Y133929280D01*
X-29165700Y134003847D01*
X-29112973Y134095173D01*
X-29085680Y134197033D01*
X-29085680Y134302487D01*
X-29085681Y134302488D01*
X-29086220Y134306585D01*
X-29085680Y134310049D01*
X-29085680Y134310614D01*
X-29085592Y134310614D01*
X-29075458Y134375621D01*
X-29029081Y134427879D01*
X-28961814Y134446768D01*
X-28931194Y134442553D01*
X-28918907Y134439260D01*
X-28918904Y134439260D01*
X-28813455Y134439260D01*
X-28813453Y134439260D01*
X-28711593Y134466553D01*
X-28620267Y134519280D01*
X-28545700Y134593847D01*
X-28492973Y134685173D01*
X-28465680Y134787033D01*
X-28465680Y134892487D01*
X-28492973Y134994347D01*
X-28545700Y135085673D01*
X-28620267Y135160240D01*
X-28698140Y135205200D01*
X-28711591Y135212966D01*
X-28711592Y135212967D01*
X-28711593Y135212967D01*
X-28813453Y135240260D01*
X-28918907Y135240260D01*
X-29020767Y135212967D01*
X-29020770Y135212966D01*
X-29112095Y135160239D01*
X-29186659Y135085675D01*
X-29239386Y134994350D01*
X-29239387Y134994347D01*
X-29266680Y134892487D01*
X-29266680Y134787031D01*
X-29266140Y134782928D01*
X-29266680Y134779466D01*
X-29266680Y134778906D01*
X-29266767Y134778906D01*
X-29276906Y134713893D01*
X-29323287Y134661637D01*
X-29390556Y134642753D01*
X-29421170Y134646969D01*
X-29433453Y134650260D01*
X-29538907Y134650260D01*
X-29640767Y134622967D01*
X-29640770Y134622966D01*
X-29732095Y134570239D01*
X-29806659Y134495675D01*
X-29859386Y134404350D01*
X-29859387Y134404347D01*
X-29886680Y134302487D01*
X-30374089Y134302487D01*
X-30321593Y134316553D01*
X-30230267Y134369280D01*
X-30155700Y134443847D01*
X-30102973Y134535173D01*
X-30075680Y134637033D01*
X-30075680Y134742487D01*
X-30102973Y134844347D01*
X-30155700Y134935673D01*
X-30230267Y135010240D01*
X-30321593Y135062967D01*
X-30423453Y135090260D01*
X-30528907Y135090260D01*
X-30630767Y135062967D01*
X-30630770Y135062966D01*
X-30722095Y135010239D01*
X-30796659Y134935675D01*
X-30849386Y134844350D01*
X-30849387Y134844347D01*
X-30876680Y134742487D01*
X-42520000Y134742487D01*
X-42520000Y143824720D01*
X-37534642Y143824720D01*
X-37467603Y143805035D01*
G37*
%TD.AperFunction*%
%TA.AperFunction,Conductor*%
G36*
X-25800000Y137845500D02*
G01*
X-26518698Y137845500D01*
X-26585737Y137865185D01*
X-26631492Y137917989D01*
X-26641436Y137987147D01*
X-26612411Y138050703D01*
X-26566149Y138084062D01*
X-26565092Y138084500D01*
X-26565091Y138084500D01*
X-26500587Y138111218D01*
X-25800000Y138811805D01*
X-25800000Y137845500D01*
G37*
%TD.AperFunction*%
%TA.AperFunction,Conductor*%
G36*
X-25800000Y142995220D02*
G01*
X-29121160Y142995220D01*
X-29188199Y143014905D01*
X-29233954Y143067709D01*
X-29245160Y143119220D01*
X-29245160Y143571220D01*
X-29225475Y143638259D01*
X-29172671Y143684014D01*
X-29121160Y143695220D01*
X-25800000Y143695220D01*
X-25800000Y142995220D01*
G37*
%TD.AperFunction*%
%TD*%
%TA.AperFunction,Conductor*%
%TO.N,/Vout_1V8*%
G36*
X23365677Y84930315D02*
G01*
X23386319Y84913681D01*
X23543681Y84756319D01*
X23577166Y84694996D01*
X23580000Y84668638D01*
X23580000Y80641362D01*
X23560315Y80574323D01*
X23543681Y80553681D01*
X22916319Y79926319D01*
X22854996Y79892834D01*
X22828638Y79890000D01*
X8271362Y79890000D01*
X8204323Y79909685D01*
X8183681Y79926319D01*
X6606319Y81503681D01*
X6572834Y81565004D01*
X6570000Y81591362D01*
X6570000Y82168638D01*
X6578644Y82198079D01*
X6585168Y82228065D01*
X6588922Y82233081D01*
X6589685Y82235677D01*
X6606319Y82256319D01*
X6693681Y82343681D01*
X6755004Y82377166D01*
X6781362Y82380000D01*
X14520000Y82380000D01*
X16323681Y84183681D01*
X16385004Y84217166D01*
X16411362Y84220000D01*
X17270000Y84220000D01*
X17963681Y84913681D01*
X18025004Y84947166D01*
X18051362Y84950000D01*
X23298638Y84950000D01*
X23365677Y84930315D01*
G37*
%TD.AperFunction*%
%TD*%
M02*
