%TF.GenerationSoftware,KiCad,Pcbnew,9.0.1*%
%TF.CreationDate,2026-05-11T15:42:01+09:00*%
%TF.ProjectId,16ver8,31367665-7238-42e6-9b69-6361645f7063,rev?*%
%TF.SameCoordinates,Original*%
%TF.FileFunction,Legend,Top*%
%TF.FilePolarity,Positive*%
%FSLAX46Y46*%
G04 Gerber Fmt 4.6, Leading zero omitted, Abs format (unit mm)*
G04 Created by KiCad (PCBNEW 9.0.1) date 2026-05-11 15:42:01*
%MOMM*%
%LPD*%
G01*
G04 APERTURE LIST*
G04 Aperture macros list*
%AMRoundRect*
0 Rectangle with rounded corners*
0 $1 Rounding radius*
0 $2 $3 $4 $5 $6 $7 $8 $9 X,Y pos of 4 corners*
0 Add a 4 corners polygon primitive as box body*
4,1,4,$2,$3,$4,$5,$6,$7,$8,$9,$2,$3,0*
0 Add four circle primitives for the rounded corners*
1,1,$1+$1,$2,$3*
1,1,$1+$1,$4,$5*
1,1,$1+$1,$6,$7*
1,1,$1+$1,$8,$9*
0 Add four rect primitives between the rounded corners*
20,1,$1+$1,$2,$3,$4,$5,0*
20,1,$1+$1,$4,$5,$6,$7,0*
20,1,$1+$1,$6,$7,$8,$9,0*
20,1,$1+$1,$8,$9,$2,$3,0*%
%AMFreePoly0*
4,1,87,1.229161,0.950399,1.264516,0.935754,1.302946,0.900539,1.305754,0.894516,1.320399,0.859161,1.326200,0.830000,1.326200,0.506200,1.700000,0.506200,1.729161,0.500399,1.764516,0.485754,1.802946,0.450539,1.805754,0.444516,1.820399,0.409161,1.826200,0.380000,1.826200,0.130000,1.820399,0.100839,1.805754,0.065484,1.770539,0.027054,1.764516,0.024246,1.729161,0.009601,
1.706032,0.005000,1.729161,0.000399,1.764516,-0.014246,1.802946,-0.049461,1.805754,-0.055484,1.820399,-0.090839,1.826200,-0.120000,1.826200,-0.370000,1.820399,-0.399161,1.805754,-0.434516,1.770539,-0.472946,1.764516,-0.475754,1.729161,-0.490399,1.700000,-0.496200,1.326200,-0.496200,1.326200,-0.820000,1.320399,-0.849161,1.305754,-0.884516,1.270539,-0.922946,1.264516,-0.925754,
1.229161,-0.940399,1.200000,-0.946200,-1.200000,-0.946200,-1.229161,-0.940399,-1.264516,-0.925754,-1.302946,-0.890539,-1.305754,-0.884516,-1.320399,-0.849161,-1.326200,-0.820000,-1.326200,-0.496200,-1.700000,-0.496200,-1.729161,-0.490399,-1.764516,-0.475754,-1.802946,-0.440539,-1.805754,-0.434516,-1.820399,-0.399161,-1.826200,-0.370000,-1.826200,-0.120000,-1.820399,-0.090839,-1.805754,-0.055484,
-1.770539,-0.017054,-1.764516,-0.014246,-1.729161,0.000399,-1.706032,0.005000,-1.729161,0.009601,-1.764516,0.024246,-1.802946,0.059461,-1.805754,0.065484,-1.820399,0.100839,-1.826200,0.130000,-1.826200,0.380000,-1.820399,0.409161,-1.805754,0.444516,-1.770539,0.482946,-1.764516,0.485754,-1.729161,0.500399,-1.700000,0.506200,-1.326200,0.506200,-1.326200,0.830000,-1.320399,0.859161,
-1.305754,0.894516,-1.270539,0.932946,-1.264516,0.935754,-1.229161,0.950399,-1.200000,0.956200,1.200000,0.956200,1.229161,0.950399,1.229161,0.950399,$1*%
G04 Aperture macros list end*
%ADD10C,0.100000*%
%ADD11C,0.080000*%
%ADD12C,0.200000*%
%ADD13C,0.125000*%
%ADD14C,0.400000*%
%ADD15C,0.120000*%
%ADD16C,0.250000*%
%ADD17C,0.127000*%
%ADD18C,0.150000*%
%ADD19C,0.152400*%
%ADD20C,0.300000*%
%ADD21C,0.000000*%
%ADD22C,0.010000*%
%ADD23RoundRect,0.173100X0.173100X0.223100X-0.173100X0.223100X-0.173100X-0.223100X0.173100X-0.223100X0*%
%ADD24RoundRect,0.173100X-0.173100X-0.223100X0.173100X-0.223100X0.173100X0.223100X-0.173100X0.223100X0*%
%ADD25RoundRect,0.263100X-0.288100X0.263100X-0.288100X-0.263100X0.288100X-0.263100X0.288100X0.263100X0*%
%ADD26RoundRect,0.076200X1.395000X-0.370000X1.395000X0.370000X-1.395000X0.370000X-1.395000X-0.370000X0*%
%ADD27RoundRect,0.263100X0.263100X0.288100X-0.263100X0.288100X-0.263100X-0.288100X0.263100X-0.288100X0*%
%ADD28RoundRect,0.263100X-0.263100X-0.288100X0.263100X-0.288100X0.263100X0.288100X-0.263100X0.288100X0*%
%ADD29RoundRect,0.178100X-0.208100X0.178100X-0.208100X-0.178100X0.208100X-0.178100X0.208100X0.178100X0*%
%ADD30RoundRect,0.263100X0.288100X-0.263100X0.288100X0.263100X-0.288100X0.263100X-0.288100X-0.263100X0*%
%ADD31RoundRect,0.287170X0.489030X-0.301530X0.489030X0.301530X-0.489030X0.301530X-0.489030X-0.301530X0*%
%ADD32RoundRect,0.238100X-0.313100X0.238100X-0.313100X-0.238100X0.313100X-0.238100X0.313100X0.238100X0*%
%ADD33C,3.352400*%
%ADD34RoundRect,0.173100X-0.223100X0.173100X-0.223100X-0.173100X0.223100X-0.173100X0.223100X0.173100X0*%
%ADD35RoundRect,0.102000X0.205000X0.155000X-0.205000X0.155000X-0.205000X-0.155000X0.205000X-0.155000X0*%
%ADD36RoundRect,0.076200X-0.300000X0.125000X-0.300000X-0.125000X0.300000X-0.125000X0.300000X0.125000X0*%
%ADD37RoundRect,0.076200X0.300000X-0.125000X0.300000X0.125000X-0.300000X0.125000X-0.300000X-0.125000X0*%
%ADD38C,0.452400*%
%ADD39FreePoly0,90.000000*%
%ADD40RoundRect,0.178100X0.178100X0.208100X-0.178100X0.208100X-0.178100X-0.208100X0.178100X-0.208100X0*%
%ADD41RoundRect,0.076200X-0.500000X-0.750000X0.500000X-0.750000X0.500000X0.750000X-0.500000X0.750000X0*%
%ADD42RoundRect,0.076200X-0.300000X0.550000X-0.300000X-0.550000X0.300000X-0.550000X0.300000X0.550000X0*%
%ADD43RoundRect,0.173100X0.223100X-0.173100X0.223100X0.173100X-0.223100X0.173100X-0.223100X-0.173100X0*%
%ADD44C,0.352400*%
%ADD45RoundRect,0.076200X-0.250000X-0.300000X0.250000X-0.300000X0.250000X0.300000X-0.250000X0.300000X0*%
%ADD46RoundRect,0.076200X0.300000X-0.250000X0.300000X0.250000X-0.300000X0.250000X-0.300000X-0.250000X0*%
%ADD47RoundRect,0.185600X-0.210600X0.185600X-0.210600X-0.185600X0.210600X-0.185600X0.210600X0.185600X0*%
%ADD48O,0.492400X1.882400*%
%ADD49RoundRect,0.102000X0.500000X0.485000X-0.500000X0.485000X-0.500000X-0.485000X0.500000X-0.485000X0*%
%ADD50RoundRect,0.287170X-0.489030X0.301530X-0.489030X-0.301530X0.489030X-0.301530X0.489030X0.301530X0*%
%ADD51RoundRect,0.102000X-0.500000X-0.485000X0.500000X-0.485000X0.500000X0.485000X-0.500000X0.485000X0*%
%ADD52RoundRect,0.076200X-0.300000X0.250000X-0.300000X-0.250000X0.300000X-0.250000X0.300000X0.250000X0*%
%ADD53RoundRect,0.076200X-0.100000X0.125000X-0.100000X-0.125000X0.100000X-0.125000X0.100000X0.125000X0*%
%ADD54RoundRect,0.076200X-0.400000X0.450000X-0.400000X-0.450000X0.400000X-0.450000X0.400000X0.450000X0*%
%ADD55RoundRect,0.076200X-0.350000X-0.500000X0.350000X-0.500000X0.350000X0.500000X-0.350000X0.500000X0*%
%ADD56RoundRect,0.076200X0.250000X0.300000X-0.250000X0.300000X-0.250000X-0.300000X0.250000X-0.300000X0*%
%ADD57RoundRect,0.238100X0.313100X-0.238100X0.313100X0.238100X-0.313100X0.238100X-0.313100X-0.238100X0*%
%ADD58RoundRect,0.178100X-0.178100X-0.208100X0.178100X-0.208100X0.178100X0.208100X-0.178100X0.208100X0*%
%ADD59RoundRect,0.076200X0.500000X0.750000X-0.500000X0.750000X-0.500000X-0.750000X0.500000X-0.750000X0*%
%ADD60RoundRect,0.076200X-0.400000X-0.375000X0.400000X-0.375000X0.400000X0.375000X-0.400000X0.375000X0*%
%ADD61RoundRect,0.178100X0.208100X-0.178100X0.208100X0.178100X-0.208100X0.178100X-0.208100X-0.178100X0*%
%ADD62RoundRect,0.076200X0.500000X0.500000X-0.500000X0.500000X-0.500000X-0.500000X0.500000X-0.500000X0*%
%ADD63RoundRect,0.076200X0.375000X-0.400000X0.375000X0.400000X-0.375000X0.400000X-0.375000X-0.400000X0*%
%ADD64RoundRect,0.076200X0.250000X0.325000X-0.250000X0.325000X-0.250000X-0.325000X0.250000X-0.325000X0*%
%ADD65RoundRect,0.076200X0.500000X-0.300000X0.500000X0.300000X-0.500000X0.300000X-0.500000X-0.300000X0*%
%ADD66C,0.302400*%
%ADD67RoundRect,0.076200X-0.300000X-0.500000X0.300000X-0.500000X0.300000X0.500000X-0.300000X0.500000X0*%
%ADD68RoundRect,0.076200X0.900000X-0.600000X0.900000X0.600000X-0.900000X0.600000X-0.900000X-0.600000X0*%
%ADD69RoundRect,0.050000X2.425000X-2.425000X2.425000X2.425000X-2.425000X2.425000X-2.425000X-2.425000X0*%
%ADD70C,0.375000*%
%ADD71RoundRect,0.076200X-0.650000X0.450000X-0.650000X-0.450000X0.650000X-0.450000X0.650000X0.450000X0*%
%ADD72RoundRect,0.213100X0.213100X0.363100X-0.213100X0.363100X-0.213100X-0.363100X0.213100X-0.363100X0*%
%ADD73RoundRect,0.188100X0.238100X0.188100X-0.238100X0.188100X-0.238100X-0.188100X0.238100X-0.188100X0*%
%ADD74RoundRect,0.076200X0.435000X-0.180000X0.435000X0.180000X-0.435000X0.180000X-0.435000X-0.180000X0*%
%ADD75RoundRect,0.076200X0.325000X-0.325000X0.325000X0.325000X-0.325000X0.325000X-0.325000X-0.325000X0*%
%ADD76C,0.332400*%
%ADD77RoundRect,0.076200X-0.550000X-0.300000X0.550000X-0.300000X0.550000X0.300000X-0.550000X0.300000X0*%
%ADD78RoundRect,0.338100X-0.988100X0.338100X-0.988100X-0.338100X0.988100X-0.338100X0.988100X0.338100X0*%
%ADD79C,1.352400*%
%ADD80RoundRect,0.076200X0.275000X-0.125000X0.275000X0.125000X-0.275000X0.125000X-0.275000X-0.125000X0*%
%ADD81C,0.812800*%
%ADD82RoundRect,0.076200X0.100000X0.571500X-0.100000X0.571500X-0.100000X-0.571500X0.100000X-0.571500X0*%
%ADD83RoundRect,0.076200X0.152400X0.571500X-0.152400X0.571500X-0.152400X-0.571500X0.152400X-0.571500X0*%
%ADD84O,1.270000X2.362200*%
%ADD85O,1.270000X2.057400*%
G04 APERTURE END LIST*
D10*
X-14370000Y115280000D02*
X3760000Y115280000D01*
X3760000Y102250000D01*
X-14370000Y102250000D01*
X-14370000Y115280000D01*
X34820000Y81150000D02*
X42740000Y81150000D01*
X42740000Y78560000D01*
X34820000Y78560000D01*
X34820000Y81150000D01*
X-12130000Y92410000D02*
X-4130000Y92410000D01*
X-4130000Y85500000D01*
X-12130000Y85500000D01*
X-12130000Y92410000D01*
X17410000Y88730000D02*
X43519420Y88730000D01*
X43519420Y69020000D01*
X17410000Y69020000D01*
X17410000Y88730000D01*
X280000Y88710000D02*
X17240000Y88710000D01*
X17240000Y74970000D01*
X280000Y74970000D01*
X280000Y88710000D01*
X-12140000Y85350000D02*
X-4680000Y85350000D01*
X-4680000Y76580000D01*
X-12140000Y76580000D01*
X-12140000Y85350000D01*
X-13980000Y55370000D02*
X4150000Y55370000D01*
X4150000Y42340000D01*
X-13980000Y42340000D01*
X-13980000Y55370000D01*
X-27020000Y90670000D02*
X-12300000Y90670000D01*
X-12300000Y76570000D01*
X-27020000Y76570000D01*
X-27020000Y90670000D01*
D11*
X2588821Y79242160D02*
X2645964Y79223113D01*
X2645964Y79223113D02*
X2741202Y79223113D01*
X2741202Y79223113D02*
X2779297Y79242160D01*
X2779297Y79242160D02*
X2798345Y79261208D01*
X2798345Y79261208D02*
X2817392Y79299303D01*
X2817392Y79299303D02*
X2817392Y79337399D01*
X2817392Y79337399D02*
X2798345Y79375494D01*
X2798345Y79375494D02*
X2779297Y79394541D01*
X2779297Y79394541D02*
X2741202Y79413589D01*
X2741202Y79413589D02*
X2665011Y79432637D01*
X2665011Y79432637D02*
X2626916Y79451684D01*
X2626916Y79451684D02*
X2607869Y79470732D01*
X2607869Y79470732D02*
X2588821Y79508827D01*
X2588821Y79508827D02*
X2588821Y79546922D01*
X2588821Y79546922D02*
X2607869Y79585018D01*
X2607869Y79585018D02*
X2626916Y79604065D01*
X2626916Y79604065D02*
X2665011Y79623113D01*
X2665011Y79623113D02*
X2760250Y79623113D01*
X2760250Y79623113D02*
X2817392Y79604065D01*
X3198344Y79604065D02*
X3160249Y79623113D01*
X3160249Y79623113D02*
X3103106Y79623113D01*
X3103106Y79623113D02*
X3045963Y79604065D01*
X3045963Y79604065D02*
X3007868Y79565970D01*
X3007868Y79565970D02*
X2988821Y79527875D01*
X2988821Y79527875D02*
X2969773Y79451684D01*
X2969773Y79451684D02*
X2969773Y79394541D01*
X2969773Y79394541D02*
X2988821Y79318351D01*
X2988821Y79318351D02*
X3007868Y79280256D01*
X3007868Y79280256D02*
X3045963Y79242160D01*
X3045963Y79242160D02*
X3103106Y79223113D01*
X3103106Y79223113D02*
X3141202Y79223113D01*
X3141202Y79223113D02*
X3198344Y79242160D01*
X3198344Y79242160D02*
X3217392Y79261208D01*
X3217392Y79261208D02*
X3217392Y79394541D01*
X3217392Y79394541D02*
X3141202Y79394541D01*
X3388821Y79223113D02*
X3388821Y79623113D01*
X3388821Y79623113D02*
X3617392Y79223113D01*
X3617392Y79223113D02*
X3617392Y79623113D01*
X3807869Y79223113D02*
X3807869Y79623113D01*
X3807869Y79623113D02*
X3903107Y79623113D01*
X3903107Y79623113D02*
X3960250Y79604065D01*
X3960250Y79604065D02*
X3998345Y79565970D01*
X3998345Y79565970D02*
X4017392Y79527875D01*
X4017392Y79527875D02*
X4036440Y79451684D01*
X4036440Y79451684D02*
X4036440Y79394541D01*
X4036440Y79394541D02*
X4017392Y79318351D01*
X4017392Y79318351D02*
X3998345Y79280256D01*
X3998345Y79280256D02*
X3960250Y79242160D01*
X3960250Y79242160D02*
X3903107Y79223113D01*
X3903107Y79223113D02*
X3807869Y79223113D01*
X4417392Y79223113D02*
X4188821Y79223113D01*
X4303107Y79223113D02*
X4303107Y79623113D01*
X4303107Y79623113D02*
X4265011Y79565970D01*
X4265011Y79565970D02*
X4226916Y79527875D01*
X4226916Y79527875D02*
X4188821Y79508827D01*
D12*
X-13442055Y132169600D02*
X-13584912Y132217220D01*
X-13584912Y132217220D02*
X-13823007Y132217220D01*
X-13823007Y132217220D02*
X-13918245Y132169600D01*
X-13918245Y132169600D02*
X-13965864Y132121981D01*
X-13965864Y132121981D02*
X-14013483Y132026743D01*
X-14013483Y132026743D02*
X-14013483Y131931505D01*
X-14013483Y131931505D02*
X-13965864Y131836267D01*
X-13965864Y131836267D02*
X-13918245Y131788648D01*
X-13918245Y131788648D02*
X-13823007Y131741029D01*
X-13823007Y131741029D02*
X-13632531Y131693410D01*
X-13632531Y131693410D02*
X-13537293Y131645791D01*
X-13537293Y131645791D02*
X-13489674Y131598172D01*
X-13489674Y131598172D02*
X-13442055Y131502934D01*
X-13442055Y131502934D02*
X-13442055Y131407696D01*
X-13442055Y131407696D02*
X-13489674Y131312458D01*
X-13489674Y131312458D02*
X-13537293Y131264839D01*
X-13537293Y131264839D02*
X-13632531Y131217220D01*
X-13632531Y131217220D02*
X-13870626Y131217220D01*
X-13870626Y131217220D02*
X-14013483Y131264839D01*
X-14346817Y131217220D02*
X-14584912Y132217220D01*
X-14584912Y132217220D02*
X-14775388Y131502934D01*
X-14775388Y131502934D02*
X-14965864Y132217220D01*
X-14965864Y132217220D02*
X-15203959Y131217220D01*
X-15584912Y132217220D02*
X-15584912Y131217220D01*
X-15584912Y131217220D02*
X-15823007Y131217220D01*
X-15823007Y131217220D02*
X-15965864Y131264839D01*
X-15965864Y131264839D02*
X-16061102Y131360077D01*
X-16061102Y131360077D02*
X-16108721Y131455315D01*
X-16108721Y131455315D02*
X-16156340Y131645791D01*
X-16156340Y131645791D02*
X-16156340Y131788648D01*
X-16156340Y131788648D02*
X-16108721Y131979124D01*
X-16108721Y131979124D02*
X-16061102Y132074362D01*
X-16061102Y132074362D02*
X-15965864Y132169600D01*
X-15965864Y132169600D02*
X-15823007Y132217220D01*
X-15823007Y132217220D02*
X-15584912Y132217220D01*
D10*
X13878169Y87581200D02*
X13992455Y87543105D01*
X13992455Y87543105D02*
X14182931Y87543105D01*
X14182931Y87543105D02*
X14259122Y87581200D01*
X14259122Y87581200D02*
X14297217Y87619296D01*
X14297217Y87619296D02*
X14335312Y87695486D01*
X14335312Y87695486D02*
X14335312Y87771677D01*
X14335312Y87771677D02*
X14297217Y87847867D01*
X14297217Y87847867D02*
X14259122Y87885962D01*
X14259122Y87885962D02*
X14182931Y87924058D01*
X14182931Y87924058D02*
X14030550Y87962153D01*
X14030550Y87962153D02*
X13954360Y88000248D01*
X13954360Y88000248D02*
X13916265Y88038343D01*
X13916265Y88038343D02*
X13878169Y88114534D01*
X13878169Y88114534D02*
X13878169Y88190724D01*
X13878169Y88190724D02*
X13916265Y88266915D01*
X13916265Y88266915D02*
X13954360Y88305010D01*
X13954360Y88305010D02*
X14030550Y88343105D01*
X14030550Y88343105D02*
X14221027Y88343105D01*
X14221027Y88343105D02*
X14335312Y88305010D01*
X15097217Y88305010D02*
X15021027Y88343105D01*
X15021027Y88343105D02*
X14906741Y88343105D01*
X14906741Y88343105D02*
X14792455Y88305010D01*
X14792455Y88305010D02*
X14716265Y88228820D01*
X14716265Y88228820D02*
X14678170Y88152629D01*
X14678170Y88152629D02*
X14640074Y88000248D01*
X14640074Y88000248D02*
X14640074Y87885962D01*
X14640074Y87885962D02*
X14678170Y87733581D01*
X14678170Y87733581D02*
X14716265Y87657391D01*
X14716265Y87657391D02*
X14792455Y87581200D01*
X14792455Y87581200D02*
X14906741Y87543105D01*
X14906741Y87543105D02*
X14982932Y87543105D01*
X14982932Y87543105D02*
X15097217Y87581200D01*
X15097217Y87581200D02*
X15135313Y87619296D01*
X15135313Y87619296D02*
X15135313Y87885962D01*
X15135313Y87885962D02*
X14982932Y87885962D01*
X15478170Y87543105D02*
X15478170Y88343105D01*
X15478170Y88343105D02*
X15935313Y87543105D01*
X15935313Y87543105D02*
X15935313Y88343105D01*
X16316265Y87543105D02*
X16316265Y88343105D01*
X16316265Y88343105D02*
X16506741Y88343105D01*
X16506741Y88343105D02*
X16621027Y88305010D01*
X16621027Y88305010D02*
X16697217Y88228820D01*
X16697217Y88228820D02*
X16735312Y88152629D01*
X16735312Y88152629D02*
X16773408Y88000248D01*
X16773408Y88000248D02*
X16773408Y87885962D01*
X16773408Y87885962D02*
X16735312Y87733581D01*
X16735312Y87733581D02*
X16697217Y87657391D01*
X16697217Y87657391D02*
X16621027Y87581200D01*
X16621027Y87581200D02*
X16506741Y87543105D01*
X16506741Y87543105D02*
X16316265Y87543105D01*
X-11589450Y90404010D02*
X-11613259Y90380200D01*
X-11613259Y90380200D02*
X-11684688Y90356391D01*
X-11684688Y90356391D02*
X-11732307Y90356391D01*
X-11732307Y90356391D02*
X-11803735Y90380200D01*
X-11803735Y90380200D02*
X-11851354Y90427820D01*
X-11851354Y90427820D02*
X-11875164Y90475439D01*
X-11875164Y90475439D02*
X-11898973Y90570677D01*
X-11898973Y90570677D02*
X-11898973Y90642105D01*
X-11898973Y90642105D02*
X-11875164Y90737343D01*
X-11875164Y90737343D02*
X-11851354Y90784962D01*
X-11851354Y90784962D02*
X-11803735Y90832581D01*
X-11803735Y90832581D02*
X-11732307Y90856391D01*
X-11732307Y90856391D02*
X-11684688Y90856391D01*
X-11684688Y90856391D02*
X-11613259Y90832581D01*
X-11613259Y90832581D02*
X-11589450Y90808772D01*
X-11398973Y90808772D02*
X-11375164Y90832581D01*
X-11375164Y90832581D02*
X-11327545Y90856391D01*
X-11327545Y90856391D02*
X-11208497Y90856391D01*
X-11208497Y90856391D02*
X-11160878Y90832581D01*
X-11160878Y90832581D02*
X-11137069Y90808772D01*
X-11137069Y90808772D02*
X-11113259Y90761153D01*
X-11113259Y90761153D02*
X-11113259Y90713534D01*
X-11113259Y90713534D02*
X-11137069Y90642105D01*
X-11137069Y90642105D02*
X-11422783Y90356391D01*
X-11422783Y90356391D02*
X-11113259Y90356391D01*
X-10684688Y90689724D02*
X-10684688Y90356391D01*
X-10803736Y90880200D02*
X-10922783Y90523058D01*
X-10922783Y90523058D02*
X-10613260Y90523058D01*
D13*
X-21819856Y131182310D02*
X-22105570Y131182310D01*
X-21962713Y131682310D02*
X-21962713Y131182310D01*
X-22272236Y131682310D02*
X-22272236Y131182310D01*
X-22272236Y131182310D02*
X-22462712Y131182310D01*
X-22462712Y131182310D02*
X-22510331Y131206120D01*
X-22510331Y131206120D02*
X-22534141Y131229929D01*
X-22534141Y131229929D02*
X-22557950Y131277548D01*
X-22557950Y131277548D02*
X-22557950Y131348977D01*
X-22557950Y131348977D02*
X-22534141Y131396596D01*
X-22534141Y131396596D02*
X-22510331Y131420405D01*
X-22510331Y131420405D02*
X-22462712Y131444215D01*
X-22462712Y131444215D02*
X-22272236Y131444215D01*
X-23034141Y131682310D02*
X-22748427Y131682310D01*
X-22891284Y131682310D02*
X-22891284Y131182310D01*
X-22891284Y131182310D02*
X-22843665Y131253739D01*
X-22843665Y131253739D02*
X-22796046Y131301358D01*
X-22796046Y131301358D02*
X-22748427Y131325167D01*
D10*
X3670550Y84616391D02*
X3503884Y84854486D01*
X3384836Y84616391D02*
X3384836Y85116391D01*
X3384836Y85116391D02*
X3575312Y85116391D01*
X3575312Y85116391D02*
X3622931Y85092581D01*
X3622931Y85092581D02*
X3646741Y85068772D01*
X3646741Y85068772D02*
X3670550Y85021153D01*
X3670550Y85021153D02*
X3670550Y84949724D01*
X3670550Y84949724D02*
X3646741Y84902105D01*
X3646741Y84902105D02*
X3622931Y84878296D01*
X3622931Y84878296D02*
X3575312Y84854486D01*
X3575312Y84854486D02*
X3384836Y84854486D01*
X4099122Y84949724D02*
X4099122Y84616391D01*
X3980074Y85140200D02*
X3861027Y84783058D01*
X3861027Y84783058D02*
X4170550Y84783058D01*
X4599121Y85116391D02*
X4361026Y85116391D01*
X4361026Y85116391D02*
X4337217Y84878296D01*
X4337217Y84878296D02*
X4361026Y84902105D01*
X4361026Y84902105D02*
X4408645Y84925915D01*
X4408645Y84925915D02*
X4527693Y84925915D01*
X4527693Y84925915D02*
X4575312Y84902105D01*
X4575312Y84902105D02*
X4599121Y84878296D01*
X4599121Y84878296D02*
X4622931Y84830677D01*
X4622931Y84830677D02*
X4622931Y84711629D01*
X4622931Y84711629D02*
X4599121Y84664010D01*
X4599121Y84664010D02*
X4575312Y84640200D01*
X4575312Y84640200D02*
X4527693Y84616391D01*
X4527693Y84616391D02*
X4408645Y84616391D01*
X4408645Y84616391D02*
X4361026Y84640200D01*
X4361026Y84640200D02*
X4337217Y84664010D01*
D11*
X22167392Y76524065D02*
X22129297Y76543113D01*
X22129297Y76543113D02*
X22072154Y76543113D01*
X22072154Y76543113D02*
X22015011Y76524065D01*
X22015011Y76524065D02*
X21976916Y76485970D01*
X21976916Y76485970D02*
X21957869Y76447875D01*
X21957869Y76447875D02*
X21938821Y76371684D01*
X21938821Y76371684D02*
X21938821Y76314541D01*
X21938821Y76314541D02*
X21957869Y76238351D01*
X21957869Y76238351D02*
X21976916Y76200256D01*
X21976916Y76200256D02*
X22015011Y76162160D01*
X22015011Y76162160D02*
X22072154Y76143113D01*
X22072154Y76143113D02*
X22110250Y76143113D01*
X22110250Y76143113D02*
X22167392Y76162160D01*
X22167392Y76162160D02*
X22186440Y76181208D01*
X22186440Y76181208D02*
X22186440Y76314541D01*
X22186440Y76314541D02*
X22110250Y76314541D01*
X22357869Y76143113D02*
X22357869Y76543113D01*
X22357869Y76543113D02*
X22586440Y76143113D01*
X22586440Y76143113D02*
X22586440Y76543113D01*
X22776917Y76143113D02*
X22776917Y76543113D01*
X22776917Y76543113D02*
X22872155Y76543113D01*
X22872155Y76543113D02*
X22929298Y76524065D01*
X22929298Y76524065D02*
X22967393Y76485970D01*
X22967393Y76485970D02*
X22986440Y76447875D01*
X22986440Y76447875D02*
X23005488Y76371684D01*
X23005488Y76371684D02*
X23005488Y76314541D01*
X23005488Y76314541D02*
X22986440Y76238351D01*
X22986440Y76238351D02*
X22967393Y76200256D01*
X22967393Y76200256D02*
X22929298Y76162160D01*
X22929298Y76162160D02*
X22872155Y76143113D01*
X22872155Y76143113D02*
X22776917Y76143113D01*
D12*
X47268019Y86978899D02*
X47220400Y87026518D01*
X47220400Y87026518D02*
X47172780Y87169375D01*
X47172780Y87169375D02*
X47172780Y87264613D01*
X47172780Y87264613D02*
X47220400Y87407470D01*
X47220400Y87407470D02*
X47315638Y87502708D01*
X47315638Y87502708D02*
X47410876Y87550327D01*
X47410876Y87550327D02*
X47601352Y87597946D01*
X47601352Y87597946D02*
X47744209Y87597946D01*
X47744209Y87597946D02*
X47934685Y87550327D01*
X47934685Y87550327D02*
X48029923Y87502708D01*
X48029923Y87502708D02*
X48125161Y87407470D01*
X48125161Y87407470D02*
X48172780Y87264613D01*
X48172780Y87264613D02*
X48172780Y87169375D01*
X48172780Y87169375D02*
X48125161Y87026518D01*
X48125161Y87026518D02*
X48077542Y86978899D01*
X47172780Y86550327D02*
X48172780Y86550327D01*
X47696590Y86550327D02*
X47696590Y85978899D01*
X47172780Y85978899D02*
X48172780Y85978899D01*
X47458495Y85550327D02*
X47458495Y85074137D01*
X47172780Y85645565D02*
X48172780Y85312232D01*
X48172780Y85312232D02*
X47172780Y84978899D01*
X47172780Y84074137D02*
X47648971Y84407470D01*
X47172780Y84645565D02*
X48172780Y84645565D01*
X48172780Y84645565D02*
X48172780Y84264613D01*
X48172780Y84264613D02*
X48125161Y84169375D01*
X48125161Y84169375D02*
X48077542Y84121756D01*
X48077542Y84121756D02*
X47982304Y84074137D01*
X47982304Y84074137D02*
X47839447Y84074137D01*
X47839447Y84074137D02*
X47744209Y84121756D01*
X47744209Y84121756D02*
X47696590Y84169375D01*
X47696590Y84169375D02*
X47648971Y84264613D01*
X47648971Y84264613D02*
X47648971Y84645565D01*
X48125161Y83121756D02*
X48172780Y83216994D01*
X48172780Y83216994D02*
X48172780Y83359851D01*
X48172780Y83359851D02*
X48125161Y83502708D01*
X48125161Y83502708D02*
X48029923Y83597946D01*
X48029923Y83597946D02*
X47934685Y83645565D01*
X47934685Y83645565D02*
X47744209Y83693184D01*
X47744209Y83693184D02*
X47601352Y83693184D01*
X47601352Y83693184D02*
X47410876Y83645565D01*
X47410876Y83645565D02*
X47315638Y83597946D01*
X47315638Y83597946D02*
X47220400Y83502708D01*
X47220400Y83502708D02*
X47172780Y83359851D01*
X47172780Y83359851D02*
X47172780Y83264613D01*
X47172780Y83264613D02*
X47220400Y83121756D01*
X47220400Y83121756D02*
X47268019Y83074137D01*
X47268019Y83074137D02*
X47601352Y83074137D01*
X47601352Y83074137D02*
X47601352Y83264613D01*
X47696590Y82645565D02*
X47696590Y82312232D01*
X47172780Y82169375D02*
X47172780Y82645565D01*
X47172780Y82645565D02*
X48172780Y82645565D01*
X48172780Y82645565D02*
X48172780Y82169375D01*
X47172780Y81169375D02*
X47648971Y81502708D01*
X47172780Y81740803D02*
X48172780Y81740803D01*
X48172780Y81740803D02*
X48172780Y81359851D01*
X48172780Y81359851D02*
X48125161Y81264613D01*
X48125161Y81264613D02*
X48077542Y81216994D01*
X48077542Y81216994D02*
X47982304Y81169375D01*
X47982304Y81169375D02*
X47839447Y81169375D01*
X47839447Y81169375D02*
X47744209Y81216994D01*
X47744209Y81216994D02*
X47696590Y81264613D01*
X47696590Y81264613D02*
X47648971Y81359851D01*
X47648971Y81359851D02*
X47648971Y81740803D01*
D11*
X35033112Y87150227D02*
X35033112Y86902608D01*
X35033112Y86902608D02*
X34880731Y87035941D01*
X34880731Y87035941D02*
X34880731Y86978798D01*
X34880731Y86978798D02*
X34861683Y86940703D01*
X34861683Y86940703D02*
X34842636Y86921655D01*
X34842636Y86921655D02*
X34804540Y86902608D01*
X34804540Y86902608D02*
X34709302Y86902608D01*
X34709302Y86902608D02*
X34671207Y86921655D01*
X34671207Y86921655D02*
X34652160Y86940703D01*
X34652160Y86940703D02*
X34633112Y86978798D01*
X34633112Y86978798D02*
X34633112Y87093084D01*
X34633112Y87093084D02*
X34652160Y87131179D01*
X34652160Y87131179D02*
X34671207Y87150227D01*
X35033112Y86788322D02*
X34633112Y86654989D01*
X34633112Y86654989D02*
X35033112Y86521656D01*
X35033112Y86426418D02*
X35033112Y86178799D01*
X35033112Y86178799D02*
X34880731Y86312132D01*
X34880731Y86312132D02*
X34880731Y86254989D01*
X34880731Y86254989D02*
X34861683Y86216894D01*
X34861683Y86216894D02*
X34842636Y86197846D01*
X34842636Y86197846D02*
X34804540Y86178799D01*
X34804540Y86178799D02*
X34709302Y86178799D01*
X34709302Y86178799D02*
X34671207Y86197846D01*
X34671207Y86197846D02*
X34652160Y86216894D01*
X34652160Y86216894D02*
X34633112Y86254989D01*
X34633112Y86254989D02*
X34633112Y86369275D01*
X34633112Y86369275D02*
X34652160Y86407370D01*
X34652160Y86407370D02*
X34671207Y86426418D01*
D13*
X-21759856Y136232310D02*
X-22045570Y136232310D01*
X-21902713Y136732310D02*
X-21902713Y136232310D01*
X-22212236Y136732310D02*
X-22212236Y136232310D01*
X-22212236Y136232310D02*
X-22402712Y136232310D01*
X-22402712Y136232310D02*
X-22450331Y136256120D01*
X-22450331Y136256120D02*
X-22474141Y136279929D01*
X-22474141Y136279929D02*
X-22497950Y136327548D01*
X-22497950Y136327548D02*
X-22497950Y136398977D01*
X-22497950Y136398977D02*
X-22474141Y136446596D01*
X-22474141Y136446596D02*
X-22450331Y136470405D01*
X-22450331Y136470405D02*
X-22402712Y136494215D01*
X-22402712Y136494215D02*
X-22212236Y136494215D01*
X-22664617Y136232310D02*
X-22974141Y136232310D01*
X-22974141Y136232310D02*
X-22807474Y136422786D01*
X-22807474Y136422786D02*
X-22878903Y136422786D01*
X-22878903Y136422786D02*
X-22926522Y136446596D01*
X-22926522Y136446596D02*
X-22950331Y136470405D01*
X-22950331Y136470405D02*
X-22974141Y136518024D01*
X-22974141Y136518024D02*
X-22974141Y136637072D01*
X-22974141Y136637072D02*
X-22950331Y136684691D01*
X-22950331Y136684691D02*
X-22926522Y136708500D01*
X-22926522Y136708500D02*
X-22878903Y136732310D01*
X-22878903Y136732310D02*
X-22736046Y136732310D01*
X-22736046Y136732310D02*
X-22688427Y136708500D01*
X-22688427Y136708500D02*
X-22664617Y136684691D01*
D10*
X-9519450Y89246391D02*
X-9686116Y89484486D01*
X-9805164Y89246391D02*
X-9805164Y89746391D01*
X-9805164Y89746391D02*
X-9614688Y89746391D01*
X-9614688Y89746391D02*
X-9567069Y89722581D01*
X-9567069Y89722581D02*
X-9543259Y89698772D01*
X-9543259Y89698772D02*
X-9519450Y89651153D01*
X-9519450Y89651153D02*
X-9519450Y89579724D01*
X-9519450Y89579724D02*
X-9543259Y89532105D01*
X-9543259Y89532105D02*
X-9567069Y89508296D01*
X-9567069Y89508296D02*
X-9614688Y89484486D01*
X-9614688Y89484486D02*
X-9805164Y89484486D01*
X-9328973Y89698772D02*
X-9305164Y89722581D01*
X-9305164Y89722581D02*
X-9257545Y89746391D01*
X-9257545Y89746391D02*
X-9138497Y89746391D01*
X-9138497Y89746391D02*
X-9090878Y89722581D01*
X-9090878Y89722581D02*
X-9067069Y89698772D01*
X-9067069Y89698772D02*
X-9043259Y89651153D01*
X-9043259Y89651153D02*
X-9043259Y89603534D01*
X-9043259Y89603534D02*
X-9067069Y89532105D01*
X-9067069Y89532105D02*
X-9352783Y89246391D01*
X-9352783Y89246391D02*
X-9043259Y89246391D01*
X-8567069Y89246391D02*
X-8852783Y89246391D01*
X-8709926Y89246391D02*
X-8709926Y89746391D01*
X-8709926Y89746391D02*
X-8757545Y89674962D01*
X-8757545Y89674962D02*
X-8805164Y89627343D01*
X-8805164Y89627343D02*
X-8852783Y89603534D01*
X1313609Y82990551D02*
X1075514Y82823885D01*
X1313609Y82704837D02*
X813609Y82704837D01*
X813609Y82704837D02*
X813609Y82895313D01*
X813609Y82895313D02*
X837419Y82942932D01*
X837419Y82942932D02*
X861228Y82966742D01*
X861228Y82966742D02*
X908847Y82990551D01*
X908847Y82990551D02*
X980276Y82990551D01*
X980276Y82990551D02*
X1027895Y82966742D01*
X1027895Y82966742D02*
X1051704Y82942932D01*
X1051704Y82942932D02*
X1075514Y82895313D01*
X1075514Y82895313D02*
X1075514Y82704837D01*
X1313609Y83204837D02*
X813609Y83204837D01*
X1289800Y83419123D02*
X1313609Y83490551D01*
X1313609Y83490551D02*
X1313609Y83609599D01*
X1313609Y83609599D02*
X1289800Y83657218D01*
X1289800Y83657218D02*
X1265990Y83681027D01*
X1265990Y83681027D02*
X1218371Y83704837D01*
X1218371Y83704837D02*
X1170752Y83704837D01*
X1170752Y83704837D02*
X1123133Y83681027D01*
X1123133Y83681027D02*
X1099323Y83657218D01*
X1099323Y83657218D02*
X1075514Y83609599D01*
X1075514Y83609599D02*
X1051704Y83514361D01*
X1051704Y83514361D02*
X1027895Y83466742D01*
X1027895Y83466742D02*
X1004085Y83442932D01*
X1004085Y83442932D02*
X956466Y83419123D01*
X956466Y83419123D02*
X908847Y83419123D01*
X908847Y83419123D02*
X861228Y83442932D01*
X861228Y83442932D02*
X837419Y83466742D01*
X837419Y83466742D02*
X813609Y83514361D01*
X813609Y83514361D02*
X813609Y83633408D01*
X813609Y83633408D02*
X837419Y83704837D01*
X813609Y84014360D02*
X813609Y84109598D01*
X813609Y84109598D02*
X837419Y84157217D01*
X837419Y84157217D02*
X885038Y84204836D01*
X885038Y84204836D02*
X980276Y84228646D01*
X980276Y84228646D02*
X1146942Y84228646D01*
X1146942Y84228646D02*
X1242180Y84204836D01*
X1242180Y84204836D02*
X1289800Y84157217D01*
X1289800Y84157217D02*
X1313609Y84109598D01*
X1313609Y84109598D02*
X1313609Y84014360D01*
X1313609Y84014360D02*
X1289800Y83966741D01*
X1289800Y83966741D02*
X1242180Y83919122D01*
X1242180Y83919122D02*
X1146942Y83895313D01*
X1146942Y83895313D02*
X980276Y83895313D01*
X980276Y83895313D02*
X885038Y83919122D01*
X885038Y83919122D02*
X837419Y83966741D01*
X837419Y83966741D02*
X813609Y84014360D01*
X2735990Y82550551D02*
X2759800Y82526742D01*
X2759800Y82526742D02*
X2783609Y82455313D01*
X2783609Y82455313D02*
X2783609Y82407694D01*
X2783609Y82407694D02*
X2759800Y82336266D01*
X2759800Y82336266D02*
X2712180Y82288647D01*
X2712180Y82288647D02*
X2664561Y82264837D01*
X2664561Y82264837D02*
X2569323Y82241028D01*
X2569323Y82241028D02*
X2497895Y82241028D01*
X2497895Y82241028D02*
X2402657Y82264837D01*
X2402657Y82264837D02*
X2355038Y82288647D01*
X2355038Y82288647D02*
X2307419Y82336266D01*
X2307419Y82336266D02*
X2283609Y82407694D01*
X2283609Y82407694D02*
X2283609Y82455313D01*
X2283609Y82455313D02*
X2307419Y82526742D01*
X2307419Y82526742D02*
X2331228Y82550551D01*
X2450276Y82979123D02*
X2783609Y82979123D01*
X2259800Y82860075D02*
X2616942Y82741028D01*
X2616942Y82741028D02*
X2616942Y83050551D01*
X2783609Y83264837D02*
X2783609Y83360075D01*
X2783609Y83360075D02*
X2759800Y83407694D01*
X2759800Y83407694D02*
X2735990Y83431503D01*
X2735990Y83431503D02*
X2664561Y83479122D01*
X2664561Y83479122D02*
X2569323Y83502932D01*
X2569323Y83502932D02*
X2378847Y83502932D01*
X2378847Y83502932D02*
X2331228Y83479122D01*
X2331228Y83479122D02*
X2307419Y83455313D01*
X2307419Y83455313D02*
X2283609Y83407694D01*
X2283609Y83407694D02*
X2283609Y83312456D01*
X2283609Y83312456D02*
X2307419Y83264837D01*
X2307419Y83264837D02*
X2331228Y83241027D01*
X2331228Y83241027D02*
X2378847Y83217218D01*
X2378847Y83217218D02*
X2497895Y83217218D01*
X2497895Y83217218D02*
X2545514Y83241027D01*
X2545514Y83241027D02*
X2569323Y83264837D01*
X2569323Y83264837D02*
X2593133Y83312456D01*
X2593133Y83312456D02*
X2593133Y83407694D01*
X2593133Y83407694D02*
X2569323Y83455313D01*
X2569323Y83455313D02*
X2545514Y83479122D01*
X2545514Y83479122D02*
X2497895Y83502932D01*
X35290550Y77866391D02*
X35123884Y78104486D01*
X35004836Y77866391D02*
X35004836Y78366391D01*
X35004836Y78366391D02*
X35195312Y78366391D01*
X35195312Y78366391D02*
X35242931Y78342581D01*
X35242931Y78342581D02*
X35266741Y78318772D01*
X35266741Y78318772D02*
X35290550Y78271153D01*
X35290550Y78271153D02*
X35290550Y78199724D01*
X35290550Y78199724D02*
X35266741Y78152105D01*
X35266741Y78152105D02*
X35242931Y78128296D01*
X35242931Y78128296D02*
X35195312Y78104486D01*
X35195312Y78104486D02*
X35004836Y78104486D01*
X35671503Y78128296D02*
X35504836Y78128296D01*
X35504836Y77866391D02*
X35504836Y78366391D01*
X35504836Y78366391D02*
X35742931Y78366391D01*
X36600073Y77914010D02*
X36576264Y77890200D01*
X36576264Y77890200D02*
X36504835Y77866391D01*
X36504835Y77866391D02*
X36457216Y77866391D01*
X36457216Y77866391D02*
X36385788Y77890200D01*
X36385788Y77890200D02*
X36338169Y77937820D01*
X36338169Y77937820D02*
X36314359Y77985439D01*
X36314359Y77985439D02*
X36290550Y78080677D01*
X36290550Y78080677D02*
X36290550Y78152105D01*
X36290550Y78152105D02*
X36314359Y78247343D01*
X36314359Y78247343D02*
X36338169Y78294962D01*
X36338169Y78294962D02*
X36385788Y78342581D01*
X36385788Y78342581D02*
X36457216Y78366391D01*
X36457216Y78366391D02*
X36504835Y78366391D01*
X36504835Y78366391D02*
X36576264Y78342581D01*
X36576264Y78342581D02*
X36600073Y78318772D01*
X36814359Y77866391D02*
X36814359Y78366391D01*
X36814359Y78128296D02*
X37100073Y78128296D01*
X37100073Y77866391D02*
X37100073Y78366391D01*
X37433407Y78366391D02*
X37528645Y78366391D01*
X37528645Y78366391D02*
X37576264Y78342581D01*
X37576264Y78342581D02*
X37623883Y78294962D01*
X37623883Y78294962D02*
X37647693Y78199724D01*
X37647693Y78199724D02*
X37647693Y78033058D01*
X37647693Y78033058D02*
X37623883Y77937820D01*
X37623883Y77937820D02*
X37576264Y77890200D01*
X37576264Y77890200D02*
X37528645Y77866391D01*
X37528645Y77866391D02*
X37433407Y77866391D01*
X37433407Y77866391D02*
X37385788Y77890200D01*
X37385788Y77890200D02*
X37338169Y77937820D01*
X37338169Y77937820D02*
X37314360Y78033058D01*
X37314360Y78033058D02*
X37314360Y78199724D01*
X37314360Y78199724D02*
X37338169Y78294962D01*
X37338169Y78294962D02*
X37385788Y78342581D01*
X37385788Y78342581D02*
X37433407Y78366391D01*
X37861979Y77866391D02*
X37861979Y78366391D01*
X38147693Y77866391D02*
X37933408Y78152105D01*
X38147693Y78366391D02*
X37861979Y78080677D01*
X38361979Y78128296D02*
X38528646Y78128296D01*
X38600074Y77866391D02*
X38361979Y77866391D01*
X38361979Y77866391D02*
X38361979Y78366391D01*
X38361979Y78366391D02*
X38600074Y78366391D01*
X-13089450Y54340248D02*
X-13165640Y54378343D01*
X-13165640Y54378343D02*
X-13203735Y54416439D01*
X-13203735Y54416439D02*
X-13241831Y54492629D01*
X-13241831Y54492629D02*
X-13241831Y54530724D01*
X-13241831Y54530724D02*
X-13203735Y54606915D01*
X-13203735Y54606915D02*
X-13165640Y54645010D01*
X-13165640Y54645010D02*
X-13089450Y54683105D01*
X-13089450Y54683105D02*
X-12937069Y54683105D01*
X-12937069Y54683105D02*
X-12860878Y54645010D01*
X-12860878Y54645010D02*
X-12822783Y54606915D01*
X-12822783Y54606915D02*
X-12784688Y54530724D01*
X-12784688Y54530724D02*
X-12784688Y54492629D01*
X-12784688Y54492629D02*
X-12822783Y54416439D01*
X-12822783Y54416439D02*
X-12860878Y54378343D01*
X-12860878Y54378343D02*
X-12937069Y54340248D01*
X-12937069Y54340248D02*
X-13089450Y54340248D01*
X-13089450Y54340248D02*
X-13165640Y54302153D01*
X-13165640Y54302153D02*
X-13203735Y54264058D01*
X-13203735Y54264058D02*
X-13241831Y54187867D01*
X-13241831Y54187867D02*
X-13241831Y54035486D01*
X-13241831Y54035486D02*
X-13203735Y53959296D01*
X-13203735Y53959296D02*
X-13165640Y53921200D01*
X-13165640Y53921200D02*
X-13089450Y53883105D01*
X-13089450Y53883105D02*
X-12937069Y53883105D01*
X-12937069Y53883105D02*
X-12860878Y53921200D01*
X-12860878Y53921200D02*
X-12822783Y53959296D01*
X-12822783Y53959296D02*
X-12784688Y54035486D01*
X-12784688Y54035486D02*
X-12784688Y54187867D01*
X-12784688Y54187867D02*
X-12822783Y54264058D01*
X-12822783Y54264058D02*
X-12860878Y54302153D01*
X-12860878Y54302153D02*
X-12937069Y54340248D01*
X-12441830Y53959296D02*
X-12403735Y53921200D01*
X-12403735Y53921200D02*
X-12441830Y53883105D01*
X-12441830Y53883105D02*
X-12479926Y53921200D01*
X-12479926Y53921200D02*
X-12441830Y53959296D01*
X-12441830Y53959296D02*
X-12441830Y53883105D01*
X-12441830Y54378343D02*
X-12403735Y54340248D01*
X-12403735Y54340248D02*
X-12441830Y54302153D01*
X-12441830Y54302153D02*
X-12479926Y54340248D01*
X-12479926Y54340248D02*
X-12441830Y54378343D01*
X-12441830Y54378343D02*
X-12441830Y54302153D01*
X-11641831Y53883105D02*
X-12098974Y53883105D01*
X-11870402Y53883105D02*
X-11870402Y54683105D01*
X-11870402Y54683105D02*
X-11946593Y54568820D01*
X-11946593Y54568820D02*
X-12022783Y54492629D01*
X-12022783Y54492629D02*
X-12098974Y54454534D01*
X-10689449Y53883105D02*
X-10689449Y54683105D01*
X-10689449Y54683105D02*
X-10422783Y54111677D01*
X-10422783Y54111677D02*
X-10156116Y54683105D01*
X-10156116Y54683105D02*
X-10156116Y53883105D01*
X-9775163Y54683105D02*
X-9775163Y54035486D01*
X-9775163Y54035486D02*
X-9737068Y53959296D01*
X-9737068Y53959296D02*
X-9698973Y53921200D01*
X-9698973Y53921200D02*
X-9622782Y53883105D01*
X-9622782Y53883105D02*
X-9470401Y53883105D01*
X-9470401Y53883105D02*
X-9394211Y53921200D01*
X-9394211Y53921200D02*
X-9356116Y53959296D01*
X-9356116Y53959296D02*
X-9318020Y54035486D01*
X-9318020Y54035486D02*
X-9318020Y54683105D01*
X-9013259Y54683105D02*
X-8479925Y53883105D01*
X-8479925Y54683105D02*
X-9013259Y53883105D01*
X-8213259Y54606915D02*
X-8175163Y54645010D01*
X-8175163Y54645010D02*
X-8098973Y54683105D01*
X-8098973Y54683105D02*
X-7908497Y54683105D01*
X-7908497Y54683105D02*
X-7832306Y54645010D01*
X-7832306Y54645010D02*
X-7794211Y54606915D01*
X-7794211Y54606915D02*
X-7756116Y54530724D01*
X-7756116Y54530724D02*
X-7756116Y54454534D01*
X-7756116Y54454534D02*
X-7794211Y54340248D01*
X-7794211Y54340248D02*
X-8251354Y53883105D01*
X-8251354Y53883105D02*
X-7756116Y53883105D01*
X-13109450Y114280248D02*
X-13185640Y114318343D01*
X-13185640Y114318343D02*
X-13223735Y114356439D01*
X-13223735Y114356439D02*
X-13261831Y114432629D01*
X-13261831Y114432629D02*
X-13261831Y114470724D01*
X-13261831Y114470724D02*
X-13223735Y114546915D01*
X-13223735Y114546915D02*
X-13185640Y114585010D01*
X-13185640Y114585010D02*
X-13109450Y114623105D01*
X-13109450Y114623105D02*
X-12957069Y114623105D01*
X-12957069Y114623105D02*
X-12880878Y114585010D01*
X-12880878Y114585010D02*
X-12842783Y114546915D01*
X-12842783Y114546915D02*
X-12804688Y114470724D01*
X-12804688Y114470724D02*
X-12804688Y114432629D01*
X-12804688Y114432629D02*
X-12842783Y114356439D01*
X-12842783Y114356439D02*
X-12880878Y114318343D01*
X-12880878Y114318343D02*
X-12957069Y114280248D01*
X-12957069Y114280248D02*
X-13109450Y114280248D01*
X-13109450Y114280248D02*
X-13185640Y114242153D01*
X-13185640Y114242153D02*
X-13223735Y114204058D01*
X-13223735Y114204058D02*
X-13261831Y114127867D01*
X-13261831Y114127867D02*
X-13261831Y113975486D01*
X-13261831Y113975486D02*
X-13223735Y113899296D01*
X-13223735Y113899296D02*
X-13185640Y113861200D01*
X-13185640Y113861200D02*
X-13109450Y113823105D01*
X-13109450Y113823105D02*
X-12957069Y113823105D01*
X-12957069Y113823105D02*
X-12880878Y113861200D01*
X-12880878Y113861200D02*
X-12842783Y113899296D01*
X-12842783Y113899296D02*
X-12804688Y113975486D01*
X-12804688Y113975486D02*
X-12804688Y114127867D01*
X-12804688Y114127867D02*
X-12842783Y114204058D01*
X-12842783Y114204058D02*
X-12880878Y114242153D01*
X-12880878Y114242153D02*
X-12957069Y114280248D01*
X-12461830Y113899296D02*
X-12423735Y113861200D01*
X-12423735Y113861200D02*
X-12461830Y113823105D01*
X-12461830Y113823105D02*
X-12499926Y113861200D01*
X-12499926Y113861200D02*
X-12461830Y113899296D01*
X-12461830Y113899296D02*
X-12461830Y113823105D01*
X-12461830Y114318343D02*
X-12423735Y114280248D01*
X-12423735Y114280248D02*
X-12461830Y114242153D01*
X-12461830Y114242153D02*
X-12499926Y114280248D01*
X-12499926Y114280248D02*
X-12461830Y114318343D01*
X-12461830Y114318343D02*
X-12461830Y114242153D01*
X-11661831Y113823105D02*
X-12118974Y113823105D01*
X-11890402Y113823105D02*
X-11890402Y114623105D01*
X-11890402Y114623105D02*
X-11966593Y114508820D01*
X-11966593Y114508820D02*
X-12042783Y114432629D01*
X-12042783Y114432629D02*
X-12118974Y114394534D01*
X-10709449Y113823105D02*
X-10709449Y114623105D01*
X-10709449Y114623105D02*
X-10442783Y114051677D01*
X-10442783Y114051677D02*
X-10176116Y114623105D01*
X-10176116Y114623105D02*
X-10176116Y113823105D01*
X-9795163Y114623105D02*
X-9795163Y113975486D01*
X-9795163Y113975486D02*
X-9757068Y113899296D01*
X-9757068Y113899296D02*
X-9718973Y113861200D01*
X-9718973Y113861200D02*
X-9642782Y113823105D01*
X-9642782Y113823105D02*
X-9490401Y113823105D01*
X-9490401Y113823105D02*
X-9414211Y113861200D01*
X-9414211Y113861200D02*
X-9376116Y113899296D01*
X-9376116Y113899296D02*
X-9338020Y113975486D01*
X-9338020Y113975486D02*
X-9338020Y114623105D01*
X-9033259Y114623105D02*
X-8499925Y113823105D01*
X-8499925Y114623105D02*
X-9033259Y113823105D01*
X-7776116Y113823105D02*
X-8233259Y113823105D01*
X-8004687Y113823105D02*
X-8004687Y114623105D01*
X-8004687Y114623105D02*
X-8080878Y114508820D01*
X-8080878Y114508820D02*
X-8157068Y114432629D01*
X-8157068Y114432629D02*
X-8233259Y114394534D01*
X-9739450Y90066391D02*
X-9906116Y90304486D01*
X-10025164Y90066391D02*
X-10025164Y90566391D01*
X-10025164Y90566391D02*
X-9834688Y90566391D01*
X-9834688Y90566391D02*
X-9787069Y90542581D01*
X-9787069Y90542581D02*
X-9763259Y90518772D01*
X-9763259Y90518772D02*
X-9739450Y90471153D01*
X-9739450Y90471153D02*
X-9739450Y90399724D01*
X-9739450Y90399724D02*
X-9763259Y90352105D01*
X-9763259Y90352105D02*
X-9787069Y90328296D01*
X-9787069Y90328296D02*
X-9834688Y90304486D01*
X-9834688Y90304486D02*
X-10025164Y90304486D01*
X-9525164Y90066391D02*
X-9525164Y90566391D01*
X-9310878Y90090200D02*
X-9239450Y90066391D01*
X-9239450Y90066391D02*
X-9120402Y90066391D01*
X-9120402Y90066391D02*
X-9072783Y90090200D01*
X-9072783Y90090200D02*
X-9048974Y90114010D01*
X-9048974Y90114010D02*
X-9025164Y90161629D01*
X-9025164Y90161629D02*
X-9025164Y90209248D01*
X-9025164Y90209248D02*
X-9048974Y90256867D01*
X-9048974Y90256867D02*
X-9072783Y90280677D01*
X-9072783Y90280677D02*
X-9120402Y90304486D01*
X-9120402Y90304486D02*
X-9215640Y90328296D01*
X-9215640Y90328296D02*
X-9263259Y90352105D01*
X-9263259Y90352105D02*
X-9287069Y90375915D01*
X-9287069Y90375915D02*
X-9310878Y90423534D01*
X-9310878Y90423534D02*
X-9310878Y90471153D01*
X-9310878Y90471153D02*
X-9287069Y90518772D01*
X-9287069Y90518772D02*
X-9263259Y90542581D01*
X-9263259Y90542581D02*
X-9215640Y90566391D01*
X-9215640Y90566391D02*
X-9096593Y90566391D01*
X-9096593Y90566391D02*
X-9025164Y90542581D01*
X-8715641Y90566391D02*
X-8620403Y90566391D01*
X-8620403Y90566391D02*
X-8572784Y90542581D01*
X-8572784Y90542581D02*
X-8525165Y90494962D01*
X-8525165Y90494962D02*
X-8501355Y90399724D01*
X-8501355Y90399724D02*
X-8501355Y90233058D01*
X-8501355Y90233058D02*
X-8525165Y90137820D01*
X-8525165Y90137820D02*
X-8572784Y90090200D01*
X-8572784Y90090200D02*
X-8620403Y90066391D01*
X-8620403Y90066391D02*
X-8715641Y90066391D01*
X-8715641Y90066391D02*
X-8763260Y90090200D01*
X-8763260Y90090200D02*
X-8810879Y90137820D01*
X-8810879Y90137820D02*
X-8834688Y90233058D01*
X-8834688Y90233058D02*
X-8834688Y90399724D01*
X-8834688Y90399724D02*
X-8810879Y90494962D01*
X-8810879Y90494962D02*
X-8763260Y90542581D01*
X-8763260Y90542581D02*
X-8715641Y90566391D01*
X-11421831Y91221200D02*
X-11307545Y91183105D01*
X-11307545Y91183105D02*
X-11117069Y91183105D01*
X-11117069Y91183105D02*
X-11040878Y91221200D01*
X-11040878Y91221200D02*
X-11002783Y91259296D01*
X-11002783Y91259296D02*
X-10964688Y91335486D01*
X-10964688Y91335486D02*
X-10964688Y91411677D01*
X-10964688Y91411677D02*
X-11002783Y91487867D01*
X-11002783Y91487867D02*
X-11040878Y91525962D01*
X-11040878Y91525962D02*
X-11117069Y91564058D01*
X-11117069Y91564058D02*
X-11269450Y91602153D01*
X-11269450Y91602153D02*
X-11345640Y91640248D01*
X-11345640Y91640248D02*
X-11383735Y91678343D01*
X-11383735Y91678343D02*
X-11421831Y91754534D01*
X-11421831Y91754534D02*
X-11421831Y91830724D01*
X-11421831Y91830724D02*
X-11383735Y91906915D01*
X-11383735Y91906915D02*
X-11345640Y91945010D01*
X-11345640Y91945010D02*
X-11269450Y91983105D01*
X-11269450Y91983105D02*
X-11078973Y91983105D01*
X-11078973Y91983105D02*
X-10964688Y91945010D01*
X-10202783Y91945010D02*
X-10278973Y91983105D01*
X-10278973Y91983105D02*
X-10393259Y91983105D01*
X-10393259Y91983105D02*
X-10507545Y91945010D01*
X-10507545Y91945010D02*
X-10583735Y91868820D01*
X-10583735Y91868820D02*
X-10621830Y91792629D01*
X-10621830Y91792629D02*
X-10659926Y91640248D01*
X-10659926Y91640248D02*
X-10659926Y91525962D01*
X-10659926Y91525962D02*
X-10621830Y91373581D01*
X-10621830Y91373581D02*
X-10583735Y91297391D01*
X-10583735Y91297391D02*
X-10507545Y91221200D01*
X-10507545Y91221200D02*
X-10393259Y91183105D01*
X-10393259Y91183105D02*
X-10317068Y91183105D01*
X-10317068Y91183105D02*
X-10202783Y91221200D01*
X-10202783Y91221200D02*
X-10164687Y91259296D01*
X-10164687Y91259296D02*
X-10164687Y91525962D01*
X-10164687Y91525962D02*
X-10317068Y91525962D01*
X-9821830Y91183105D02*
X-9821830Y91983105D01*
X-9821830Y91983105D02*
X-9364687Y91183105D01*
X-9364687Y91183105D02*
X-9364687Y91983105D01*
X-8983735Y91183105D02*
X-8983735Y91983105D01*
X-8983735Y91983105D02*
X-8793259Y91983105D01*
X-8793259Y91983105D02*
X-8678973Y91945010D01*
X-8678973Y91945010D02*
X-8602783Y91868820D01*
X-8602783Y91868820D02*
X-8564688Y91792629D01*
X-8564688Y91792629D02*
X-8526592Y91640248D01*
X-8526592Y91640248D02*
X-8526592Y91525962D01*
X-8526592Y91525962D02*
X-8564688Y91373581D01*
X-8564688Y91373581D02*
X-8602783Y91297391D01*
X-8602783Y91297391D02*
X-8678973Y91221200D01*
X-8678973Y91221200D02*
X-8793259Y91183105D01*
X-8793259Y91183105D02*
X-8983735Y91183105D01*
X-7612307Y91411677D02*
X-7231354Y91411677D01*
X-7688497Y91183105D02*
X-7421830Y91983105D01*
X-7421830Y91983105D02*
X-7155164Y91183105D01*
X-6888497Y91183105D02*
X-6888497Y91983105D01*
X-6888497Y91983105D02*
X-6698021Y91983105D01*
X-6698021Y91983105D02*
X-6583735Y91945010D01*
X-6583735Y91945010D02*
X-6507545Y91868820D01*
X-6507545Y91868820D02*
X-6469450Y91792629D01*
X-6469450Y91792629D02*
X-6431354Y91640248D01*
X-6431354Y91640248D02*
X-6431354Y91525962D01*
X-6431354Y91525962D02*
X-6469450Y91373581D01*
X-6469450Y91373581D02*
X-6507545Y91297391D01*
X-6507545Y91297391D02*
X-6583735Y91221200D01*
X-6583735Y91221200D02*
X-6698021Y91183105D01*
X-6698021Y91183105D02*
X-6888497Y91183105D01*
X-5631354Y91259296D02*
X-5669450Y91221200D01*
X-5669450Y91221200D02*
X-5783735Y91183105D01*
X-5783735Y91183105D02*
X-5859926Y91183105D01*
X-5859926Y91183105D02*
X-5974212Y91221200D01*
X-5974212Y91221200D02*
X-6050402Y91297391D01*
X-6050402Y91297391D02*
X-6088497Y91373581D01*
X-6088497Y91373581D02*
X-6126593Y91525962D01*
X-6126593Y91525962D02*
X-6126593Y91640248D01*
X-6126593Y91640248D02*
X-6088497Y91792629D01*
X-6088497Y91792629D02*
X-6050402Y91868820D01*
X-6050402Y91868820D02*
X-5974212Y91945010D01*
X-5974212Y91945010D02*
X-5859926Y91983105D01*
X-5859926Y91983105D02*
X-5783735Y91983105D01*
X-5783735Y91983105D02*
X-5669450Y91945010D01*
X-5669450Y91945010D02*
X-5631354Y91906915D01*
D11*
X5268821Y84382160D02*
X5325964Y84363113D01*
X5325964Y84363113D02*
X5421202Y84363113D01*
X5421202Y84363113D02*
X5459297Y84382160D01*
X5459297Y84382160D02*
X5478345Y84401208D01*
X5478345Y84401208D02*
X5497392Y84439303D01*
X5497392Y84439303D02*
X5497392Y84477399D01*
X5497392Y84477399D02*
X5478345Y84515494D01*
X5478345Y84515494D02*
X5459297Y84534541D01*
X5459297Y84534541D02*
X5421202Y84553589D01*
X5421202Y84553589D02*
X5345011Y84572637D01*
X5345011Y84572637D02*
X5306916Y84591684D01*
X5306916Y84591684D02*
X5287869Y84610732D01*
X5287869Y84610732D02*
X5268821Y84648827D01*
X5268821Y84648827D02*
X5268821Y84686922D01*
X5268821Y84686922D02*
X5287869Y84725018D01*
X5287869Y84725018D02*
X5306916Y84744065D01*
X5306916Y84744065D02*
X5345011Y84763113D01*
X5345011Y84763113D02*
X5440250Y84763113D01*
X5440250Y84763113D02*
X5497392Y84744065D01*
X5878344Y84744065D02*
X5840249Y84763113D01*
X5840249Y84763113D02*
X5783106Y84763113D01*
X5783106Y84763113D02*
X5725963Y84744065D01*
X5725963Y84744065D02*
X5687868Y84705970D01*
X5687868Y84705970D02*
X5668821Y84667875D01*
X5668821Y84667875D02*
X5649773Y84591684D01*
X5649773Y84591684D02*
X5649773Y84534541D01*
X5649773Y84534541D02*
X5668821Y84458351D01*
X5668821Y84458351D02*
X5687868Y84420256D01*
X5687868Y84420256D02*
X5725963Y84382160D01*
X5725963Y84382160D02*
X5783106Y84363113D01*
X5783106Y84363113D02*
X5821202Y84363113D01*
X5821202Y84363113D02*
X5878344Y84382160D01*
X5878344Y84382160D02*
X5897392Y84401208D01*
X5897392Y84401208D02*
X5897392Y84534541D01*
X5897392Y84534541D02*
X5821202Y84534541D01*
X6068821Y84363113D02*
X6068821Y84763113D01*
X6068821Y84763113D02*
X6297392Y84363113D01*
X6297392Y84363113D02*
X6297392Y84763113D01*
X6487869Y84363113D02*
X6487869Y84763113D01*
X6487869Y84763113D02*
X6583107Y84763113D01*
X6583107Y84763113D02*
X6640250Y84744065D01*
X6640250Y84744065D02*
X6678345Y84705970D01*
X6678345Y84705970D02*
X6697392Y84667875D01*
X6697392Y84667875D02*
X6716440Y84591684D01*
X6716440Y84591684D02*
X6716440Y84534541D01*
X6716440Y84534541D02*
X6697392Y84458351D01*
X6697392Y84458351D02*
X6678345Y84420256D01*
X6678345Y84420256D02*
X6640250Y84382160D01*
X6640250Y84382160D02*
X6583107Y84363113D01*
X6583107Y84363113D02*
X6487869Y84363113D01*
X6868821Y84725018D02*
X6887869Y84744065D01*
X6887869Y84744065D02*
X6925964Y84763113D01*
X6925964Y84763113D02*
X7021202Y84763113D01*
X7021202Y84763113D02*
X7059297Y84744065D01*
X7059297Y84744065D02*
X7078345Y84725018D01*
X7078345Y84725018D02*
X7097392Y84686922D01*
X7097392Y84686922D02*
X7097392Y84648827D01*
X7097392Y84648827D02*
X7078345Y84591684D01*
X7078345Y84591684D02*
X6849773Y84363113D01*
X6849773Y84363113D02*
X7097392Y84363113D01*
X39034064Y82112608D02*
X39053112Y82150703D01*
X39053112Y82150703D02*
X39053112Y82207846D01*
X39053112Y82207846D02*
X39034064Y82264989D01*
X39034064Y82264989D02*
X38995969Y82303084D01*
X38995969Y82303084D02*
X38957874Y82322131D01*
X38957874Y82322131D02*
X38881683Y82341179D01*
X38881683Y82341179D02*
X38824540Y82341179D01*
X38824540Y82341179D02*
X38748350Y82322131D01*
X38748350Y82322131D02*
X38710255Y82303084D01*
X38710255Y82303084D02*
X38672160Y82264989D01*
X38672160Y82264989D02*
X38653112Y82207846D01*
X38653112Y82207846D02*
X38653112Y82169750D01*
X38653112Y82169750D02*
X38672160Y82112608D01*
X38672160Y82112608D02*
X38691207Y82093560D01*
X38691207Y82093560D02*
X38824540Y82093560D01*
X38824540Y82093560D02*
X38824540Y82169750D01*
X38653112Y81922131D02*
X39053112Y81922131D01*
X39053112Y81922131D02*
X38653112Y81693560D01*
X38653112Y81693560D02*
X39053112Y81693560D01*
X38653112Y81503083D02*
X39053112Y81503083D01*
X39053112Y81503083D02*
X39053112Y81407845D01*
X39053112Y81407845D02*
X39034064Y81350702D01*
X39034064Y81350702D02*
X38995969Y81312607D01*
X38995969Y81312607D02*
X38957874Y81293560D01*
X38957874Y81293560D02*
X38881683Y81274512D01*
X38881683Y81274512D02*
X38824540Y81274512D01*
X38824540Y81274512D02*
X38748350Y81293560D01*
X38748350Y81293560D02*
X38710255Y81312607D01*
X38710255Y81312607D02*
X38672160Y81350702D01*
X38672160Y81350702D02*
X38653112Y81407845D01*
X38653112Y81407845D02*
X38653112Y81503083D01*
D13*
X-21819856Y133702310D02*
X-22105570Y133702310D01*
X-21962713Y134202310D02*
X-21962713Y133702310D01*
X-22272236Y134202310D02*
X-22272236Y133702310D01*
X-22272236Y133702310D02*
X-22462712Y133702310D01*
X-22462712Y133702310D02*
X-22510331Y133726120D01*
X-22510331Y133726120D02*
X-22534141Y133749929D01*
X-22534141Y133749929D02*
X-22557950Y133797548D01*
X-22557950Y133797548D02*
X-22557950Y133868977D01*
X-22557950Y133868977D02*
X-22534141Y133916596D01*
X-22534141Y133916596D02*
X-22510331Y133940405D01*
X-22510331Y133940405D02*
X-22462712Y133964215D01*
X-22462712Y133964215D02*
X-22272236Y133964215D01*
X-22748427Y133749929D02*
X-22772236Y133726120D01*
X-22772236Y133726120D02*
X-22819855Y133702310D01*
X-22819855Y133702310D02*
X-22938903Y133702310D01*
X-22938903Y133702310D02*
X-22986522Y133726120D01*
X-22986522Y133726120D02*
X-23010331Y133749929D01*
X-23010331Y133749929D02*
X-23034141Y133797548D01*
X-23034141Y133797548D02*
X-23034141Y133845167D01*
X-23034141Y133845167D02*
X-23010331Y133916596D01*
X-23010331Y133916596D02*
X-22724617Y134202310D01*
X-22724617Y134202310D02*
X-23034141Y134202310D01*
D11*
X9187392Y78904065D02*
X9149297Y78923113D01*
X9149297Y78923113D02*
X9092154Y78923113D01*
X9092154Y78923113D02*
X9035011Y78904065D01*
X9035011Y78904065D02*
X8996916Y78865970D01*
X8996916Y78865970D02*
X8977869Y78827875D01*
X8977869Y78827875D02*
X8958821Y78751684D01*
X8958821Y78751684D02*
X8958821Y78694541D01*
X8958821Y78694541D02*
X8977869Y78618351D01*
X8977869Y78618351D02*
X8996916Y78580256D01*
X8996916Y78580256D02*
X9035011Y78542160D01*
X9035011Y78542160D02*
X9092154Y78523113D01*
X9092154Y78523113D02*
X9130250Y78523113D01*
X9130250Y78523113D02*
X9187392Y78542160D01*
X9187392Y78542160D02*
X9206440Y78561208D01*
X9206440Y78561208D02*
X9206440Y78694541D01*
X9206440Y78694541D02*
X9130250Y78694541D01*
X9377869Y78523113D02*
X9377869Y78923113D01*
X9377869Y78923113D02*
X9606440Y78523113D01*
X9606440Y78523113D02*
X9606440Y78923113D01*
X9796917Y78523113D02*
X9796917Y78923113D01*
X9796917Y78923113D02*
X9892155Y78923113D01*
X9892155Y78923113D02*
X9949298Y78904065D01*
X9949298Y78904065D02*
X9987393Y78865970D01*
X9987393Y78865970D02*
X10006440Y78827875D01*
X10006440Y78827875D02*
X10025488Y78751684D01*
X10025488Y78751684D02*
X10025488Y78694541D01*
X10025488Y78694541D02*
X10006440Y78618351D01*
X10006440Y78618351D02*
X9987393Y78580256D01*
X9987393Y78580256D02*
X9949298Y78542160D01*
X9949298Y78542160D02*
X9892155Y78523113D01*
X9892155Y78523113D02*
X9796917Y78523113D01*
X17847392Y75943113D02*
X17618821Y75943113D01*
X17733107Y75943113D02*
X17733107Y76343113D01*
X17733107Y76343113D02*
X17695011Y76285970D01*
X17695011Y76285970D02*
X17656916Y76247875D01*
X17656916Y76247875D02*
X17618821Y76228827D01*
X17961678Y76343113D02*
X18095011Y75943113D01*
X18095011Y75943113D02*
X18228344Y76343113D01*
X18418820Y76171684D02*
X18380725Y76190732D01*
X18380725Y76190732D02*
X18361678Y76209780D01*
X18361678Y76209780D02*
X18342630Y76247875D01*
X18342630Y76247875D02*
X18342630Y76266922D01*
X18342630Y76266922D02*
X18361678Y76305018D01*
X18361678Y76305018D02*
X18380725Y76324065D01*
X18380725Y76324065D02*
X18418820Y76343113D01*
X18418820Y76343113D02*
X18495011Y76343113D01*
X18495011Y76343113D02*
X18533106Y76324065D01*
X18533106Y76324065D02*
X18552154Y76305018D01*
X18552154Y76305018D02*
X18571201Y76266922D01*
X18571201Y76266922D02*
X18571201Y76247875D01*
X18571201Y76247875D02*
X18552154Y76209780D01*
X18552154Y76209780D02*
X18533106Y76190732D01*
X18533106Y76190732D02*
X18495011Y76171684D01*
X18495011Y76171684D02*
X18418820Y76171684D01*
X18418820Y76171684D02*
X18380725Y76152637D01*
X18380725Y76152637D02*
X18361678Y76133589D01*
X18361678Y76133589D02*
X18342630Y76095494D01*
X18342630Y76095494D02*
X18342630Y76019303D01*
X18342630Y76019303D02*
X18361678Y75981208D01*
X18361678Y75981208D02*
X18380725Y75962160D01*
X18380725Y75962160D02*
X18418820Y75943113D01*
X18418820Y75943113D02*
X18495011Y75943113D01*
X18495011Y75943113D02*
X18533106Y75962160D01*
X18533106Y75962160D02*
X18552154Y75981208D01*
X18552154Y75981208D02*
X18571201Y76019303D01*
X18571201Y76019303D02*
X18571201Y76095494D01*
X18571201Y76095494D02*
X18552154Y76133589D01*
X18552154Y76133589D02*
X18533106Y76152637D01*
X18533106Y76152637D02*
X18495011Y76171684D01*
D10*
X39206265Y87483105D02*
X39206265Y88283105D01*
X39206265Y88283105D02*
X39511027Y88283105D01*
X39511027Y88283105D02*
X39587217Y88245010D01*
X39587217Y88245010D02*
X39625312Y88206915D01*
X39625312Y88206915D02*
X39663408Y88130724D01*
X39663408Y88130724D02*
X39663408Y88016439D01*
X39663408Y88016439D02*
X39625312Y87940248D01*
X39625312Y87940248D02*
X39587217Y87902153D01*
X39587217Y87902153D02*
X39511027Y87864058D01*
X39511027Y87864058D02*
X39206265Y87864058D01*
X40158646Y88283105D02*
X40311027Y88283105D01*
X40311027Y88283105D02*
X40387217Y88245010D01*
X40387217Y88245010D02*
X40463408Y88168820D01*
X40463408Y88168820D02*
X40501503Y88016439D01*
X40501503Y88016439D02*
X40501503Y87749772D01*
X40501503Y87749772D02*
X40463408Y87597391D01*
X40463408Y87597391D02*
X40387217Y87521200D01*
X40387217Y87521200D02*
X40311027Y87483105D01*
X40311027Y87483105D02*
X40158646Y87483105D01*
X40158646Y87483105D02*
X40082455Y87521200D01*
X40082455Y87521200D02*
X40006265Y87597391D01*
X40006265Y87597391D02*
X39968169Y87749772D01*
X39968169Y87749772D02*
X39968169Y88016439D01*
X39968169Y88016439D02*
X40006265Y88168820D01*
X40006265Y88168820D02*
X40082455Y88245010D01*
X40082455Y88245010D02*
X40158646Y88283105D01*
X40768169Y88283105D02*
X40958645Y87483105D01*
X40958645Y87483105D02*
X41111026Y88054534D01*
X41111026Y88054534D02*
X41263407Y87483105D01*
X41263407Y87483105D02*
X41453884Y88283105D01*
X41758646Y87902153D02*
X42025312Y87902153D01*
X42139598Y87483105D02*
X41758646Y87483105D01*
X41758646Y87483105D02*
X41758646Y88283105D01*
X41758646Y88283105D02*
X42139598Y88283105D01*
X42939599Y87483105D02*
X42672932Y87864058D01*
X42482456Y87483105D02*
X42482456Y88283105D01*
X42482456Y88283105D02*
X42787218Y88283105D01*
X42787218Y88283105D02*
X42863408Y88245010D01*
X42863408Y88245010D02*
X42901503Y88206915D01*
X42901503Y88206915D02*
X42939599Y88130724D01*
X42939599Y88130724D02*
X42939599Y88016439D01*
X42939599Y88016439D02*
X42901503Y87940248D01*
X42901503Y87940248D02*
X42863408Y87902153D01*
X42863408Y87902153D02*
X42787218Y87864058D01*
X42787218Y87864058D02*
X42482456Y87864058D01*
X-10771831Y77706915D02*
X-10733735Y77745010D01*
X-10733735Y77745010D02*
X-10657545Y77783105D01*
X-10657545Y77783105D02*
X-10467069Y77783105D01*
X-10467069Y77783105D02*
X-10390878Y77745010D01*
X-10390878Y77745010D02*
X-10352783Y77706915D01*
X-10352783Y77706915D02*
X-10314688Y77630724D01*
X-10314688Y77630724D02*
X-10314688Y77554534D01*
X-10314688Y77554534D02*
X-10352783Y77440248D01*
X-10352783Y77440248D02*
X-10809926Y76983105D01*
X-10809926Y76983105D02*
X-10314688Y76983105D01*
X-9971830Y77059296D02*
X-9933735Y77021200D01*
X-9933735Y77021200D02*
X-9971830Y76983105D01*
X-9971830Y76983105D02*
X-10009926Y77021200D01*
X-10009926Y77021200D02*
X-9971830Y77059296D01*
X-9971830Y77059296D02*
X-9971830Y76983105D01*
X-9971830Y77478343D02*
X-9933735Y77440248D01*
X-9933735Y77440248D02*
X-9971830Y77402153D01*
X-9971830Y77402153D02*
X-10009926Y77440248D01*
X-10009926Y77440248D02*
X-9971830Y77478343D01*
X-9971830Y77478343D02*
X-9971830Y77402153D01*
X-9171831Y76983105D02*
X-9628974Y76983105D01*
X-9400402Y76983105D02*
X-9400402Y77783105D01*
X-9400402Y77783105D02*
X-9476593Y77668820D01*
X-9476593Y77668820D02*
X-9552783Y77592629D01*
X-9552783Y77592629D02*
X-9628974Y77554534D01*
X-8219449Y76983105D02*
X-8219449Y77783105D01*
X-8219449Y77783105D02*
X-7952783Y77211677D01*
X-7952783Y77211677D02*
X-7686116Y77783105D01*
X-7686116Y77783105D02*
X-7686116Y76983105D01*
X-7305163Y77783105D02*
X-7305163Y77135486D01*
X-7305163Y77135486D02*
X-7267068Y77059296D01*
X-7267068Y77059296D02*
X-7228973Y77021200D01*
X-7228973Y77021200D02*
X-7152782Y76983105D01*
X-7152782Y76983105D02*
X-7000401Y76983105D01*
X-7000401Y76983105D02*
X-6924211Y77021200D01*
X-6924211Y77021200D02*
X-6886116Y77059296D01*
X-6886116Y77059296D02*
X-6848020Y77135486D01*
X-6848020Y77135486D02*
X-6848020Y77783105D01*
X-6543259Y77783105D02*
X-6009925Y76983105D01*
X-6009925Y77783105D02*
X-6543259Y76983105D01*
D12*
X-9785864Y143717220D02*
X-9309674Y143717220D01*
X-9309674Y143717220D02*
X-9309674Y142717220D01*
X-10119198Y143193410D02*
X-10452531Y143193410D01*
X-10595388Y143717220D02*
X-10119198Y143717220D01*
X-10119198Y143717220D02*
X-10119198Y142717220D01*
X-10119198Y142717220D02*
X-10595388Y142717220D01*
X-11023960Y143717220D02*
X-11023960Y142717220D01*
X-11023960Y142717220D02*
X-11262055Y142717220D01*
X-11262055Y142717220D02*
X-11404912Y142764839D01*
X-11404912Y142764839D02*
X-11500150Y142860077D01*
X-11500150Y142860077D02*
X-11547769Y142955315D01*
X-11547769Y142955315D02*
X-11595388Y143145791D01*
X-11595388Y143145791D02*
X-11595388Y143288648D01*
X-11595388Y143288648D02*
X-11547769Y143479124D01*
X-11547769Y143479124D02*
X-11500150Y143574362D01*
X-11500150Y143574362D02*
X-11404912Y143669600D01*
X-11404912Y143669600D02*
X-11262055Y143717220D01*
X-11262055Y143717220D02*
X-11023960Y143717220D01*
D10*
X-26281831Y77601677D02*
X-25900878Y77601677D01*
X-26358021Y77373105D02*
X-26091354Y78173105D01*
X-26091354Y78173105D02*
X-25824688Y77373105D01*
X-25558021Y77373105D02*
X-25558021Y78173105D01*
X-25558021Y78173105D02*
X-25367545Y78173105D01*
X-25367545Y78173105D02*
X-25253259Y78135010D01*
X-25253259Y78135010D02*
X-25177069Y78058820D01*
X-25177069Y78058820D02*
X-25138974Y77982629D01*
X-25138974Y77982629D02*
X-25100878Y77830248D01*
X-25100878Y77830248D02*
X-25100878Y77715962D01*
X-25100878Y77715962D02*
X-25138974Y77563581D01*
X-25138974Y77563581D02*
X-25177069Y77487391D01*
X-25177069Y77487391D02*
X-25253259Y77411200D01*
X-25253259Y77411200D02*
X-25367545Y77373105D01*
X-25367545Y77373105D02*
X-25558021Y77373105D01*
X-24300878Y77449296D02*
X-24338974Y77411200D01*
X-24338974Y77411200D02*
X-24453259Y77373105D01*
X-24453259Y77373105D02*
X-24529450Y77373105D01*
X-24529450Y77373105D02*
X-24643736Y77411200D01*
X-24643736Y77411200D02*
X-24719926Y77487391D01*
X-24719926Y77487391D02*
X-24758021Y77563581D01*
X-24758021Y77563581D02*
X-24796117Y77715962D01*
X-24796117Y77715962D02*
X-24796117Y77830248D01*
X-24796117Y77830248D02*
X-24758021Y77982629D01*
X-24758021Y77982629D02*
X-24719926Y78058820D01*
X-24719926Y78058820D02*
X-24643736Y78135010D01*
X-24643736Y78135010D02*
X-24529450Y78173105D01*
X-24529450Y78173105D02*
X-24453259Y78173105D01*
X-24453259Y78173105D02*
X-24338974Y78135010D01*
X-24338974Y78135010D02*
X-24300878Y78096915D01*
D11*
X6247392Y81304065D02*
X6209297Y81323113D01*
X6209297Y81323113D02*
X6152154Y81323113D01*
X6152154Y81323113D02*
X6095011Y81304065D01*
X6095011Y81304065D02*
X6056916Y81265970D01*
X6056916Y81265970D02*
X6037869Y81227875D01*
X6037869Y81227875D02*
X6018821Y81151684D01*
X6018821Y81151684D02*
X6018821Y81094541D01*
X6018821Y81094541D02*
X6037869Y81018351D01*
X6037869Y81018351D02*
X6056916Y80980256D01*
X6056916Y80980256D02*
X6095011Y80942160D01*
X6095011Y80942160D02*
X6152154Y80923113D01*
X6152154Y80923113D02*
X6190250Y80923113D01*
X6190250Y80923113D02*
X6247392Y80942160D01*
X6247392Y80942160D02*
X6266440Y80961208D01*
X6266440Y80961208D02*
X6266440Y81094541D01*
X6266440Y81094541D02*
X6190250Y81094541D01*
X6437869Y80923113D02*
X6437869Y81323113D01*
X6437869Y81323113D02*
X6666440Y80923113D01*
X6666440Y80923113D02*
X6666440Y81323113D01*
X6856917Y80923113D02*
X6856917Y81323113D01*
X6856917Y81323113D02*
X6952155Y81323113D01*
X6952155Y81323113D02*
X7009298Y81304065D01*
X7009298Y81304065D02*
X7047393Y81265970D01*
X7047393Y81265970D02*
X7066440Y81227875D01*
X7066440Y81227875D02*
X7085488Y81151684D01*
X7085488Y81151684D02*
X7085488Y81094541D01*
X7085488Y81094541D02*
X7066440Y81018351D01*
X7066440Y81018351D02*
X7047393Y80980256D01*
X7047393Y80980256D02*
X7009298Y80942160D01*
X7009298Y80942160D02*
X6952155Y80923113D01*
X6952155Y80923113D02*
X6856917Y80923113D01*
X15033112Y83225941D02*
X15033112Y83187846D01*
X15033112Y83187846D02*
X15014064Y83149750D01*
X15014064Y83149750D02*
X14995017Y83130703D01*
X14995017Y83130703D02*
X14956921Y83111655D01*
X14956921Y83111655D02*
X14880731Y83092608D01*
X14880731Y83092608D02*
X14785493Y83092608D01*
X14785493Y83092608D02*
X14709302Y83111655D01*
X14709302Y83111655D02*
X14671207Y83130703D01*
X14671207Y83130703D02*
X14652160Y83149750D01*
X14652160Y83149750D02*
X14633112Y83187846D01*
X14633112Y83187846D02*
X14633112Y83225941D01*
X14633112Y83225941D02*
X14652160Y83264036D01*
X14652160Y83264036D02*
X14671207Y83283084D01*
X14671207Y83283084D02*
X14709302Y83302131D01*
X14709302Y83302131D02*
X14785493Y83321179D01*
X14785493Y83321179D02*
X14880731Y83321179D01*
X14880731Y83321179D02*
X14956921Y83302131D01*
X14956921Y83302131D02*
X14995017Y83283084D01*
X14995017Y83283084D02*
X15014064Y83264036D01*
X15014064Y83264036D02*
X15033112Y83225941D01*
X15033112Y82978322D02*
X14633112Y82844989D01*
X14633112Y82844989D02*
X15033112Y82711656D01*
X14633112Y82559275D02*
X14633112Y82483084D01*
X14633112Y82483084D02*
X14652160Y82444989D01*
X14652160Y82444989D02*
X14671207Y82425941D01*
X14671207Y82425941D02*
X14728350Y82387846D01*
X14728350Y82387846D02*
X14804540Y82368799D01*
X14804540Y82368799D02*
X14956921Y82368799D01*
X14956921Y82368799D02*
X14995017Y82387846D01*
X14995017Y82387846D02*
X15014064Y82406894D01*
X15014064Y82406894D02*
X15033112Y82444989D01*
X15033112Y82444989D02*
X15033112Y82521180D01*
X15033112Y82521180D02*
X15014064Y82559275D01*
X15014064Y82559275D02*
X14995017Y82578322D01*
X14995017Y82578322D02*
X14956921Y82597370D01*
X14956921Y82597370D02*
X14861683Y82597370D01*
X14861683Y82597370D02*
X14823588Y82578322D01*
X14823588Y82578322D02*
X14804540Y82559275D01*
X14804540Y82559275D02*
X14785493Y82521180D01*
X14785493Y82521180D02*
X14785493Y82444989D01*
X14785493Y82444989D02*
X14804540Y82406894D01*
X14804540Y82406894D02*
X14823588Y82387846D01*
X14823588Y82387846D02*
X14861683Y82368799D01*
X35383112Y82199274D02*
X34983112Y82065941D01*
X34983112Y82065941D02*
X35383112Y81932608D01*
X34983112Y81799274D02*
X35249779Y81799274D01*
X35383112Y81799274D02*
X35364064Y81818322D01*
X35364064Y81818322D02*
X35345017Y81799274D01*
X35345017Y81799274D02*
X35364064Y81780227D01*
X35364064Y81780227D02*
X35383112Y81799274D01*
X35383112Y81799274D02*
X35345017Y81799274D01*
X35249779Y81608798D02*
X34983112Y81608798D01*
X35211683Y81608798D02*
X35230731Y81589751D01*
X35230731Y81589751D02*
X35249779Y81551656D01*
X35249779Y81551656D02*
X35249779Y81494513D01*
X35249779Y81494513D02*
X35230731Y81456417D01*
X35230731Y81456417D02*
X35192636Y81437370D01*
X35192636Y81437370D02*
X34983112Y81437370D01*
X4867392Y79624065D02*
X4829297Y79643113D01*
X4829297Y79643113D02*
X4772154Y79643113D01*
X4772154Y79643113D02*
X4715011Y79624065D01*
X4715011Y79624065D02*
X4676916Y79585970D01*
X4676916Y79585970D02*
X4657869Y79547875D01*
X4657869Y79547875D02*
X4638821Y79471684D01*
X4638821Y79471684D02*
X4638821Y79414541D01*
X4638821Y79414541D02*
X4657869Y79338351D01*
X4657869Y79338351D02*
X4676916Y79300256D01*
X4676916Y79300256D02*
X4715011Y79262160D01*
X4715011Y79262160D02*
X4772154Y79243113D01*
X4772154Y79243113D02*
X4810250Y79243113D01*
X4810250Y79243113D02*
X4867392Y79262160D01*
X4867392Y79262160D02*
X4886440Y79281208D01*
X4886440Y79281208D02*
X4886440Y79414541D01*
X4886440Y79414541D02*
X4810250Y79414541D01*
X5057869Y79243113D02*
X5057869Y79643113D01*
X5057869Y79643113D02*
X5286440Y79243113D01*
X5286440Y79243113D02*
X5286440Y79643113D01*
X5476917Y79243113D02*
X5476917Y79643113D01*
X5476917Y79643113D02*
X5572155Y79643113D01*
X5572155Y79643113D02*
X5629298Y79624065D01*
X5629298Y79624065D02*
X5667393Y79585970D01*
X5667393Y79585970D02*
X5686440Y79547875D01*
X5686440Y79547875D02*
X5705488Y79471684D01*
X5705488Y79471684D02*
X5705488Y79414541D01*
X5705488Y79414541D02*
X5686440Y79338351D01*
X5686440Y79338351D02*
X5667393Y79300256D01*
X5667393Y79300256D02*
X5629298Y79262160D01*
X5629298Y79262160D02*
X5572155Y79243113D01*
X5572155Y79243113D02*
X5476917Y79243113D01*
X39114064Y86952608D02*
X39133112Y86990703D01*
X39133112Y86990703D02*
X39133112Y87047846D01*
X39133112Y87047846D02*
X39114064Y87104989D01*
X39114064Y87104989D02*
X39075969Y87143084D01*
X39075969Y87143084D02*
X39037874Y87162131D01*
X39037874Y87162131D02*
X38961683Y87181179D01*
X38961683Y87181179D02*
X38904540Y87181179D01*
X38904540Y87181179D02*
X38828350Y87162131D01*
X38828350Y87162131D02*
X38790255Y87143084D01*
X38790255Y87143084D02*
X38752160Y87104989D01*
X38752160Y87104989D02*
X38733112Y87047846D01*
X38733112Y87047846D02*
X38733112Y87009750D01*
X38733112Y87009750D02*
X38752160Y86952608D01*
X38752160Y86952608D02*
X38771207Y86933560D01*
X38771207Y86933560D02*
X38904540Y86933560D01*
X38904540Y86933560D02*
X38904540Y87009750D01*
X38733112Y86762131D02*
X39133112Y86762131D01*
X39133112Y86762131D02*
X38733112Y86533560D01*
X38733112Y86533560D02*
X39133112Y86533560D01*
X38733112Y86343083D02*
X39133112Y86343083D01*
X39133112Y86343083D02*
X39133112Y86247845D01*
X39133112Y86247845D02*
X39114064Y86190702D01*
X39114064Y86190702D02*
X39075969Y86152607D01*
X39075969Y86152607D02*
X39037874Y86133560D01*
X39037874Y86133560D02*
X38961683Y86114512D01*
X38961683Y86114512D02*
X38904540Y86114512D01*
X38904540Y86114512D02*
X38828350Y86133560D01*
X38828350Y86133560D02*
X38790255Y86152607D01*
X38790255Y86152607D02*
X38752160Y86190702D01*
X38752160Y86190702D02*
X38733112Y86247845D01*
X38733112Y86247845D02*
X38733112Y86343083D01*
D14*
X48768871Y142158896D02*
X49245061Y140825562D01*
X49245061Y140825562D02*
X49721252Y142158896D01*
X50768871Y141968420D02*
X50578395Y142063658D01*
X50578395Y142063658D02*
X50483157Y142158896D01*
X50483157Y142158896D02*
X50387919Y142349372D01*
X50387919Y142349372D02*
X50387919Y142444610D01*
X50387919Y142444610D02*
X50483157Y142635086D01*
X50483157Y142635086D02*
X50578395Y142730324D01*
X50578395Y142730324D02*
X50768871Y142825562D01*
X50768871Y142825562D02*
X51149824Y142825562D01*
X51149824Y142825562D02*
X51340300Y142730324D01*
X51340300Y142730324D02*
X51435538Y142635086D01*
X51435538Y142635086D02*
X51530776Y142444610D01*
X51530776Y142444610D02*
X51530776Y142349372D01*
X51530776Y142349372D02*
X51435538Y142158896D01*
X51435538Y142158896D02*
X51340300Y142063658D01*
X51340300Y142063658D02*
X51149824Y141968420D01*
X51149824Y141968420D02*
X50768871Y141968420D01*
X50768871Y141968420D02*
X50578395Y141873181D01*
X50578395Y141873181D02*
X50483157Y141777943D01*
X50483157Y141777943D02*
X50387919Y141587467D01*
X50387919Y141587467D02*
X50387919Y141206515D01*
X50387919Y141206515D02*
X50483157Y141016039D01*
X50483157Y141016039D02*
X50578395Y140920800D01*
X50578395Y140920800D02*
X50768871Y140825562D01*
X50768871Y140825562D02*
X51149824Y140825562D01*
X51149824Y140825562D02*
X51340300Y140920800D01*
X51340300Y140920800D02*
X51435538Y141016039D01*
X51435538Y141016039D02*
X51530776Y141206515D01*
X51530776Y141206515D02*
X51530776Y141587467D01*
X51530776Y141587467D02*
X51435538Y141777943D01*
X51435538Y141777943D02*
X51340300Y141873181D01*
X51340300Y141873181D02*
X51149824Y141968420D01*
D10*
X2635990Y80120551D02*
X2659800Y80096742D01*
X2659800Y80096742D02*
X2683609Y80025313D01*
X2683609Y80025313D02*
X2683609Y79977694D01*
X2683609Y79977694D02*
X2659800Y79906266D01*
X2659800Y79906266D02*
X2612180Y79858647D01*
X2612180Y79858647D02*
X2564561Y79834837D01*
X2564561Y79834837D02*
X2469323Y79811028D01*
X2469323Y79811028D02*
X2397895Y79811028D01*
X2397895Y79811028D02*
X2302657Y79834837D01*
X2302657Y79834837D02*
X2255038Y79858647D01*
X2255038Y79858647D02*
X2207419Y79906266D01*
X2207419Y79906266D02*
X2183609Y79977694D01*
X2183609Y79977694D02*
X2183609Y80025313D01*
X2183609Y80025313D02*
X2207419Y80096742D01*
X2207419Y80096742D02*
X2231228Y80120551D01*
X2350276Y80549123D02*
X2683609Y80549123D01*
X2159800Y80430075D02*
X2516942Y80311028D01*
X2516942Y80311028D02*
X2516942Y80620551D01*
X2683609Y81072932D02*
X2683609Y80787218D01*
X2683609Y80930075D02*
X2183609Y80930075D01*
X2183609Y80930075D02*
X2255038Y80882456D01*
X2255038Y80882456D02*
X2302657Y80834837D01*
X2302657Y80834837D02*
X2326466Y80787218D01*
X2183609Y81382455D02*
X2183609Y81430074D01*
X2183609Y81430074D02*
X2207419Y81477693D01*
X2207419Y81477693D02*
X2231228Y81501503D01*
X2231228Y81501503D02*
X2278847Y81525312D01*
X2278847Y81525312D02*
X2374085Y81549122D01*
X2374085Y81549122D02*
X2493133Y81549122D01*
X2493133Y81549122D02*
X2588371Y81525312D01*
X2588371Y81525312D02*
X2635990Y81501503D01*
X2635990Y81501503D02*
X2659800Y81477693D01*
X2659800Y81477693D02*
X2683609Y81430074D01*
X2683609Y81430074D02*
X2683609Y81382455D01*
X2683609Y81382455D02*
X2659800Y81334836D01*
X2659800Y81334836D02*
X2635990Y81311027D01*
X2635990Y81311027D02*
X2588371Y81287217D01*
X2588371Y81287217D02*
X2493133Y81263408D01*
X2493133Y81263408D02*
X2374085Y81263408D01*
X2374085Y81263408D02*
X2278847Y81287217D01*
X2278847Y81287217D02*
X2231228Y81311027D01*
X2231228Y81311027D02*
X2207419Y81334836D01*
X2207419Y81334836D02*
X2183609Y81382455D01*
D12*
X53932780Y95842470D02*
X53694685Y95842470D01*
X53789923Y96080565D02*
X53694685Y95842470D01*
X53694685Y95842470D02*
X53789923Y95604375D01*
X53504209Y95985327D02*
X53694685Y95842470D01*
X53694685Y95842470D02*
X53504209Y95699613D01*
X53932780Y95080565D02*
X53694685Y95080565D01*
X53789923Y95318660D02*
X53694685Y95080565D01*
X53694685Y95080565D02*
X53789923Y94842470D01*
X53504209Y95223422D02*
X53694685Y95080565D01*
X53694685Y95080565D02*
X53504209Y94937708D01*
X53932780Y94556755D02*
X52932780Y94318660D01*
X52932780Y94318660D02*
X53647066Y94128184D01*
X53647066Y94128184D02*
X52932780Y93937708D01*
X52932780Y93937708D02*
X53932780Y93699612D01*
X53218495Y93366279D02*
X53218495Y92890089D01*
X52932780Y93461517D02*
X53932780Y93128184D01*
X53932780Y93128184D02*
X52932780Y92794851D01*
X52932780Y91890089D02*
X53408971Y92223422D01*
X52932780Y92461517D02*
X53932780Y92461517D01*
X53932780Y92461517D02*
X53932780Y92080565D01*
X53932780Y92080565D02*
X53885161Y91985327D01*
X53885161Y91985327D02*
X53837542Y91937708D01*
X53837542Y91937708D02*
X53742304Y91890089D01*
X53742304Y91890089D02*
X53599447Y91890089D01*
X53599447Y91890089D02*
X53504209Y91937708D01*
X53504209Y91937708D02*
X53456590Y91985327D01*
X53456590Y91985327D02*
X53408971Y92080565D01*
X53408971Y92080565D02*
X53408971Y92461517D01*
X52932780Y91461517D02*
X53932780Y91461517D01*
X53932780Y91461517D02*
X52932780Y90890089D01*
X52932780Y90890089D02*
X53932780Y90890089D01*
X52932780Y90413898D02*
X53932780Y90413898D01*
X52932780Y89937708D02*
X53932780Y89937708D01*
X53932780Y89937708D02*
X52932780Y89366280D01*
X52932780Y89366280D02*
X53932780Y89366280D01*
X53885161Y88366280D02*
X53932780Y88461518D01*
X53932780Y88461518D02*
X53932780Y88604375D01*
X53932780Y88604375D02*
X53885161Y88747232D01*
X53885161Y88747232D02*
X53789923Y88842470D01*
X53789923Y88842470D02*
X53694685Y88890089D01*
X53694685Y88890089D02*
X53504209Y88937708D01*
X53504209Y88937708D02*
X53361352Y88937708D01*
X53361352Y88937708D02*
X53170876Y88890089D01*
X53170876Y88890089D02*
X53075638Y88842470D01*
X53075638Y88842470D02*
X52980400Y88747232D01*
X52980400Y88747232D02*
X52932780Y88604375D01*
X52932780Y88604375D02*
X52932780Y88509137D01*
X52932780Y88509137D02*
X52980400Y88366280D01*
X52980400Y88366280D02*
X53028019Y88318661D01*
X53028019Y88318661D02*
X53361352Y88318661D01*
X53361352Y88318661D02*
X53361352Y88509137D01*
X53932780Y87747232D02*
X53694685Y87747232D01*
X53789923Y87985327D02*
X53694685Y87747232D01*
X53694685Y87747232D02*
X53789923Y87509137D01*
X53504209Y87890089D02*
X53694685Y87747232D01*
X53694685Y87747232D02*
X53504209Y87604375D01*
X53932780Y86985327D02*
X53694685Y86985327D01*
X53789923Y87223422D02*
X53694685Y86985327D01*
X53694685Y86985327D02*
X53789923Y86747232D01*
X53504209Y87128184D02*
X53694685Y86985327D01*
X53694685Y86985327D02*
X53504209Y86842470D01*
D10*
X52428295Y96103497D02*
X52404485Y96032069D01*
X52404485Y96032069D02*
X52380676Y96008259D01*
X52380676Y96008259D02*
X52333057Y95984450D01*
X52333057Y95984450D02*
X52261628Y95984450D01*
X52261628Y95984450D02*
X52214009Y96008259D01*
X52214009Y96008259D02*
X52190200Y96032069D01*
X52190200Y96032069D02*
X52166390Y96079688D01*
X52166390Y96079688D02*
X52166390Y96270164D01*
X52166390Y96270164D02*
X52666390Y96270164D01*
X52666390Y96270164D02*
X52666390Y96103497D01*
X52666390Y96103497D02*
X52642580Y96055878D01*
X52642580Y96055878D02*
X52618771Y96032069D01*
X52618771Y96032069D02*
X52571152Y96008259D01*
X52571152Y96008259D02*
X52523533Y96008259D01*
X52523533Y96008259D02*
X52475914Y96032069D01*
X52475914Y96032069D02*
X52452104Y96055878D01*
X52452104Y96055878D02*
X52428295Y96103497D01*
X52428295Y96103497D02*
X52428295Y96270164D01*
X52166390Y95555878D02*
X52428295Y95555878D01*
X52428295Y95555878D02*
X52475914Y95579688D01*
X52475914Y95579688D02*
X52499723Y95627307D01*
X52499723Y95627307D02*
X52499723Y95722545D01*
X52499723Y95722545D02*
X52475914Y95770164D01*
X52190200Y95555878D02*
X52166390Y95603497D01*
X52166390Y95603497D02*
X52166390Y95722545D01*
X52166390Y95722545D02*
X52190200Y95770164D01*
X52190200Y95770164D02*
X52237819Y95793973D01*
X52237819Y95793973D02*
X52285438Y95793973D01*
X52285438Y95793973D02*
X52333057Y95770164D01*
X52333057Y95770164D02*
X52356866Y95722545D01*
X52356866Y95722545D02*
X52356866Y95603497D01*
X52356866Y95603497D02*
X52380676Y95555878D01*
X52499723Y95389211D02*
X52499723Y95198735D01*
X52666390Y95317783D02*
X52237819Y95317783D01*
X52237819Y95317783D02*
X52190200Y95293973D01*
X52190200Y95293973D02*
X52166390Y95246354D01*
X52166390Y95246354D02*
X52166390Y95198735D01*
X52499723Y95103497D02*
X52499723Y94913021D01*
X52666390Y95032069D02*
X52237819Y95032069D01*
X52237819Y95032069D02*
X52190200Y95008259D01*
X52190200Y95008259D02*
X52166390Y94960640D01*
X52166390Y94960640D02*
X52166390Y94913021D01*
X52190200Y94555879D02*
X52166390Y94603498D01*
X52166390Y94603498D02*
X52166390Y94698736D01*
X52166390Y94698736D02*
X52190200Y94746355D01*
X52190200Y94746355D02*
X52237819Y94770164D01*
X52237819Y94770164D02*
X52428295Y94770164D01*
X52428295Y94770164D02*
X52475914Y94746355D01*
X52475914Y94746355D02*
X52499723Y94698736D01*
X52499723Y94698736D02*
X52499723Y94603498D01*
X52499723Y94603498D02*
X52475914Y94555879D01*
X52475914Y94555879D02*
X52428295Y94532069D01*
X52428295Y94532069D02*
X52380676Y94532069D01*
X52380676Y94532069D02*
X52333057Y94770164D01*
X52166390Y94317784D02*
X52499723Y94317784D01*
X52404485Y94317784D02*
X52452104Y94293974D01*
X52452104Y94293974D02*
X52475914Y94270165D01*
X52475914Y94270165D02*
X52499723Y94222546D01*
X52499723Y94222546D02*
X52499723Y94174927D01*
X52499723Y94055879D02*
X52166390Y93936831D01*
X52499723Y93817784D02*
X52166390Y93936831D01*
X52166390Y93936831D02*
X52047342Y93984450D01*
X52047342Y93984450D02*
X52023533Y94008260D01*
X52023533Y94008260D02*
X51999723Y94055879D01*
X52166390Y93174927D02*
X52190200Y93222546D01*
X52190200Y93222546D02*
X52214009Y93246356D01*
X52214009Y93246356D02*
X52261628Y93270165D01*
X52261628Y93270165D02*
X52404485Y93270165D01*
X52404485Y93270165D02*
X52452104Y93246356D01*
X52452104Y93246356D02*
X52475914Y93222546D01*
X52475914Y93222546D02*
X52499723Y93174927D01*
X52499723Y93174927D02*
X52499723Y93103499D01*
X52499723Y93103499D02*
X52475914Y93055880D01*
X52475914Y93055880D02*
X52452104Y93032070D01*
X52452104Y93032070D02*
X52404485Y93008261D01*
X52404485Y93008261D02*
X52261628Y93008261D01*
X52261628Y93008261D02*
X52214009Y93032070D01*
X52214009Y93032070D02*
X52190200Y93055880D01*
X52190200Y93055880D02*
X52166390Y93103499D01*
X52166390Y93103499D02*
X52166390Y93174927D01*
X52499723Y92841594D02*
X52166390Y92722546D01*
X52166390Y92722546D02*
X52499723Y92603499D01*
X52190200Y92222547D02*
X52166390Y92270166D01*
X52166390Y92270166D02*
X52166390Y92365404D01*
X52166390Y92365404D02*
X52190200Y92413023D01*
X52190200Y92413023D02*
X52237819Y92436832D01*
X52237819Y92436832D02*
X52428295Y92436832D01*
X52428295Y92436832D02*
X52475914Y92413023D01*
X52475914Y92413023D02*
X52499723Y92365404D01*
X52499723Y92365404D02*
X52499723Y92270166D01*
X52499723Y92270166D02*
X52475914Y92222547D01*
X52475914Y92222547D02*
X52428295Y92198737D01*
X52428295Y92198737D02*
X52380676Y92198737D01*
X52380676Y92198737D02*
X52333057Y92436832D01*
X52166390Y91984452D02*
X52499723Y91984452D01*
X52404485Y91984452D02*
X52452104Y91960642D01*
X52452104Y91960642D02*
X52475914Y91936833D01*
X52475914Y91936833D02*
X52499723Y91889214D01*
X52499723Y91889214D02*
X52499723Y91841595D01*
X52666390Y91341595D02*
X52666390Y91032071D01*
X52666390Y91032071D02*
X52475914Y91198738D01*
X52475914Y91198738D02*
X52475914Y91127309D01*
X52475914Y91127309D02*
X52452104Y91079690D01*
X52452104Y91079690D02*
X52428295Y91055881D01*
X52428295Y91055881D02*
X52380676Y91032071D01*
X52380676Y91032071D02*
X52261628Y91032071D01*
X52261628Y91032071D02*
X52214009Y91055881D01*
X52214009Y91055881D02*
X52190200Y91079690D01*
X52190200Y91079690D02*
X52166390Y91127309D01*
X52166390Y91127309D02*
X52166390Y91270166D01*
X52166390Y91270166D02*
X52190200Y91317785D01*
X52190200Y91317785D02*
X52214009Y91341595D01*
X52666390Y90722548D02*
X52666390Y90674929D01*
X52666390Y90674929D02*
X52642580Y90627310D01*
X52642580Y90627310D02*
X52618771Y90603500D01*
X52618771Y90603500D02*
X52571152Y90579691D01*
X52571152Y90579691D02*
X52475914Y90555881D01*
X52475914Y90555881D02*
X52356866Y90555881D01*
X52356866Y90555881D02*
X52261628Y90579691D01*
X52261628Y90579691D02*
X52214009Y90603500D01*
X52214009Y90603500D02*
X52190200Y90627310D01*
X52190200Y90627310D02*
X52166390Y90674929D01*
X52166390Y90674929D02*
X52166390Y90722548D01*
X52166390Y90722548D02*
X52190200Y90770167D01*
X52190200Y90770167D02*
X52214009Y90793976D01*
X52214009Y90793976D02*
X52261628Y90817786D01*
X52261628Y90817786D02*
X52356866Y90841595D01*
X52356866Y90841595D02*
X52475914Y90841595D01*
X52475914Y90841595D02*
X52571152Y90817786D01*
X52571152Y90817786D02*
X52618771Y90793976D01*
X52618771Y90793976D02*
X52642580Y90770167D01*
X52642580Y90770167D02*
X52666390Y90722548D01*
X52666390Y90246358D02*
X52666390Y90198739D01*
X52666390Y90198739D02*
X52642580Y90151120D01*
X52642580Y90151120D02*
X52618771Y90127310D01*
X52618771Y90127310D02*
X52571152Y90103501D01*
X52571152Y90103501D02*
X52475914Y90079691D01*
X52475914Y90079691D02*
X52356866Y90079691D01*
X52356866Y90079691D02*
X52261628Y90103501D01*
X52261628Y90103501D02*
X52214009Y90127310D01*
X52214009Y90127310D02*
X52190200Y90151120D01*
X52190200Y90151120D02*
X52166390Y90198739D01*
X52166390Y90198739D02*
X52166390Y90246358D01*
X52166390Y90246358D02*
X52190200Y90293977D01*
X52190200Y90293977D02*
X52214009Y90317786D01*
X52214009Y90317786D02*
X52261628Y90341596D01*
X52261628Y90341596D02*
X52356866Y90365405D01*
X52356866Y90365405D02*
X52475914Y90365405D01*
X52475914Y90365405D02*
X52571152Y90341596D01*
X52571152Y90341596D02*
X52618771Y90317786D01*
X52618771Y90317786D02*
X52642580Y90293977D01*
X52642580Y90293977D02*
X52666390Y90246358D01*
X52166390Y89865406D02*
X52499723Y89865406D01*
X52452104Y89865406D02*
X52475914Y89841596D01*
X52475914Y89841596D02*
X52499723Y89793977D01*
X52499723Y89793977D02*
X52499723Y89722549D01*
X52499723Y89722549D02*
X52475914Y89674930D01*
X52475914Y89674930D02*
X52428295Y89651120D01*
X52428295Y89651120D02*
X52166390Y89651120D01*
X52428295Y89651120D02*
X52475914Y89627311D01*
X52475914Y89627311D02*
X52499723Y89579692D01*
X52499723Y89579692D02*
X52499723Y89508263D01*
X52499723Y89508263D02*
X52475914Y89460644D01*
X52475914Y89460644D02*
X52428295Y89436834D01*
X52428295Y89436834D02*
X52166390Y89436834D01*
X52309247Y89222548D02*
X52309247Y88984453D01*
X52166390Y89270167D02*
X52666390Y89103501D01*
X52666390Y89103501D02*
X52166390Y88936834D01*
X52166390Y88770168D02*
X52666390Y88770168D01*
X52166390Y88555882D02*
X52428295Y88555882D01*
X52428295Y88555882D02*
X52475914Y88579692D01*
X52475914Y88579692D02*
X52499723Y88627311D01*
X52499723Y88627311D02*
X52499723Y88698739D01*
X52499723Y88698739D02*
X52475914Y88746358D01*
X52475914Y88746358D02*
X52452104Y88770168D01*
X52666390Y87841597D02*
X52666390Y87746359D01*
X52666390Y87746359D02*
X52642580Y87698740D01*
X52642580Y87698740D02*
X52594961Y87651121D01*
X52594961Y87651121D02*
X52499723Y87627311D01*
X52499723Y87627311D02*
X52333057Y87627311D01*
X52333057Y87627311D02*
X52237819Y87651121D01*
X52237819Y87651121D02*
X52190200Y87698740D01*
X52190200Y87698740D02*
X52166390Y87746359D01*
X52166390Y87746359D02*
X52166390Y87841597D01*
X52166390Y87841597D02*
X52190200Y87889216D01*
X52190200Y87889216D02*
X52237819Y87936835D01*
X52237819Y87936835D02*
X52333057Y87960644D01*
X52333057Y87960644D02*
X52499723Y87960644D01*
X52499723Y87960644D02*
X52594961Y87936835D01*
X52594961Y87936835D02*
X52642580Y87889216D01*
X52642580Y87889216D02*
X52666390Y87841597D01*
X52499723Y87413025D02*
X52166390Y87413025D01*
X52452104Y87413025D02*
X52475914Y87389215D01*
X52475914Y87389215D02*
X52499723Y87341596D01*
X52499723Y87341596D02*
X52499723Y87270168D01*
X52499723Y87270168D02*
X52475914Y87222549D01*
X52475914Y87222549D02*
X52428295Y87198739D01*
X52428295Y87198739D02*
X52166390Y87198739D01*
X52166390Y86889215D02*
X52190200Y86936834D01*
X52190200Y86936834D02*
X52237819Y86960644D01*
X52237819Y86960644D02*
X52666390Y86960644D01*
X52499723Y86746358D02*
X52166390Y86627310D01*
X52499723Y86508263D02*
X52166390Y86627310D01*
X52166390Y86627310D02*
X52047342Y86674929D01*
X52047342Y86674929D02*
X52023533Y86698739D01*
X52023533Y86698739D02*
X51999723Y86746358D01*
D13*
X54667690Y93125145D02*
X54167690Y92958479D01*
X54167690Y92958479D02*
X54667690Y92791812D01*
X54191500Y92648955D02*
X54167690Y92577527D01*
X54167690Y92577527D02*
X54167690Y92458479D01*
X54167690Y92458479D02*
X54191500Y92410860D01*
X54191500Y92410860D02*
X54215309Y92387051D01*
X54215309Y92387051D02*
X54262928Y92363241D01*
X54262928Y92363241D02*
X54310547Y92363241D01*
X54310547Y92363241D02*
X54358166Y92387051D01*
X54358166Y92387051D02*
X54381976Y92410860D01*
X54381976Y92410860D02*
X54405785Y92458479D01*
X54405785Y92458479D02*
X54429595Y92553717D01*
X54429595Y92553717D02*
X54453404Y92601336D01*
X54453404Y92601336D02*
X54477214Y92625146D01*
X54477214Y92625146D02*
X54524833Y92648955D01*
X54524833Y92648955D02*
X54572452Y92648955D01*
X54572452Y92648955D02*
X54620071Y92625146D01*
X54620071Y92625146D02*
X54643880Y92601336D01*
X54643880Y92601336D02*
X54667690Y92553717D01*
X54667690Y92553717D02*
X54667690Y92434670D01*
X54667690Y92434670D02*
X54643880Y92363241D01*
X54191500Y92172765D02*
X54167690Y92101337D01*
X54167690Y92101337D02*
X54167690Y91982289D01*
X54167690Y91982289D02*
X54191500Y91934670D01*
X54191500Y91934670D02*
X54215309Y91910861D01*
X54215309Y91910861D02*
X54262928Y91887051D01*
X54262928Y91887051D02*
X54310547Y91887051D01*
X54310547Y91887051D02*
X54358166Y91910861D01*
X54358166Y91910861D02*
X54381976Y91934670D01*
X54381976Y91934670D02*
X54405785Y91982289D01*
X54405785Y91982289D02*
X54429595Y92077527D01*
X54429595Y92077527D02*
X54453404Y92125146D01*
X54453404Y92125146D02*
X54477214Y92148956D01*
X54477214Y92148956D02*
X54524833Y92172765D01*
X54524833Y92172765D02*
X54572452Y92172765D01*
X54572452Y92172765D02*
X54620071Y92148956D01*
X54620071Y92148956D02*
X54643880Y92125146D01*
X54643880Y92125146D02*
X54667690Y92077527D01*
X54667690Y92077527D02*
X54667690Y91958480D01*
X54667690Y91958480D02*
X54643880Y91887051D01*
X54001023Y91553718D02*
X54715309Y91553718D01*
X54667690Y91268004D02*
X54167690Y91101338D01*
X54167690Y91101338D02*
X54667690Y90934671D01*
X54167690Y90768005D02*
X54501023Y90768005D01*
X54667690Y90768005D02*
X54643880Y90791814D01*
X54643880Y90791814D02*
X54620071Y90768005D01*
X54620071Y90768005D02*
X54643880Y90744195D01*
X54643880Y90744195D02*
X54667690Y90768005D01*
X54667690Y90768005D02*
X54620071Y90768005D01*
X54501023Y90529910D02*
X54167690Y90529910D01*
X54453404Y90529910D02*
X54477214Y90506100D01*
X54477214Y90506100D02*
X54501023Y90458481D01*
X54501023Y90458481D02*
X54501023Y90387053D01*
X54501023Y90387053D02*
X54477214Y90339434D01*
X54477214Y90339434D02*
X54429595Y90315624D01*
X54429595Y90315624D02*
X54167690Y90315624D01*
D15*
%TO.C,R7122*%
X-49826359Y66840000D02*
X-50133641Y66840000D01*
X-49826359Y66080000D02*
X-50133641Y66080000D01*
%TO.C,R872*%
X-22863641Y95470000D02*
X-22556359Y95470000D01*
X-22863641Y94710000D02*
X-22556359Y94710000D01*
%TO.C,C8132*%
X34160000Y35745580D02*
X34160000Y35464420D01*
X35180000Y35745580D02*
X35180000Y35464420D01*
D12*
%TO.C,H61*%
X-16330000Y139300000D02*
X-12900000Y139300000D01*
X-16330000Y139150000D02*
X-16330000Y139300000D01*
X-16330000Y137880000D02*
X-16330000Y138000000D01*
X-16330000Y136610000D02*
X-16330000Y136730000D01*
X-16330000Y135340000D02*
X-16330000Y135460000D01*
X-16330000Y134070000D02*
X-16330000Y134190000D01*
X-16330000Y132780000D02*
X-16330000Y132920000D01*
X-12900000Y139150000D02*
X-12900000Y139300000D01*
X-12900000Y137880000D02*
X-12900000Y138000000D01*
X-12900000Y136610000D02*
X-12900000Y136730000D01*
X-12900000Y135340000D02*
X-12900000Y135460000D01*
X-12900000Y134070000D02*
X-12900000Y134190000D01*
X-12900000Y132780000D02*
X-16330000Y132780000D01*
X-12900000Y132780000D02*
X-12900000Y132920000D01*
D16*
X-12080000Y132480000D02*
G75*
G02*
X-12340000Y132480000I-130000J0D01*
G01*
X-12340000Y132480000D02*
G75*
G02*
X-12080000Y132480000I130000J0D01*
G01*
D15*
%TO.C,C7112*%
X-21119420Y62400000D02*
X-21400580Y62400000D01*
X-21119420Y61380000D02*
X-21400580Y61380000D01*
%TO.C,R103*%
X-12636359Y143660000D02*
X-12943641Y143660000D01*
X-12636359Y142900000D02*
X-12943641Y142900000D01*
%TO.C,C35*%
X20114420Y76670000D02*
X20395580Y76670000D01*
X20114420Y75650000D02*
X20395580Y75650000D01*
%TO.C,C14*%
X35300000Y79842836D02*
X35300000Y79627164D01*
X36020000Y79842836D02*
X36020000Y79627164D01*
%TO.C,C8162*%
X-42600000Y34504420D02*
X-42600000Y34785580D01*
X-41580000Y34504420D02*
X-41580000Y34785580D01*
%TO.C,R771*%
X-19515000Y95735436D02*
X-19515000Y96189564D01*
X-18045000Y95735436D02*
X-18045000Y96189564D01*
%TO.C,R8142*%
X7236359Y35600000D02*
X7543641Y35600000D01*
X7236359Y34840000D02*
X7543641Y34840000D01*
%TO.C,R753*%
X42687500Y93222258D02*
X42687500Y92747742D01*
X43732500Y93222258D02*
X43732500Y92747742D01*
%TO.C,R51*%
X-7375160Y135253641D02*
X-7375160Y134946359D01*
X-6615160Y135253641D02*
X-6615160Y134946359D01*
%TO.C,C782*%
X-46530580Y98770000D02*
X-46249420Y98770000D01*
X-46530580Y97750000D02*
X-46249420Y97750000D01*
D17*
%TO.C,D61*%
X-18490000Y133500000D02*
G75*
G02*
X-18650000Y133500000I-80000J0D01*
G01*
X-18650000Y133500000D02*
G75*
G02*
X-18490000Y133500000I80000J0D01*
G01*
D15*
%TO.C,R8101*%
X14836359Y62520000D02*
X15143641Y62520000D01*
X14836359Y61760000D02*
X15143641Y61760000D01*
%TO.C,C410*%
X4199420Y81200000D02*
X4480580Y81200000D01*
X4199420Y80180000D02*
X4480580Y80180000D01*
%TO.C,R891*%
X44826359Y62520000D02*
X45133641Y62520000D01*
X44826359Y61760000D02*
X45133641Y61760000D01*
%TO.C,R793*%
X42687500Y63202258D02*
X42687500Y62727742D01*
X43732500Y63202258D02*
X43732500Y62727742D01*
D18*
%TO.C,U111*%
X-18880000Y85250000D02*
X-18880000Y85030000D01*
X-18880000Y82420000D02*
X-18880000Y82200000D01*
X-18880000Y82200000D02*
X-17910000Y82200000D01*
X-17910000Y85250000D02*
X-18880000Y85250000D01*
X-16800000Y82200000D02*
X-15830000Y82200000D01*
X-15830000Y85250000D02*
X-16800000Y85250000D01*
X-15830000Y85030000D02*
X-15830000Y85250000D01*
X-15830000Y82200000D02*
X-15830000Y82420000D01*
D16*
X-16080000Y81830000D02*
G75*
G02*
X-16079583Y81820000I120000J-5D01*
G01*
D15*
%TO.C,R132*%
X49728641Y82290000D02*
X49421359Y82290000D01*
X49728641Y81530000D02*
X49421359Y81530000D01*
%TO.C,C49*%
X4037836Y83220000D02*
X3822164Y83220000D01*
X4037836Y82500000D02*
X3822164Y82500000D01*
%TO.C,R742*%
X-49806359Y126850000D02*
X-50113641Y126850000D01*
X-49806359Y126090000D02*
X-50113641Y126090000D01*
%TO.C,JP111*%
X-16440000Y87780000D02*
X-13640000Y87780000D01*
X-16440000Y85780000D02*
X-16440000Y87780000D01*
X-13640000Y87780000D02*
X-13640000Y85780000D01*
X-13640000Y85780000D02*
X-16440000Y85780000D01*
%TO.C,C892*%
X47410000Y64494420D02*
X47410000Y64775580D01*
X48430000Y64494420D02*
X48430000Y64775580D01*
D10*
%TO.C,U41*%
X11480000Y80980000D02*
X11480000Y79180000D01*
X11620000Y80980000D02*
X11480000Y80980000D01*
X11620000Y79180000D02*
X11480000Y79180000D01*
X12570000Y79180000D02*
X12530000Y79180000D01*
X13520000Y80980000D02*
X12530000Y80980000D01*
X13520000Y79180000D02*
X13480000Y79180000D01*
X14580000Y80980000D02*
X14430000Y80980000D01*
X14580000Y80980000D02*
X14580000Y79180000D01*
X14580000Y79180000D02*
X14430000Y79180000D01*
D15*
%TO.C,R121*%
X-34030000Y127316359D02*
X-34030000Y127623641D01*
X-33270000Y127316359D02*
X-33270000Y127623641D01*
%TO.C,R111*%
X-16293641Y78630000D02*
X-15986359Y78630000D01*
X-16293641Y77870000D02*
X-15986359Y77870000D01*
%TO.C,C7142*%
X9010580Y32460000D02*
X8729420Y32460000D01*
X9010580Y31440000D02*
X8729420Y31440000D01*
%TO.C,R7141*%
X10585000Y35865436D02*
X10585000Y36319564D01*
X12055000Y35865436D02*
X12055000Y36319564D01*
%TO.C,R8121*%
X-45183641Y62530000D02*
X-44876359Y62530000D01*
X-45183641Y61770000D02*
X-44876359Y61770000D01*
%TO.C,R782*%
X-49866359Y96780000D02*
X-50173641Y96780000D01*
X-49866359Y96020000D02*
X-50173641Y96020000D01*
%TO.C,R45*%
X4103641Y84350000D02*
X3796359Y84350000D01*
X4103641Y83590000D02*
X3796359Y83590000D01*
%TO.C,R133*%
X51600000Y83823641D02*
X51600000Y83516359D01*
X52360000Y83823641D02*
X52360000Y83516359D01*
D10*
%TO.C,U131*%
X50500000Y84450000D02*
X50500000Y84300000D01*
X50500000Y84300000D02*
X50650000Y84450000D01*
X50510000Y84440000D02*
X51510000Y84440000D01*
X50510000Y82940000D02*
X50510000Y84440000D01*
X50650000Y84450000D02*
X50500000Y84450000D01*
X51510000Y84440000D02*
X51510000Y82940000D01*
X51510000Y82940000D02*
X50510000Y82940000D01*
D19*
%TO.C,C124*%
X-38075080Y126935080D02*
X-38075080Y127585080D01*
X-38075080Y125785080D02*
X-38075080Y126435080D01*
X-37375080Y127585080D02*
X-38075080Y127585080D01*
X-37375080Y126935080D02*
X-37375080Y127585080D01*
X-37375080Y125785080D02*
X-38075080Y125785080D01*
X-37375080Y125785080D02*
X-37375080Y126435080D01*
D15*
%TO.C,C95*%
X-9310000Y81327836D02*
X-9310000Y81112164D01*
X-8590000Y81327836D02*
X-8590000Y81112164D01*
D19*
%TO.C,C128*%
X-30875080Y132409920D02*
X-30875080Y133109920D01*
X-30225080Y133109920D02*
X-30875080Y133109920D01*
X-30225080Y132409920D02*
X-30875080Y132409920D01*
X-29075080Y133109920D02*
X-29725080Y133109920D01*
X-29075080Y132409920D02*
X-29725080Y132409920D01*
X-29075080Y132409920D02*
X-29075080Y133109920D01*
D15*
%TO.C,C8152*%
X-12640000Y34494420D02*
X-12640000Y34775580D01*
X-11620000Y34494420D02*
X-11620000Y34775580D01*
%TO.C,R752*%
X40183641Y96850000D02*
X39876359Y96850000D01*
X40183641Y96090000D02*
X39876359Y96090000D01*
%TO.C,R52*%
X-6325160Y135253641D02*
X-6325160Y134946359D01*
X-5565160Y135253641D02*
X-5565160Y134946359D01*
D18*
%TO.C,U7101*%
X12320000Y66410000D02*
X12320000Y65960000D01*
X12520000Y66210000D02*
X13870000Y66210000D01*
X12520000Y64860000D02*
X12520000Y66210000D01*
X12520000Y64860000D02*
X12520000Y64860000D01*
X12750000Y66410000D02*
X12320000Y66410000D01*
X13870000Y66210000D02*
X13870000Y64860000D01*
X13870000Y64860000D02*
X12520000Y64860000D01*
D17*
%TO.C,D63*%
X-18500000Y134760000D02*
G75*
G02*
X-18660000Y134760000I-80000J0D01*
G01*
X-18660000Y134760000D02*
G75*
G02*
X-18500000Y134760000I80000J0D01*
G01*
D15*
%TO.C,C21*%
X-22670000Y78459420D02*
X-22670000Y78740580D01*
X-21650000Y78459420D02*
X-21650000Y78740580D01*
%TO.C,R8131*%
X37763641Y38480000D02*
X37456359Y38480000D01*
X37763641Y37720000D02*
X37456359Y37720000D01*
%TO.C,R7131*%
X40645000Y35845436D02*
X40645000Y36299564D01*
X42115000Y35845436D02*
X42115000Y36299564D01*
%TO.C,R733*%
X-17302500Y123212258D02*
X-17302500Y122737742D01*
X-16257500Y123212258D02*
X-16257500Y122737742D01*
D18*
%TO.C,U92*%
X-6102500Y51300000D02*
X-942500Y51300000D01*
X-6102500Y47760000D02*
X-6102500Y51300000D01*
X-942500Y51300000D02*
X-942500Y47760000D01*
X-942500Y47760000D02*
X-6102500Y47760000D01*
D20*
X-1342500Y50800000D02*
G75*
G02*
X-1642500Y50800000I-150000J0D01*
G01*
X-1642500Y50800000D02*
G75*
G02*
X-1342500Y50800000I150000J0D01*
G01*
X-472500Y52400000D02*
G75*
G02*
X-772500Y52400000I-150000J0D01*
G01*
X-772500Y52400000D02*
G75*
G02*
X-472500Y52400000I150000J0D01*
G01*
D15*
%TO.C,R7132*%
X42406359Y34170000D02*
X42713641Y34170000D01*
X42406359Y33410000D02*
X42713641Y33410000D01*
%TO.C,R881*%
X-45223641Y92470000D02*
X-44916359Y92470000D01*
X-45223641Y91710000D02*
X-44916359Y91710000D01*
%TO.C,C111*%
X-14694420Y81550000D02*
X-14975580Y81550000D01*
X-14694420Y80530000D02*
X-14975580Y80530000D01*
D19*
%TO.C,C61*%
X-28216260Y132999680D02*
X-28216260Y133699680D01*
X-27566260Y133699680D02*
X-28216260Y133699680D01*
X-27566260Y132999680D02*
X-28216260Y132999680D01*
X-26416260Y133699680D02*
X-27066260Y133699680D01*
X-26416260Y132999680D02*
X-27066260Y132999680D01*
X-26416260Y132999680D02*
X-26416260Y133699680D01*
D15*
%TO.C,R44*%
X11753641Y83220000D02*
X11446359Y83220000D01*
X11753641Y82460000D02*
X11446359Y82460000D01*
%TO.C,R134*%
X52286359Y82290000D02*
X52593641Y82290000D01*
X52286359Y81530000D02*
X52593641Y81530000D01*
%TO.C,R741*%
X-49515000Y124414564D02*
X-49515000Y123960436D01*
X-48045000Y124414564D02*
X-48045000Y123960436D01*
%TO.C,R7152*%
X-19866359Y36830000D02*
X-20173641Y36830000D01*
X-19866359Y36070000D02*
X-20173641Y36070000D01*
%TO.C,R871*%
X-22396359Y98370000D02*
X-22703641Y98370000D01*
X-22396359Y97610000D02*
X-22703641Y97610000D01*
D19*
%TO.C,C1212*%
X-37320880Y139566470D02*
X-37320880Y140266480D01*
X-37320880Y139566470D02*
X-36670880Y139566480D01*
X-36670880Y140266480D02*
X-37320880Y140266480D01*
X-35520880Y140266480D02*
X-36170880Y140266480D01*
X-35520880Y139566470D02*
X-36170880Y139566480D01*
X-35520880Y139566470D02*
X-35520880Y140266480D01*
D17*
%TO.C,J11*%
X55200000Y95380000D02*
X56480000Y95380000D01*
X55200000Y92900000D02*
X55200000Y95380000D01*
X55200000Y87730000D02*
X55200000Y90210000D01*
X56480000Y87730000D02*
X55200000Y87730000D01*
X59400000Y89750000D02*
X59400000Y93360000D01*
D18*
%TO.C,U791*%
X42310000Y66410000D02*
X42310000Y65960000D01*
X42510000Y66210000D02*
X43860000Y66210000D01*
X42510000Y64860000D02*
X42510000Y66210000D01*
X42510000Y64860000D02*
X42510000Y64860000D01*
X42740000Y66410000D02*
X42310000Y66410000D01*
X43860000Y66210000D02*
X43860000Y64860000D01*
X43860000Y64860000D02*
X42510000Y64860000D01*
D15*
%TO.C,R812*%
X37176359Y125520000D02*
X37483641Y125520000D01*
X37176359Y124760000D02*
X37483641Y124760000D01*
%TO.C,R8151*%
X-15223641Y32520000D02*
X-14916359Y32520000D01*
X-15223641Y31760000D02*
X-14916359Y31760000D01*
D18*
%TO.C,U781*%
X-47740000Y96360000D02*
X-47740000Y95910000D01*
X-47540000Y96160000D02*
X-46190000Y96160000D01*
X-47540000Y94810000D02*
X-47540000Y96160000D01*
X-47540000Y94810000D02*
X-47540000Y94810000D01*
X-47310000Y96360000D02*
X-47740000Y96360000D01*
X-46190000Y96160000D02*
X-46190000Y94810000D01*
X-46190000Y94810000D02*
X-47540000Y94810000D01*
D15*
%TO.C,C24*%
X-11800000Y88579420D02*
X-11800000Y88860580D01*
X-10780000Y88579420D02*
X-10780000Y88860580D01*
%TO.C,C752*%
X43519420Y98960000D02*
X43800580Y98960000D01*
X43519420Y97940000D02*
X43800580Y97940000D01*
D18*
%TO.C,U741*%
X-47680000Y126430000D02*
X-47680000Y125980000D01*
X-47480000Y126230000D02*
X-46130000Y126230000D01*
X-47480000Y124880000D02*
X-47480000Y126230000D01*
X-47480000Y124880000D02*
X-47480000Y124880000D01*
X-47250000Y126430000D02*
X-47680000Y126430000D01*
X-46130000Y126230000D02*
X-46130000Y124880000D01*
X-46130000Y124880000D02*
X-47480000Y124880000D01*
D15*
%TO.C,C7111*%
X-21142164Y63540000D02*
X-21357836Y63540000D01*
X-21142164Y62820000D02*
X-21357836Y62820000D01*
D19*
%TO.C,R63*%
X-28616260Y133899680D02*
X-28616260Y134599680D01*
X-27966260Y134599680D02*
X-28616260Y134599680D01*
X-27966260Y133899680D02*
X-28616260Y133899680D01*
X-26816260Y134599680D02*
X-27466260Y134599680D01*
X-26816260Y133899680D02*
X-27466260Y133899680D01*
X-26816260Y133899680D02*
X-26816260Y134599680D01*
D15*
%TO.C,C762*%
X13499420Y98940000D02*
X13780580Y98940000D01*
X13499420Y97920000D02*
X13780580Y97920000D01*
D19*
%TO.C,R65*%
X-27336090Y138049840D02*
X-27336090Y137349840D01*
X-27336090Y138049840D02*
X-26686090Y138049840D01*
X-27336090Y137349840D02*
X-26686090Y137349840D01*
X-26186090Y138049840D02*
X-25536090Y138049840D01*
X-26186090Y137349840D02*
X-25536090Y137349840D01*
X-25536090Y138049840D02*
X-25536090Y137349840D01*
D10*
%TO.C,ANT121*%
X-29090000Y143460000D02*
X-29630000Y143460000D01*
X-29090000Y142270000D02*
X-29590000Y142270000D01*
D15*
%TO.C,C52*%
X-229580Y133260000D02*
X-510740Y133260000D01*
X-229580Y132240000D02*
X-510740Y132240000D01*
D18*
%TO.C,X121*%
X-42652500Y138412500D02*
X-42652500Y137012500D01*
X-41352500Y138412500D02*
X-42652500Y138412500D01*
D15*
%TO.C,C13*%
X41510000Y79832836D02*
X41510000Y79617164D01*
X42230000Y79832836D02*
X42230000Y79617164D01*
D10*
%TO.C,U21*%
X-21210000Y79310000D02*
X-21210000Y77930000D01*
X-21210000Y79310000D02*
X-20520000Y79310000D01*
X-21170000Y77910000D02*
X-21210000Y77910000D01*
X-19870000Y77910000D02*
X-20160000Y77910000D01*
X-19510000Y79310000D02*
X-18820000Y79310000D01*
X-18810000Y79310000D02*
X-18810000Y77910000D01*
X-18810000Y77910000D02*
X-18860000Y77910000D01*
D19*
%TO.C,C1215*%
X-39374920Y138259910D02*
X-39374920Y138909910D01*
X-39374920Y137109910D02*
X-39374920Y137759910D01*
X-38674920Y138909910D02*
X-39374920Y138909910D01*
X-38674920Y138259910D02*
X-38674920Y138909910D01*
X-38674920Y137109910D02*
X-39374920Y137109910D01*
X-38674920Y137109910D02*
X-38674920Y137759910D01*
%TO.C,C1216*%
X-42095490Y138199120D02*
X-42095490Y138899110D01*
X-41445490Y138899110D02*
X-42095490Y138899110D01*
X-41445490Y138199120D02*
X-42095490Y138199120D01*
X-40295490Y138899110D02*
X-40945490Y138899110D01*
X-40295490Y138199120D02*
X-40945490Y138199120D01*
X-40295490Y138199120D02*
X-40295490Y138899110D01*
D15*
%TO.C,R8122*%
X-44716359Y65430000D02*
X-45023641Y65430000D01*
X-44716359Y64670000D02*
X-45023641Y64670000D01*
%TO.C,R131*%
X49660000Y83156359D02*
X49660000Y83463641D01*
X50420000Y83156359D02*
X50420000Y83463641D01*
%TO.C,R8152*%
X-14756359Y35420000D02*
X-15063641Y35420000D01*
X-14756359Y34660000D02*
X-15063641Y34660000D01*
%TO.C,C742*%
X-46470580Y128960000D02*
X-46189420Y128960000D01*
X-46470580Y127940000D02*
X-46189420Y127940000D01*
%TO.C,R7143*%
X8797500Y37057742D02*
X8797500Y37532258D01*
X9842500Y37057742D02*
X9842500Y37532258D01*
%TO.C,R772*%
X-17753641Y94060000D02*
X-17446359Y94060000D01*
X-17753641Y93300000D02*
X-17446359Y93300000D01*
%TO.C,C741*%
X-46447836Y127490000D02*
X-46232164Y127490000D01*
X-46447836Y126770000D02*
X-46232164Y126770000D01*
%TO.C,C112*%
X-14704420Y80090000D02*
X-14985580Y80090000D01*
X-14704420Y79070000D02*
X-14985580Y79070000D01*
%TO.C,R114*%
X-21723641Y85810000D02*
X-21416359Y85810000D01*
X-21723641Y85050000D02*
X-21416359Y85050000D01*
%TO.C,R821*%
X7693641Y128660000D02*
X7386359Y128660000D01*
X7693641Y127900000D02*
X7386359Y127900000D01*
%TO.C,R7101*%
X10485000Y64394564D02*
X10485000Y63940436D01*
X11955000Y64394564D02*
X11955000Y63940436D01*
D18*
%TO.C,U7131*%
X38730000Y35380000D02*
X40080000Y35380000D01*
X38730000Y34030000D02*
X38730000Y35380000D01*
X39850000Y33830000D02*
X40280000Y33830000D01*
X40080000Y35380000D02*
X40080000Y35380000D01*
X40080000Y35380000D02*
X40080000Y34030000D01*
X40080000Y34030000D02*
X38730000Y34030000D01*
X40280000Y33830000D02*
X40280000Y34280000D01*
D15*
%TO.C,R842*%
X-44696359Y125440000D02*
X-45003641Y125440000D01*
X-44696359Y124680000D02*
X-45003641Y124680000D01*
%TO.C,JP112*%
X-16440000Y90290000D02*
X-13640000Y90290000D01*
X-16440000Y88290000D02*
X-16440000Y90290000D01*
X-13640000Y90290000D02*
X-13640000Y88290000D01*
X-13640000Y88290000D02*
X-16440000Y88290000D01*
D19*
%TO.C,C125*%
X-39325000Y126959990D02*
X-39325000Y127884990D01*
X-39325000Y125535000D02*
X-39325000Y126460000D01*
D12*
X-39125000Y126610000D02*
X-39125000Y126809990D01*
X-38525000Y126610000D02*
X-38525000Y126809990D01*
D19*
X-38325000Y127884990D02*
X-39325000Y127884990D01*
X-38325000Y126959990D02*
X-38325000Y127884990D01*
X-38325000Y125535000D02*
X-39325000Y125535000D01*
X-38325000Y125535000D02*
X-38325000Y126460000D01*
D15*
%TO.C,C131*%
X49660000Y85842164D02*
X49660000Y86057836D01*
X50380000Y85842164D02*
X50380000Y86057836D01*
%TO.C,C51*%
X-510740Y136385000D02*
X-229580Y136385000D01*
X-510740Y135365000D02*
X-229580Y135365000D01*
D19*
%TO.C,C122*%
X-35080080Y126310090D02*
X-35080080Y126960090D01*
X-35080080Y125160090D02*
X-35080080Y125810090D01*
X-34380080Y126960090D02*
X-35080080Y126960090D01*
X-34380080Y126310090D02*
X-34380080Y126960090D01*
X-34380080Y125160090D02*
X-35080080Y125160090D01*
X-34380080Y125160090D02*
X-34380080Y125810090D01*
D15*
%TO.C,C8122*%
X-42600000Y65274420D02*
X-42600000Y65555580D01*
X-41580000Y65274420D02*
X-41580000Y65555580D01*
D18*
%TO.C,U7151*%
X-17740000Y36410000D02*
X-17740000Y35960000D01*
X-17540000Y36210000D02*
X-16190000Y36210000D01*
X-17540000Y34860000D02*
X-17540000Y36210000D01*
X-17540000Y34860000D02*
X-17540000Y34860000D01*
X-17310000Y36410000D02*
X-17740000Y36410000D01*
X-16190000Y36210000D02*
X-16190000Y34860000D01*
X-16190000Y34860000D02*
X-17540000Y34860000D01*
D15*
%TO.C,R822*%
X7226359Y125760000D02*
X7533641Y125760000D01*
X7226359Y125000000D02*
X7533641Y125000000D01*
%TO.C,R851*%
X44826359Y92540000D02*
X45133641Y92540000D01*
X44826359Y91780000D02*
X45133641Y91780000D01*
%TO.C,C41*%
X10390000Y80772164D02*
X10390000Y80987836D01*
X11110000Y80772164D02*
X11110000Y80987836D01*
%TO.C,R102*%
X-14570000Y141893641D02*
X-14570000Y141586359D01*
X-13810000Y141893641D02*
X-13810000Y141586359D01*
%TO.C,C8121*%
X-44374420Y64360000D02*
X-44655580Y64360000D01*
X-44374420Y63340000D02*
X-44655580Y63340000D01*
%TO.C,TP2*%
X-23060000Y135940000D02*
X-21660000Y135940000D01*
X-23060000Y134540000D02*
X-23060000Y135940000D01*
X-21660000Y135940000D02*
X-21660000Y134540000D01*
X-21660000Y134540000D02*
X-23060000Y134540000D01*
%TO.C,C881*%
X-44414420Y94300000D02*
X-44695580Y94300000D01*
X-44414420Y93280000D02*
X-44695580Y93280000D01*
%TO.C,C842*%
X-42580000Y124514420D02*
X-42580000Y124795580D01*
X-41560000Y124514420D02*
X-41560000Y124795580D01*
D19*
%TO.C,C1211*%
X-37275480Y136711510D02*
X-37275480Y137411510D01*
X-36625480Y137411510D02*
X-37275480Y137411510D01*
X-36625480Y136711510D02*
X-37275480Y136711510D01*
X-35475480Y137411510D02*
X-36125480Y137411510D01*
X-35475480Y136711510D02*
X-36125480Y136711510D01*
X-35475480Y136711510D02*
X-35475480Y137411510D01*
D15*
%TO.C,R762*%
X10163641Y96830000D02*
X9856359Y96830000D01*
X10163641Y96070000D02*
X9856359Y96070000D01*
D19*
%TO.C,C126*%
X-30600000Y128209970D02*
X-30600000Y129209970D01*
X-29675000Y129209970D02*
X-30600000Y129209970D01*
X-29675000Y128209970D02*
X-30600000Y128209970D01*
D12*
X-29325000Y129009970D02*
X-29525000Y129009970D01*
X-29325000Y128409970D02*
X-29525000Y128409970D01*
D19*
X-28250000Y129209970D02*
X-29175000Y129209970D01*
X-28250000Y128209970D02*
X-29175000Y128209970D01*
X-28250000Y128209970D02*
X-28250000Y129209970D01*
D17*
%TO.C,D62*%
X-18470000Y138580000D02*
G75*
G02*
X-18630000Y138580000I-80000J0D01*
G01*
X-18630000Y138580000D02*
G75*
G02*
X-18470000Y138580000I80000J0D01*
G01*
D15*
%TO.C,C114*%
X-17949420Y81550000D02*
X-18230580Y81550000D01*
X-17949420Y80530000D02*
X-18230580Y80530000D01*
%TO.C,C761*%
X13522164Y97470000D02*
X13737836Y97470000D01*
X13522164Y96750000D02*
X13737836Y96750000D01*
%TO.C,C94*%
X-1950580Y44410000D02*
X-1669420Y44410000D01*
X-1950580Y43390000D02*
X-1669420Y43390000D01*
%TO.C,C8101*%
X15645580Y64350000D02*
X15364420Y64350000D01*
X15645580Y63330000D02*
X15364420Y63330000D01*
%TO.C,C44*%
X11697836Y84180000D02*
X11482164Y84180000D01*
X11697836Y83460000D02*
X11482164Y83460000D01*
D19*
%TO.C,L121*%
X-36217320Y138733900D02*
X-36217320Y139383900D01*
X-36217320Y137583910D02*
X-36217320Y138233910D01*
X-35517320Y139383900D02*
X-36217320Y139383900D01*
X-35517320Y138733900D02*
X-35517320Y139383900D01*
X-35517320Y137583910D02*
X-36217320Y137583910D01*
X-35517320Y137583910D02*
X-35517320Y138233900D01*
D15*
%TO.C,C98*%
X-10580000Y84092164D02*
X-10580000Y84307836D01*
X-9860000Y84092164D02*
X-9860000Y84307836D01*
%TO.C,C812*%
X34040000Y125685580D02*
X34040000Y125404420D01*
X35060000Y125685580D02*
X35060000Y125404420D01*
%TO.C,C712*%
X38950580Y122260000D02*
X38669420Y122260000D01*
X38950580Y121240000D02*
X38669420Y121240000D01*
%TO.C,C42*%
X8930000Y80565580D02*
X8930000Y80284420D01*
X9950000Y80565580D02*
X9950000Y80284420D01*
D16*
%TO.C,U22*%
X-7120000Y87270000D02*
X-7120000Y88030000D01*
X-6930000Y86130000D02*
X-5530000Y86130000D01*
X-6650000Y89050000D02*
X-5810000Y89050000D01*
D15*
%TO.C,R101*%
X-13536359Y140500000D02*
X-13843641Y140500000D01*
X-13536359Y139740000D02*
X-13843641Y139740000D01*
%TO.C,C101*%
X-11410000Y141512164D02*
X-11410000Y141727836D01*
X-10690000Y141512164D02*
X-10690000Y141727836D01*
%TO.C,R751*%
X40475000Y94414564D02*
X40475000Y93960436D01*
X41945000Y94414564D02*
X41945000Y93960436D01*
%TO.C,R743*%
X-47302500Y123222258D02*
X-47302500Y122747742D01*
X-46257500Y123222258D02*
X-46257500Y122747742D01*
D19*
%TO.C,R66*%
X-28206260Y137539850D02*
X-27506260Y137539850D01*
X-28206260Y136889850D02*
X-28206260Y137539850D01*
X-28206260Y135739850D02*
X-28206260Y136389850D01*
X-28206260Y135739850D02*
X-27506260Y135739850D01*
X-27506260Y136889850D02*
X-27506260Y137539850D01*
X-27506260Y135739850D02*
X-27506260Y136389850D01*
D18*
%TO.C,U33*%
X19820000Y73890000D02*
X19820000Y74390000D01*
X20120000Y74950000D02*
X20880000Y74950000D01*
X20120000Y74190000D02*
X20120000Y74950000D01*
X20320000Y73890000D02*
X19820000Y73890000D01*
X20880000Y74950000D02*
X20880000Y74190000D01*
X20880000Y74190000D02*
X20120000Y74190000D01*
D15*
%TO.C,C93*%
X-2477836Y45450000D02*
X-2262164Y45450000D01*
X-2477836Y44730000D02*
X-2262164Y44730000D01*
%TO.C,C832*%
X-12580000Y124504420D02*
X-12580000Y124785580D01*
X-11560000Y124504420D02*
X-11560000Y124785580D01*
D16*
%TO.C,U11*%
X35610000Y85070000D02*
X35610000Y83670000D01*
X36760000Y85260000D02*
X37520000Y85260000D01*
X38530000Y84790000D02*
X38530000Y83950000D01*
D20*
X36330000Y82360000D02*
G75*
G02*
X36030000Y82360000I-150000J0D01*
G01*
X36030000Y82360000D02*
G75*
G02*
X36330000Y82360000I150000J0D01*
G01*
D18*
%TO.C,U771*%
X-21430000Y95270000D02*
X-20080000Y95270000D01*
X-21430000Y93920000D02*
X-21430000Y95270000D01*
X-20310000Y93720000D02*
X-19880000Y93720000D01*
X-20080000Y95270000D02*
X-20080000Y95270000D01*
X-20080000Y95270000D02*
X-20080000Y93920000D01*
X-20080000Y93920000D02*
X-21430000Y93920000D01*
X-19880000Y93720000D02*
X-19880000Y94170000D01*
D15*
%TO.C,C97*%
X-11610000Y84092164D02*
X-11610000Y84307836D01*
X-10890000Y84092164D02*
X-10890000Y84307836D01*
%TO.C,R7121*%
X-49535000Y64404564D02*
X-49535000Y63950436D01*
X-48065000Y64404564D02*
X-48065000Y63950436D01*
%TO.C,C751*%
X43542164Y97490000D02*
X43757836Y97490000D01*
X43542164Y96770000D02*
X43757836Y96770000D01*
%TO.C,R732*%
X-19806359Y126840000D02*
X-20113641Y126840000D01*
X-19806359Y126080000D02*
X-20113641Y126080000D01*
%TO.C,R8102*%
X15303641Y65420000D02*
X14996359Y65420000D01*
X15303641Y64660000D02*
X14996359Y64660000D01*
%TO.C,C23*%
X-9654420Y86890000D02*
X-9935580Y86890000D01*
X-9654420Y85870000D02*
X-9935580Y85870000D01*
%TO.C,C821*%
X6884420Y127090000D02*
X7165580Y127090000D01*
X6884420Y126070000D02*
X7165580Y126070000D01*
D16*
%TO.C,L1*%
X27700000Y78540000D02*
X27900000Y78740000D01*
X27700000Y78390000D02*
X27700000Y78540000D01*
X27700000Y77340000D02*
X27700000Y78390000D01*
X27700000Y76340000D02*
X27700000Y75290000D01*
X27700000Y75290000D02*
X27700000Y75140000D01*
X27700000Y75140000D02*
X27900000Y74940000D01*
X27900000Y78740000D02*
X29900000Y78740000D01*
X27900000Y74940000D02*
X29900000Y74940000D01*
X30100000Y78540000D02*
X29900000Y78740000D01*
X30100000Y78390000D02*
X30100000Y78540000D01*
X30100000Y77340000D02*
X30100000Y78390000D01*
X30100000Y76340000D02*
X30100000Y75290000D01*
X30100000Y75290000D02*
X30100000Y75140000D01*
X30100000Y75140000D02*
X29900000Y74940000D01*
D15*
%TO.C,R832*%
X-14696359Y125430000D02*
X-15003641Y125430000D01*
X-14696359Y124670000D02*
X-15003641Y124670000D01*
D18*
%TO.C,U7141*%
X8670000Y35400000D02*
X10020000Y35400000D01*
X8670000Y34050000D02*
X8670000Y35400000D01*
X9790000Y33850000D02*
X10220000Y33850000D01*
X10020000Y35400000D02*
X10020000Y35400000D01*
X10020000Y35400000D02*
X10020000Y34050000D01*
X10020000Y34050000D02*
X8670000Y34050000D01*
X10220000Y33850000D02*
X10220000Y34300000D01*
D15*
%TO.C,C871*%
X-23205580Y96800000D02*
X-22924420Y96800000D01*
X-23205580Y95780000D02*
X-22924420Y95780000D01*
%TO.C,C831*%
X-14354420Y124360000D02*
X-14635580Y124360000D01*
X-14354420Y123340000D02*
X-14635580Y123340000D01*
%TO.C,C841*%
X-44354420Y124370000D02*
X-44635580Y124370000D01*
X-44354420Y123350000D02*
X-44635580Y123350000D01*
%TO.C,C36*%
X24724420Y70790000D02*
X25005580Y70790000D01*
X24724420Y69770000D02*
X25005580Y69770000D01*
%TO.C,C721*%
X8977836Y123670000D02*
X8762164Y123670000D01*
X8977836Y122950000D02*
X8762164Y122950000D01*
%TO.C,R7161*%
X-49535000Y34404564D02*
X-49535000Y33950436D01*
X-48065000Y34404564D02*
X-48065000Y33950436D01*
%TO.C,R831*%
X-15163641Y122530000D02*
X-14856359Y122530000D01*
X-15163641Y121770000D02*
X-14856359Y121770000D01*
%TO.C,C91*%
X-2727836Y105850000D02*
X-2512164Y105850000D01*
X-2727836Y105130000D02*
X-2512164Y105130000D01*
%TO.C,C862*%
X17390000Y94494420D02*
X17390000Y94775580D01*
X18410000Y94494420D02*
X18410000Y94775580D01*
D12*
%TO.C,U121*%
X-38700000Y128910000D02*
X-38700000Y136110000D01*
X-31500000Y136110000D02*
X-38700000Y136110000D01*
X-31500000Y128910000D02*
X-38700000Y128910000D01*
X-31500000Y128910000D02*
X-31500000Y136110000D01*
D16*
X-37725000Y128069990D02*
G75*
G02*
X-37975000Y128069990I-125000J0D01*
G01*
X-37975000Y128069990D02*
G75*
G02*
X-37725000Y128069990I125000J0D01*
G01*
D21*
G36*
X-38100000Y129010000D02*
G01*
X-38600000Y129010000D01*
X-38600020Y129510020D01*
X-38100000Y129010000D01*
G37*
D15*
%TO.C,R91*%
X-8426359Y84110000D02*
X-8733641Y84110000D01*
X-8426359Y83350000D02*
X-8733641Y83350000D01*
%TO.C,C822*%
X4090000Y125925580D02*
X4090000Y125644420D01*
X5110000Y125925580D02*
X5110000Y125644420D01*
%TO.C,C7121*%
X-46467836Y67390000D02*
X-46252164Y67390000D01*
X-46467836Y66670000D02*
X-46252164Y66670000D01*
%TO.C,C781*%
X-46507836Y97330000D02*
X-46292164Y97330000D01*
X-46507836Y96610000D02*
X-46292164Y96610000D01*
%TO.C,C43*%
X9707836Y83210000D02*
X9492164Y83210000D01*
X9707836Y82490000D02*
X9492164Y82490000D01*
%TO.C,R8162*%
X-44716359Y35430000D02*
X-45023641Y35430000D01*
X-44716359Y34670000D02*
X-45023641Y34670000D01*
D18*
%TO.C,X122*%
X-37130000Y126480000D02*
X-36880000Y126480000D01*
X-37130000Y123690000D02*
X-37130000Y126480000D01*
X-37120000Y126480000D02*
X-35360000Y126480000D01*
X-35360000Y126480000D02*
X-35360000Y123690000D01*
X-35360000Y123690000D02*
X-37130000Y123690000D01*
D15*
%TO.C,D51*%
X-4445160Y132190000D02*
X-3175160Y132190000D01*
X-3145160Y135310000D02*
X-4445160Y135310000D01*
X-2555160Y131910000D02*
X-3035160Y131910000D01*
X-2795160Y132240000D01*
X-2555160Y131910000D01*
G36*
X-2555160Y131910000D02*
G01*
X-3035160Y131910000D01*
X-2795160Y132240000D01*
X-2555160Y131910000D01*
G37*
D18*
%TO.C,U7111*%
X-21460000Y65340000D02*
X-20110000Y65340000D01*
X-21460000Y63990000D02*
X-21460000Y65340000D01*
X-20340000Y63790000D02*
X-19910000Y63790000D01*
X-20110000Y65340000D02*
X-20110000Y65340000D01*
X-20110000Y65340000D02*
X-20110000Y63990000D01*
X-20110000Y63990000D02*
X-21460000Y63990000D01*
X-19910000Y63790000D02*
X-19910000Y64240000D01*
D15*
%TO.C,C792*%
X43519420Y68820000D02*
X43800580Y68820000D01*
X43519420Y67800000D02*
X43800580Y67800000D01*
%TO.C,C47*%
X6670000Y83362164D02*
X6670000Y83577836D01*
X7390000Y83362164D02*
X7390000Y83577836D01*
%TO.C,C12*%
X36340000Y79842836D02*
X36340000Y79627164D01*
X37060000Y79842836D02*
X37060000Y79627164D01*
D18*
%TO.C,U93*%
X-6010000Y82880000D02*
X-7470000Y82880000D01*
X-6010000Y80720000D02*
X-7470000Y80720000D01*
X-5650000Y80660000D02*
G75*
G02*
X-5790000Y80660000I-70000J0D01*
G01*
X-5790000Y80660000D02*
G75*
G02*
X-5650000Y80660000I70000J0D01*
G01*
D15*
%TO.C,R781*%
X-49575000Y94344564D02*
X-49575000Y93890436D01*
X-48105000Y94344564D02*
X-48105000Y93890436D01*
%TO.C,R7113*%
X-21332500Y66997742D02*
X-21332500Y67472258D01*
X-20287500Y66997742D02*
X-20287500Y67472258D01*
D10*
%TO.C,U42*%
X7580000Y86570000D02*
X7580000Y84770000D01*
X7720000Y86570000D02*
X7580000Y86570000D01*
X7720000Y84770000D02*
X7580000Y84770000D01*
X8670000Y84770000D02*
X8630000Y84770000D01*
X9620000Y86570000D02*
X8630000Y86570000D01*
X9620000Y84770000D02*
X9580000Y84770000D01*
X10680000Y86570000D02*
X10530000Y86570000D01*
X10680000Y86570000D02*
X10680000Y84770000D01*
X10680000Y84770000D02*
X10530000Y84770000D01*
D15*
%TO.C,C8141*%
X6894420Y36930000D02*
X7175580Y36930000D01*
X6894420Y35910000D02*
X7175580Y35910000D01*
%TO.C,C22*%
X-18320000Y78679420D02*
X-18320000Y78960580D01*
X-17300000Y78679420D02*
X-17300000Y78960580D01*
%TO.C,R852*%
X45293641Y95440000D02*
X44986359Y95440000D01*
X45293641Y94680000D02*
X44986359Y94680000D01*
%TO.C,R882*%
X-44756359Y95370000D02*
X-45063641Y95370000D01*
X-44756359Y94610000D02*
X-45063641Y94610000D01*
D18*
%TO.C,D101*%
X-13530000Y140930000D02*
X-13530000Y142530000D01*
X-12640000Y141590000D02*
X-12640000Y141840000D01*
X-12320000Y141840000D02*
X-12960000Y141840000D01*
X-11750000Y142530000D02*
X-11750000Y140930000D01*
D15*
%TO.C,C7131*%
X39047836Y33580000D02*
X38832164Y33580000D01*
X39047836Y32860000D02*
X38832164Y32860000D01*
%TO.C,C11*%
X40470000Y79842836D02*
X40470000Y79627164D01*
X41190000Y79842836D02*
X41190000Y79627164D01*
%TO.C,C722*%
X9000580Y122500000D02*
X8719420Y122500000D01*
X9000580Y121480000D02*
X8719420Y121480000D01*
%TO.C,R773*%
X-21302500Y96927742D02*
X-21302500Y97402258D01*
X-20257500Y96927742D02*
X-20257500Y97402258D01*
%TO.C,C7122*%
X-46490580Y68830000D02*
X-46209420Y68830000D01*
X-46490580Y67810000D02*
X-46209420Y67810000D01*
%TO.C,C7141*%
X8987836Y33600000D02*
X8772164Y33600000D01*
X8987836Y32880000D02*
X8772164Y32880000D01*
%TO.C,R41*%
X12420000Y76863641D02*
X12420000Y76556359D01*
X13180000Y76863641D02*
X13180000Y76556359D01*
%TO.C,R32*%
X30213641Y74530000D02*
X29906359Y74530000D01*
X30213641Y73770000D02*
X29906359Y73770000D01*
%TO.C,R123*%
X-32930000Y127326359D02*
X-32930000Y127633641D01*
X-32170000Y127326359D02*
X-32170000Y127633641D01*
D19*
%TO.C,R64*%
X-28216260Y134839680D02*
X-28216260Y135539680D01*
X-27566260Y135539680D02*
X-28216260Y135539680D01*
X-27566260Y134839680D02*
X-28216260Y134839680D01*
X-26416260Y135539680D02*
X-27066260Y135539680D01*
X-26416260Y134839680D02*
X-27066260Y134839680D01*
X-26416260Y134839680D02*
X-26416260Y135539680D01*
D15*
%TO.C,R7163*%
X-47322500Y33212258D02*
X-47322500Y32737742D01*
X-46277500Y33212258D02*
X-46277500Y32737742D01*
%TO.C,C15*%
X37155580Y82310000D02*
X36874420Y82310000D01*
X37155580Y81290000D02*
X36874420Y81290000D01*
%TO.C,C891*%
X45635580Y64350000D02*
X45354420Y64350000D01*
X45635580Y63330000D02*
X45354420Y63330000D01*
%TO.C,TP1*%
X-23090000Y133420000D02*
X-21690000Y133420000D01*
X-23090000Y132020000D02*
X-23090000Y133420000D01*
X-21690000Y133420000D02*
X-21690000Y132020000D01*
X-21690000Y132020000D02*
X-23090000Y132020000D01*
%TO.C,R8161*%
X-45183641Y32530000D02*
X-44876359Y32530000D01*
X-45183641Y31770000D02*
X-44876359Y31770000D01*
D18*
%TO.C,U7161*%
X-47700000Y36420000D02*
X-47700000Y35970000D01*
X-47500000Y36220000D02*
X-46150000Y36220000D01*
X-47500000Y34870000D02*
X-47500000Y36220000D01*
X-47500000Y34870000D02*
X-47500000Y34870000D01*
X-47270000Y36420000D02*
X-47700000Y36420000D01*
X-46150000Y36220000D02*
X-46150000Y34870000D01*
X-46150000Y34870000D02*
X-47500000Y34870000D01*
D15*
%TO.C,R42*%
X13610000Y76853641D02*
X13610000Y76546359D01*
X14370000Y76853641D02*
X14370000Y76546359D01*
%TO.C,R862*%
X15273641Y95420000D02*
X14966359Y95420000D01*
X15273641Y94660000D02*
X14966359Y94660000D01*
%TO.C,R7123*%
X-47322500Y63212258D02*
X-47322500Y62737742D01*
X-46277500Y63212258D02*
X-46277500Y62737742D01*
%TO.C,C772*%
X-21089420Y92330000D02*
X-21370580Y92330000D01*
X-21089420Y91310000D02*
X-21370580Y91310000D01*
%TO.C,R125*%
X-32036359Y142380000D02*
X-32343641Y142380000D01*
X-32036359Y141620000D02*
X-32343641Y141620000D01*
D19*
%TO.C,C1213*%
X-33449910Y138659880D02*
X-33449910Y139309880D01*
X-33449910Y137509880D02*
X-33449910Y138159880D01*
X-32749920Y139309880D02*
X-33449910Y139309880D01*
X-32749920Y138659880D02*
X-32749920Y139309880D01*
X-32749920Y137509880D02*
X-33449910Y137509880D01*
X-32749920Y137509880D02*
X-32749920Y138159880D01*
D15*
%TO.C,C7161*%
X-46467836Y37390000D02*
X-46252164Y37390000D01*
X-46467836Y36670000D02*
X-46252164Y36670000D01*
%TO.C,C7152*%
X-16530580Y38820000D02*
X-16249420Y38820000D01*
X-16530580Y37800000D02*
X-16249420Y37800000D01*
%TO.C,C33*%
X27890000Y73275580D02*
X27890000Y72994420D01*
X28910000Y73275580D02*
X28910000Y72994420D01*
%TO.C,C7101*%
X13552164Y67380000D02*
X13767836Y67380000D01*
X13552164Y66660000D02*
X13767836Y66660000D01*
D18*
%TO.C,U711*%
X38610000Y125320000D02*
X39960000Y125320000D01*
X38610000Y123970000D02*
X38610000Y125320000D01*
X39730000Y123770000D02*
X40160000Y123770000D01*
X39960000Y125320000D02*
X39960000Y125320000D01*
X39960000Y125320000D02*
X39960000Y123970000D01*
X39960000Y123970000D02*
X38610000Y123970000D01*
X40160000Y123770000D02*
X40160000Y124220000D01*
D15*
%TO.C,R113*%
X-21723641Y84870000D02*
X-21416359Y84870000D01*
X-21723641Y84110000D02*
X-21416359Y84110000D01*
%TO.C,C771*%
X-21112164Y93470000D02*
X-21327836Y93470000D01*
X-21112164Y92750000D02*
X-21327836Y92750000D01*
D10*
%TO.C,U132*%
X50460000Y81835000D02*
X50460000Y81685000D01*
X50460000Y81685000D02*
X50610000Y81685000D01*
D11*
X50500000Y82735000D02*
X51510000Y82735000D01*
X50500000Y81835000D02*
X50500000Y82735000D01*
X50510000Y81835000D02*
X50500000Y81835000D01*
X50610000Y81735000D02*
X50510000Y81785000D01*
D10*
X50610000Y81685000D02*
X50460000Y81835000D01*
D11*
X51510000Y82735000D02*
X51510000Y81735000D01*
X51510000Y81735000D02*
X50610000Y81735000D01*
D15*
%TO.C,C732*%
X-16470580Y128950000D02*
X-16189420Y128950000D01*
X-16470580Y127930000D02*
X-16189420Y127930000D01*
%TO.C,C7132*%
X39070580Y32440000D02*
X38789420Y32440000D01*
X39070580Y31420000D02*
X38789420Y31420000D01*
%TO.C,C96*%
X-10910000Y81010580D02*
X-10910000Y80729420D01*
X-9890000Y81010580D02*
X-9890000Y80729420D01*
D19*
%TO.C,C1210*%
X-39999920Y135484910D02*
X-39999920Y136134910D01*
X-39999920Y134334910D02*
X-39999920Y134984910D01*
X-39299920Y136134910D02*
X-39999920Y136134910D01*
X-39299920Y135484910D02*
X-39299920Y136134910D01*
X-39299920Y134334910D02*
X-39999920Y134334910D01*
X-39299920Y134334910D02*
X-39299920Y134984910D01*
D15*
%TO.C,R791*%
X40475000Y64394564D02*
X40475000Y63940436D01*
X41945000Y64394564D02*
X41945000Y63940436D01*
%TO.C,C851*%
X45635580Y94370000D02*
X45354420Y94370000D01*
X45635580Y93350000D02*
X45354420Y93350000D01*
%TO.C,C8112*%
X-26030000Y65705580D02*
X-26030000Y65424420D01*
X-25010000Y65705580D02*
X-25010000Y65424420D01*
%TO.C,C8111*%
X-23235580Y66870000D02*
X-22954420Y66870000D01*
X-23235580Y65850000D02*
X-22954420Y65850000D01*
%TO.C,R892*%
X45293641Y65420000D02*
X44986359Y65420000D01*
X45293641Y64660000D02*
X44986359Y64660000D01*
%TO.C,R7162*%
X-49826359Y36840000D02*
X-50133641Y36840000D01*
X-49826359Y36080000D02*
X-50133641Y36080000D01*
%TO.C,R7142*%
X12346359Y34190000D02*
X12653641Y34190000D01*
X12346359Y33430000D02*
X12653641Y33430000D01*
D19*
%TO.C,C129*%
X-40575000Y130410000D02*
X-40575000Y131335000D01*
X-40575000Y128985000D02*
X-40575000Y129910000D01*
D12*
X-40375000Y130060000D02*
X-40375000Y130260000D01*
X-39775000Y130060000D02*
X-39775000Y130260000D01*
D19*
X-39575000Y131335000D02*
X-40575000Y131335000D01*
X-39575000Y130410000D02*
X-39575000Y131335000D01*
X-39575000Y128985000D02*
X-40575000Y128985000D01*
X-39575000Y128985000D02*
X-39575000Y129910000D01*
D15*
%TO.C,C48*%
X5200000Y83045580D02*
X5200000Y82764420D01*
X6220000Y83045580D02*
X6220000Y82764420D01*
%TO.C,C811*%
X36834420Y126850000D02*
X37115580Y126850000D01*
X36834420Y125830000D02*
X37115580Y125830000D01*
%TO.C,C92*%
X-2185580Y104800000D02*
X-1904420Y104800000D01*
X-2185580Y103780000D02*
X-1904420Y103780000D01*
%TO.C,R861*%
X14806359Y92520000D02*
X15113641Y92520000D01*
X14806359Y91760000D02*
X15113641Y91760000D01*
%TO.C,R763*%
X12667500Y93202258D02*
X12667500Y92727742D01*
X13712500Y93202258D02*
X13712500Y92727742D01*
D18*
%TO.C,U91*%
X-6010000Y111680000D02*
X-850000Y111680000D01*
X-6010000Y108140000D02*
X-6010000Y111680000D01*
X-850000Y111680000D02*
X-850000Y108140000D01*
X-850000Y108140000D02*
X-6010000Y108140000D01*
D20*
X-1250000Y111180000D02*
G75*
G02*
X-1550000Y111180000I-150000J0D01*
G01*
X-1550000Y111180000D02*
G75*
G02*
X-1250000Y111180000I150000J0D01*
G01*
X-380000Y112780000D02*
G75*
G02*
X-680000Y112780000I-150000J0D01*
G01*
X-680000Y112780000D02*
G75*
G02*
X-380000Y112780000I150000J0D01*
G01*
D15*
%TO.C,C8161*%
X-44374420Y34360000D02*
X-44655580Y34360000D01*
X-44374420Y33340000D02*
X-44655580Y33340000D01*
%TO.C,R722*%
X12336359Y124350000D02*
X12643641Y124350000D01*
X12336359Y123590000D02*
X12643641Y123590000D01*
%TO.C,R721*%
X10575000Y126025436D02*
X10575000Y126479564D01*
X12045000Y126025436D02*
X12045000Y126479564D01*
%TO.C,R43*%
X13613641Y83220000D02*
X13306359Y83220000D01*
X13613641Y82460000D02*
X13306359Y82460000D01*
D18*
%TO.C,U731*%
X-17680000Y126420000D02*
X-17680000Y125970000D01*
X-17480000Y126220000D02*
X-16130000Y126220000D01*
X-17480000Y124870000D02*
X-17480000Y126220000D01*
X-17480000Y124870000D02*
X-17480000Y124870000D01*
X-17250000Y126420000D02*
X-17680000Y126420000D01*
X-16130000Y126220000D02*
X-16130000Y124870000D01*
X-16130000Y124870000D02*
X-17480000Y124870000D01*
D15*
%TO.C,C7151*%
X-16507836Y37380000D02*
X-16292164Y37380000D01*
X-16507836Y36660000D02*
X-16292164Y36660000D01*
%TO.C,C8142*%
X4100000Y35765580D02*
X4100000Y35484420D01*
X5120000Y35765580D02*
X5120000Y35484420D01*
%TO.C,C8131*%
X36954420Y36910000D02*
X37235580Y36910000D01*
X36954420Y35890000D02*
X37235580Y35890000D01*
%TO.C,C872*%
X-26000000Y95635580D02*
X-26000000Y95354420D01*
X-24980000Y95635580D02*
X-24980000Y95354420D01*
D18*
%TO.C,U7121*%
X-47700000Y66420000D02*
X-47700000Y65970000D01*
X-47500000Y66220000D02*
X-46150000Y66220000D01*
X-47500000Y64870000D02*
X-47500000Y66220000D01*
X-47500000Y64870000D02*
X-47500000Y64870000D01*
X-47270000Y66420000D02*
X-47700000Y66420000D01*
X-46150000Y66220000D02*
X-46150000Y64870000D01*
X-46150000Y64870000D02*
X-47500000Y64870000D01*
D15*
%TO.C,C861*%
X15615580Y94350000D02*
X15334420Y94350000D01*
X15615580Y93330000D02*
X15334420Y93330000D01*
%TO.C,R8111*%
X-22426359Y68440000D02*
X-22733641Y68440000D01*
X-22426359Y67680000D02*
X-22733641Y67680000D01*
%TO.C,C882*%
X-42640000Y94444420D02*
X-42640000Y94725580D01*
X-41620000Y94444420D02*
X-41620000Y94725580D01*
%TO.C,R7133*%
X38857500Y37037742D02*
X38857500Y37512258D01*
X39902500Y37037742D02*
X39902500Y37512258D01*
D10*
%TO.C,U32*%
X24430000Y74310000D02*
X24430000Y74160000D01*
X24430000Y74310000D02*
X26230000Y74310000D01*
X24430000Y73250000D02*
X24430000Y72260000D01*
X24430000Y71350000D02*
X24430000Y71210000D01*
X24430000Y71210000D02*
X26230000Y71210000D01*
X26230000Y74310000D02*
X26230000Y74160000D01*
X26230000Y73250000D02*
X26230000Y73210000D01*
X26230000Y72300000D02*
X26230000Y72260000D01*
X26230000Y71350000D02*
X26230000Y71210000D01*
D15*
%TO.C,R811*%
X37643641Y128420000D02*
X37336359Y128420000D01*
X37643641Y127660000D02*
X37336359Y127660000D01*
%TO.C,C852*%
X47410000Y94514420D02*
X47410000Y94795580D01*
X48430000Y94514420D02*
X48430000Y94795580D01*
%TO.C,R7102*%
X10193641Y66830000D02*
X9886359Y66830000D01*
X10193641Y66070000D02*
X9886359Y66070000D01*
%TO.C,R7103*%
X12697500Y63202258D02*
X12697500Y62727742D01*
X13742500Y63202258D02*
X13742500Y62727742D01*
%TO.C,R7111*%
X-19545000Y65805436D02*
X-19545000Y66259564D01*
X-18075000Y65805436D02*
X-18075000Y66259564D01*
D19*
%TO.C,C121*%
X-37150080Y127409920D02*
X-37150080Y126709920D01*
X-37150080Y127409920D02*
X-36500090Y127409920D01*
X-37150080Y126709920D02*
X-36500090Y126709920D01*
X-36000090Y127409920D02*
X-35350080Y127409920D01*
X-36000090Y126709920D02*
X-35350080Y126709920D01*
X-35350080Y127409920D02*
X-35350080Y126709920D01*
D15*
%TO.C,C16*%
X36899420Y87190000D02*
X37180580Y87190000D01*
X36899420Y86170000D02*
X37180580Y86170000D01*
%TO.C,SW11*%
X57844840Y82955220D02*
X60564840Y82955220D01*
X57844840Y82695220D02*
X57304840Y82695220D01*
X57844840Y82695220D02*
X57844840Y82945220D01*
X57844840Y81125220D02*
X57844840Y79165220D01*
X57844840Y77335220D02*
X57844840Y77595220D01*
X60554840Y77335220D02*
X57854840Y77335220D01*
X60564840Y82955220D02*
X60564840Y80945220D01*
X60564840Y79345220D02*
X60564840Y77335220D01*
%TO.C,R713*%
X38737500Y126977742D02*
X38737500Y127452258D01*
X39782500Y126977742D02*
X39782500Y127452258D01*
%TO.C,C34*%
X21960000Y74645580D02*
X21960000Y74364420D01*
X22980000Y74645580D02*
X22980000Y74364420D01*
%TO.C,R7153*%
X-17362500Y33202258D02*
X-17362500Y32727742D01*
X-16317500Y33202258D02*
X-16317500Y32727742D01*
%TO.C,C7162*%
X-46490580Y38830000D02*
X-46209420Y38830000D01*
X-46490580Y37810000D02*
X-46209420Y37810000D01*
%TO.C,C32*%
X31689420Y76530000D02*
X31970580Y76530000D01*
X31689420Y75510000D02*
X31970580Y75510000D01*
D19*
%TO.C,C123*%
X-31324990Y127024590D02*
X-31324990Y128024590D01*
X-30399990Y128024590D02*
X-31324990Y128024590D01*
X-30399990Y127024590D02*
X-31324990Y127024590D01*
D12*
X-30050000Y127824600D02*
X-30249990Y127824600D01*
X-30050000Y127224590D02*
X-30249990Y127224590D01*
D19*
X-28975000Y128024590D02*
X-29900000Y128024590D01*
X-28975000Y127024590D02*
X-29900000Y127024590D01*
X-28975000Y127024590D02*
X-28975000Y128024590D01*
D15*
%TO.C,R31*%
X29403641Y79840000D02*
X29096359Y79840000D01*
X29403641Y79080000D02*
X29096359Y79080000D01*
%TO.C,R761*%
X10455000Y94394564D02*
X10455000Y93940436D01*
X11925000Y94394564D02*
X11925000Y93940436D01*
D19*
%TO.C,C1217*%
X-42095320Y134643280D02*
X-42095320Y135343280D01*
X-41445320Y135343280D02*
X-42095320Y135343280D01*
X-41445320Y134643280D02*
X-42095320Y134643280D01*
X-40295320Y135343280D02*
X-40945320Y135343280D01*
X-40295320Y134643280D02*
X-40945320Y134643280D01*
X-40295320Y134643280D02*
X-40295320Y135343280D01*
D15*
%TO.C,C45*%
X6490000Y86382164D02*
X6490000Y86597836D01*
X7210000Y86382164D02*
X7210000Y86597836D01*
%TO.C,R7112*%
X-17783641Y64130000D02*
X-17476359Y64130000D01*
X-17783641Y63370000D02*
X-17476359Y63370000D01*
%TO.C,C132*%
X50580000Y85842164D02*
X50580000Y86057836D01*
X51300000Y85842164D02*
X51300000Y86057836D01*
D19*
%TO.C,C1214*%
X-30875080Y135184920D02*
X-30875080Y135884920D01*
X-30225080Y135884920D02*
X-30875080Y135884920D01*
X-30225080Y135184920D02*
X-30875080Y135184920D01*
X-29075080Y135884920D02*
X-29725080Y135884920D01*
X-29075080Y135184920D02*
X-29725080Y135184920D01*
X-29075080Y135184920D02*
X-29075080Y135884920D01*
D15*
%TO.C,R841*%
X-45163641Y122540000D02*
X-44856359Y122540000D01*
X-45163641Y121780000D02*
X-44856359Y121780000D01*
D16*
%TO.C,U31*%
X30840000Y79280000D02*
X32340000Y79280000D01*
X30840000Y77080000D02*
X32340000Y77080000D01*
X32990000Y77440000D02*
G75*
G02*
X32790000Y77440000I-100000J0D01*
G01*
X32790000Y77440000D02*
G75*
G02*
X32990000Y77440000I100000J0D01*
G01*
D19*
%TO.C,C127*%
X-30600000Y129384970D02*
X-30600000Y130384970D01*
X-29675000Y130384970D02*
X-30600000Y130384970D01*
X-29675000Y129384970D02*
X-30600000Y129384970D01*
D12*
X-29325000Y130184970D02*
X-29525000Y130184970D01*
X-29325000Y129584970D02*
X-29525000Y129584970D01*
D19*
X-28250000Y130384970D02*
X-29175000Y130384970D01*
X-28250000Y129384970D02*
X-29175000Y129384970D01*
X-28250000Y129384970D02*
X-28250000Y130384970D01*
D15*
%TO.C,R124*%
X-33310000Y125456359D02*
X-33310000Y125763641D01*
X-32550000Y125456359D02*
X-32550000Y125763641D01*
%TO.C,C8102*%
X17420000Y64044420D02*
X17420000Y64325580D01*
X18440000Y64044420D02*
X18440000Y64325580D01*
%TO.C,C31*%
X33380000Y78475580D02*
X33380000Y78194420D01*
X34400000Y78475580D02*
X34400000Y78194420D01*
%TO.C,R8112*%
X-22893641Y65540000D02*
X-22586359Y65540000D01*
X-22893641Y64780000D02*
X-22586359Y64780000D01*
%TO.C,C7102*%
X13529420Y68820000D02*
X13810580Y68820000D01*
X13529420Y67800000D02*
X13810580Y67800000D01*
D19*
%TO.C,R61*%
X-30296260Y136439680D02*
X-30296260Y137139680D01*
X-29646260Y137139680D02*
X-30296260Y137139680D01*
X-29646260Y136439680D02*
X-30296260Y136439680D01*
X-28496260Y137139680D02*
X-29146260Y137139680D01*
X-28496260Y136439680D02*
X-29146260Y136439680D01*
X-28496260Y136439680D02*
X-28496260Y137139680D01*
D15*
%TO.C,R792*%
X40183641Y66830000D02*
X39876359Y66830000D01*
X40183641Y66070000D02*
X39876359Y66070000D01*
%TO.C,C731*%
X-16447836Y127480000D02*
X-16232164Y127480000D01*
X-16447836Y126760000D02*
X-16232164Y126760000D01*
%TO.C,R723*%
X8787500Y127217742D02*
X8787500Y127692258D01*
X9832500Y127217742D02*
X9832500Y127692258D01*
%TO.C,R112*%
X-21723641Y83930000D02*
X-21416359Y83930000D01*
X-21723641Y83170000D02*
X-21416359Y83170000D01*
D18*
%TO.C,U751*%
X42310000Y96430000D02*
X42310000Y95980000D01*
X42510000Y96230000D02*
X43860000Y96230000D01*
X42510000Y94880000D02*
X42510000Y96230000D01*
X42510000Y94880000D02*
X42510000Y94880000D01*
X42740000Y96430000D02*
X42310000Y96430000D01*
X43860000Y96230000D02*
X43860000Y94880000D01*
X43860000Y94880000D02*
X42510000Y94880000D01*
D15*
%TO.C,C711*%
X38927836Y123430000D02*
X38712164Y123430000D01*
X38927836Y122710000D02*
X38712164Y122710000D01*
%TO.C,R7151*%
X-19575000Y34394564D02*
X-19575000Y33940436D01*
X-18105000Y34394564D02*
X-18105000Y33940436D01*
%TO.C,C791*%
X43542164Y67380000D02*
X43757836Y67380000D01*
X43542164Y66660000D02*
X43757836Y66660000D01*
%TO.C,C8151*%
X-14414420Y34350000D02*
X-14695580Y34350000D01*
X-14414420Y33330000D02*
X-14695580Y33330000D01*
D18*
%TO.C,U721*%
X8660000Y125560000D02*
X10010000Y125560000D01*
X8660000Y124210000D02*
X8660000Y125560000D01*
X9780000Y124010000D02*
X10210000Y124010000D01*
X10010000Y125560000D02*
X10010000Y125560000D01*
X10010000Y125560000D02*
X10010000Y124210000D01*
X10010000Y124210000D02*
X8660000Y124210000D01*
X10210000Y124010000D02*
X10210000Y124460000D01*
D15*
%TO.C,R115*%
X-21723641Y82990000D02*
X-21416359Y82990000D01*
X-21723641Y82230000D02*
X-21416359Y82230000D01*
%TO.C,C113*%
X-14297836Y83230000D02*
X-14082164Y83230000D01*
X-14297836Y82510000D02*
X-14082164Y82510000D01*
%TO.C,TP3*%
X-23050000Y138480000D02*
X-21650000Y138480000D01*
X-23050000Y137080000D02*
X-23050000Y138480000D01*
X-21650000Y138480000D02*
X-21650000Y137080000D01*
X-21650000Y137080000D02*
X-23050000Y137080000D01*
D19*
%TO.C,J51*%
X-8392560Y145047300D02*
X-8392560Y143561696D01*
X-8392560Y141079704D02*
X-8392560Y139564086D01*
X802240Y145047300D02*
X-8392560Y145047300D01*
X802240Y143561696D02*
X802240Y145047300D01*
X802240Y139564086D02*
X802240Y141079704D01*
D18*
%TO.C,U761*%
X12290000Y96410000D02*
X12290000Y95960000D01*
X12490000Y96210000D02*
X13840000Y96210000D01*
X12490000Y94860000D02*
X12490000Y96210000D01*
X12490000Y94860000D02*
X12490000Y94860000D01*
X12720000Y96410000D02*
X12290000Y96410000D01*
X13840000Y96210000D02*
X13840000Y94860000D01*
X13840000Y94860000D02*
X12490000Y94860000D01*
D15*
%TO.C,R8132*%
X37296359Y35580000D02*
X37603641Y35580000D01*
X37296359Y34820000D02*
X37603641Y34820000D01*
%TO.C,C46*%
X4990000Y86335580D02*
X4990000Y86054420D01*
X6010000Y86335580D02*
X6010000Y86054420D01*
%TO.C,R711*%
X40525000Y125785436D02*
X40525000Y126239564D01*
X41995000Y125785436D02*
X41995000Y126239564D01*
%TO.C,R21*%
X-9096359Y88890000D02*
X-9403641Y88890000D01*
X-9096359Y88130000D02*
X-9403641Y88130000D01*
%TO.C,R122*%
X-35070000Y127836359D02*
X-35070000Y128143641D01*
X-34310000Y127836359D02*
X-34310000Y128143641D01*
%TO.C,R783*%
X-47362500Y93152258D02*
X-47362500Y92677742D01*
X-46317500Y93152258D02*
X-46317500Y92677742D01*
%TO.C,R731*%
X-19515000Y124404564D02*
X-19515000Y123950436D01*
X-18045000Y124404564D02*
X-18045000Y123950436D01*
D19*
%TO.C,R62*%
X-30896260Y137329680D02*
X-30896260Y138029680D01*
X-30246260Y138029680D02*
X-30896260Y138029680D01*
X-30246260Y137329680D02*
X-30896260Y137329680D01*
X-29096260Y138029680D02*
X-29746260Y138029680D01*
X-29096260Y137329680D02*
X-29746260Y137329680D01*
X-29096260Y137329680D02*
X-29096260Y138029680D01*
D15*
%TO.C,R712*%
X42286359Y124110000D02*
X42593641Y124110000D01*
X42286359Y123350000D02*
X42593641Y123350000D01*
%TO.C,R8141*%
X7703641Y38500000D02*
X7396359Y38500000D01*
X7703641Y37740000D02*
X7396359Y37740000D01*
%TD*%
%LPC*%
%TO.C,JP111*%
G36*
X-15190000Y87530000D02*
G01*
X-14890000Y87530000D01*
X-14890000Y86030000D01*
X-15190000Y86030000D01*
X-15190000Y87530000D01*
G37*
D22*
%TO.C,J11*%
X56276200Y91703800D02*
X54823800Y91703800D01*
X54823800Y92656200D01*
X56276200Y92656200D01*
X56276200Y91703800D01*
G36*
X56276200Y91703800D02*
G01*
X54823800Y91703800D01*
X54823800Y92656200D01*
X56276200Y92656200D01*
X56276200Y91703800D01*
G37*
X56276200Y90453800D02*
X54823800Y90453800D01*
X54823800Y91406200D01*
X56276200Y91406200D01*
X56276200Y90453800D01*
G36*
X56276200Y90453800D02*
G01*
X54823800Y90453800D01*
X54823800Y91406200D01*
X56276200Y91406200D01*
X56276200Y90453800D01*
G37*
X59876200Y93603800D02*
X56723800Y93603800D01*
X56723800Y95856200D01*
X59876200Y95856200D01*
X59876200Y93603800D01*
G36*
X59876200Y93603800D02*
G01*
X56723800Y93603800D01*
X56723800Y95856200D01*
X59876200Y95856200D01*
X59876200Y93603800D01*
G37*
X59876200Y87253800D02*
X56723800Y87253800D01*
X56723800Y89506200D01*
X59876200Y89506200D01*
X59876200Y87253800D01*
G36*
X59876200Y87253800D02*
G01*
X56723800Y87253800D01*
X56723800Y89506200D01*
X59876200Y89506200D01*
X59876200Y87253800D01*
G37*
%TO.C,JP112*%
G36*
X-14890000Y88540000D02*
G01*
X-15190000Y88540000D01*
X-15190000Y90040000D01*
X-14890000Y90040000D01*
X-14890000Y88540000D01*
G37*
%TD*%
D23*
%TO.C,R7122*%
X-49470000Y66460000D03*
X-50490000Y66460000D03*
%TD*%
D24*
%TO.C,R872*%
X-23220000Y95090000D03*
X-22200000Y95090000D03*
%TD*%
D25*
%TO.C,C8132*%
X34670000Y36380000D03*
X34670000Y34830000D03*
%TD*%
D26*
%TO.C,H61*%
X-12580000Y133500000D03*
X-16660000Y133500000D03*
X-12580000Y134770000D03*
X-16660000Y134770000D03*
X-12580000Y136040000D03*
X-16660000Y136040000D03*
X-12580000Y137310000D03*
X-16660000Y137310000D03*
X-12580000Y138580000D03*
X-16660000Y138580000D03*
%TD*%
D27*
%TO.C,C7112*%
X-20485000Y61890000D03*
X-22035000Y61890000D03*
%TD*%
D23*
%TO.C,R103*%
X-12280000Y143280000D03*
X-13300000Y143280000D03*
%TD*%
D28*
%TO.C,C35*%
X19480000Y76160000D03*
X21030000Y76160000D03*
%TD*%
D29*
%TO.C,C14*%
X35660000Y80215000D03*
X35660000Y79255000D03*
%TD*%
D30*
%TO.C,C8162*%
X-42090000Y33870000D03*
X-42090000Y35420000D03*
%TD*%
D31*
%TO.C,R771*%
X-18780000Y95050000D03*
X-18780000Y96875000D03*
%TD*%
D24*
%TO.C,R8142*%
X6880000Y35220000D03*
X7900000Y35220000D03*
%TD*%
D32*
%TO.C,R753*%
X43210000Y93810000D03*
X43210000Y92160000D03*
%TD*%
D33*
%TO.C,H2*%
X-63795160Y20095220D03*
%TD*%
D34*
%TO.C,R51*%
X-6995160Y135610000D03*
X-6995160Y134590000D03*
%TD*%
D28*
%TO.C,C782*%
X-47165000Y98260000D03*
X-45615000Y98260000D03*
%TD*%
D35*
%TO.C,D61*%
X-19220000Y133500000D03*
X-20320000Y133500000D03*
%TD*%
D24*
%TO.C,R8101*%
X14480000Y62140000D03*
X15500000Y62140000D03*
%TD*%
D28*
%TO.C,C410*%
X3565000Y80690000D03*
X5115000Y80690000D03*
%TD*%
D24*
%TO.C,R891*%
X44470000Y62140000D03*
X45490000Y62140000D03*
%TD*%
D32*
%TO.C,R793*%
X43210000Y63790000D03*
X43210000Y62140000D03*
%TD*%
D36*
%TO.C,U111*%
X-15950000Y82730000D03*
X-15950000Y83230000D03*
X-15950000Y83730000D03*
X-15950000Y84230000D03*
X-15950000Y84730000D03*
D37*
X-18750000Y84730000D03*
X-18750000Y84230000D03*
X-18750000Y83730000D03*
X-18750000Y83230000D03*
X-18750000Y82730000D03*
D38*
X-17350000Y82780000D03*
X-17930000Y83730000D03*
D39*
X-17350000Y83730000D03*
D38*
X-16770000Y83730000D03*
X-17350000Y84680000D03*
%TD*%
D23*
%TO.C,R132*%
X50085000Y81910000D03*
X49065000Y81910000D03*
%TD*%
D40*
%TO.C,C49*%
X4410000Y82860000D03*
X3450000Y82860000D03*
%TD*%
D23*
%TO.C,R742*%
X-49450000Y126470000D03*
X-50470000Y126470000D03*
%TD*%
D41*
%TO.C,JP111*%
X-15690000Y86780000D03*
X-14390000Y86780000D03*
%TD*%
D30*
%TO.C,C892*%
X47920000Y63860000D03*
X47920000Y65410000D03*
%TD*%
D42*
%TO.C,U41*%
X12080000Y78780000D03*
X13030000Y78780000D03*
X13980000Y78780000D03*
X13980000Y81380000D03*
X12080000Y81380000D03*
%TD*%
D43*
%TO.C,R121*%
X-33650000Y126960000D03*
X-33650000Y127980000D03*
%TD*%
D24*
%TO.C,R111*%
X-16650000Y78250000D03*
X-15630000Y78250000D03*
%TD*%
D27*
%TO.C,C7142*%
X9645000Y31950000D03*
X8095000Y31950000D03*
%TD*%
D31*
%TO.C,R7141*%
X11320000Y35180000D03*
X11320000Y37005000D03*
%TD*%
D24*
%TO.C,R8121*%
X-45540000Y62150000D03*
X-44520000Y62150000D03*
%TD*%
D23*
%TO.C,R782*%
X-49510000Y96400000D03*
X-50530000Y96400000D03*
%TD*%
%TO.C,R45*%
X4460000Y83970000D03*
X3440000Y83970000D03*
%TD*%
D34*
%TO.C,R133*%
X51980000Y84180000D03*
X51980000Y83160000D03*
%TD*%
D44*
%TO.C,U131*%
X50810000Y84090000D03*
X51210000Y84090000D03*
X50810000Y83690000D03*
X51210000Y83690000D03*
X50810000Y83290000D03*
X51210000Y83290000D03*
%TD*%
D45*
%TO.C,C124*%
X-37725000Y127185000D03*
X-37725000Y126184990D03*
%TD*%
D29*
%TO.C,C95*%
X-8950000Y81700000D03*
X-8950000Y80740000D03*
%TD*%
D46*
%TO.C,C128*%
X-30475000Y132760000D03*
X-29474990Y132760000D03*
%TD*%
D47*
%TO.C,L123*%
X-33590000Y141990000D03*
X-33590000Y141020000D03*
%TD*%
D30*
%TO.C,C8152*%
X-12130000Y33860000D03*
X-12130000Y35410000D03*
%TD*%
D23*
%TO.C,R752*%
X40540000Y96470000D03*
X39520000Y96470000D03*
%TD*%
D34*
%TO.C,R52*%
X-5945160Y135610000D03*
X-5945160Y134590000D03*
%TD*%
D44*
%TO.C,U7101*%
X12800000Y65940000D03*
X13200000Y65940000D03*
X13600000Y65940000D03*
X12800000Y65540000D03*
X13200000Y65540000D03*
X13600000Y65540000D03*
X12800000Y65140000D03*
X13200000Y65140000D03*
X13600000Y65140000D03*
%TD*%
D35*
%TO.C,D63*%
X-19230000Y134760000D03*
X-20330000Y134760000D03*
%TD*%
D30*
%TO.C,C21*%
X-22160000Y77825000D03*
X-22160000Y79375000D03*
%TD*%
D23*
%TO.C,R8131*%
X38120000Y38100000D03*
X37100000Y38100000D03*
%TD*%
D31*
%TO.C,R7131*%
X41380000Y35160000D03*
X41380000Y36985000D03*
%TD*%
D32*
%TO.C,R733*%
X-16780000Y123800000D03*
X-16780000Y122150000D03*
%TD*%
D48*
%TO.C,U92*%
X-1242500Y52400000D03*
X-1892500Y52400000D03*
X-2542500Y52400000D03*
X-3202500Y52400000D03*
X-3852500Y52400000D03*
X-4502500Y52400000D03*
X-5152500Y52400000D03*
X-5802500Y52400000D03*
X-5802500Y46660000D03*
X-5152500Y46660000D03*
X-4502500Y46660000D03*
X-3852500Y46660000D03*
X-3202500Y46660000D03*
X-2542500Y46660000D03*
X-1892500Y46660000D03*
X-1242500Y46660000D03*
%TD*%
D24*
%TO.C,R7132*%
X42050000Y33790000D03*
X43070000Y33790000D03*
%TD*%
%TO.C,R881*%
X-45580000Y92090000D03*
X-44560000Y92090000D03*
%TD*%
D27*
%TO.C,C111*%
X-14060000Y81040000D03*
X-15610000Y81040000D03*
%TD*%
D46*
%TO.C,C61*%
X-27816180Y133349760D03*
X-26816170Y133349760D03*
%TD*%
D49*
%TO.C,FL51*%
X364840Y134300000D03*
X-1105160Y134300000D03*
%TD*%
D23*
%TO.C,R44*%
X12110000Y82840000D03*
X11090000Y82840000D03*
%TD*%
D24*
%TO.C,R134*%
X51930000Y81910000D03*
X52950000Y81910000D03*
%TD*%
D33*
%TO.C,H3*%
X56204840Y140095220D03*
%TD*%
D50*
%TO.C,R741*%
X-48780000Y125100000D03*
X-48780000Y123275000D03*
%TD*%
D23*
%TO.C,R7152*%
X-19510000Y36450000D03*
X-20530000Y36450000D03*
%TD*%
%TO.C,R871*%
X-22040000Y97990000D03*
X-23060000Y97990000D03*
%TD*%
D46*
%TO.C,C1212*%
X-36920800Y139916560D03*
X-35920800Y139916560D03*
%TD*%
D51*
%TO.C,FL11*%
X38020000Y80220000D03*
X39490000Y80220000D03*
%TD*%
D44*
%TO.C,U791*%
X42790000Y65940000D03*
X43190000Y65940000D03*
X43590000Y65940000D03*
X42790000Y65540000D03*
X43190000Y65540000D03*
X43590000Y65540000D03*
X42790000Y65140000D03*
X43190000Y65140000D03*
X43590000Y65140000D03*
%TD*%
D24*
%TO.C,R812*%
X36820000Y125140000D03*
X37840000Y125140000D03*
%TD*%
%TO.C,R8151*%
X-15580000Y32140000D03*
X-14560000Y32140000D03*
%TD*%
D44*
%TO.C,U781*%
X-47260000Y95890000D03*
X-46860000Y95890000D03*
X-46460000Y95890000D03*
X-47260000Y95490000D03*
X-46860000Y95490000D03*
X-46460000Y95490000D03*
X-47260000Y95090000D03*
X-46860000Y95090000D03*
X-46460000Y95090000D03*
%TD*%
D30*
%TO.C,C24*%
X-11290000Y87945000D03*
X-11290000Y89495000D03*
%TD*%
D28*
%TO.C,C752*%
X42885000Y98450000D03*
X44435000Y98450000D03*
%TD*%
D44*
%TO.C,U741*%
X-47200000Y125960000D03*
X-46800000Y125960000D03*
X-46400000Y125960000D03*
X-47200000Y125560000D03*
X-46800000Y125560000D03*
X-46400000Y125560000D03*
X-47200000Y125160000D03*
X-46800000Y125160000D03*
X-46400000Y125160000D03*
%TD*%
D40*
%TO.C,C7111*%
X-20770000Y63180000D03*
X-21730000Y63180000D03*
%TD*%
D46*
%TO.C,R63*%
X-28216180Y134249760D03*
X-27216170Y134249760D03*
%TD*%
D28*
%TO.C,C762*%
X12865000Y98430000D03*
X14415000Y98430000D03*
%TD*%
D52*
%TO.C,R65*%
X-25936170Y137699760D03*
X-26936180Y137699760D03*
%TD*%
D53*
%TO.C,ANT121*%
X-29140000Y142620000D03*
X-29140000Y143120000D03*
X-29540000Y143120000D03*
X-29540000Y142620000D03*
%TD*%
D27*
%TO.C,C52*%
X404840Y132750000D03*
X-1145160Y132750000D03*
%TD*%
D54*
%TO.C,X121*%
X-41752500Y137462500D03*
X-41752500Y136062500D03*
X-40652500Y136062500D03*
X-40652500Y137462500D03*
%TD*%
D29*
%TO.C,C13*%
X41870000Y80205000D03*
X41870000Y79245000D03*
%TD*%
D55*
%TO.C,U21*%
X-20660000Y77660000D03*
X-19360000Y77660000D03*
X-20010000Y79560000D03*
%TD*%
D56*
%TO.C,C1215*%
X-39025000Y137510000D03*
X-39025000Y138510000D03*
%TD*%
D46*
%TO.C,C1216*%
X-41695400Y138549200D03*
X-40695400Y138549200D03*
%TD*%
D23*
%TO.C,R8122*%
X-44360000Y65050000D03*
X-45380000Y65050000D03*
%TD*%
D43*
%TO.C,R131*%
X50040000Y82800000D03*
X50040000Y83820000D03*
%TD*%
D23*
%TO.C,R8152*%
X-14400000Y35040000D03*
X-15420000Y35040000D03*
%TD*%
D28*
%TO.C,C742*%
X-47105000Y128450000D03*
X-45555000Y128450000D03*
%TD*%
D57*
%TO.C,R7143*%
X9320000Y36470000D03*
X9320000Y38120000D03*
%TD*%
D24*
%TO.C,R772*%
X-18110000Y93680000D03*
X-17090000Y93680000D03*
%TD*%
D58*
%TO.C,C741*%
X-46820000Y127130000D03*
X-45860000Y127130000D03*
%TD*%
D27*
%TO.C,C112*%
X-14070000Y79580000D03*
X-15620000Y79580000D03*
%TD*%
D24*
%TO.C,R114*%
X-22080000Y85430000D03*
X-21060000Y85430000D03*
%TD*%
D23*
%TO.C,R821*%
X8050000Y128280000D03*
X7030000Y128280000D03*
%TD*%
D50*
%TO.C,R7101*%
X11220000Y65080000D03*
X11220000Y63255000D03*
%TD*%
D44*
%TO.C,U7131*%
X39800000Y34300000D03*
X39400000Y34300000D03*
X39000000Y34300000D03*
X39800000Y34700000D03*
X39400000Y34700000D03*
X39000000Y34700000D03*
X39800000Y35100000D03*
X39400000Y35100000D03*
X39000000Y35100000D03*
%TD*%
D23*
%TO.C,R842*%
X-44340000Y125060000D03*
X-45360000Y125060000D03*
%TD*%
D59*
%TO.C,JP112*%
X-14390000Y89290000D03*
X-15690000Y89290000D03*
%TD*%
D60*
%TO.C,C125*%
X-38825000Y127384990D03*
X-38825000Y126034990D03*
%TD*%
D61*
%TO.C,C131*%
X50020000Y85470000D03*
X50020000Y86430000D03*
%TD*%
D28*
%TO.C,C51*%
X-1145160Y135875000D03*
X404840Y135875000D03*
%TD*%
D45*
%TO.C,C122*%
X-34730000Y126560000D03*
X-34730000Y125560000D03*
%TD*%
D30*
%TO.C,C8122*%
X-42090000Y64640000D03*
X-42090000Y66190000D03*
%TD*%
D44*
%TO.C,U7151*%
X-17260000Y35940000D03*
X-16860000Y35940000D03*
X-16460000Y35940000D03*
X-17260000Y35540000D03*
X-16860000Y35540000D03*
X-16460000Y35540000D03*
X-17260000Y35140000D03*
X-16860000Y35140000D03*
X-16460000Y35140000D03*
%TD*%
D24*
%TO.C,R822*%
X6870000Y125380000D03*
X7890000Y125380000D03*
%TD*%
%TO.C,R851*%
X44470000Y92160000D03*
X45490000Y92160000D03*
%TD*%
D61*
%TO.C,C41*%
X10750000Y80400000D03*
X10750000Y81360000D03*
%TD*%
D34*
%TO.C,R102*%
X-14190000Y142250000D03*
X-14190000Y141230000D03*
%TD*%
D27*
%TO.C,C8121*%
X-43740000Y63850000D03*
X-45290000Y63850000D03*
%TD*%
D62*
%TO.C,TP2*%
X-22360000Y135240000D03*
%TD*%
D27*
%TO.C,C881*%
X-43780000Y93790000D03*
X-45330000Y93790000D03*
%TD*%
D30*
%TO.C,C842*%
X-42070000Y123880000D03*
X-42070000Y125430000D03*
%TD*%
D46*
%TO.C,C1211*%
X-36875400Y137061590D03*
X-35875400Y137061590D03*
%TD*%
D23*
%TO.C,R762*%
X10520000Y96450000D03*
X9500000Y96450000D03*
%TD*%
D63*
%TO.C,C126*%
X-30100000Y128709970D03*
X-28750000Y128709970D03*
%TD*%
D35*
%TO.C,D62*%
X-19200000Y138580000D03*
X-20300000Y138580000D03*
%TD*%
D27*
%TO.C,C114*%
X-17315000Y81040000D03*
X-18865000Y81040000D03*
%TD*%
D58*
%TO.C,C761*%
X13150000Y97110000D03*
X14110000Y97110000D03*
%TD*%
D28*
%TO.C,C94*%
X-2585000Y43900000D03*
X-1035000Y43900000D03*
%TD*%
D27*
%TO.C,C8101*%
X16280000Y63840000D03*
X14730000Y63840000D03*
%TD*%
D40*
%TO.C,C44*%
X12070000Y83820000D03*
X11110000Y83820000D03*
%TD*%
D64*
%TO.C,L121*%
X-35867400Y138008990D03*
X-35867400Y138958990D03*
%TD*%
D61*
%TO.C,C98*%
X-10220000Y83720000D03*
X-10220000Y84680000D03*
%TD*%
D25*
%TO.C,C812*%
X34550000Y126320000D03*
X34550000Y124770000D03*
%TD*%
D27*
%TO.C,C712*%
X39585000Y121750000D03*
X38035000Y121750000D03*
%TD*%
D25*
%TO.C,C42*%
X9440000Y81200000D03*
X9440000Y79650000D03*
%TD*%
D65*
%TO.C,U22*%
X-5130000Y86700000D03*
X-5130000Y87650000D03*
X-5130000Y88600000D03*
X-7330000Y88600000D03*
X-7330000Y86700000D03*
%TD*%
D23*
%TO.C,R101*%
X-13180000Y140120000D03*
X-14200000Y140120000D03*
%TD*%
D61*
%TO.C,C101*%
X-11050000Y141140000D03*
X-11050000Y142100000D03*
%TD*%
D50*
%TO.C,R751*%
X41210000Y95100000D03*
X41210000Y93275000D03*
%TD*%
D32*
%TO.C,R743*%
X-46780000Y123810000D03*
X-46780000Y122160000D03*
%TD*%
D45*
%TO.C,R66*%
X-27856180Y137139770D03*
X-27856180Y136139760D03*
%TD*%
D66*
%TO.C,U33*%
X20320000Y74390000D03*
X20320000Y74750000D03*
X20680000Y74390000D03*
X20680000Y74750000D03*
%TD*%
D58*
%TO.C,C93*%
X-2850000Y45090000D03*
X-1890000Y45090000D03*
%TD*%
D30*
%TO.C,C832*%
X-12070000Y123870000D03*
X-12070000Y125420000D03*
%TD*%
D67*
%TO.C,U11*%
X36190000Y83270000D03*
X37140000Y83270000D03*
X38090000Y83270000D03*
X38090000Y85470000D03*
X36190000Y85470000D03*
%TD*%
D44*
%TO.C,U771*%
X-20360000Y94190000D03*
X-20760000Y94190000D03*
X-21160000Y94190000D03*
X-20360000Y94590000D03*
X-20760000Y94590000D03*
X-21160000Y94590000D03*
X-20360000Y94990000D03*
X-20760000Y94990000D03*
X-21160000Y94990000D03*
%TD*%
D61*
%TO.C,C97*%
X-11250000Y83720000D03*
X-11250000Y84680000D03*
%TD*%
D50*
%TO.C,R7121*%
X-48800000Y65090000D03*
X-48800000Y63265000D03*
%TD*%
D58*
%TO.C,C751*%
X43170000Y97130000D03*
X44130000Y97130000D03*
%TD*%
D23*
%TO.C,R732*%
X-19450000Y126460000D03*
X-20470000Y126460000D03*
%TD*%
%TO.C,R8102*%
X15660000Y65040000D03*
X14640000Y65040000D03*
%TD*%
D27*
%TO.C,C23*%
X-9020000Y86380000D03*
X-10570000Y86380000D03*
%TD*%
D28*
%TO.C,C821*%
X6250000Y126580000D03*
X7800000Y126580000D03*
%TD*%
D68*
%TO.C,L1*%
X28900000Y75840000D03*
X28900000Y77840000D03*
%TD*%
D23*
%TO.C,R832*%
X-14340000Y125050000D03*
X-15360000Y125050000D03*
%TD*%
D44*
%TO.C,U7141*%
X9740000Y34320000D03*
X9340000Y34320000D03*
X8940000Y34320000D03*
X9740000Y34720000D03*
X9340000Y34720000D03*
X8940000Y34720000D03*
X9740000Y35120000D03*
X9340000Y35120000D03*
X8940000Y35120000D03*
%TD*%
D28*
%TO.C,C871*%
X-23840000Y96290000D03*
X-22290000Y96290000D03*
%TD*%
D27*
%TO.C,C831*%
X-13720000Y123850000D03*
X-15270000Y123850000D03*
%TD*%
%TO.C,C841*%
X-43720000Y123860000D03*
X-45270000Y123860000D03*
%TD*%
D28*
%TO.C,C36*%
X24090000Y70280000D03*
X25640000Y70280000D03*
%TD*%
D40*
%TO.C,C721*%
X9350000Y123310000D03*
X8390000Y123310000D03*
%TD*%
D50*
%TO.C,R7161*%
X-48800000Y35090000D03*
X-48800000Y33265000D03*
%TD*%
D24*
%TO.C,R831*%
X-15520000Y122150000D03*
X-14500000Y122150000D03*
%TD*%
D58*
%TO.C,C91*%
X-3100000Y105490000D03*
X-2140000Y105490000D03*
%TD*%
D30*
%TO.C,C862*%
X17900000Y93860000D03*
X17900000Y95410000D03*
%TD*%
D69*
%TO.C,U121*%
X-35100000Y132510000D03*
D70*
X-38350000Y131260000D03*
X-38350000Y131760000D03*
X-38350000Y132260000D03*
X-38350000Y132760000D03*
X-38350000Y133260000D03*
X-38350000Y133760000D03*
X-38350000Y134260000D03*
X-38350000Y134760000D03*
X-38350000Y135260000D03*
X-32850000Y135760000D03*
X-32600000Y129760000D03*
X-32350000Y130510000D03*
X-32350000Y131510000D03*
X-32350000Y132010000D03*
X-32350000Y132510000D03*
X-32350000Y133010000D03*
X-32350000Y133510000D03*
X-32350000Y134010000D03*
X-32350000Y134510000D03*
X-32350000Y135760000D03*
X-31850000Y129760000D03*
X-31850000Y130260000D03*
X-31850000Y130760000D03*
X-31850000Y131260000D03*
X-31850000Y131760000D03*
X-31850000Y132260000D03*
X-31850000Y132760000D03*
X-31850000Y133260000D03*
X-31850000Y133760000D03*
X-31850000Y134260000D03*
X-31850000Y134760000D03*
X-31850000Y135260000D03*
X-37850000Y129260000D03*
X-37850000Y130010000D03*
X-37850000Y130510000D03*
X-37850000Y131010000D03*
X-37850000Y131510000D03*
X-37850000Y132010000D03*
X-37850000Y132510000D03*
X-37850000Y133010000D03*
X-37850000Y133510000D03*
X-37850000Y134010000D03*
X-37850000Y135760000D03*
X-37350000Y129260000D03*
X-37100000Y129760000D03*
X-37100000Y135260000D03*
X-36850000Y135760000D03*
X-36600000Y129760000D03*
X-36600000Y135260000D03*
X-36350000Y129260000D03*
X-36100000Y129760000D03*
X-36100000Y135260000D03*
X-35850000Y129260000D03*
X-35850000Y135760000D03*
X-35600000Y129760000D03*
X-35350000Y129260000D03*
X-35350000Y135760000D03*
X-35100000Y129760000D03*
X-34850000Y129260000D03*
X-34850000Y135760000D03*
X-34600000Y129760000D03*
X-34600000Y135260000D03*
X-34350000Y129260000D03*
X-34350000Y135760000D03*
X-34100000Y129760000D03*
X-34100000Y135260000D03*
X-33850000Y129260000D03*
X-33850000Y135760000D03*
X-33600000Y135260000D03*
X-33350000Y129260000D03*
X-33350000Y135760000D03*
X-33100000Y129760000D03*
X-33100000Y135260000D03*
%TD*%
D23*
%TO.C,R91*%
X-8070000Y83730000D03*
X-9090000Y83730000D03*
%TD*%
D25*
%TO.C,C822*%
X4600000Y126560000D03*
X4600000Y125010000D03*
%TD*%
D58*
%TO.C,C7121*%
X-46840000Y67030000D03*
X-45880000Y67030000D03*
%TD*%
%TO.C,C781*%
X-46880000Y96970000D03*
X-45920000Y96970000D03*
%TD*%
D40*
%TO.C,C43*%
X10080000Y82850000D03*
X9120000Y82850000D03*
%TD*%
D23*
%TO.C,R8162*%
X-44360000Y35050000D03*
X-45380000Y35050000D03*
%TD*%
D71*
%TO.C,X122*%
X-36240000Y125850000D03*
X-36240000Y124330000D03*
%TD*%
D72*
%TO.C,D51*%
X-2795160Y133000000D03*
D73*
X-2795160Y134700000D03*
X-4795160Y134700000D03*
X-4795160Y132800000D03*
%TD*%
D44*
%TO.C,U7111*%
X-20390000Y64260000D03*
X-20790000Y64260000D03*
X-21190000Y64260000D03*
X-20390000Y64660000D03*
X-20790000Y64660000D03*
X-21190000Y64660000D03*
X-20390000Y65060000D03*
X-20790000Y65060000D03*
X-21190000Y65060000D03*
%TD*%
D28*
%TO.C,C792*%
X42885000Y68310000D03*
X44435000Y68310000D03*
%TD*%
D61*
%TO.C,C47*%
X7030000Y82990000D03*
X7030000Y83950000D03*
%TD*%
D29*
%TO.C,C12*%
X36700000Y80215000D03*
X36700000Y79255000D03*
%TD*%
D74*
%TO.C,U93*%
X-5860000Y81150000D03*
X-5860000Y81800000D03*
X-5860000Y82450000D03*
X-7620000Y82450000D03*
X-7620000Y81800000D03*
X-7620000Y81150000D03*
%TD*%
D50*
%TO.C,R781*%
X-48840000Y95030000D03*
X-48840000Y93205000D03*
%TD*%
D57*
%TO.C,R7113*%
X-20810000Y66410000D03*
X-20810000Y68060000D03*
%TD*%
D42*
%TO.C,U42*%
X8180000Y84370000D03*
X9130000Y84370000D03*
X10080000Y84370000D03*
X10080000Y86970000D03*
X8180000Y86970000D03*
%TD*%
D28*
%TO.C,C8141*%
X6260000Y36420000D03*
X7810000Y36420000D03*
%TD*%
D30*
%TO.C,C22*%
X-17810000Y78045000D03*
X-17810000Y79595000D03*
%TD*%
D23*
%TO.C,R852*%
X45650000Y95060000D03*
X44630000Y95060000D03*
%TD*%
%TO.C,R882*%
X-44400000Y94990000D03*
X-45420000Y94990000D03*
%TD*%
D75*
%TO.C,D101*%
X-13060000Y141100000D03*
X-13060000Y142360000D03*
X-12220000Y142360000D03*
X-12220000Y141100000D03*
%TD*%
D40*
%TO.C,C7131*%
X39420000Y33220000D03*
X38460000Y33220000D03*
%TD*%
D29*
%TO.C,C11*%
X40830000Y80215000D03*
X40830000Y79255000D03*
%TD*%
D27*
%TO.C,C722*%
X9635000Y121990000D03*
X8085000Y121990000D03*
%TD*%
D57*
%TO.C,R773*%
X-20780000Y96340000D03*
X-20780000Y97990000D03*
%TD*%
D28*
%TO.C,C7122*%
X-47125000Y68320000D03*
X-45575000Y68320000D03*
%TD*%
D40*
%TO.C,C7141*%
X9360000Y33240000D03*
X8400000Y33240000D03*
%TD*%
D34*
%TO.C,R41*%
X12800000Y77220000D03*
X12800000Y76200000D03*
%TD*%
D23*
%TO.C,R32*%
X30570000Y74150000D03*
X29550000Y74150000D03*
%TD*%
D43*
%TO.C,R123*%
X-32550000Y126970000D03*
X-32550000Y127990000D03*
%TD*%
D46*
%TO.C,R64*%
X-27816180Y135189760D03*
X-26816170Y135189760D03*
%TD*%
D32*
%TO.C,R7163*%
X-46800000Y33800000D03*
X-46800000Y32150000D03*
%TD*%
D27*
%TO.C,C15*%
X37790000Y81800000D03*
X36240000Y81800000D03*
%TD*%
%TO.C,C891*%
X46270000Y63840000D03*
X44720000Y63840000D03*
%TD*%
D62*
%TO.C,TP1*%
X-22390000Y132720000D03*
%TD*%
D24*
%TO.C,R8161*%
X-45540000Y32150000D03*
X-44520000Y32150000D03*
%TD*%
D44*
%TO.C,U7161*%
X-47220000Y35950000D03*
X-46820000Y35950000D03*
X-46420000Y35950000D03*
X-47220000Y35550000D03*
X-46820000Y35550000D03*
X-46420000Y35550000D03*
X-47220000Y35150000D03*
X-46820000Y35150000D03*
X-46420000Y35150000D03*
%TD*%
D34*
%TO.C,R42*%
X13990000Y77210000D03*
X13990000Y76190000D03*
%TD*%
D23*
%TO.C,R862*%
X15630000Y95040000D03*
X14610000Y95040000D03*
%TD*%
D32*
%TO.C,R7123*%
X-46800000Y63800000D03*
X-46800000Y62150000D03*
%TD*%
D27*
%TO.C,C772*%
X-20455000Y91820000D03*
X-22005000Y91820000D03*
%TD*%
D23*
%TO.C,R125*%
X-31680000Y142000000D03*
X-32700000Y142000000D03*
%TD*%
D56*
%TO.C,C1213*%
X-33100000Y137909970D03*
X-33100000Y138909970D03*
%TD*%
D58*
%TO.C,C7161*%
X-46840000Y37030000D03*
X-45880000Y37030000D03*
%TD*%
D28*
%TO.C,C7152*%
X-17165000Y38310000D03*
X-15615000Y38310000D03*
%TD*%
D25*
%TO.C,C33*%
X28400000Y73910000D03*
X28400000Y72360000D03*
%TD*%
D58*
%TO.C,C7101*%
X13180000Y67020000D03*
X14140000Y67020000D03*
%TD*%
D44*
%TO.C,U711*%
X39680000Y124240000D03*
X39280000Y124240000D03*
X38880000Y124240000D03*
X39680000Y124640000D03*
X39280000Y124640000D03*
X38880000Y124640000D03*
X39680000Y125040000D03*
X39280000Y125040000D03*
X38880000Y125040000D03*
%TD*%
D24*
%TO.C,R113*%
X-22080000Y84490000D03*
X-21060000Y84490000D03*
%TD*%
D40*
%TO.C,C771*%
X-20740000Y93110000D03*
X-21700000Y93110000D03*
%TD*%
D76*
%TO.C,U132*%
X50760000Y81985000D03*
X50760000Y82485000D03*
X51260000Y81985000D03*
X51260000Y82485000D03*
%TD*%
D28*
%TO.C,C732*%
X-17105000Y128440000D03*
X-15555000Y128440000D03*
%TD*%
D27*
%TO.C,C7132*%
X39705000Y31930000D03*
X38155000Y31930000D03*
%TD*%
D25*
%TO.C,C96*%
X-10400000Y81645000D03*
X-10400000Y80095000D03*
%TD*%
D56*
%TO.C,C1210*%
X-39650000Y134735000D03*
X-39650000Y135735000D03*
%TD*%
D50*
%TO.C,R791*%
X41210000Y65080000D03*
X41210000Y63255000D03*
%TD*%
D27*
%TO.C,C851*%
X46270000Y93860000D03*
X44720000Y93860000D03*
%TD*%
D25*
%TO.C,C8112*%
X-25520000Y66340000D03*
X-25520000Y64790000D03*
%TD*%
D28*
%TO.C,C8111*%
X-23870000Y66360000D03*
X-22320000Y66360000D03*
%TD*%
D23*
%TO.C,R892*%
X45650000Y65040000D03*
X44630000Y65040000D03*
%TD*%
%TO.C,R7162*%
X-49470000Y36460000D03*
X-50490000Y36460000D03*
%TD*%
D24*
%TO.C,R7142*%
X11990000Y33810000D03*
X13010000Y33810000D03*
%TD*%
D60*
%TO.C,C129*%
X-40075000Y130835000D03*
X-40075000Y129485000D03*
%TD*%
D25*
%TO.C,C48*%
X5710000Y83680000D03*
X5710000Y82130000D03*
%TD*%
D28*
%TO.C,C811*%
X36200000Y126340000D03*
X37750000Y126340000D03*
%TD*%
%TO.C,C92*%
X-2820000Y104290000D03*
X-1270000Y104290000D03*
%TD*%
D33*
%TO.C,H4*%
X56204840Y20095220D03*
%TD*%
D24*
%TO.C,R861*%
X14450000Y92140000D03*
X15470000Y92140000D03*
%TD*%
D32*
%TO.C,R763*%
X13190000Y93790000D03*
X13190000Y92140000D03*
%TD*%
D48*
%TO.C,U91*%
X-1150000Y112780000D03*
X-1800000Y112780000D03*
X-2450000Y112780000D03*
X-3110000Y112780000D03*
X-3760000Y112780000D03*
X-4410000Y112780000D03*
X-5060000Y112780000D03*
X-5710000Y112780000D03*
X-5710000Y107040000D03*
X-5060000Y107040000D03*
X-4410000Y107040000D03*
X-3760000Y107040000D03*
X-3110000Y107040000D03*
X-2450000Y107040000D03*
X-1800000Y107040000D03*
X-1150000Y107040000D03*
%TD*%
D27*
%TO.C,C8161*%
X-43740000Y33850000D03*
X-45290000Y33850000D03*
%TD*%
D24*
%TO.C,R722*%
X11980000Y123970000D03*
X13000000Y123970000D03*
%TD*%
D31*
%TO.C,R721*%
X11310000Y125340000D03*
X11310000Y127165000D03*
%TD*%
D23*
%TO.C,R43*%
X13970000Y82840000D03*
X12950000Y82840000D03*
%TD*%
D44*
%TO.C,U731*%
X-17200000Y125950000D03*
X-16800000Y125950000D03*
X-16400000Y125950000D03*
X-17200000Y125550000D03*
X-16800000Y125550000D03*
X-16400000Y125550000D03*
X-17200000Y125150000D03*
X-16800000Y125150000D03*
X-16400000Y125150000D03*
%TD*%
D58*
%TO.C,C7151*%
X-16880000Y37020000D03*
X-15920000Y37020000D03*
%TD*%
D25*
%TO.C,C8142*%
X4610000Y36400000D03*
X4610000Y34850000D03*
%TD*%
D28*
%TO.C,C8131*%
X36320000Y36400000D03*
X37870000Y36400000D03*
%TD*%
D25*
%TO.C,C872*%
X-25490000Y96270000D03*
X-25490000Y94720000D03*
%TD*%
D44*
%TO.C,U7121*%
X-47220000Y65950000D03*
X-46820000Y65950000D03*
X-46420000Y65950000D03*
X-47220000Y65550000D03*
X-46820000Y65550000D03*
X-46420000Y65550000D03*
X-47220000Y65150000D03*
X-46820000Y65150000D03*
X-46420000Y65150000D03*
%TD*%
D27*
%TO.C,C861*%
X16250000Y93840000D03*
X14700000Y93840000D03*
%TD*%
D23*
%TO.C,R8111*%
X-22070000Y68060000D03*
X-23090000Y68060000D03*
%TD*%
D30*
%TO.C,C882*%
X-42130000Y93810000D03*
X-42130000Y95360000D03*
%TD*%
D57*
%TO.C,R7133*%
X39380000Y36450000D03*
X39380000Y38100000D03*
%TD*%
D47*
%TO.C,L122*%
X-30770000Y141870000D03*
X-30770000Y140900000D03*
%TD*%
D77*
%TO.C,U32*%
X26630000Y71810000D03*
X26630000Y72760000D03*
X26630000Y73710000D03*
X24030000Y73710000D03*
X24030000Y71810000D03*
%TD*%
D23*
%TO.C,R811*%
X38000000Y128040000D03*
X36980000Y128040000D03*
%TD*%
D30*
%TO.C,C852*%
X47920000Y93880000D03*
X47920000Y95430000D03*
%TD*%
D23*
%TO.C,R7102*%
X10550000Y66450000D03*
X9530000Y66450000D03*
%TD*%
D32*
%TO.C,R7103*%
X13220000Y63790000D03*
X13220000Y62140000D03*
%TD*%
D31*
%TO.C,R7111*%
X-18810000Y65120000D03*
X-18810000Y66945000D03*
%TD*%
D46*
%TO.C,C121*%
X-36750000Y127060000D03*
X-35750000Y127060000D03*
%TD*%
D28*
%TO.C,C16*%
X36265000Y86680000D03*
X37815000Y86680000D03*
%TD*%
D78*
%TO.C,SW11*%
X56129840Y82645220D03*
X56129840Y80145220D03*
X56129840Y77645220D03*
D79*
X59204840Y83545220D03*
X59204840Y76745220D03*
%TD*%
D57*
%TO.C,R713*%
X39260000Y126390000D03*
X39260000Y128040000D03*
%TD*%
D25*
%TO.C,C34*%
X22470000Y75280000D03*
X22470000Y73730000D03*
%TD*%
D32*
%TO.C,R7153*%
X-16840000Y33790000D03*
X-16840000Y32140000D03*
%TD*%
D28*
%TO.C,C7162*%
X-47125000Y38320000D03*
X-45575000Y38320000D03*
%TD*%
%TO.C,C32*%
X31055000Y76020000D03*
X32605000Y76020000D03*
%TD*%
D63*
%TO.C,C123*%
X-30824990Y127524600D03*
X-29474990Y127524600D03*
%TD*%
D23*
%TO.C,R31*%
X29760000Y79460000D03*
X28740000Y79460000D03*
%TD*%
D50*
%TO.C,R761*%
X11190000Y95080000D03*
X11190000Y93255000D03*
%TD*%
D52*
%TO.C,C1217*%
X-40695410Y134993200D03*
X-41695410Y134993200D03*
%TD*%
D61*
%TO.C,C45*%
X6850000Y86010000D03*
X6850000Y86970000D03*
%TD*%
D24*
%TO.C,R7112*%
X-18140000Y63750000D03*
X-17120000Y63750000D03*
%TD*%
D61*
%TO.C,C132*%
X50940000Y85470000D03*
X50940000Y86430000D03*
%TD*%
D46*
%TO.C,C1214*%
X-30475000Y135535000D03*
X-29474990Y135535000D03*
%TD*%
D24*
%TO.C,R841*%
X-45520000Y122160000D03*
X-44500000Y122160000D03*
%TD*%
D80*
%TO.C,U31*%
X32270000Y77430000D03*
X32270000Y77930000D03*
X32270000Y78430000D03*
X32270000Y78930000D03*
X30910000Y78930000D03*
X30910000Y78430000D03*
X30910000Y77930000D03*
X30910000Y77430000D03*
%TD*%
D63*
%TO.C,C127*%
X-30100000Y129884970D03*
X-28750000Y129884970D03*
%TD*%
D43*
%TO.C,R124*%
X-32930000Y125100000D03*
X-32930000Y126120000D03*
%TD*%
D30*
%TO.C,C8102*%
X17930000Y63410000D03*
X17930000Y64960000D03*
%TD*%
D33*
%TO.C,H1*%
X-63795160Y140095220D03*
%TD*%
D25*
%TO.C,C31*%
X33890000Y79110000D03*
X33890000Y77560000D03*
%TD*%
D24*
%TO.C,R8112*%
X-23250000Y65160000D03*
X-22230000Y65160000D03*
%TD*%
D28*
%TO.C,C7102*%
X12895000Y68310000D03*
X14445000Y68310000D03*
%TD*%
D46*
%TO.C,R61*%
X-29896180Y136789760D03*
X-28896170Y136789760D03*
%TD*%
D23*
%TO.C,R792*%
X40540000Y66450000D03*
X39520000Y66450000D03*
%TD*%
D58*
%TO.C,C731*%
X-16820000Y127120000D03*
X-15860000Y127120000D03*
%TD*%
D57*
%TO.C,R723*%
X9310000Y126630000D03*
X9310000Y128280000D03*
%TD*%
D24*
%TO.C,R112*%
X-22080000Y83550000D03*
X-21060000Y83550000D03*
%TD*%
D44*
%TO.C,U751*%
X42790000Y95960000D03*
X43190000Y95960000D03*
X43590000Y95960000D03*
X42790000Y95560000D03*
X43190000Y95560000D03*
X43590000Y95560000D03*
X42790000Y95160000D03*
X43190000Y95160000D03*
X43590000Y95160000D03*
%TD*%
D40*
%TO.C,C711*%
X39300000Y123070000D03*
X38340000Y123070000D03*
%TD*%
D50*
%TO.C,R7151*%
X-18840000Y35080000D03*
X-18840000Y33255000D03*
%TD*%
D58*
%TO.C,C791*%
X43170000Y67020000D03*
X44130000Y67020000D03*
%TD*%
D27*
%TO.C,C8151*%
X-13780000Y33840000D03*
X-15330000Y33840000D03*
%TD*%
D44*
%TO.C,U721*%
X9730000Y124480000D03*
X9330000Y124480000D03*
X8930000Y124480000D03*
X9730000Y124880000D03*
X9330000Y124880000D03*
X8930000Y124880000D03*
X9730000Y125280000D03*
X9330000Y125280000D03*
X8930000Y125280000D03*
%TD*%
D24*
%TO.C,R115*%
X-22080000Y82610000D03*
X-21060000Y82610000D03*
%TD*%
D58*
%TO.C,C113*%
X-14670000Y82870000D03*
X-13710000Y82870000D03*
%TD*%
D62*
%TO.C,TP3*%
X-22350000Y137780000D03*
%TD*%
D81*
%TO.C,J51*%
X-905161Y138670700D03*
X-6685159Y138670700D03*
D82*
X-434867Y137579700D03*
X-1239793Y137579700D03*
D83*
X-2544845Y137579700D03*
X-3545097Y137579700D03*
X-4045223Y137579700D03*
X-2044719Y137579700D03*
D82*
X-6350527Y137579700D03*
X-7155453Y137579700D03*
X-6850653Y137579700D03*
X-6045727Y137579700D03*
D83*
X-5545601Y137579700D03*
X-4545349Y137579700D03*
X-3044971Y137579700D03*
X-5045475Y137579700D03*
D82*
X-1544593Y137579700D03*
X-739667Y137579700D03*
D84*
X524842Y138170700D03*
D85*
X524872Y142320700D03*
D84*
X-8115162Y138170700D03*
D85*
X-8115192Y142320700D03*
%TD*%
D44*
%TO.C,U761*%
X12770000Y95940000D03*
X13170000Y95940000D03*
X13570000Y95940000D03*
X12770000Y95540000D03*
X13170000Y95540000D03*
X13570000Y95540000D03*
X12770000Y95140000D03*
X13170000Y95140000D03*
X13570000Y95140000D03*
%TD*%
D24*
%TO.C,R8132*%
X36940000Y35200000D03*
X37960000Y35200000D03*
%TD*%
D25*
%TO.C,C46*%
X5500000Y86970000D03*
X5500000Y85420000D03*
%TD*%
D31*
%TO.C,R711*%
X41260000Y125100000D03*
X41260000Y126925000D03*
%TD*%
D23*
%TO.C,R21*%
X-8740000Y88510000D03*
X-9760000Y88510000D03*
%TD*%
D43*
%TO.C,R122*%
X-34690000Y127480000D03*
X-34690000Y128500000D03*
%TD*%
D32*
%TO.C,R783*%
X-46840000Y93740000D03*
X-46840000Y92090000D03*
%TD*%
D50*
%TO.C,R731*%
X-18780000Y125090000D03*
X-18780000Y123265000D03*
%TD*%
D46*
%TO.C,R62*%
X-30496180Y137679760D03*
X-29496170Y137679760D03*
%TD*%
D24*
%TO.C,R712*%
X41930000Y123730000D03*
X42950000Y123730000D03*
%TD*%
D23*
%TO.C,R8141*%
X8060000Y38120000D03*
X7040000Y38120000D03*
%TD*%
%LPD*%
M02*
